<?xml version="1.0" encoding="utf-8"?>
<!-- Generator: Adobe Illustrator 15.1.0, SVG Export Plug-In  -->
<!DOCTYPE svg PUBLIC "-//W3C//DTD SVG 1.1//EN" "http://www.w3.org/Graphics/SVG/1.1/DTD/svg11.dtd" [
	<!ENTITY ns_flows "http://ns.adobe.com/Flows/1.0/">
]>
<svg version="1.1"
	 xmlns="http://www.w3.org/2000/svg" xmlns:xlink="http://www.w3.org/1999/xlink" xmlns:a="http://ns.adobe.com/AdobeSVGViewerExtensions/3.0/"
	 x="0px" y="0px" width="760px" height="535px" viewBox="0 0 760 535" enable-background="new 0 0 760 535" xml:space="preserve">
<defs>
</defs>
<path fill="#FDECDD" d="M760.16,177.031c-1.855-13.198-12.992-33.202-48.258-55.475C661.834,89.934,585.973,69.96,559.709,61.5
	c-29.342-9.453-86.25-28.021-215.299-45.736C233.335,0.515,190.36-4.653,142.104,4.626C93.847,13.907,25.174,136.405,8.47,174.969
	c-2.679,6.183-5.52,13.156-8.47,20.778v339.008c20.448-5.051,25.174-6.73,25.174-6.73l105.794-29.697
	c0,0,284.384-98.988,362.337-135.488c77.953-36.502,183.334-102.083,218.598-129.922
	C747.168,205.078,762.016,190.229,760.16,177.031"/>
</svg>
