<?xml version="1.0" standalone="no"?>
<!DOCTYPE svg PUBLIC "-//W3C//DTD SVG 1.1//EN" "http://www.w3.org/Graphics/SVG/1.1/DTD/svg11.dtd" >
<svg>
<metadata>
Created by FontForge 20120731 at Thu Aug  4 07:41:44 2016
 By www
Copyright 2003 International Typeface Corporation. All rights reserved. "ITC" and "Officina" are trademarks of International Typeface Corporation Registered in U.S. Patent and Trademark Office and may be registered in certain other jurisdictions.
</metadata>
<defs>
<font id="OfficinaDisplayITCStd-Regular" horiz-adv-x="737" >
  <font-face 
    font-family="Officina Display ITC Std"
    font-weight="400"
    font-stretch="normal"
    units-per-em="1000"
    panose-1="2 0 5 6 3 0 0 2 0 4"
    ascent="800"
    descent="-200"
    x-height="480"
    cap-height="686"
    bbox="-35 -230 1016 862"
    underline-thickness="50"
    underline-position="-50"
    stemh="68"
    stemv="75"
    unicode-range="U+0020-FB02"
  />
<missing-glyph horiz-adv-x="500" 
d="M12 0v665h475v-665h-475zM88 618l162 -243l161 243h-323zM60 575v-484c0 -1 161 242 161 242zM440 575l-162 -242l162 -243v485zM411 48l-161 242l-162 -242h323z" />
    <glyph glyph-name="f_i" unicode="fi" horiz-adv-x="470" 
d="M405 640c0 -28 -22 -53 -52 -53c-29 0 -53 24 -53 53c0 30 25 52 53 52c29 0 52 -23 52 -52zM390 0h-75v418h-160v-418h-75v418h-70v62h70v78c0 95 44 144 124 144c31 0 53 -10 66 -17l-10 -60c-12 6 -35 13 -53 13c-38 0 -52 -34 -52 -81v-77h235v-480z" />
    <glyph glyph-name="f_l" unicode="fl" horiz-adv-x="470" 
d="M390 0h-75v692l75 10v-702zM275 685l-10 -60c-12 6 -35 13 -53 13c-38 0 -57 -34 -57 -81v-77h100l-10 -62h-90v-418h-75v418h-70v62h70v78c0 95 49 144 129 144c31 0 53 -10 66 -17z" />
    <glyph glyph-name=".notdef" horiz-adv-x="500" 
d="M12 0v665h475v-665h-475zM88 618l162 -243l161 243h-323zM60 575v-484c0 -1 161 242 161 242zM440 575l-162 -242l162 -243v485zM411 48l-161 242l-162 -242h323z" />
    <glyph glyph-name="space" unicode=" " horiz-adv-x="200" 
 />
    <glyph glyph-name="exclam" unicode="!" horiz-adv-x="283" 
d="M189 686l-14 -483h-68l-15 483h97zM200 46c0 -33 -26 -59 -58 -59s-59 27 -59 59s26 59 59 59c32 0 58 -27 58 -59z" />
    <glyph glyph-name="quotedbl" unicode="&#x22;" horiz-adv-x="375" 
d="M298 649l-5 -224h-62l-6 224h73zM150 649l-6 -224h-61l-6 224h73z" />
    <glyph glyph-name="numbersign" unicode="#" horiz-adv-x="533" 
d="M493 480l-7 -70h-80l-19 -170h80l-7 -70h-81l-18 -170h-76l18 170h-108l-18 -170h-76l18 170h-79l8 70h79l19 170h-80l8 70h79l18 164h76l-18 -164h108l18 164h76l-18 -164h80zM330 410h-108l-19 -170h108z" />
    <glyph glyph-name="dollar" unicode="$" horiz-adv-x="452" 
d="M412 168c0 -101 -62 -161 -149 -178v-75h-62v70c-82 2 -153 39 -171 53l26 63c14 -8 82 -43 145 -49v254c-74 37 -151 78 -151 182c0 97 68 150 151 164v73h62v-70c58 -4 107 -27 135 -47l-26 -61c-21 14 -67 36 -109 41v-233c73 -36 149 -76 149 -187zM201 387v198
c-41 -9 -70 -33 -70 -89c0 -62 29 -89 70 -109zM333 160c0 55 -25 90 -70 115v-218c43 12 70 44 70 103z" />
    <glyph glyph-name="percent" unicode="%" horiz-adv-x="741" 
d="M701 168c0 -112 -51 -178 -137 -178c-82 0 -129 59 -129 163c0 113 51 178 138 178c81 0 128 -60 128 -163zM540 644l-268 -644h-71l270 644h69zM305 490c0 -112 -51 -178 -136 -178c-82 0 -129 59 -129 164c0 112 50 177 138 177c80 0 127 -60 127 -163zM635 163
c0 74 -22 113 -65 113c-44 0 -69 -43 -69 -119c0 -73 22 -112 64 -112c45 0 70 42 70 118zM239 485c0 74 -22 113 -64 113c-44 0 -69 -43 -69 -119c0 -73 23 -112 64 -112c44 0 69 42 69 118z" />
    <glyph glyph-name="ampersand" unicode="&#x26;" horiz-adv-x="608" 
d="M577 30l-58 -48l-70 81c-63 -53 -115 -73 -188 -73c-123 0 -205 71 -205 180c0 98 61 141 133 191c-62 73 -87 120 -87 175c0 93 72 160 174 160c90 0 150 -58 150 -146c0 -75 -40 -130 -136 -193l168 -190c27 44 31 88 31 144h70c0 -73 -14 -135 -57 -194zM356 543
c0 54 -35 91 -89 91c-55 0 -94 -39 -94 -90c0 -42 21 -79 79 -145c76 53 104 92 104 144zM409 110l-182 210c-71 -55 -92 -89 -92 -145c0 -75 50 -124 133 -124c53 0 96 19 141 59z" />
    <glyph glyph-name="quoteright" unicode="&#x2019;" horiz-adv-x="217" 
d="M164 686l-68 -233l-54 9l23 224h99z" />
    <glyph glyph-name="parenleft" unicode="(" horiz-adv-x="282" 
d="M265 -28l-44 -36c-86 90 -168 210 -168 416s82 326 168 417l44 -37c-58 -68 -134 -196 -134 -380c0 -185 75 -311 134 -380z" />
    <glyph glyph-name="parenright" unicode=")" horiz-adv-x="282" 
d="M229 352c0 -206 -82 -326 -168 -416l-44 36c59 69 134 196 134 380c0 186 -75 312 -134 380l44 37c86 -91 168 -211 168 -417z" />
    <glyph glyph-name="asterisk" unicode="*" horiz-adv-x="409" 
d="M368 508l-111 -44l65 -98l-42 -32l-75 88l-75 -88l-42 32l66 98l-113 44l16 50l113 -30l6 118h53l6 -119l117 31z" />
    <glyph glyph-name="plus" unicode="+" horiz-adv-x="475" 
d="M425 276h-150v-160h-75v160h-150v75h150v160h75v-160h150v-75z" />
    <glyph glyph-name="comma" unicode="," horiz-adv-x="256" 
d="M181 112l-68 -232l-53 9l23 223h98z" />
    <glyph glyph-name="hyphen" unicode="-" horiz-adv-x="339" 
d="M299 237h-260v72h260v-72z" />
    <glyph glyph-name="period" unicode="." horiz-adv-x="256" 
d="M187 46c0 -33 -26 -59 -58 -59s-60 27 -60 59s27 58 60 58c32 0 58 -26 58 -58z" />
    <glyph glyph-name="slash" unicode="/" horiz-adv-x="332" 
d="M310 688l-210 -688h-78l210 688h78z" />
    <glyph glyph-name="zero" unicode="0" horiz-adv-x="511" 
d="M461 328c0 -222 -65 -342 -207 -342c-141 0 -204 136 -204 329c0 215 79 342 214 342c127 0 197 -117 197 -329zM380 326c0 173 -41 260 -122 260c-80 0 -127 -98 -127 -265c0 -153 34 -264 124 -264c100 0 125 119 125 269z" />
    <glyph glyph-name="one" unicode="1" horiz-adv-x="371" 
d="M331 0h-266v66h100v489l-120 -68l-25 45l157 112h64v-578h90v-66z" />
    <glyph glyph-name="two" unicode="2" horiz-adv-x="464" 
d="M414 0h-361c0 85 14 149 43 202c28 50 69 90 127 130c59 40 110 73 110 148c0 65 -38 106 -98 106c-69 0 -98 -58 -117 -110l-68 20c27 91 81 161 190 161c107 0 174 -70 174 -181c0 -59 -22 -104 -63 -143c-38 -36 -93 -65 -134 -105c-47 -46 -68 -92 -76 -155h273v-73z
" />
    <glyph glyph-name="three" unicode="3" horiz-adv-x="460" 
d="M410 179c0 -116 -85 -193 -214 -193c-92 0 -139 24 -166 40l29 65c30 -14 75 -34 138 -34c84 0 132 46 132 125c0 81 -50 123 -146 123h-48v68h47c79 0 129 47 129 120c0 59 -38 98 -97 98c-57 0 -96 -42 -119 -69l-52 46c40 46 82 89 174 89c101 0 171 -66 171 -162
c0 -71 -34 -120 -103 -147c80 -25 125 -81 125 -169z" />
    <glyph glyph-name="four" unicode="4" horiz-adv-x="498" 
d="M468 142h-93v-142h-77v142h-268v70l254 442l82 -10l-255 -437h187l10 174h67v-174h93v-65z" />
    <glyph glyph-name="five" unicode="5" horiz-adv-x="488" 
d="M438 218c0 -140 -90 -232 -227 -232c-66 0 -121 12 -141 23l15 70c26 -9 64 -22 115 -22c56 0 96 14 119 42c24 28 38 71 38 117c0 80 -39 127 -104 127c-48 0 -88 -26 -125 -63l-55 18l33 346h317v-70h-253l-22 -203c42 31 76 43 120 43c101 0 170 -79 170 -196z" />
    <glyph glyph-name="six" unicode="6" horiz-adv-x="483" 
d="M433 224c0 -154 -79 -238 -193 -238c-127 0 -190 99 -190 274c0 242 108 397 276 397c41 0 67 -8 87 -17l-16 -64c-9 4 -40 16 -75 16c-121 0 -170 -117 -184 -219c41 47 76 65 127 65c102 0 168 -85 168 -214zM352 223c0 95 -39 146 -112 146c-69 0 -109 -52 -109 -144
c0 -108 39 -168 110 -168s111 59 111 166z" />
    <glyph glyph-name="seven" unicode="7" horiz-adv-x="426" 
d="M396 607l-235 -617l-82 10l223 572h-272v72h366v-37z" />
    <glyph glyph-name="eight" unicode="8" horiz-adv-x="520" 
d="M470 167c0 -115 -95 -181 -210 -181c-127 0 -210 71 -210 180c0 98 70 149 146 175c-80 33 -118 83 -118 155c0 105 87 161 184 161c106 0 179 -62 179 -152c0 -74 -34 -123 -113 -163c93 -36 142 -97 142 -175zM365 497c0 59 -41 96 -106 96c-61 0 -102 -38 -102 -94
c0 -51 33 -90 106 -126c72 32 102 69 102 124zM388 162c0 61 -38 102 -130 140c-64 -23 -126 -58 -126 -140c0 -66 52 -110 130 -110c74 0 126 46 126 110z" />
    <glyph glyph-name="nine" unicode="9" horiz-adv-x="480" 
d="M430 383c0 -247 -95 -397 -252 -397c-50 0 -80 8 -97 16l8 64c13 -3 40 -12 76 -12c105 0 160 67 184 226c-32 -53 -73 -77 -130 -77c-101 0 -169 89 -169 222c0 138 79 232 195 232c123 0 185 -92 185 -274zM349 432c0 100 -37 154 -107 154c-68 0 -111 -61 -111 -157
c0 -99 40 -158 108 -158c71 0 110 57 110 161z" />
    <glyph glyph-name="colon" unicode=":" horiz-adv-x="256" 
d="M187 420c0 -33 -26 -59 -58 -59s-60 27 -60 59s27 59 60 59c32 0 58 -27 58 -59zM187 46c0 -33 -26 -59 -58 -59s-60 27 -60 59s27 58 60 58c32 0 58 -26 58 -58z" />
    <glyph glyph-name="semicolon" unicode=";" horiz-adv-x="256" 
d="M187 420c0 -33 -26 -59 -58 -59s-60 27 -60 59s27 59 60 59c32 0 58 -27 58 -59zM181 113l-68 -233l-53 9l23 224h98z" />
    <glyph glyph-name="less" unicode="&#x3c;" horiz-adv-x="450" 
d="M400 116l-350 160v75l350 160v-80l-272 -117l272 -118v-80z" />
    <glyph glyph-name="equal" unicode="=" horiz-adv-x="450" 
d="M400 355h-350v75h350v-75zM400 197h-350v75h350v-75z" />
    <glyph glyph-name="greater" unicode="&#x3e;" horiz-adv-x="450" 
d="M400 276l-350 -160v80l273 118l-273 117v80l350 -160v-75z" />
    <glyph glyph-name="question" unicode="?" horiz-adv-x="406" 
d="M355 539c0 -89 -50 -142 -153 -170v-166h-65v212c93 24 142 48 142 122c0 58 -35 92 -105 92c-55 0 -97 -21 -121 -31l-23 59c34 17 77 38 152 38c109 0 173 -58 173 -156zM230 46c0 -33 -26 -59 -58 -59s-60 27 -60 59s27 59 60 59c32 0 58 -27 58 -59z" />
    <glyph glyph-name="at" unicode="@" horiz-adv-x="858" 
d="M809 345c0 -138 -71 -296 -222 -296c-57 0 -91 34 -93 91c-39 -58 -84 -90 -137 -90c-54 0 -86 52 -86 122c0 103 54 258 177 258c37 0 63 -19 83 -40l13 30h55l-51 -240c-9 -41 5 -79 49 -79c79 0 150 106 150 242c0 156 -120 255 -276 255c-216 0 -355 -165 -355 -396
c0 -193 108 -319 285 -319c104 0 181 28 251 66l22 -54c-88 -45 -167 -67 -281 -67c-209 0 -343 145 -343 370c0 262 164 455 420 455c197 0 339 -113 339 -308zM517 340c-17 19 -39 34 -73 34c-73 0 -105 -137 -105 -198c0 -40 14 -67 38 -67c52 0 103 62 121 144z" />
    <glyph glyph-name="A" unicode="A" horiz-adv-x="511" 
d="M501 0h-83l-58 207h-209l-58 -207h-83l201 686h90zM342 274l-86 310l-86 -310h172z" />
    <glyph glyph-name="B" unicode="B" horiz-adv-x="531" 
d="M481 189c0 -84 -43 -150 -114 -175c-32 -11 -61 -14 -129 -14h-157v686h175c69 0 104 -7 135 -27c40 -26 63 -76 63 -137c0 -75 -34 -133 -98 -163c34 -9 53 -16 72 -34c34 -30 53 -79 53 -136zM369 513c0 40 -8 68 -28 86c-18 15 -46 22 -86 22h-95v-239h74
c46 0 63 4 86 19c32 21 49 60 49 112zM396 192c0 50 -20 89 -56 109c-21 11 -49 16 -84 16h-96v-252h100c45 0 69 6 92 23c28 22 44 59 44 104z" />
    <glyph glyph-name="C" unicode="C" horiz-adv-x="453" 
d="M442 62c-31 -36 -78 -76 -167 -76c-146 0 -225 125 -225 364c0 159 42 350 223 350c81 0 134 -40 168 -78l-40 -50c-22 21 -68 63 -127 63c-90 0 -139 -94 -139 -276c0 -204 50 -308 144 -308c56 0 96 36 123 62z" />
    <glyph glyph-name="D" unicode="D" horiz-adv-x="534" 
d="M484 355c0 -167 -38 -274 -131 -324c-39 -21 -87 -31 -147 -31h-125v686h116c87 0 137 -12 178 -41c73 -51 109 -154 109 -290zM400 355c0 131 -25 207 -83 240c-27 15 -61 23 -115 23h-42v-550h52c76 0 107 15 140 59c33 45 48 118 48 228z" />
    <glyph glyph-name="E" unicode="E" horiz-adv-x="442" 
d="M413 0h-332v686h332l-10 -68h-243v-229h210v-65h-210v-256h253v-68z" />
    <glyph glyph-name="F" unicode="F" horiz-adv-x="440" 
d="M412 686l-9 -68h-243v-239h210v-64h-210v-315h-79v686h331z" />
    <glyph glyph-name="G" unicode="G" horiz-adv-x="531" 
d="M462 31c-38 -24 -94 -45 -172 -45c-156 0 -240 123 -240 354c0 234 91 360 241 360c81 0 128 -29 165 -57l-31 -60c-30 24 -76 52 -134 52c-94 0 -156 -89 -156 -284c0 -210 49 -300 168 -300c29 0 53 5 80 18v222h-91v66h170v-326z" />
    <glyph glyph-name="H" unicode="H" horiz-adv-x="579" 
d="M498 0h-79v322h-259v-322h-79v686h79v-297h259v297h79v-686z" />
    <glyph glyph-name="I" unicode="I" horiz-adv-x="241" 
d="M160 0h-79v686h79v-686z" />
    <glyph glyph-name="J" unicode="J" horiz-adv-x="305" 
d="M225 180c0 -115 -26 -194 -142 -194c-33 0 -57 8 -72 14l12 66c16 -7 35 -12 59 -12c45 0 64 50 64 121v511h79v-506z" />
    <glyph glyph-name="K" unicode="K" horiz-adv-x="478" 
d="M470 0l-83 -10l-217 361l218 345l82 -10l-212 -332zM160 0h-79v686h79v-686z" />
    <glyph glyph-name="L" unicode="L" horiz-adv-x="436" 
d="M418 68l-10 -68h-327v686h79v-618h258z" />
    <glyph glyph-name="M" unicode="M" horiz-adv-x="651" 
d="M581 0h-78l-18 550l-137 -389h-50l-133 388l-17 -549h-78l30 686h88l137 -400l137 400h89z" />
    <glyph glyph-name="N" unicode="N" horiz-adv-x="581" 
d="M500 0h-79l-264 552v-552h-76v686h89l254 -525v525h76v-686z" />
    <glyph glyph-name="O" unicode="O" horiz-adv-x="546" 
d="M497 344c0 -244 -80 -358 -229 -358c-142 0 -218 121 -218 353c0 239 78 361 231 361c140 0 216 -123 216 -356zM412 338c0 191 -33 297 -138 297c-101 0 -139 -94 -139 -290c0 -168 30 -294 138 -294c102 0 139 100 139 287z" />
    <glyph glyph-name="P" unicode="P" horiz-adv-x="478" 
d="M448 502c0 -87 -35 -150 -96 -183c-33 -18 -66 -25 -118 -25h-74v-294h-79v686h166c61 0 99 -7 125 -23c50 -29 76 -86 76 -161zM367 501c0 56 -18 93 -56 108c-17 7 -32 9 -71 9h-80v-259h68c50 0 72 5 96 25c28 24 43 64 43 117z" />
    <glyph glyph-name="Q" unicode="Q" horiz-adv-x="546" 
d="M526 -26l-72 -50s-83 78 -88 83c-29 -14 -61 -21 -98 -21c-142 0 -218 121 -218 353c0 239 78 361 231 361c140 0 216 -123 216 -356c0 -138 -26 -234 -75 -292c5 -4 104 -78 104 -78zM412 338c0 191 -33 297 -138 297c-101 0 -139 -94 -139 -290
c0 -168 30 -294 138 -294c102 0 139 100 139 287z" />
    <glyph glyph-name="R" unicode="R" horiz-adv-x="491" 
d="M479 0l-82 -10l-174 317h-63v-307h-79v686h166c60 0 109 -11 143 -37c36 -28 58 -72 58 -141c0 -111 -55 -174 -144 -194zM367 506c0 87 -45 112 -127 112h-80v-246h69c94 0 138 39 138 134z" />
    <glyph glyph-name="S" unicode="S" horiz-adv-x="469" 
d="M429 180c0 -116 -84 -194 -208 -194c-83 0 -143 24 -191 55l29 67c49 -30 106 -53 163 -53c75 0 124 45 124 115c0 62 -26 94 -125 151c-86 49 -166 90 -166 200c0 104 79 179 195 179c80 0 136 -25 168 -49l-26 -66c-40 25 -84 47 -143 47c-71 0 -112 -39 -112 -101
c0 -75 59 -103 124 -141c91 -53 168 -95 168 -210z" />
    <glyph glyph-name="T" unicode="T" horiz-adv-x="410" 
d="M418 686l-9 -67h-161v-619h-78v619h-160v67h408z" />
    <glyph glyph-name="U" unicode="U" horiz-adv-x="578" 
d="M497 187c0 -137 -78 -201 -215 -201c-134 0 -201 68 -201 201v499h78v-496c0 -97 38 -139 126 -139c87 0 135 47 135 139v496h77v-499z" />
    <glyph glyph-name="V" unicode="V" horiz-adv-x="471" 
d="M460 686l-176 -686h-98l-176 686l83 9l142 -587l143 587z" />
    <glyph glyph-name="W" unicode="W" horiz-adv-x="720" 
d="M713 686l-145 -686h-98l-110 531l-111 -531h-98l-145 686l85 10l110 -587l115 577h88l114 -577l111 586z" />
    <glyph glyph-name="X" unicode="X" horiz-adv-x="475" 
d="M464 0l-84 -10l-143 294l-143 -294l-83 10l182 359l-167 327l80 10l132 -265l128 264l82 -9l-167 -327z" />
    <glyph glyph-name="Y" unicode="Y" horiz-adv-x="462" 
d="M456 686l-186 -419v-267h-78v267l-186 419l83 10l142 -336l142 336z" />
    <glyph glyph-name="Z" unicode="Z" horiz-adv-x="424" 
d="M403 68l-9 -68h-370v64l279 554h-268l10 68h348v-59l-282 -559h292z" />
    <glyph glyph-name="bracketleft" unicode="[" horiz-adv-x="282" 
d="M267 -64h-183v832h183v-62h-111v-709h111v-61z" />
    <glyph glyph-name="backslash" unicode="\" horiz-adv-x="332" 
d="M310 0h-78l-210 688h78z" />
    <glyph glyph-name="bracketright" unicode="]" horiz-adv-x="282" 
d="M198 -64h-183v61h111v709h-111v62h183v-832z" />
    <glyph glyph-name="asciicircum" unicode="^" horiz-adv-x="405" 
d="M390 414h-73l-114 211l-115 -211h-73l151 272h73z" />
    <glyph glyph-name="underscore" unicode="_" horiz-adv-x="451" 
d="M451 -200h-451v71h451v-71z" />
    <glyph glyph-name="quoteleft" unicode="&#x2018;" horiz-adv-x="217" 
d="M178 686l-24 -224h-98l68 234z" />
    <glyph glyph-name="a" unicode="a" horiz-adv-x="454" 
d="M374 0h-65l-10 43c-24 -22 -65 -53 -132 -53c-81 0 -132 53 -132 137c0 114 87 171 264 174v33c0 64 -26 89 -92 89c-56 0 -110 -25 -131 -33l-21 59c30 15 77 42 163 42c106 0 156 -45 156 -140v-351zM299 110v129c-125 -1 -187 -36 -187 -106c0 -47 30 -80 73 -80
c35 0 70 18 114 57z" />
    <glyph glyph-name="b" unicode="b" horiz-adv-x="494" 
d="M444 272c0 -194 -59 -286 -182 -286c-60 0 -96 24 -118 41l-10 -27h-54v692l75 10v-257c52 36 88 49 133 49c103 0 156 -81 156 -222zM363 261c0 110 -27 166 -89 166c-37 0 -66 -12 -119 -49v-285c31 -27 64 -39 104 -39c72 0 104 64 104 207z" />
    <glyph glyph-name="c" unicode="c" horiz-adv-x="428" 
d="M400 51c-22 -25 -73 -65 -161 -65c-119 0 -189 91 -189 243c0 164 77 265 203 265c81 0 126 -40 147 -62l-33 -54c-20 17 -61 52 -112 52c-80 0 -123 -56 -123 -189c0 -135 39 -189 113 -189c47 0 86 23 121 53z" />
    <glyph glyph-name="d" unicode="d" horiz-adv-x="494" 
d="M414 0h-55l-10 44c-38 -27 -80 -58 -142 -58c-98 0 -157 97 -157 259c0 82 19 148 54 191c31 37 73 58 125 58c37 0 68 -9 110 -32v230l75 10v-702zM339 112v283c-42 24 -68 32 -102 32c-75 0 -106 -52 -106 -178c0 -138 27 -195 93 -195c38 0 71 17 115 58z" />
    <glyph glyph-name="e" unicode="e" horiz-adv-x="468" 
d="M428 223h-296c5 -109 51 -169 132 -169c60 0 98 26 129 43l27 -59c-23 -21 -81 -52 -162 -52c-127 0 -208 98 -208 253c0 156 77 255 197 255c81 0 139 -44 166 -120c11 -32 15 -73 15 -151zM350 285c-2 96 -39 148 -106 148s-107 -51 -111 -148h217z" />
    <glyph glyph-name="f" unicode="f" horiz-adv-x="265" 
d="M275 685l-10 -60c-12 6 -35 13 -53 13c-38 0 -57 -34 -57 -81v-77h100l-10 -62h-90v-418h-75v418h-70v62h70v78c0 95 49 144 129 144c31 0 53 -10 66 -17z" />
    <glyph glyph-name="g" unicode="g" horiz-adv-x="489" 
d="M429 470c-13 -31 -20 -91 -20 -125v-373c0 -116 -52 -177 -171 -177c-87 0 -143 31 -171 50l27 60c26 -14 80 -43 141 -43c73 0 99 36 99 109v93c-43 -34 -85 -51 -134 -51c-96 0 -155 85 -155 222c0 166 68 259 189 259c45 0 72 -10 114 -38c2 8 8 24 14 34zM334 130
v270c-40 20 -65 28 -94 28c-74 0 -114 -61 -114 -174c0 -122 26 -173 89 -173c37 0 69 13 119 49z" />
    <glyph glyph-name="h" unicode="h" horiz-adv-x="511" 
d="M431 0h-75v345c0 63 -17 84 -69 84c-40 0 -76 -17 -132 -63v-366h-75v692l75 10v-274c54 49 95 66 155 66c43 0 76 -13 96 -39c19 -25 25 -49 25 -112v-343z" />
    <glyph glyph-name="i" unicode="i" horiz-adv-x="235" 
d="M170 650c0 -28 -22 -53 -52 -53c-29 0 -53 24 -53 53c0 30 25 52 53 52c29 0 52 -23 52 -52zM155 0h-75v480h75v-480z" />
    <glyph glyph-name="j" unicode="j" horiz-adv-x="235" 
d="M170 650c0 -28 -22 -53 -52 -53c-29 0 -53 24 -53 53c0 30 25 52 53 52c29 0 52 -23 52 -52zM155 -46c0 -96 -33 -159 -119 -159c-36 0 -58 10 -71 16l15 64c12 -5 29 -13 49 -13c39 0 51 38 51 89v529h75v-526z" />
    <glyph glyph-name="k" unicode="k" horiz-adv-x="425" 
d="M415 0l-80 -10l-172 263l172 237l80 -10l-166 -226zM155 0h-75v692l75 10v-702z" />
    <glyph glyph-name="l" unicode="l" horiz-adv-x="235" 
d="M155 0h-75v692l75 10v-702z" />
    <glyph glyph-name="m" unicode="m" horiz-adv-x="714" 
d="M634 0h-75v356c0 50 -20 73 -64 73c-33 0 -55 -9 -101 -40v-389h-75v355c0 49 -21 74 -64 74c-33 0 -59 -11 -100 -43v-386h-75v345c0 34 -6 93 -20 125l67 20c10 -18 15 -35 18 -55c55 44 92 59 139 59c48 0 78 -19 95 -59c59 42 100 59 146 59c41 0 75 -17 91 -44
c13 -22 18 -49 18 -97v-353z" />
    <glyph glyph-name="n" unicode="n" horiz-adv-x="511" 
d="M431 0h-75v345c0 63 -17 84 -69 84c-40 0 -78 -16 -132 -63v-366h-75v345c0 34 -6 93 -20 125l67 20c10 -18 18 -45 20 -66c43 36 89 70 163 70c43 0 76 -13 96 -39c19 -25 25 -49 25 -112v-343z" />
    <glyph glyph-name="o" unicode="o" horiz-adv-x="488" 
d="M443 243c0 -162 -76 -257 -205 -257c-122 0 -193 93 -193 252c0 162 76 256 205 256c121 0 193 -94 193 -251zM362 244c0 123 -41 187 -119 187c-76 0 -117 -64 -117 -183c0 -118 27 -199 119 -199c84 0 117 74 117 195z" />
    <glyph glyph-name="p" unicode="p" horiz-adv-x="489" 
d="M439 250c0 -164 -63 -264 -166 -264c-41 0 -73 12 -118 44v-225l-75 -10v550c0 34 -6 93 -20 125l67 20c10 -18 16 -36 18 -51c54 41 90 55 140 55c57 0 99 -24 121 -69c22 -44 33 -105 33 -175zM358 248c0 60 -5 98 -15 127c-12 32 -40 52 -72 52
c-34 0 -62 -12 -116 -49v-282c47 -32 74 -42 109 -42c68 0 94 54 94 194z" />
    <glyph glyph-name="q" unicode="q" horiz-adv-x="490" 
d="M430 470c-13 -31 -20 -91 -20 -125v-540l-75 -10v250c-44 -41 -84 -59 -132 -59c-94 0 -153 95 -153 247c0 164 65 261 174 261c49 0 78 -10 124 -42c4 14 9 28 15 38zM335 111v278c-41 27 -72 38 -105 38c-65 0 -99 -63 -99 -185c0 -69 9 -119 27 -150
c13 -22 41 -38 65 -38c34 0 67 17 112 57z" />
    <glyph glyph-name="r" unicode="r" horiz-adv-x="300" 
d="M290 483l-13 -69c-7 3 -18 5 -33 5c-26 0 -71 -51 -89 -76v-343h-75v345c0 34 -6 93 -20 125l67 20c10 -18 21 -52 21 -76c35 48 62 80 104 80c18 0 29 -5 38 -11z" />
    <glyph glyph-name="s" unicode="s" horiz-adv-x="375" 
d="M340 128c0 -85 -64 -142 -159 -142c-69 0 -118 21 -156 44l25 59c41 -20 87 -39 133 -39c48 0 80 29 80 72c0 54 -52 71 -93 90c-63 30 -129 63 -129 143c0 81 63 139 152 139c66 0 104 -20 132 -39l-28 -57c-29 14 -59 32 -106 32c-48 0 -76 -25 -76 -67
c0 -53 47 -69 87 -88c69 -34 138 -57 138 -147z" />
    <glyph glyph-name="t" unicode="t" horiz-adv-x="265" 
d="M265 1c-18 -6 -49 -11 -73 -11c-82 0 -112 51 -112 136v292h-70v62h70v154l75 10v-164h100l-10 -62h-90v-292c0 -46 16 -71 50 -71c18 0 36 4 50 9z" />
    <glyph glyph-name="u" unicode="u" horiz-adv-x="508" 
d="M428 0h-55l-10 43c-52 -40 -93 -57 -146 -57c-38 0 -69 8 -91 25c-30 22 -46 59 -46 109v360l75 10v-320c0 -57 8 -89 28 -104c11 -9 25 -12 44 -12c41 0 88 19 126 51v375l75 10v-490z" />
    <glyph glyph-name="v" unicode="v" horiz-adv-x="435" 
d="M425 480l-165 -480h-85l-165 480l81 10l127 -406l126 406z" />
    <glyph glyph-name="w" unicode="w" horiz-adv-x="625" 
d="M620 480l-125 -480h-90l-92 392l-93 -392h-95l-120 480l83 10l86 -406l91 396h95l91 -396l86 406z" />
    <glyph glyph-name="x" unicode="x" horiz-adv-x="429" 
d="M419 0l-84 -10l-120 203l-121 -203l-84 10l155 251l-145 229l84 10l111 -187l110 187l84 -10l-144 -229z" />
    <glyph glyph-name="y" unicode="y" horiz-adv-x="435" 
d="M425 480l-156 -543c-23 -79 -60 -142 -138 -142c-56 0 -87 19 -110 35l28 55c23 -14 49 -27 77 -27c33 0 56 28 72 86l15 56h-38l-165 480l81 10l137 -436l115 436z" />
    <glyph glyph-name="z" unicode="z" horiz-adv-x="387" 
d="M362 65l-10 -65h-327v52l236 365h-226v63h317v-53l-233 -362h243z" />
    <glyph glyph-name="braceleft" unicode="{" horiz-adv-x="278" 
d="M266 -64h-56c-92 0 -128 53 -128 128v178c0 37 -13 69 -56 77v66c42 8 56 39 56 77v178c0 74 36 128 128 128h56v-62h-47c-49 0 -65 -26 -65 -76v-168c0 -58 -15 -90 -62 -110c46 -20 62 -53 62 -110v-169c0 -49 16 -76 65 -76h47v-61z" />
    <glyph glyph-name="bar" unicode="|" horiz-adv-x="242" 
d="M160 -80h-78v849h78v-849z" />
    <glyph glyph-name="braceright" unicode="}" horiz-adv-x="278" 
d="M253 319c-43 -8 -57 -40 -57 -77v-178c0 -75 -35 -128 -128 -128h-56v61h47c49 0 65 26 65 76v169c0 57 15 90 62 110c-46 20 -62 52 -62 110v168c0 49 -16 76 -65 76h-47v62h56c93 0 128 -54 128 -128v-178c0 -38 14 -69 57 -77v-66z" />
    <glyph glyph-name="asciitilde" unicode="~" horiz-adv-x="416" 
d="M376 310c-20 -51 -51 -91 -100 -91c-53 0 -95 41 -134 41c-27 0 -40 -23 -51 -46l-51 24c16 49 50 94 101 94c60 0 92 -41 131 -41c28 0 39 19 52 42z" />
    <glyph glyph-name="exclamdown" unicode="&#xa1;" horiz-adv-x="283" 
d="M200 640c0 -32 -26 -59 -58 -59c-33 0 -59 27 -59 59s27 59 59 59s58 -26 58 -59zM190 0h-97l14 482h68z" />
    <glyph glyph-name="cent" unicode="&#xa2;" horiz-adv-x="430" 
d="M410 51c-19 -22 -58 -54 -124 -63v-73h-62v72c-105 12 -174 101 -174 242c0 146 69 243 174 262v73h62v-71c72 -6 105 -41 124 -61l-33 -56c-17 15 -50 42 -91 49v-367c34 7 63 26 90 49zM224 59v362c-56 -19 -90 -80 -90 -180c0 -107 34 -167 90 -182z" />
    <glyph glyph-name="sterling" unicode="&#xa3;" horiz-adv-x="429" 
d="M409 606l-30 -60c-18 13 -61 45 -118 45c-74 0 -106 -55 -106 -122v-96h170v-65h-170v-243h250l-10 -65h-375v65h60v243h-60v65h60v93c0 108 51 190 186 190c71 0 118 -31 143 -50z" />
    <glyph glyph-name="fraction" unicode="&#x2044;" horiz-adv-x="332" 
d="M312 686l-210 -686h-82l210 686h82z" />
    <glyph glyph-name="yen" unicode="&#xa5;" horiz-adv-x="468" 
d="M458 644l-111 -251h96v-60h-122l-40 -90h162v-60h-170v-183h-78v183h-170v60h162l-40 90h-122v60h96l-111 251l85 10l139 -341l139 341z" />
    <glyph glyph-name="florin" unicode="&#x192;" horiz-adv-x="295" 
d="M285 640l-10 -60c-12 6 -35 13 -53 13c-38 0 -57 -34 -57 -81v-97h100l-10 -62h-90v-399c0 -96 -33 -159 -119 -159c-36 0 -58 10 -71 16l15 64c12 -5 29 -13 49 -13c39 0 51 38 51 89v402h-70v62h70v98c0 95 49 144 129 144c31 0 53 -10 66 -17z" />
    <glyph glyph-name="section" unicode="&#xa7;" horiz-adv-x="447" 
d="M397 282c0 -62 -35 -107 -119 -154c75 -41 99 -73 99 -127c0 -88 -73 -144 -166 -144c-73 0 -138 38 -161 58l30 60c20 -13 75 -52 137 -52c46 0 79 29 79 71c0 43 -18 61 -110 107c-104 52 -133 85 -133 151c0 67 34 112 117 155c-66 31 -93 66 -93 118
c0 85 68 134 160 134c63 0 112 -28 132 -47l-31 -62c-19 12 -57 41 -107 41c-46 0 -78 -25 -78 -62c0 -20 9 -36 28 -49c16 -12 23 -15 82 -46c54 -28 77 -43 98 -64c23 -23 36 -55 36 -88zM321 272c0 42 -25 68 -102 106c-61 -33 -89 -70 -89 -116c0 -32 13 -55 42 -73
c14 -8 19 -11 53 -29c70 39 96 69 96 112z" />
    <glyph glyph-name="currency" unicode="&#xa4;" horiz-adv-x="617" 
d="M528 174c-14 -14 -27 -28 -41 -42c-22 22 -45 44 -67 67c-32 -25 -74 -40 -117 -40c-34 0 -79 10 -117 40c-22 -23 -45 -45 -67 -67c-14 14 -27 28 -41 42c23 21 46 43 68 65c-23 33 -39 73 -39 115s14 84 39 115c-22 23 -45 44 -68 66c14 14 27 28 41 42
c22 -22 45 -44 67 -67c40 29 83 39 117 39c37 0 83 -12 116 -39c23 23 46 45 68 67c14 -14 27 -28 41 -42c-23 -22 -46 -43 -68 -66c27 -36 39 -77 39 -115c0 -41 -14 -81 -39 -115c22 -22 45 -44 68 -65zM441 355c0 81 -69 136 -137 136c-80 0 -139 -63 -139 -136
c0 -74 63 -138 138 -138s138 63 138 138z" />
    <glyph glyph-name="quotesingle" unicode="'" horiz-adv-x="227" 
d="M150 649l-6 -224h-61l-6 224h73z" />
    <glyph glyph-name="quotedblleft" unicode="&#x201c;" horiz-adv-x="395" 
d="M356 686l-24 -224h-98l68 234zM178 686l-24 -224h-98l68 234z" />
    <glyph glyph-name="guillemotleft" unicode="&#xab;" horiz-adv-x="456" 
d="M426 66l-50 -28l-176 220l176 219l50 -28l-132 -191zM254 66l-49 -28l-177 220l177 219l49 -28l-132 -191z" />
    <glyph glyph-name="guilsinglleft" unicode="&#x2039;" horiz-adv-x="285" 
d="M254 66l-49 -28l-177 220l177 219l49 -28l-132 -191z" />
    <glyph glyph-name="guilsinglright" unicode="&#x203a;" horiz-adv-x="285" 
d="M256 258l-176 -220l-50 28l132 192l-132 191l50 28z" />
    <glyph glyph-name="endash" unicode="&#x2013;" horiz-adv-x="534" 
d="M495 240h-456v72h456v-72z" />
    <glyph glyph-name="dagger" unicode="&#x2020;" horiz-adv-x="421" 
d="M377 391h-131v-391h-71v391h-131v68h131v187h71v-187h131v-68z" />
    <glyph glyph-name="daggerdbl" unicode="&#x2021;" horiz-adv-x="421" 
d="M377 167h-131v-167h-71v167h-131v68h131v179h-131v68h131v164h71v-164h131v-68h-131v-179h131v-68z" />
    <glyph glyph-name="periodcentered" unicode="&#xb7;" horiz-adv-x="256" 
d="M188 335c0 -33 -27 -60 -59 -60c-33 0 -60 27 -60 60c0 32 26 58 60 58c32 0 59 -26 59 -58z" />
    <glyph glyph-name="paragraph" unicode="&#xb6;" horiz-adv-x="573" 
d="M492 0h-65v623h-68v-623h-66v168h-49c-33 0 -61 2 -80 8c-84 28 -131 109 -131 255c0 113 37 207 123 240c25 10 54 15 96 15h240v-686zM293 230v393h-41c-97 0 -136 -51 -136 -193c0 -141 38 -200 128 -200h49z" />
    <glyph glyph-name="bullet" unicode="&#x2022;" horiz-adv-x="311" 
d="M241 337c0 -47 -38 -86 -85 -86s-86 39 -86 86s39 85 86 85s85 -38 85 -85z" />
    <glyph glyph-name="quotesinglbase" unicode="&#x201a;" horiz-adv-x="217" 
d="M162 113l-68 -233l-53 9l23 224h98z" />
    <glyph glyph-name="quotedblbase" unicode="&#x201e;" horiz-adv-x="395" 
d="M340 113l-68 -233l-53 9l23 224h98zM162 113l-68 -233l-53 9l23 224h98z" />
    <glyph glyph-name="quotedblright" unicode="&#x201d;" horiz-adv-x="395" 
d="M342 686l-68 -233l-54 9l23 224h99zM164 686l-68 -233l-54 9l23 224h99z" />
    <glyph glyph-name="guillemotright" unicode="&#xbb;" horiz-adv-x="456" 
d="M428 258l-176 -220l-50 28l132 192l-132 191l50 28zM256 258l-176 -220l-50 28l132 192l-132 191l50 28z" />
    <glyph glyph-name="ellipsis" unicode="&#x2026;" horiz-adv-x="691" 
d="M621 46c0 -33 -26 -59 -58 -59s-59 27 -59 59s26 58 59 58c32 0 58 -26 58 -58zM404 46c0 -33 -26 -59 -58 -59s-59 27 -59 59s26 58 59 58c32 0 58 -26 58 -58zM187 46c0 -33 -26 -59 -58 -59s-60 27 -60 59s27 58 60 58c32 0 58 -26 58 -58z" />
    <glyph glyph-name="perthousand" unicode="&#x2030;" horiz-adv-x="1056" 
d="M1016 168c0 -112 -51 -178 -137 -178c-82 0 -129 59 -129 163c0 113 51 178 138 178c81 0 128 -60 128 -163zM701 168c0 -112 -51 -178 -137 -178c-82 0 -129 59 -129 163c0 113 51 178 138 178c81 0 128 -60 128 -163zM540 644l-268 -644h-71l270 644h69zM305 490
c0 -112 -51 -178 -136 -178c-82 0 -129 59 -129 164c0 112 50 177 138 177c80 0 127 -60 127 -163zM950 163c0 74 -22 113 -65 113c-44 0 -69 -43 -69 -119c0 -73 22 -112 64 -112c45 0 70 42 70 118zM635 163c0 74 -22 113 -65 113c-44 0 -69 -43 -69 -119
c0 -73 22 -112 64 -112c45 0 70 42 70 118zM239 485c0 74 -22 113 -64 113c-44 0 -69 -43 -69 -119c0 -73 23 -112 64 -112c44 0 69 42 69 118z" />
    <glyph glyph-name="questiondown" unicode="&#xbf;" horiz-adv-x="406" 
d="M295 639c0 -32 -27 -58 -60 -58c-32 0 -58 26 -58 58c0 33 26 59 58 59s60 -27 60 -59zM377 28c-34 -17 -77 -37 -152 -37c-109 0 -173 57 -173 155c0 89 50 143 152 171v165h66v-211c-93 -24 -143 -49 -143 -123c0 -58 36 -91 106 -91c55 0 96 20 121 31z" />
    <glyph glyph-name="grave" unicode="`" horiz-adv-x="286" 
d="M236 576l-24 -35l-173 92l43 62z" />
    <glyph glyph-name="acute" unicode="&#xb4;" horiz-adv-x="286" 
d="M246 632l-173 -91l-24 35l154 118z" />
    <glyph glyph-name="circumflex" unicode="&#x2c6;" horiz-adv-x="341" 
d="M299 593l-26 -37l-103 65l-102 -65l-26 37l128 101z" />
    <glyph glyph-name="tilde" unicode="&#x2dc;" horiz-adv-x="368" 
d="M327 672c-16 -42 -43 -81 -89 -81c-50 0 -80 41 -108 41c-29 0 -38 -26 -47 -43l-43 20c14 43 43 81 88 81c49 0 79 -41 107 -41c30 0 38 23 48 42z" />
    <glyph glyph-name="macron" unicode="&#xaf;" horiz-adv-x="310" 
d="M269 601h-228v60h228v-60z" />
    <glyph glyph-name="breve" unicode="&#x2d8;" horiz-adv-x="343" 
d="M301 682c-8 -73 -52 -124 -130 -124c-77 0 -122 51 -129 124l59 10c8 -35 21 -82 70 -82c50 0 62 46 70 82z" />
    <glyph glyph-name="dotaccent" unicode="&#x2d9;" horiz-adv-x="204" 
d="M154 622c0 -28 -22 -53 -51 -53s-53 24 -53 53c0 30 25 52 53 52s51 -23 51 -52z" />
    <glyph glyph-name="dieresis" unicode="&#xa8;" horiz-adv-x="367" 
d="M327 621c0 -27 -22 -52 -51 -52c-28 0 -52 24 -52 52c0 29 25 51 52 51c28 0 51 -23 51 -51zM143 621c0 -27 -22 -52 -51 -52c-28 0 -52 24 -52 52c0 29 25 51 52 51c28 0 51 -23 51 -51z" />
    <glyph glyph-name="ring" unicode="&#x2da;" horiz-adv-x="272" 
d="M226 607c0 -54 -39 -89 -90 -89s-90 34 -90 89c0 53 39 89 90 89s90 -35 90 -89zM181 607c0 29 -17 49 -45 49s-45 -19 -45 -49c0 -29 17 -50 45 -50s45 20 45 50z" />
    <glyph glyph-name="cedilla" unicode="&#xb8;" horiz-adv-x="214" 
d="M162 -41l-59 -166l-53 9l17 167z" />
    <glyph glyph-name="hungarumlaut" unicode="&#x2dd;" horiz-adv-x="356" 
d="M319 658l-109 -145l-37 22l82 162zM189 658l-109 -145l-37 22l81 162z" />
    <glyph glyph-name="ogonek" unicode="&#x2db;" horiz-adv-x="264" 
d="M218 -154c-13 -11 -47 -26 -82 -26c-54 0 -88 31 -88 80c0 35 12 59 56 114h66c-42 -45 -65 -81 -65 -109c0 -21 13 -35 35 -35c26 0 45 13 62 22z" />
    <glyph glyph-name="caron" unicode="&#x2c7;" horiz-adv-x="341" 
d="M299 657l-129 -102l-128 102l26 36l102 -65l103 65z" />
    <glyph glyph-name="emdash" unicode="&#x2014;" horiz-adv-x="741" 
d="M702 240h-663v72h663v-72z" />
    <glyph glyph-name="AE" unicode="&#xc6;" horiz-adv-x="692" 
d="M663 0h-314v209h-170l-97 -209h-83l321 686h343l-10 -69h-225v-228h192v-65h-192v-256h235v-68zM349 274v321l-142 -321h142z" />
    <glyph glyph-name="ordfeminine" unicode="&#xaa;" horiz-adv-x="390" 
d="M309 311h-66l-6 29c-20 -15 -50 -36 -93 -36c-67 0 -109 44 -109 112c0 92 70 134 198 138v18c0 38 -15 58 -59 58c-37 0 -70 -14 -104 -27l-22 60c49 23 82 36 134 36c84 0 127 -40 127 -118v-270zM310 160h-265v75h265v-75zM233 405v89c-87 -3 -120 -32 -120 -73
c0 -31 19 -50 45 -50c22 0 45 8 75 34z" />
    <glyph glyph-name="Lslash" unicode="&#x141;" horiz-adv-x="436" 
d="M418 68l-10 -68h-327v235l-60 -40v72l60 40v379h79v-327l184 124v-71l-184 -125v-219h258z" />
    <glyph glyph-name="Oslash" unicode="&#xd8;" horiz-adv-x="546" 
d="M497 344c0 -244 -80 -358 -229 -358c-52 0 -95 15 -129 47c-2 -4 -39 -77 -39 -77l-52 26l52 102c-33 60 -50 145 -50 255c0 239 78 361 231 361c46 0 85 -14 117 -40l41 81l52 -26s-49 -95 -52 -102c38 -60 58 -150 58 -269zM363 592c-21 29 -50 43 -89 43
c-101 0 -139 -96 -139 -290c0 -63 5 -118 15 -164zM412 338c0 75 -7 136 -19 185c0 0 -216 -417 -216 -418c19 -36 52 -54 96 -54c102 0 139 99 139 287z" />
    <glyph glyph-name="OE" unicode="&#x152;" horiz-adv-x="697" 
d="M668 0h-310c-24 -8 -59 -14 -90 -14c-142 0 -218 122 -218 353c0 239 79 361 231 361c26 0 57 -6 80 -14h307l-10 -69h-225v-228h192v-65h-192v-256h235v-68zM355 72v541c-20 11 -47 22 -81 22c-101 0 -139 -96 -139 -290c0 -179 33 -294 138 -294c31 0 60 8 82 21z" />
    <glyph glyph-name="ordmasculine" unicode="&#xba;" horiz-adv-x="409" 
d="M364 501c0 -125 -60 -202 -164 -202c-99 0 -155 77 -155 199c0 125 60 202 164 202c99 0 155 -78 155 -199zM353 160h-298v75h298v-75zM283 502c0 91 -30 130 -79 130c-48 0 -78 -39 -78 -127c0 -89 20 -139 79 -139c53 0 78 45 78 136z" />
    <glyph glyph-name="ae" unicode="&#xe6;" horiz-adv-x="712" 
d="M672 223h-296c5 -109 51 -169 132 -169c60 0 98 26 129 43l27 -59c-23 -21 -81 -52 -162 -52c-73 0 -131 33 -167 90c-41 -40 -86 -86 -168 -86c-81 0 -132 53 -132 137c0 114 87 171 264 174v33c0 64 -26 89 -92 89c-56 0 -110 -25 -131 -33l-21 59c30 15 77 42 163 42
c82 0 120 -28 137 -67c29 40 67 70 136 70c81 0 139 -44 166 -120c11 -32 15 -73 15 -151zM594 285c-2 96 -39 148 -106 148s-107 -51 -111 -148h217zM299 110v129c-125 -1 -187 -36 -187 -106c0 -47 30 -80 73 -80c35 0 70 18 114 57z" />
    <glyph glyph-name="dotlessi" unicode="&#x131;" horiz-adv-x="235" 
d="M155 0h-75v480h75v-480z" />
    <glyph glyph-name="lslash" unicode="&#x142;" horiz-adv-x="235" 
d="M215 388l-60 -38v-350h-75v302l-60 -38v75l60 38v315l75 10v-277l60 38v-75z" />
    <glyph glyph-name="oslash" unicode="&#xf8;" horiz-adv-x="488" 
d="M443 243c0 -162 -76 -257 -205 -257c-35 0 -66 7 -92 22l-37 -66l-50 28l42 76c-36 43 -56 108 -56 192c0 162 76 256 205 256c34 0 64 -7 90 -21l34 61l50 -28l-39 -70c38 -43 58 -109 58 -193zM306 412c-17 13 -38 19 -63 19c-76 0 -117 -64 -117 -183
c0 -50 4 -94 17 -127zM362 244c0 48 -7 87 -19 117l-163 -292c17 -13 38 -20 65 -20c84 0 117 74 117 195z" />
    <glyph glyph-name="oe" unicode="&#x153;" horiz-adv-x="777" 
d="M737 223h-296c5 -109 51 -169 132 -169c60 0 98 26 129 43l27 -59c-23 -21 -81 -52 -162 -52c-80 0 -132 38 -165 96c-30 -58 -80 -96 -164 -96c-122 0 -193 93 -193 252c0 162 76 256 205 256c79 0 122 -35 153 -92c31 56 77 92 153 92c81 0 139 -44 166 -120
c11 -32 15 -73 15 -151zM659 285c-2 96 -39 148 -106 148s-107 -51 -111 -148h217zM362 244c0 123 -41 187 -119 187c-76 0 -117 -64 -117 -183c0 -118 27 -199 119 -199c84 0 117 74 117 195z" />
    <glyph glyph-name="germandbls" unicode="&#xdf;" horiz-adv-x="575" 
d="M525 144c0 -98 -62 -155 -165 -155c-57 0 -102 18 -117 30l17 61c18 -10 63 -28 106 -28c55 0 86 31 86 78c0 44 -9 60 -108 131c-46 33 -93 67 -93 122c0 41 14 66 54 100c41 36 53 53 53 84c0 47 -36 74 -93 74c-84 0 -110 -43 -110 -122v-519h-75v520
c0 128 64 182 191 182c102 0 165 -54 165 -129c0 -63 -28 -85 -76 -127c-26 -23 -35 -34 -35 -51c0 -24 6 -33 105 -106c68 -50 95 -93 95 -145z" />
    <glyph glyph-name="onesuperior" unicode="&#xb9;" horiz-adv-x="294" 
d="M253 238h-198v52h69v276l-69 -39l-24 41l109 76h50v-354h63v-52z" />
    <glyph glyph-name="logicalnot" unicode="&#xac;" horiz-adv-x="505" 
d="M455 115h-79v161h-326v75h405v-236z" />
    <glyph glyph-name="mu" unicode="&#xb5;" horiz-adv-x="508" 
d="M428 0h-55l-10 43c-52 -40 -93 -57 -146 -57c-24 0 -44 4 -62 10v-191l-75 -10v685l75 10v-320c0 -88 18 -116 72 -116c41 0 88 19 126 51v375l75 10v-490z" />
    <glyph glyph-name="trademark" unicode="&#x2122;" horiz-adv-x="640" 
d="M590 295h-55l-10 312l-80 -220h-46l-76 220l-10 -312h-55l18 391h70l78 -226l78 226h70zM246 686l-6 -49h-92v-342h-55v342h-92v49h245z" />
    <glyph glyph-name="Eth" unicode="&#xd0;" horiz-adv-x="534" 
d="M484 355c0 -238 -78 -355 -278 -355h-125v324h-59v65h59v297h116c87 0 137 -12 178 -41c73 -51 109 -154 109 -290zM400 355c0 131 -25 207 -83 240c-27 15 -61 23 -115 23h-42v-229h132v-65h-132v-256h52c76 0 107 15 140 59c33 45 48 118 48 228z" />
    <glyph glyph-name="onehalf" unicode="&#xbd;" horiz-adv-x="790" 
d="M746 0h-242c0 59 5 90 22 121c19 33 46 59 85 87c37 27 68 48 68 92c0 37 -21 58 -54 58c-41 0 -58 -35 -71 -69l-54 18c18 67 59 108 130 108c72 0 116 -43 116 -113c0 -41 -14 -70 -38 -95c-25 -26 -57 -41 -85 -67c-26 -25 -39 -49 -46 -81h169v-59zM580 644
l-331 -644h-65l331 644h65zM243 238h-198v52h69v276l-69 -39l-24 41l109 76h50v-354h63v-52z" />
    <glyph glyph-name="plusminus" unicode="&#xb1;" horiz-adv-x="475" 
d="M425 276h-150v-150h-75v150h-150v75h150v160h75v-160h150v-75zM425 0h-375v75h375v-75z" />
    <glyph glyph-name="Thorn" unicode="&#xde;" horiz-adv-x="478" 
d="M448 383c0 -86 -36 -148 -96 -182c-34 -19 -65 -25 -118 -25h-74v-176h-79v686h79v-119h87c63 0 102 -8 128 -24c48 -29 73 -86 73 -160zM367 382c0 55 -18 92 -54 107c-18 8 -33 10 -73 10h-80v-258h68c51 0 72 4 96 24c28 24 43 65 43 117z" />
    <glyph glyph-name="onequarter" unicode="&#xbc;" horiz-adv-x="769" 
d="M736 85h-53v-88h-67v88h-167v58l157 272l65 -14l-158 -261h103l12 104h55v-104h53v-55zM580 644l-331 -644h-65l331 644h65zM243 238h-198v52h69v276l-69 -39l-24 41l109 76h50v-354h63v-52z" />
    <glyph glyph-name="divide" unicode="&#xf7;" horiz-adv-x="475" 
d="M293 488c0 -32 -25 -57 -56 -57c-32 0 -57 25 -57 57c0 31 25 56 57 56c31 0 56 -25 56 -56zM425 276h-375v75h375v-75zM293 139c0 -31 -25 -56 -56 -56c-32 0 -57 25 -57 56c0 32 25 57 57 57c31 0 56 -25 56 -57z" />
    <glyph glyph-name="brokenbar" unicode="&#xa6;" horiz-adv-x="242" 
d="M160 421h-78v346h78v-346zM160 -80h-78v345h78v-345z" />
    <glyph glyph-name="degree" unicode="&#xb0;" horiz-adv-x="386" 
d="M346 545c0 -97 -66 -155 -153 -155s-153 57 -153 155c0 97 66 155 153 155s153 -57 153 -155zM277 545c0 59 -35 96 -84 96s-84 -37 -84 -96s35 -96 84 -96s84 37 84 96z" />
    <glyph glyph-name="thorn" unicode="&#xfe;" horiz-adv-x="489" 
d="M439 250c0 -164 -63 -264 -166 -264c-41 0 -73 12 -118 44v-225l-75 -10v897l75 10v-256c49 35 83 48 130 48c57 0 99 -24 121 -69c22 -44 33 -105 33 -175zM358 248c0 60 -5 98 -15 127c-12 32 -40 52 -72 52c-34 0 -62 -12 -116 -49v-282c47 -32 74 -42 109 -42
c68 0 94 54 94 194z" />
    <glyph glyph-name="threequarters" unicode="&#xbe;" horiz-adv-x="791" 
d="M757 85h-52v-88h-67v88h-167v58l157 272l65 -14l-159 -261h104l12 104h55v-104h52v-55zM609 644l-331 -644h-65l331 644h65zM284 353c0 -75 -56 -124 -140 -124c-53 0 -90 14 -113 30l19 52c24 -13 57 -26 92 -26c49 0 76 25 76 71c0 44 -26 68 -85 68h-29v54h29
c45 0 73 23 73 66c0 32 -20 55 -53 55c-36 0 -58 -26 -73 -44l-40 35c25 35 57 63 116 63c69 0 116 -41 116 -105c0 -47 -24 -76 -61 -91c43 -15 73 -47 73 -104z" />
    <glyph glyph-name="twosuperior" unicode="&#xb2;" horiz-adv-x="317" 
d="M281 238h-243c0 59 6 90 23 121c18 33 46 59 84 87c37 27 68 48 68 92c0 37 -21 58 -54 58c-40 0 -58 -35 -71 -69l-54 18c19 67 59 108 130 108c72 0 117 -43 117 -113c0 -41 -15 -70 -39 -95c-25 -26 -57 -41 -84 -67c-27 -25 -39 -49 -46 -81h169v-59z" />
    <glyph glyph-name="registered" unicode="&#xae;" horiz-adv-x="750" 
d="M699 343c0 -210 -143 -352 -324 -352c-180 0 -324 142 -324 352s144 352 324 352c181 0 324 -142 324 -352zM628 343c0 167 -111 287 -253 287c-146 0 -253 -120 -253 -287s109 -287 253 -287c142 0 253 120 253 287zM521 147l-69 -8l-96 176h-26v-169h-65v400h102
c78 0 130 -28 130 -110c0 -60 -29 -98 -79 -113zM431 436c0 41 -22 55 -67 55h-34v-123h31c49 0 70 21 70 68z" />
    <glyph glyph-name="minus" unicode="&#x2212;" horiz-adv-x="475" 
d="M425 276h-375v75h375v-75z" />
    <glyph glyph-name="eth" unicode="&#xf0;" horiz-adv-x="488" 
d="M443 262c0 -174 -76 -276 -206 -276c-120 0 -192 96 -192 256c0 154 75 252 193 252c37 0 65 -11 95 -35c-15 36 -34 73 -56 110l-97 -51l-26 44l94 50c-19 28 -39 56 -61 85l73 10c14 -17 30 -38 48 -63l83 44l26 -44l-80 -43c53 -86 106 -203 106 -339zM363 239
c0 125 -42 192 -120 192c-76 0 -117 -62 -117 -178c0 -66 13 -128 34 -161c17 -27 50 -43 87 -43s71 17 87 44c18 30 29 84 29 146z" />
    <glyph glyph-name="multiply" unicode="&#xd7;" horiz-adv-x="469" 
d="M429 172l-53 -53l-142 141l-141 -141l-53 53l141 141l-141 142l53 53l141 -141l142 141l53 -53l-142 -142z" />
    <glyph glyph-name="threesuperior" unicode="&#xb3;" horiz-adv-x="319" 
d="M278 353c0 -75 -56 -124 -140 -124c-53 0 -90 14 -113 30l19 52c24 -13 57 -26 92 -26c49 0 76 25 76 71c0 44 -26 68 -85 68h-29v54h29c45 0 73 23 73 66c0 32 -20 55 -53 55c-36 0 -58 -26 -73 -44l-40 35c25 35 57 63 116 63c69 0 116 -41 116 -105
c0 -47 -24 -76 -61 -91c43 -15 73 -47 73 -104z" />
    <glyph glyph-name="copyright" unicode="&#xa9;" horiz-adv-x="750" 
d="M699 343c0 -210 -143 -352 -324 -352c-180 0 -324 142 -324 352s144 352 324 352c181 0 324 -142 324 -352zM628 343c0 167 -111 287 -253 287c-146 0 -253 -120 -253 -287s109 -287 253 -287c142 0 253 120 253 287zM489 183c-24 -26 -54 -53 -111 -53
c-95 0 -143 80 -143 217c0 89 25 209 142 209c51 0 86 -24 112 -53l-34 -41c-22 19 -46 39 -77 39c-45 0 -74 -45 -74 -149c0 -117 29 -167 77 -167c32 0 52 19 74 38z" />
    <glyph glyph-name="Aacute" unicode="&#xc1;" horiz-adv-x="511" 
d="M358 800l-172 -82l-25 35l155 109zM501 0h-83l-58 207h-209l-58 -207h-83l201 686h90zM342 274l-86 310l-86 -310h172z" />
    <glyph glyph-name="Acircumflex" unicode="&#xc2;" horiz-adv-x="511" 
d="M375 757l-26 -37l-94 58l-93 -58l-26 37l119 94zM501 0h-83l-58 207h-209l-58 -207h-83l201 686h90zM342 274l-86 310l-86 -310h172z" />
    <glyph glyph-name="Adieresis" unicode="&#xc4;" horiz-adv-x="511" 
d="M399 772c0 -27 -22 -52 -51 -52c-28 0 -51 24 -51 52c0 29 24 51 51 51c29 0 51 -23 51 -51zM215 772c0 -27 -22 -52 -51 -52c-28 0 -52 24 -52 52c0 29 25 51 52 51c29 0 51 -23 51 -51zM501 0h-83l-58 207h-209l-58 -207h-83l201 686h90zM342 274l-86 310l-86 -310h172
z" />
    <glyph glyph-name="Agrave" unicode="&#xc0;" horiz-adv-x="511" 
d="M348 753l-24 -35l-172 83l42 61zM501 0h-83l-58 207h-209l-58 -207h-83l201 686h90zM342 274l-86 310l-86 -310h172z" />
    <glyph glyph-name="Aring" unicode="&#xc5;" horiz-adv-x="511" 
d="M501 0h-83l-58 207h-209l-58 -207h-83l184 629c-17 14 -28 37 -28 65c1 54 39 89 90 89c50 0 90 -35 90 -89c0 -27 -11 -50 -28 -65zM301 694c0 29 -17 50 -45 50c-29 0 -46 -20 -46 -50c0 -29 17 -50 46 -50c28 0 45 20 45 50zM342 274l-86 310l-86 -310h172z" />
    <glyph glyph-name="Atilde" unicode="&#xc3;" horiz-adv-x="511" 
d="M399 803c-16 -43 -43 -81 -89 -81c-50 0 -80 41 -108 41c-29 0 -38 -26 -47 -43l-43 19c14 43 43 82 88 82c49 0 79 -41 107 -41c30 0 38 22 48 41zM501 0h-83l-58 207h-209l-58 -207h-83l201 686h90zM342 274l-86 310l-86 -310h172z" />
    <glyph glyph-name="Ccedilla" unicode="&#xc7;" horiz-adv-x="453" 
d="M442 62c-31 -36 -78 -76 -167 -76c-146 0 -225 125 -225 364c0 159 42 350 223 350c81 0 134 -40 168 -78l-40 -50c-22 21 -68 63 -127 63c-90 0 -139 -94 -139 -276c0 -204 50 -308 144 -308c56 0 96 36 123 62zM306 -41l-58 -166l-53 9l16 167z" />
    <glyph glyph-name="Eacute" unicode="&#xc9;" horiz-adv-x="442" 
d="M354 800l-173 -82l-24 35l155 109zM413 0h-332v686h332l-10 -68h-243v-229h210v-65h-210v-256h253v-68z" />
    <glyph glyph-name="Ecircumflex" unicode="&#xca;" horiz-adv-x="442" 
d="M362 757l-26 -37l-94 58l-94 -58l-26 37l120 94zM413 0h-332v686h332l-10 -68h-243v-229h210v-65h-210v-256h253v-68z" />
    <glyph glyph-name="Edieresis" unicode="&#xcb;" horiz-adv-x="442" 
d="M385 772c0 -27 -21 -52 -51 -52c-28 0 -51 24 -51 52c0 29 24 51 51 51c29 0 51 -23 51 -51zM201 772c0 -27 -21 -52 -51 -52c-28 0 -51 24 -51 52c0 29 24 51 51 51c29 0 51 -23 51 -51zM413 0h-332v686h332l-10 -68h-243v-229h210v-65h-210v-256h253v-68z" />
    <glyph glyph-name="Egrave" unicode="&#xc8;" horiz-adv-x="442" 
d="M327 753l-24 -35l-172 83l42 61zM413 0h-332v686h332l-10 -68h-243v-229h210v-65h-210v-256h253v-68z" />
    <glyph glyph-name="Iacute" unicode="&#xcd;" horiz-adv-x="241" 
d="M224 800l-173 -82l-24 35l155 109zM160 0h-79v686h79v-686z" />
    <glyph glyph-name="Icircumflex" unicode="&#xce;" horiz-adv-x="241" 
d="M240 757l-26 -37l-94 58l-94 -58l-25 37l119 94zM160 0h-79v686h79v-686z" />
    <glyph glyph-name="Idieresis" unicode="&#xcf;" horiz-adv-x="241" 
d="M264 772c0 -27 -22 -52 -51 -52s-52 24 -52 52c0 29 24 51 52 51s51 -23 51 -51zM80 772c0 -27 -22 -52 -51 -52s-52 24 -52 52c0 29 24 51 52 51s51 -23 51 -51zM160 0h-79v686h79v-686z" />
    <glyph glyph-name="Igrave" unicode="&#xcc;" horiz-adv-x="241" 
d="M215 753l-24 -35l-173 83l43 61zM160 0h-79v686h79v-686z" />
    <glyph glyph-name="Ntilde" unicode="&#xd1;" horiz-adv-x="581" 
d="M434 803c-16 -43 -43 -81 -89 -81c-51 0 -80 41 -108 41c-29 0 -38 -26 -47 -43l-43 19c14 43 43 82 88 82c49 0 79 -41 106 -41c31 0 38 22 49 41zM500 0h-79l-262 545v-545h-78v686h88l253 -518v518h78v-686z" />
    <glyph glyph-name="Oacute" unicode="&#xd3;" horiz-adv-x="546" 
d="M378 800l-173 -82l-24 35l154 109zM497 344c0 -244 -80 -358 -229 -358c-142 0 -218 121 -218 353c0 239 78 361 231 361c140 0 216 -123 216 -356zM412 338c0 191 -33 297 -138 297c-101 0 -139 -94 -139 -290c0 -168 30 -294 138 -294c102 0 139 100 139 287z" />
    <glyph glyph-name="Ocircumflex" unicode="&#xd4;" horiz-adv-x="546" 
d="M393 757l-26 -37l-94 58l-93 -58l-26 37l119 94zM497 344c0 -244 -80 -358 -229 -358c-142 0 -218 121 -218 353c0 239 78 361 231 361c140 0 216 -123 216 -356zM412 338c0 191 -33 297 -138 297c-101 0 -139 -94 -139 -290c0 -168 30 -294 138 -294
c102 0 139 100 139 287z" />
    <glyph glyph-name="Odieresis" unicode="&#xd6;" horiz-adv-x="546" 
d="M417 772c0 -27 -21 -52 -51 -52c-28 0 -51 24 -51 52c0 29 24 51 51 51c29 0 51 -23 51 -51zM233 772c0 -27 -22 -52 -51 -52c-28 0 -51 24 -51 52c0 29 24 51 51 51c29 0 51 -23 51 -51zM497 344c0 -244 -80 -358 -229 -358c-142 0 -218 121 -218 353
c0 239 78 361 231 361c140 0 216 -123 216 -356zM412 338c0 191 -33 297 -138 297c-101 0 -139 -94 -139 -290c0 -168 30 -294 138 -294c102 0 139 100 139 287z" />
    <glyph glyph-name="Ograve" unicode="&#xd2;" horiz-adv-x="546" 
d="M366 753l-24 -35l-173 83l43 61zM497 344c0 -244 -80 -358 -229 -358c-142 0 -218 121 -218 353c0 239 78 361 231 361c140 0 216 -123 216 -356zM412 338c0 191 -33 297 -138 297c-101 0 -139 -94 -139 -290c0 -168 30 -294 138 -294c102 0 139 100 139 287z" />
    <glyph glyph-name="Otilde" unicode="&#xd5;" horiz-adv-x="546" 
d="M417 803c-17 -43 -44 -81 -90 -81c-50 0 -80 41 -108 41c-29 0 -38 -26 -47 -43l-42 19c13 43 43 82 88 82c48 0 79 -41 106 -41c30 0 38 22 48 41zM497 344c0 -244 -80 -358 -229 -358c-142 0 -218 121 -218 353c0 239 78 361 231 361c140 0 216 -123 216 -356zM412 338
c0 191 -33 297 -138 297c-101 0 -139 -94 -139 -290c0 -168 30 -294 138 -294c102 0 139 100 139 287z" />
    <glyph glyph-name="Scaron" unicode="&#x160;" horiz-adv-x="469" 
d="M364 815l-119 -94l-120 94l26 37l94 -58l93 58zM429 180c0 -116 -84 -194 -208 -194c-83 0 -143 24 -191 55l29 67c49 -30 106 -53 163 -53c75 0 124 45 124 115c0 62 -26 94 -125 151c-86 49 -166 90 -166 200c0 104 79 179 195 179c80 0 136 -25 168 -49l-26 -66
c-40 25 -84 47 -143 47c-71 0 -112 -39 -112 -101c0 -75 59 -103 124 -141c91 -53 168 -95 168 -210z" />
    <glyph glyph-name="Uacute" unicode="&#xda;" horiz-adv-x="578" 
d="M390 800l-173 -82l-24 35l154 109zM497 187c0 -137 -78 -201 -215 -201c-134 0 -201 68 -201 201v499h78v-496c0 -97 38 -139 126 -139c87 0 135 47 135 139v496h77v-499z" />
    <glyph glyph-name="Ucircumflex" unicode="&#xdb;" horiz-adv-x="578" 
d="M409 757l-26 -37l-94 58l-93 -58l-26 37l119 94zM497 187c0 -137 -78 -201 -215 -201c-134 0 -201 68 -201 201v499h78v-496c0 -97 38 -139 126 -139c87 0 135 47 135 139v496h77v-499z" />
    <glyph glyph-name="Udieresis" unicode="&#xdc;" horiz-adv-x="578" 
d="M433 772c0 -27 -22 -52 -51 -52c-28 0 -52 24 -52 52c0 29 25 51 52 51c29 0 51 -23 51 -51zM249 772c0 -27 -22 -52 -51 -52c-28 0 -52 24 -52 52c0 29 25 51 52 51c29 0 51 -23 51 -51zM497 187c0 -137 -78 -201 -215 -201c-134 0 -201 68 -201 201v499h78v-496
c0 -97 38 -139 126 -139c87 0 135 47 135 139v496h77v-499z" />
    <glyph glyph-name="Ugrave" unicode="&#xd9;" horiz-adv-x="578" 
d="M387 753l-24 -35l-173 83l43 61zM497 187c0 -137 -78 -201 -215 -201c-134 0 -201 68 -201 201v499h78v-496c0 -97 38 -139 126 -139c87 0 135 47 135 139v496h77v-499z" />
    <glyph glyph-name="Yacute" unicode="&#xdd;" horiz-adv-x="462" 
d="M335 800l-172 -82l-25 35l155 109zM456 686l-186 -419v-267h-78v267l-186 419l83 10l142 -336l142 336z" />
    <glyph glyph-name="Ydieresis" unicode="&#x178;" horiz-adv-x="462" 
d="M375 772c0 -27 -21 -52 -51 -52c-28 0 -51 24 -51 52c0 29 24 51 51 51c29 0 51 -23 51 -51zM191 772c0 -27 -22 -52 -51 -52c-28 0 -51 24 -51 52c0 29 24 51 51 51c29 0 51 -23 51 -51zM456 686l-185 -419v-267h-79v267l-186 419l83 10l142 -336l142 336z" />
    <glyph glyph-name="Zcaron" unicode="&#x17d;" horiz-adv-x="424" 
d="M337 814l-120 -95l-120 95l26 37l94 -58l94 58zM403 68l-9 -68h-370v64l279 554h-268l10 68h348v-59l-282 -559h292z" />
    <glyph glyph-name="aacute" unicode="&#xe1;" horiz-adv-x="454" 
d="M316 632l-173 -90l-25 36l154 118zM374 0h-65l-10 43c-24 -22 -65 -53 -132 -53c-81 0 -132 53 -132 137c0 114 87 171 264 174v33c0 64 -26 89 -92 89c-56 0 -110 -25 -131 -33l-21 59c30 15 77 42 163 42c106 0 156 -45 156 -140v-351zM299 110v129
c-125 -1 -187 -36 -187 -106c0 -47 30 -80 73 -80c35 0 70 18 114 57z" />
    <glyph glyph-name="acircumflex" unicode="&#xe2;" horiz-adv-x="454" 
d="M342 594l-27 -38l-103 66l-103 -66l-27 38l130 102zM374 0h-65l-10 43c-24 -22 -65 -53 -132 -53c-81 0 -132 53 -132 137c0 114 87 171 264 174v33c0 64 -26 89 -92 89c-56 0 -110 -25 -131 -33l-21 59c30 15 77 42 163 42c106 0 156 -45 156 -140v-351zM299 110v129
c-125 -1 -187 -36 -187 -106c0 -47 30 -80 73 -80c35 0 70 18 114 57z" />
    <glyph glyph-name="adieresis" unicode="&#xe4;" horiz-adv-x="454" 
d="M357 624c0 -28 -22 -53 -52 -53c-29 0 -53 24 -53 53c0 30 25 52 53 52c29 0 52 -23 52 -52zM172 624c0 -28 -22 -53 -52 -53c-29 0 -53 24 -53 53c0 30 25 52 53 52c29 0 52 -23 52 -52zM374 0h-65l-10 43c-24 -22 -65 -53 -132 -53c-81 0 -132 53 -132 137
c0 114 87 171 264 174v33c0 64 -26 89 -92 89c-56 0 -110 -25 -131 -33l-21 59c30 15 77 42 163 42c106 0 156 -45 156 -140v-351zM299 110v129c-125 -1 -187 -36 -187 -106c0 -47 30 -80 73 -80c35 0 70 18 114 57z" />
    <glyph glyph-name="agrave" unicode="&#xe0;" horiz-adv-x="454" 
d="M326 578l-25 -36l-173 90l44 64zM374 0h-65l-10 43c-24 -22 -65 -53 -132 -53c-81 0 -132 53 -132 137c0 114 87 171 264 174v33c0 64 -26 89 -92 89c-56 0 -110 -25 -131 -33l-21 59c30 15 77 42 163 42c106 0 156 -45 156 -140v-351zM299 110v129
c-125 -1 -187 -36 -187 -106c0 -47 30 -80 73 -80c35 0 70 18 114 57z" />
    <glyph glyph-name="aring" unicode="&#xe5;" horiz-adv-x="454" 
d="M307 607c0 -54 -40 -89 -91 -89s-91 34 -91 89c0 54 40 89 91 89s91 -34 91 -89zM374 0h-65l-10 43c-24 -22 -65 -53 -132 -53c-81 0 -132 53 -132 137c0 114 87 171 264 174v33c0 64 -26 89 -92 89c-56 0 -110 -25 -131 -33l-21 59c30 15 77 42 163 42
c106 0 156 -45 156 -140v-351zM261 607c0 29 -17 49 -45 49s-45 -19 -45 -49c0 -29 17 -49 45 -49s45 19 45 49zM299 110v129c-125 -1 -187 -36 -187 -106c0 -47 30 -80 73 -80c35 0 70 18 114 57z" />
    <glyph glyph-name="atilde" unicode="&#xe3;" horiz-adv-x="454" 
d="M358 677c-16 -42 -44 -83 -91 -83c-52 0 -81 42 -109 42c-30 0 -39 -28 -47 -43l-44 20c13 42 43 83 89 83c50 0 80 -42 107 -42c32 0 39 24 49 42zM374 0h-65l-10 43c-24 -22 -65 -53 -132 -53c-81 0 -132 53 -132 137c0 114 87 171 264 174v33c0 64 -26 89 -92 89
c-56 0 -110 -25 -131 -33l-21 59c30 15 77 42 163 42c106 0 156 -45 156 -140v-351zM299 110v129c-125 -1 -187 -36 -187 -106c0 -47 30 -80 73 -80c35 0 70 18 114 57z" />
    <glyph glyph-name="ccedilla" unicode="&#xe7;" horiz-adv-x="428" 
d="M400 51c-22 -25 -73 -65 -161 -65c-119 0 -189 91 -189 243c0 164 77 265 203 265c88 0 126 -40 147 -62l-33 -56c-20 17 -61 51 -112 51c-80 0 -121 -63 -121 -186c0 -125 37 -186 111 -186c47 0 86 22 121 52zM278 -40l-60 -167l-56 10l17 167z" />
    <glyph glyph-name="eacute" unicode="&#xe9;" horiz-adv-x="468" 
d="M333 632l-173 -90l-25 36l154 118zM428 223h-296c5 -109 51 -169 132 -169c60 0 98 26 129 43l27 -59c-23 -21 -81 -52 -162 -52c-127 0 -208 98 -208 253c0 156 77 255 197 255c81 0 139 -44 166 -120c11 -32 15 -73 15 -151zM350 285c-2 96 -39 148 -106 148
s-107 -51 -111 -148h217z" />
    <glyph glyph-name="ecircumflex" unicode="&#xea;" horiz-adv-x="468" 
d="M364 594l-27 -38l-103 66l-103 -66l-27 38l130 102zM428 223h-296c5 -109 51 -169 132 -169c60 0 98 26 129 43l27 -59c-23 -21 -81 -52 -162 -52c-127 0 -208 98 -208 253c0 156 77 255 197 255c81 0 139 -44 166 -120c11 -32 15 -73 15 -151zM350 285
c-2 96 -39 148 -106 148s-107 -51 -111 -148h217z" />
    <glyph glyph-name="edieresis" unicode="&#xeb;" horiz-adv-x="468" 
d="M378 624c0 -28 -22 -53 -52 -53c-29 0 -53 24 -53 53c0 30 25 52 53 52c29 0 52 -23 52 -52zM193 624c0 -28 -22 -53 -52 -53c-29 0 -53 24 -53 53c0 30 25 52 53 52c29 0 52 -23 52 -52zM428 223h-296c5 -109 51 -169 132 -169c60 0 98 26 129 43l27 -59
c-23 -21 -81 -52 -162 -52c-127 0 -208 98 -208 253c0 156 77 255 197 255c81 0 139 -44 166 -120c11 -32 15 -73 15 -151zM350 285c-2 96 -39 148 -106 148s-107 -51 -111 -148h217z" />
    <glyph glyph-name="egrave" unicode="&#xe8;" horiz-adv-x="468" 
d="M333 578l-25 -36l-173 90l44 64zM428 223h-296c5 -109 51 -169 132 -169c60 0 98 26 129 43l27 -59c-23 -21 -81 -52 -162 -52c-127 0 -208 98 -208 253c0 156 77 255 197 255c81 0 139 -44 166 -120c11 -32 15 -73 15 -151zM350 285c-2 96 -39 148 -106 148
s-107 -51 -111 -148h217z" />
    <glyph glyph-name="iacute" unicode="&#xed;" horiz-adv-x="235" 
d="M217 632l-173 -90l-25 36l154 118zM155 0h-75v480h75v-480z" />
    <glyph glyph-name="icircumflex" unicode="&#xee;" horiz-adv-x="235" 
d="M248 594l-27 -38l-103 66l-103 -66l-27 38l130 102zM155 0h-75v480h75v-480z" />
    <glyph glyph-name="idieresis" unicode="&#xef;" horiz-adv-x="235" 
d="M243 624c0 -28 -22 -53 -52 -53c-29 0 -53 24 -53 53c0 30 25 52 53 52c29 0 52 -23 52 -52zM98 624c0 -28 -22 -53 -52 -53c-29 0 -53 24 -53 53c0 30 25 52 53 52c29 0 52 -23 52 -52zM155 0h-75v480h75v-480z" />
    <glyph glyph-name="igrave" unicode="&#xec;" horiz-adv-x="235" 
d="M217 578l-25 -36l-173 90l44 64zM155 0h-75v480h75v-480z" />
    <glyph glyph-name="ntilde" unicode="&#xf1;" horiz-adv-x="511" 
d="M401 677c-16 -42 -44 -83 -91 -83c-52 0 -81 42 -109 42c-30 0 -39 -28 -47 -43l-44 20c13 42 43 83 89 83c50 0 80 -42 107 -42c32 0 39 24 49 42zM431 0h-75v345c0 63 -17 84 -69 84c-40 0 -78 -16 -132 -63v-366h-75v345c0 34 -6 93 -20 125l67 20
c10 -18 18 -45 20 -66c43 36 89 70 163 70c43 0 76 -13 96 -39c19 -25 25 -49 25 -112v-343z" />
    <glyph glyph-name="oacute" unicode="&#xf3;" horiz-adv-x="488" 
d="M343 632l-173 -90l-25 36l154 118zM443 243c0 -162 -76 -257 -205 -257c-122 0 -193 93 -193 252c0 162 76 256 205 256c121 0 193 -94 193 -251zM362 244c0 123 -41 187 -119 187c-76 0 -117 -64 -117 -183c0 -118 27 -199 119 -199c84 0 117 74 117 195z" />
    <glyph glyph-name="ocircumflex" unicode="&#xf4;" horiz-adv-x="488" 
d="M374 594l-27 -38l-103 66l-103 -66l-27 38l130 102zM443 243c0 -162 -76 -257 -205 -257c-122 0 -193 93 -193 252c0 162 76 256 205 256c121 0 193 -94 193 -251zM362 244c0 123 -41 187 -119 187c-76 0 -117 -64 -117 -183c0 -118 27 -199 119 -199
c84 0 117 74 117 195z" />
    <glyph glyph-name="odieresis" unicode="&#xf6;" horiz-adv-x="488" 
d="M389 624c0 -28 -22 -53 -52 -53c-29 0 -53 24 -53 53c0 30 25 52 53 52c29 0 52 -23 52 -52zM204 624c0 -28 -22 -53 -52 -53c-29 0 -53 24 -53 53c0 30 25 52 53 52c29 0 52 -23 52 -52zM443 243c0 -162 -76 -257 -205 -257c-122 0 -193 93 -193 252
c0 162 76 256 205 256c121 0 193 -94 193 -251zM362 244c0 123 -41 187 -119 187c-76 0 -117 -64 -117 -183c0 -118 27 -199 119 -199c84 0 117 74 117 195z" />
    <glyph glyph-name="ograve" unicode="&#xf2;" horiz-adv-x="488" 
d="M343 578l-25 -36l-173 90l44 64zM443 243c0 -162 -76 -257 -205 -257c-122 0 -193 93 -193 252c0 162 76 256 205 256c121 0 193 -94 193 -251zM362 244c0 123 -41 187 -119 187c-76 0 -117 -64 -117 -183c0 -118 27 -199 119 -199c84 0 117 74 117 195z" />
    <glyph glyph-name="otilde" unicode="&#xf5;" horiz-adv-x="488" 
d="M390 677c-16 -42 -44 -83 -91 -83c-52 0 -81 42 -109 42c-30 0 -39 -28 -47 -43l-44 20c13 42 43 83 89 83c50 0 80 -42 107 -42c32 0 39 24 49 42zM443 243c0 -162 -76 -257 -205 -257c-122 0 -193 93 -193 252c0 162 76 256 205 256c121 0 193 -94 193 -251zM362 244
c0 123 -41 187 -119 187c-76 0 -117 -64 -117 -183c0 -118 27 -199 119 -199c84 0 117 74 117 195z" />
    <glyph glyph-name="scaron" unicode="&#x161;" horiz-adv-x="375" 
d="M318 658l-130 -102l-130 102l27 38l103 -66l103 66zM340 128c0 -85 -64 -142 -159 -142c-69 0 -118 21 -156 44l25 59c41 -20 87 -39 133 -39c48 0 80 29 80 72c0 54 -52 71 -93 90c-63 30 -129 63 -129 143c0 81 63 139 152 139c66 0 104 -20 132 -39l-28 -57
c-29 14 -59 32 -106 32c-48 0 -76 -25 -76 -67c0 -53 47 -69 87 -88c69 -34 138 -57 138 -147z" />
    <glyph glyph-name="uacute" unicode="&#xfa;" horiz-adv-x="508" 
d="M353 632l-173 -90l-25 36l154 118zM428 0h-55l-10 43c-52 -40 -93 -57 -146 -57c-89 0 -137 46 -137 134v360l75 10v-320c0 -88 18 -116 72 -116c41 0 88 19 126 51v375l75 10v-490z" />
    <glyph glyph-name="ucircumflex" unicode="&#xfb;" horiz-adv-x="508" 
d="M384 594l-27 -38l-103 66l-103 -66l-27 38l130 102zM428 0h-55l-10 43c-52 -40 -93 -57 -146 -57c-89 0 -137 46 -137 134v360l75 10v-320c0 -88 18 -116 72 -116c41 0 88 19 126 51v375l75 10v-490z" />
    <glyph glyph-name="udieresis" unicode="&#xfc;" horiz-adv-x="508" 
d="M399 624c0 -28 -22 -53 -52 -53c-29 0 -53 24 -53 53c0 30 25 52 53 52c29 0 52 -23 52 -52zM214 624c0 -28 -22 -53 -52 -53c-29 0 -53 24 -53 53c0 30 25 52 53 52c29 0 52 -23 52 -52zM428 0h-55l-10 43c-52 -40 -93 -57 -146 -57c-89 0 -137 46 -137 134v360l75 10
v-320c0 -88 18 -116 72 -116c41 0 88 19 126 51v375l75 10v-490z" />
    <glyph glyph-name="ugrave" unicode="&#xf9;" horiz-adv-x="508" 
d="M353 578l-25 -36l-173 90l44 64zM428 0h-55l-10 43c-52 -40 -93 -57 -146 -57c-89 0 -137 46 -137 134v360l75 10v-320c0 -88 18 -116 72 -116c41 0 88 19 126 51v375l75 10v-490z" />
    <glyph glyph-name="yacute" unicode="&#xfd;" horiz-adv-x="435" 
d="M317 632l-173 -90l-25 36l154 118zM425 480l-156 -543c-23 -79 -60 -142 -138 -142c-56 0 -87 19 -110 35l28 55c23 -14 49 -27 77 -27c33 0 56 28 72 86l15 56h-38l-165 480l81 10l137 -436l115 436z" />
    <glyph glyph-name="ydieresis" unicode="&#xff;" horiz-adv-x="435" 
d="M363 624c0 -28 -22 -53 -52 -53c-29 0 -53 24 -53 53c0 30 25 52 53 52c29 0 52 -23 52 -52zM178 624c0 -28 -22 -53 -52 -53c-29 0 -53 24 -53 53c0 30 25 52 53 52c29 0 52 -23 52 -52zM425 480l-156 -543c-23 -79 -60 -142 -138 -142c-56 0 -87 19 -110 35l28 55
c23 -14 49 -27 77 -27c33 0 56 28 72 86l15 56h-38l-165 480l81 10l137 -436l115 436z" />
    <glyph glyph-name="zcaron" unicode="&#x17e;" horiz-adv-x="387" 
d="M324 658l-130 -102l-130 102l27 38l103 -66l103 66zM362 65l-10 -65h-327v52l236 365h-226v63h317v-53l-233 -362h243z" />
    <glyph glyph-name="Euro" unicode="&#x20ac;" horiz-adv-x="504" 
d="M484 62c-29 -34 -76 -76 -168 -76c-121 0 -195 88 -218 237h-78v60h71c-1 15 -1 30 -1 46c0 14 1 29 2 44h-72v60h79c21 117 81 225 216 225c83 0 136 -42 169 -78l-42 -52c-20 18 -65 63 -126 63c-70 0 -114 -61 -130 -158h203v-60h-209c-1 -11 -1 -23 -1 -35
c0 -19 1 -38 2 -55h208v-60h-202c17 -108 62 -170 133 -170c59 0 97 38 123 62z" />
    <glyph glyph-name="uni00A0" unicode="&#xa0;" horiz-adv-x="511" 
 />
    <glyph glyph-name="notequal" unicode="&#x2260;" horiz-adv-x="475" 
d="M427 148h-213l-50 -117h-80l50 117h-87v75h118l63 145h-181v75h212l53 126h80l-54 -126h89v-75h-120l-63 -145h183v-75z" />
    <glyph glyph-name="lessequal" unicode="&#x2264;" horiz-adv-x="475" 
d="M427 0h-380v75h380v-75zM427 137l-380 183v60l380 184v-81l-284 -132v-2l284 -133v-79z" />
    <glyph glyph-name="greaterequal" unicode="&#x2265;" horiz-adv-x="475" 
d="M427 0h-380v75h380v-75zM427 320l-380 -183v81l284 132v2l-284 133v79l380 -183v-61z" />
    <glyph glyph-name="approxequal" unicode="&#x2248;" horiz-adv-x="475" 
d="M448 419c-30 -48 -66 -82 -120 -82c-34 0 -69 11 -98 31c-26 16 -52 30 -80 30c-32 0 -58 -30 -75 -62l-49 55c28 44 64 82 122 82c35 0 65 -11 96 -30c31 -20 54 -31 81 -31c30 0 56 28 75 63zM448 200c-30 -49 -66 -83 -120 -83c-34 0 -69 11 -98 31
c-26 17 -52 30 -80 30c-32 0 -58 -30 -75 -62l-49 56c28 44 64 81 122 81c35 0 65 -10 96 -30s54 -31 81 -31c30 0 56 29 75 63z" />
    <glyph glyph-name="infinity" unicode="&#x221e;" horiz-adv-x="793" 
d="M742 294c0 -92 -64 -166 -164 -166c-79 0 -144 49 -183 111h-2c-43 -63 -106 -111 -180 -111c-99 0 -167 66 -167 162c0 99 68 166 164 166c86 0 145 -55 183 -112h2c33 49 94 112 180 112c96 0 167 -65 167 -162zM673 293c0 55 -31 102 -101 102
c-62 0 -106 -42 -146 -103c39 -65 91 -104 146 -104c70 0 101 50 101 105zM361 292c-36 61 -92 104 -146 104c-68 0 -100 -49 -100 -106c0 -60 42 -103 100 -103c61 0 111 49 146 105z" />
    <glyph glyph-name="partialdiff" unicode="&#x2202;" horiz-adv-x="583" 
d="M536 483c0 -59 -9 -126 -25 -192c-39 -147 -131 -302 -281 -302c-108 0 -181 76 -181 190c0 197 136 319 264 319c71 0 118 -36 137 -73h2c2 20 4 41 4 68c0 112 -52 171 -140 171c-32 0 -69 -11 -97 -27c-7 18 -13 38 -21 57c26 16 77 33 129 33c125 0 209 -85 209 -244
zM440 350c-14 48 -53 87 -118 87c-101 0 -192 -115 -192 -261c0 -74 40 -122 102 -122c97 0 175 121 208 296z" />
    <glyph glyph-name="summation" unicode="&#x2211;" horiz-adv-x="638" 
d="M599 -230h-577v38c111 144 220 287 331 431c-103 139 -205 278 -308 417v44h529v-68h-422c96 -130 193 -261 289 -391c-102 -135 -205 -269 -308 -403h466v-68z" />
    <glyph glyph-name="product" unicode="&#x220f;" horiz-adv-x="727" 
d="M642 -230h-82v859h-392v-859h-82v930h556v-930z" />
    <glyph glyph-name="pi" unicode="&#x3c0;" horiz-adv-x="664" 
d="M599 63l16 -55c-17 -10 -42 -15 -70 -15c-87 0 -122 59 -122 134v310h-179v-301c0 -58 -6 -103 -15 -136h-83c11 39 16 91 16 141v296c-30 0 -75 -10 -102 -23c-8 18 -16 38 -23 56c27 15 80 30 145 30h430v-63h-107v-301c0 -48 17 -80 61 -80c11 0 23 3 33 7z" />
    <glyph glyph-name="integral" unicode="&#x222b;" horiz-adv-x="496" 
d="M413 675c-10 4 -28 9 -46 9c-54 0 -83 -36 -83 -99v-644c0 -105 -56 -169 -155 -169c-23 0 -57 5 -72 12c6 20 11 41 17 61c12 -5 27 -8 46 -8c55 0 83 34 83 98v645c0 102 55 169 156 169c27 0 59 -7 72 -14z" />
    <glyph glyph-name="Omega" unicode="&#x2126;" horiz-adv-x="717" 
d="M663 0h-233v68c60 52 147 143 147 308c0 151 -76 265 -220 265c-134 0 -225 -110 -225 -266c0 -161 84 -252 149 -307v-68h-233v68h154c-64 51 -156 149 -156 320c0 186 128 324 312 324c195 0 305 -134 305 -322c0 -155 -82 -264 -157 -322h157v-68z" />
    <glyph glyph-name="radical" unicode="&#x221a;" horiz-adv-x="523" 
d="M526 729c-65 -247 -130 -494 -196 -741h-66c-47 113 -93 226 -140 339c-18 -11 -36 -22 -55 -33c-9 15 -17 31 -26 46c39 24 79 49 118 73c45 -109 90 -217 135 -326c56 213 112 428 168 642h62z" />
    <glyph glyph-name="Delta" unicode="&#x2206;" horiz-adv-x="617" 
d="M606 0h-579v40l240 660h102l237 -660v-40zM509 69c-59 165 -118 331 -177 497c-8 24 -12 42 -16 56h-3c-3 -13 -9 -35 -15 -55l-177 -498h388z" />
    <glyph glyph-name="lozenge" unicode="&#x25ca;" horiz-adv-x="567" 
d="M506 350c-70 -117 -139 -233 -208 -350h-42c-69 116 -138 233 -207 349l207 351h42c69 -117 138 -233 208 -350zM437 350c-53 90 -107 180 -160 270c-53 -90 -107 -180 -160 -270c53 -90 106 -180 160 -270c53 90 106 180 160 270z" />
    <glyph glyph-name="litre" unicode="&#x2113;" horiz-adv-x="498" 
d="M410 53c-26 -28 -73 -67 -133 -67c-38 0 -65 13 -85 33c-25 26 -37 70 -37 119v109c-20 -21 -39 -42 -59 -64c-11 14 -22 27 -33 40c31 33 61 66 92 100v228c0 117 49 177 124 177c74 0 99 -62 99 -107c0 -96 -48 -178 -113 -262c-10 -12 -25 -32 -34 -42v-177
c0 -66 27 -92 63 -92s66 27 87 50c10 -15 20 -30 29 -45zM321 611c0 29 -11 56 -38 56c-32 0 -52 -31 -52 -111v-159c6 8 15 20 21 29c41 61 69 129 69 185z" />
    <glyph glyph-name="estimated" unicode="&#x212e;" horiz-adv-x="665" 
d="M619 294h-454v-203c44 -42 98 -65 161 -65c103 0 168 52 218 134c12 -8 24 -15 36 -22c-60 -91 -130 -150 -254 -150c-176 0 -287 138 -287 307c0 170 109 306 288 306c182 0 287 -136 292 -307zM489 332v165c-42 41 -100 67 -162 67c-64 0 -119 -22 -162 -66v-166h324z
" />
    <glyph glyph-name="uni00AD" unicode="&#xad;" horiz-adv-x="339" 
d="M299 237h-260v72h260v-72z" />
    <glyph glyph-name="uni02C9" unicode="&#x2c9;" horiz-adv-x="310" 
d="M269 601h-228v60h228v-60z" />
    <glyph glyph-name="uni03BC" unicode="&#x3bc;" horiz-adv-x="508" 
d="M428 0h-55l-10 43c-52 -40 -93 -57 -146 -57c-24 0 -44 4 -62 10v-191l-75 -10v685l75 10v-320c0 -88 18 -116 72 -116c41 0 88 19 126 51v375l75 10v-490z" />
    <glyph glyph-name="uni2215" unicode="&#x2215;" horiz-adv-x="332" 
d="M312 686l-210 -686h-82l210 686h82z" />
    <glyph glyph-name="uni2219" unicode="&#x2219;" horiz-adv-x="256" 
d="M188 335c0 -33 -27 -60 -59 -60c-33 0 -60 27 -60 60c0 32 26 58 60 58c32 0 59 -26 59 -58z" />
    <glyph glyph-name="uni03A9" unicode="&#x3a9;" horiz-adv-x="717" 
d="M663 0h-233v68c60 52 147 143 147 308c0 151 -76 265 -220 265c-134 0 -225 -110 -225 -266c0 -161 84 -252 149 -307v-68h-233v68h154c-64 51 -156 149 -156 320c0 186 128 324 312 324c195 0 305 -134 305 -322c0 -155 -82 -264 -157 -322h157v-68z" />
    <glyph glyph-name="zero.alt" unicode="&#xe000;" horiz-adv-x="754" 
d="M377 662c184 0 332 -150 332 -335s-148 -335 -332 -335s-332 150 -332 335s148 335 332 335zM377 598c-145 0 -254 -113 -254 -271s109 -272 254 -272s254 114 254 272s-109 271 -254 271zM377 145c-100 0 -139 81 -139 183c0 103 38 185 140 185c100 0 139 -83 139 -184
c0 -103 -38 -184 -140 -184zM377 217c31 0 49 25 49 110c0 87 -18 113 -49 113c-29 0 -50 -26 -50 -111c0 -87 21 -112 50 -112z" />
    <glyph glyph-name="one.alt" unicode="&#xe001;" horiz-adv-x="754" 
d="M377 662c184 0 332 -150 332 -335s-148 -335 -332 -335s-332 150 -332 335s148 335 332 335zM377 598c-145 0 -254 -113 -254 -271s109 -272 254 -272s254 114 254 272s-109 271 -254 271zM270 157v71h65v172l-53 -29l-34 57l115 79h62v-279h60v-71h-215z" />
    <glyph glyph-name="two.alt" unicode="&#xe002;" horiz-adv-x="754" 
d="M377 662c184 0 332 -150 332 -335s-148 -335 -332 -335s-332 150 -332 335s148 335 332 335zM377 598c-145 0 -254 -113 -254 -271s109 -272 254 -272s254 114 254 272s-109 271 -254 271zM256 154c0 59 2 73 14 97c16 32 43 54 78 82c27 22 56 38 56 74
c0 22 -12 32 -33 32c-31 0 -42 -27 -52 -55l-70 26c18 68 62 103 130 103c72 0 115 -36 115 -99c0 -39 -12 -66 -30 -88s-41 -36 -68 -56c-16 -12 -28 -24 -37 -40h135v-76h-238z" />
    <glyph glyph-name="three.alt" unicode="&#xe003;" horiz-adv-x="754" 
d="M377 662c184 0 332 -150 332 -335s-148 -335 -332 -335s-332 150 -332 335s148 335 332 335zM377 598c-145 0 -254 -113 -254 -271s109 -272 254 -272s254 114 254 272s-109 271 -254 271zM367 145c-47 0 -88 14 -113 34l19 67c28 -16 61 -29 88 -29c32 0 49 14 49 44
c0 26 -12 40 -56 40h-27v70h28c28 0 47 9 47 40c0 19 -13 30 -33 30c-28 0 -42 -21 -56 -37l-52 45c26 41 60 64 116 64c67 0 115 -35 115 -95c0 -42 -22 -63 -46 -75c33 -15 54 -43 54 -85c0 -68 -55 -113 -133 -113z" />
    <glyph glyph-name="four.alt" unicode="&#xe004;" horiz-adv-x="754" 
d="M377 662c184 0 332 -150 332 -335s-148 -335 -332 -335s-332 150 -332 335s148 335 332 335zM377 598c-145 0 -254 -113 -254 -271s109 -272 254 -272s254 114 254 272s-109 271 -254 271zM373 151v68h-148v77l130 224l93 -24l-130 -202h55l19 80h68v-80h37v-75h-37v-68
h-87z" />
    <glyph glyph-name="five.alt" unicode="&#xe005;" horiz-adv-x="754" 
d="M377 662c184 0 332 -150 332 -335s-148 -335 -332 -335s-332 150 -332 335s148 335 332 335zM377 598c-145 0 -254 -113 -254 -271s109 -272 254 -272s254 114 254 272s-109 271 -254 271zM355 145c-49 0 -83 11 -105 23l13 68c28 -10 60 -19 89 -19c18 0 33 6 42 14
c12 10 17 24 17 42c0 27 -14 44 -39 44c-24 0 -37 -13 -51 -29l-64 21l19 195h213v-78h-138l-5 -52c11 8 25 13 45 13c69 0 109 -43 109 -111c0 -82 -56 -131 -145 -131z" />
    <glyph glyph-name="six.alt" unicode="&#xe006;" horiz-adv-x="754" 
d="M377 662c184 0 332 -150 332 -335s-148 -335 -332 -335s-332 150 -332 335s148 335 332 335zM377 598c-145 0 -254 -113 -254 -271s109 -272 254 -272s254 114 254 272s-109 271 -254 271zM366 145c-82 0 -129 49 -129 156c0 133 68 212 165 212c37 0 65 -13 81 -24
l-20 -65c-11 6 -33 16 -57 16c-37 0 -63 -19 -81 -67c15 13 38 22 59 22c73 0 110 -45 110 -119c0 -92 -52 -131 -128 -131zM366 216c25 0 40 20 40 59c0 38 -13 54 -38 54c-24 0 -41 -18 -41 -55c0 -41 15 -58 39 -58z" />
    <glyph glyph-name="seven.alt" unicode="&#xe007;" horiz-adv-x="754" 
d="M377 662c184 0 332 -150 332 -335s-148 -335 -332 -335s-332 150 -332 335s148 335 332 335zM377 598c-145 0 -254 -113 -254 -271s109 -272 254 -272s254 114 254 272s-109 271 -254 271zM368 134l-92 17l112 262h-138v82h244v-49z" />
    <glyph glyph-name="eight.alt" unicode="&#xe008;" horiz-adv-x="754" 
d="M377 662c184 0 332 -150 332 -335s-148 -335 -332 -335s-332 150 -332 335s148 335 332 335zM377 598c-145 0 -254 -113 -254 -271s109 -272 254 -272s254 114 254 272s-109 271 -254 271zM378 145c-77 0 -136 32 -136 103c0 44 29 77 64 91c-27 11 -51 37 -51 77
c0 59 48 98 124 98c75 0 123 -36 123 -95c0 -37 -19 -63 -50 -79c34 -15 61 -43 61 -90c0 -75 -69 -105 -135 -105zM379 212c28 0 45 16 45 39c0 31 -21 43 -48 53c-25 -11 -46 -27 -46 -53c0 -24 18 -39 49 -39zM382 372c19 7 31 20 31 41s-13 32 -34 32s-35 -12 -35 -31
c0 -22 17 -34 38 -42z" />
    <glyph glyph-name="nine.alt" unicode="&#xe009;" horiz-adv-x="754" 
d="M377 662c184 0 332 -150 332 -335s-148 -335 -332 -335s-332 150 -332 335s148 335 332 335zM377 598c-145 0 -254 -113 -254 -271s109 -272 254 -272s254 114 254 272s-109 271 -254 271zM341 144c-37 0 -59 7 -75 15l13 70c16 -6 40 -11 59 -11c34 0 65 21 80 67
c-14 -15 -38 -24 -59 -24c-73 0 -109 48 -109 122c0 78 49 130 127 130c85 0 129 -58 129 -156c0 -135 -60 -213 -165 -213zM376 326c24 0 39 19 39 56c0 40 -14 58 -38 58c-26 0 -39 -20 -39 -58c0 -41 14 -56 38 -56z" />
    <glyph glyph-name="C.alt" unicode="&#xe00a;" horiz-adv-x="754" 
d="M377 662c184 0 332 -150 332 -335s-148 -335 -332 -335s-332 150 -332 335s148 335 332 335zM377 598c-145 0 -254 -113 -254 -271s109 -272 254 -272s254 114 254 272s-109 271 -254 271zM379 145c-78 0 -135 48 -135 184c0 128 58 180 140 180c51 0 82 -24 96 -36
l-31 -67c-14 9 -36 26 -60 26c-33 0 -52 -35 -52 -103c0 -78 26 -106 53 -106c24 0 43 11 60 21l30 -65c-23 -18 -50 -34 -101 -34z" />
    <glyph glyph-name="E.alt" unicode="&#xe00b;" horiz-adv-x="754" 
d="M377 662c184 0 332 -150 332 -335s-148 -335 -332 -335s-332 150 -332 335s148 335 332 335zM377 598c-145 0 -254 -113 -254 -271s109 -272 254 -272s254 114 254 272s-109 271 -254 271zM267 154v347h210l-9 -77h-106v-53h92v-77h-92v-64h111v-76h-206z" />
    <glyph glyph-name="F.alt" unicode="&#xe00c;" horiz-adv-x="754" 
d="M377 662c184 0 332 -150 332 -335s-148 -335 -332 -335s-332 150 -332 335s148 335 332 335zM377 598c-145 0 -254 -113 -254 -271s109 -272 254 -272s254 114 254 272s-109 271 -254 271zM271 152v347h205l-10 -77h-100v-64h87v-75h-87v-131h-95z" />
    <glyph glyph-name="M.alt" unicode="&#xe00d;" horiz-adv-x="754" 
d="M377 662c184 0 332 -150 332 -335s-148 -335 -332 -335s-332 150 -332 335s148 335 332 335zM377 598c-145 0 -254 -113 -254 -271s109 -272 254 -272s254 114 254 272s-109 271 -254 271zM235 154l13 347h93l44 -146l40 146h93l13 -347h-89l-3 175l-30 -106h-53l-29 106
l-3 -175h-89z" />
    <glyph glyph-name="T.alt" unicode="&#xe00e;" horiz-adv-x="754" 
d="M377 662c184 0 332 -150 332 -335s-148 -335 -332 -335s-332 150 -332 335s148 335 332 335zM377 598c-145 0 -254 -113 -254 -271s109 -272 254 -272s254 114 254 272s-109 271 -254 271zM325 145v267h-69v81h238l-11 -81h-64v-267h-94z" />
    <glyph glyph-name="W.alt" unicode="&#xe00f;" horiz-adv-x="750" 
d="M375 -8c-193 0 -348 157 -348 350c0 194 155 351 348 351s347 -157 347 -351c0 -193 -154 -350 -347 -350zM375 58c152 0 266 119 266 284c0 166 -114 284 -266 284s-266 -118 -266 -284c0 -165 114 -284 266 -284zM236 155l-62 341l101 4l22 -177l31 173h87l32 -174
l21 178l101 -4l-66 -341h-98l-34 188l-38 -188h-97z" />
    <glyph glyph-name="c.alt" unicode="&#xe010;" horiz-adv-x="754" 
d="M377 662c184 0 332 -150 332 -335s-148 -335 -332 -335s-332 150 -332 335s148 335 332 335zM377 598c-145 0 -254 -113 -254 -271s109 -272 254 -272s254 114 254 272s-109 271 -254 271zM380 163c-77 0 -138 46 -138 157c0 120 71 166 148 166c49 0 77 -16 99 -32
l-33 -67c-17 11 -37 21 -59 21c-27 0 -50 -21 -50 -85c0 -60 20 -79 49 -79c24 0 45 13 60 22l33 -64c-20 -19 -55 -39 -109 -39z" />
    <glyph glyph-name="e.alt" unicode="&#xe011;" horiz-adv-x="754" 
d="M377 662c184 0 332 -150 332 -335s-148 -335 -332 -335s-332 150 -332 335s148 335 332 335zM377 598c-145 0 -254 -113 -254 -271s109 -272 254 -272s254 114 254 272s-109 271 -254 271zM381 163c-80 0 -148 45 -148 159c0 108 62 164 147 164c64 0 103 -30 121 -88
c8 -27 13 -58 13 -99h-181c4 -42 27 -56 58 -56c34 0 62 14 80 24l36 -65c-24 -17 -65 -39 -126 -39zM334 362h84c-2 38 -14 55 -40 55c-24 0 -40 -15 -44 -55z" />
    <glyph glyph-name="f.alt" unicode="&#xe012;" horiz-adv-x="754" 
d="M377 662c184 0 332 -150 332 -335s-148 -335 -332 -335s-332 150 -332 335s148 335 332 335zM377 598c-145 0 -254 -113 -254 -271s109 -272 254 -272s254 114 254 272s-109 271 -254 271zM300 136v202h-29v72h29v25c0 67 35 102 93 102c35 0 51 -8 68 -14l-17 -68
c-7 2 -14 5 -25 5c-15 0 -20 -11 -20 -27v-23h44l-5 -72h-39v-202h-99z" />
    <glyph glyph-name="m.alt" unicode="&#xe013;" horiz-adv-x="754" 
d="M377 662c184 0 332 -150 332 -335s-148 -335 -332 -335s-332 150 -332 335s148 335 332 335zM377 598c-145 0 -254 -113 -254 -271s109 -272 254 -272s254 114 254 272s-109 271 -254 271zM213 178v195c0 20 -4 60 -11 86l82 6c3 -6 6 -14 9 -22c16 14 25 26 57 26
c34 0 49 -12 62 -32c16 17 32 32 68 32c33 0 42 -10 55 -28c10 -14 12 -32 12 -56v-207h-85v195c0 20 -1 28 -15 28c-12 0 -15 -4 -24 -11v-212h-85v194c0 21 -1 29 -16 29c-12 0 -16 -4 -24 -11v-212h-85z" />
    <glyph glyph-name="t.alt" unicode="&#xe014;" horiz-adv-x="754" 
d="M377 662c184 0 332 -150 332 -335s-148 -335 -332 -335s-332 150 -332 335s148 335 332 335zM377 598c-145 0 -254 -113 -254 -271s109 -272 254 -272s254 114 254 272s-109 271 -254 271zM391 134c-60 0 -88 35 -88 103v134h-32v75h32v82l104 7v-89h54l-7 -75h-47v-128
c0 -19 7 -24 18 -24c10 0 22 4 30 5l7 -80c-13 -4 -37 -10 -71 -10z" />
    <glyph glyph-name="w.alt" unicode="&#xe015;" horiz-adv-x="750" 
d="M375 -8c-193 0 -348 157 -348 350c0 194 155 351 348 351s347 -157 347 -351c0 -193 -154 -350 -347 -350zM375 58c152 0 266 119 266 284c0 166 -114 284 -266 284s-266 -118 -266 -284c0 -165 114 -284 266 -284zM244 169l-68 304l102 7l26 -175l34 168h80l33 -167
l30 174l97 -7l-78 -304h-94l-30 168l-38 -168h-94z" />
    <glyph glyph-name="zero.alt1" unicode="&#xe016;" 
d="M369 -9c-183 0 -324 141 -324 333s141 332 324 332c182 0 323 -140 323 -332s-141 -333 -323 -333zM370 115c109 0 151 88 151 212c0 121 -44 210 -148 210c-108 0 -154 -90 -154 -212c0 -119 43 -210 151 -210zM370 186c-41 0 -63 41 -63 140c0 100 25 140 64 140
s62 -37 62 -141c0 -97 -19 -139 -63 -139z" />
    <glyph glyph-name="one.alt1" unicode="&#xe017;" 
d="M369 -9c-183 0 -324 141 -324 333s141 332 324 332c182 0 323 -140 323 -332s-141 -333 -323 -333zM253 128h235v70h-70v334h-63l-122 -85l32 -54l65 35v-230h-77v-70z" />
    <glyph glyph-name="two.alt1" unicode="&#xe018;" 
d="M369 -9c-183 0 -324 141 -324 333s141 332 324 332c182 0 323 -140 323 -332s-141 -333 -323 -333zM237 125h259v76h-160c8 24 24 42 45 60c29 24 56 41 79 65s36 56 36 99c0 69 -47 112 -125 112c-76 0 -121 -39 -141 -113l69 -24c12 32 27 66 65 66c28 0 44 -17 44 -47
c0 -42 -34 -63 -66 -88c-38 -29 -68 -55 -86 -90c-16 -28 -19 -53 -19 -116z" />
    <glyph glyph-name="three.alt1" unicode="&#xe019;" 
d="M369 -9c-183 0 -324 141 -324 333s141 332 324 332c182 0 323 -140 323 -332s-141 -333 -323 -333zM354 115c88 0 148 50 148 126c0 52 -26 84 -67 101c31 15 56 42 56 88c0 68 -52 107 -125 107c-62 0 -98 -25 -126 -68l52 -44c15 18 34 42 67 42c27 0 45 -16 45 -43
c0 -38 -24 -53 -62 -53h-33v-70h32c54 0 73 -19 73 -56c0 -38 -23 -59 -64 -59c-34 0 -69 15 -97 30l-21 -67c25 -19 67 -34 122 -34z" />
    <glyph glyph-name="four.alt1" unicode="&#xe01a;" 
d="M369 -9c-183 0 -324 141 -324 333s141 332 324 332c182 0 323 -140 323 -332s-141 -333 -323 -333zM367 124h86v81h46v73h-46v97h-67l-17 -96h-81l154 243l-91 22l-152 -263v-76h168v-81z" />
    <glyph glyph-name="five.alt1" unicode="&#xe01b;" 
d="M369 -9c-183 0 -324 141 -324 333s141 332 324 332c182 0 323 -140 323 -332s-141 -333 -323 -333zM344 115c97 0 160 57 160 148c0 77 -46 127 -120 127c-24 0 -43 -6 -59 -18l8 79h159v77h-232l-21 -222l61 -21c19 20 37 37 65 37c32 0 51 -24 51 -60
c0 -23 -7 -44 -20 -57c-12 -12 -32 -19 -56 -19c-34 0 -66 10 -94 19l-14 -67c22 -12 60 -23 112 -23z" />
    <glyph glyph-name="six.alt1" unicode="&#xe01c;" 
d="M369 -9c-183 0 -324 141 -324 333s141 332 324 332c182 0 323 -140 323 -332s-141 -333 -323 -333zM353 115c84 0 141 48 141 150c0 84 -42 137 -121 137c-28 0 -52 -11 -72 -30c17 57 48 95 101 95c25 0 48 -11 60 -16l19 64c-17 11 -44 22 -83 22
c-109 0 -185 -92 -185 -244c0 -120 51 -178 140 -178zM354 186c-33 0 -53 24 -53 77c0 49 21 73 54 73c34 0 52 -23 52 -72c0 -51 -19 -78 -53 -78z" />
    <glyph glyph-name="seven.alt1" unicode="&#xe01d;" 
d="M369 -9c-183 0 -324 141 -324 333s141 332 324 332c182 0 323 -140 323 -332s-141 -333 -323 -333zM351 104l145 367v46h-264v-80h162l-133 -318z" />
    <glyph glyph-name="eight.alt1" unicode="&#xe01e;" 
d="M369 -9c-183 0 -324 141 -324 333s141 332 324 332c182 0 323 -140 323 -332s-141 -333 -323 -333zM370 115c74 0 147 36 147 119c0 52 -31 86 -76 105c41 21 63 51 63 95c0 64 -53 104 -133 104c-81 0 -136 -42 -136 -109c0 -45 27 -76 64 -91c-43 -16 -79 -53 -79 -106
c0 -79 63 -117 150 -117zM371 182c-40 0 -64 21 -64 53c0 35 27 55 60 67c39 -15 63 -33 63 -67c0 -32 -23 -53 -59 -53zM373 371c-31 13 -51 30 -51 57c0 26 20 43 48 43c29 0 48 -16 48 -45c0 -26 -16 -43 -45 -55z" />
    <glyph glyph-name="nine.alt1" unicode="&#xe01f;" 
d="M369 -9c-183 0 -324 141 -324 333s141 332 324 332c182 0 323 -140 323 -332s-141 -333 -323 -333zM328 114c114 0 180 91 180 247c0 112 -47 176 -138 176c-86 0 -140 -59 -140 -148c0 -84 42 -140 120 -140c28 0 54 12 71 33c-15 -66 -51 -96 -99 -96
c-22 0 -46 7 -61 12l-12 -68c16 -9 39 -16 79 -16zM367 314c-31 0 -50 24 -50 75c0 49 19 77 53 77c32 0 49 -26 49 -76s-20 -76 -52 -76z" />
    <glyph glyph-name="C.alt1" unicode="&#xe020;" 
d="M369 -9c-183 0 -324 141 -324 333s141 332 324 332c182 0 323 -140 323 -332s-141 -333 -323 -333zM371 110c57 0 89 21 113 41l-33 63c-18 -12 -41 -28 -70 -28c-40 0 -71 42 -71 143c0 89 26 134 68 134c31 0 57 -20 73 -33l32 64c-18 17 -52 44 -109 44
c-100 0 -154 -78 -154 -211c0 -154 61 -217 151 -217z" />
    <glyph glyph-name="E.alt1" unicode="&#xe021;" 
d="M369 -9c-183 0 -324 141 -324 333s141 332 324 332c182 0 323 -140 323 -332s-141 -333 -323 -333zM250 120h227v74h-136v100h112v74h-112v87h130l10 74h-231v-409z" />
    <glyph glyph-name="F.alt1" unicode="&#xe022;" 
d="M369 -9c-183 0 -324 141 -324 333s141 332 324 332c182 0 323 -140 323 -332s-141 -333 -323 -333zM256 118h92v164h109v74h-109v96h125l10 75h-227v-409z" />
    <glyph glyph-name="M.alt1" unicode="&#xe023;" 
d="M369 -9c-183 0 -324 141 -324 333s141 332 324 332c182 0 323 -140 323 -332s-141 -333 -323 -333zM206 120h87l4 246l50 -159h51l50 159l6 -246h87l-17 409h-92l-58 -193l-60 193h-92z" />
    <glyph glyph-name="T.alt1" unicode="&#xe024;" 
d="M369 -9c-183 0 -324 141 -324 333s141 332 324 332c182 0 323 -140 323 -332s-141 -333 -323 -333zM317 109h91v331h82l9 78h-268v-78h86v-331z" />
    <glyph glyph-name="W.alt1" unicode="&#xe025;" 
d="M369 -9c-183 0 -324 141 -324 333s141 332 324 332c182 0 323 -140 323 -332s-141 -333 -323 -333zM223 105h93l49 257l46 -257h93l77 415l-91 5l-38 -260l-45 255h-82l-46 -253l-36 258l-93 -5z" />
    <glyph glyph-name="c.alt1" unicode="&#xe026;" 
d="M369 -9c-183 0 -324 141 -324 333s141 332 324 332c182 0 323 -140 323 -332s-141 -333 -323 -333zM372 136c64 0 101 25 123 46l-34 63c-20 -14 -46 -29 -75 -29c-39 0 -65 26 -65 103c0 81 29 110 68 110c29 0 53 -14 72 -27l34 66c-23 17 -55 38 -112 38
c-89 0 -164 -58 -164 -191c0 -122 65 -179 153 -179z" />
    <glyph glyph-name="e.alt1" unicode="&#xe027;" 
d="M369 -9c-183 0 -324 141 -324 333s141 332 324 332c182 0 323 -140 323 -332s-141 -333 -323 -333zM373 136c67 0 113 25 137 44l-35 63c-22 -12 -51 -28 -92 -28c-42 0 -72 25 -76 81h210c0 51 -3 84 -13 115c-20 61 -64 95 -133 95c-95 0 -162 -66 -162 -187
c0 -126 73 -183 164 -183zM309 362c3 53 25 76 60 76c34 0 52 -25 55 -76h-115z" />
    <glyph glyph-name="f.alt1" unicode="&#xe028;" 
d="M369 -9c-183 0 -324 141 -324 333s141 332 324 332c182 0 323 -140 323 -332s-141 -333 -323 -333zM296 94h90v247h51l6 69h-57v35c0 23 9 39 29 39c12 0 23 -4 31 -7l15 66c-15 5 -33 13 -65 13c-63 0 -100 -36 -100 -110v-36h-37v-69h37v-247z" />
    <glyph glyph-name="m.alt1" unicode="&#xe029;" 
d="M369 -9c-183 0 -324 141 -324 333s141 332 324 332c182 0 323 -140 323 -332s-141 -333 -323 -333zM177 150h85v252c15 12 24 17 39 17c21 0 26 -12 26 -38v-231h86v253c15 11 23 16 38 16c21 0 25 -12 25 -37v-232h86v241c0 30 -4 50 -14 66c-13 20 -28 32 -62 32
c-40 0 -61 -16 -87 -38c-13 25 -32 38 -69 38c-35 0 -49 -13 -75 -33c-1 10 -4 20 -11 28l-79 -8c8 -29 12 -72 12 -96v-230z" />
    <glyph glyph-name="t.alt1" unicode="&#xe02a;" 
d="M369 -9c-183 0 -324 141 -324 333s141 332 324 332c182 0 323 -140 323 -332s-141 -333 -323 -333zM387 100c32 0 57 6 72 10l-8 76c-10 -3 -23 -7 -35 -7c-17 0 -27 12 -27 36v171h59l7 72h-66v108l-96 -8v-100h-41v-72h41v-174c0 -73 29 -112 94 -112z" />
    <glyph glyph-name="w.alt1" unicode="&#xe02b;" 
d="M369 -9c-183 0 -324 141 -324 333s141 332 324 332c182 0 323 -140 323 -332s-141 -333 -323 -333zM222 141h95l49 215l43 -215h95l87 341l-95 8l-41 -222l-45 214h-83l-46 -214l-39 222l-99 -8z" />
    <glyph glyph-name="orn.001" unicode="&#xe02c;" horiz-adv-x="498" 
d="M75 502h348v-358h-348v358z" />
    <glyph glyph-name="orn.002" unicode="&#xe02d;" horiz-adv-x="498" 
d="M75 502h348v-358h-348v358zM138 203h222v240h-222v-240z" />
    <glyph glyph-name="orn.003" unicode="&#xe02e;" 
d="M369 -9c-183 0 -324 141 -324 333s141 332 324 332c182 0 323 -140 323 -332s-141 -333 -323 -333z" />
    <glyph glyph-name="orn.004" unicode="&#xe02f;" horiz-adv-x="754" 
d="M377 662c184 0 332 -150 332 -335s-148 -335 -332 -335s-332 150 -332 335s148 335 332 335zM377 598c-145 0 -254 -113 -254 -271s109 -272 254 -272s254 114 254 272s-109 271 -254 271z" />
    <glyph glyph-name="orn.005" unicode="&#xe030;" horiz-adv-x="730" 
d="M303 393v169l376 -229l-376 -229v166h-248v123h248z" />
    <glyph glyph-name="orn.006" unicode="&#xe031;" horiz-adv-x="730" 
d="M427 273v-169l-376 229l376 229v-166h248v-123h-248z" />
    <glyph glyph-name="orn.007" unicode="&#xe032;" horiz-adv-x="562" 
d="M75 104v458l434 -228v-2z" />
    <glyph glyph-name="orn.008" unicode="&#xe033;" horiz-adv-x="562" 
d="M487 562v-458l-434 228v2z" />
    <glyph glyph-name="orn.009" unicode="&#xe034;" horiz-adv-x="562" 
d="M75 104v458l434 -228v-2zM140 211l243 122l-243 122v-244z" />
    <glyph glyph-name="orn.010" unicode="&#xe035;" horiz-adv-x="562" 
d="M487 562v-458l-434 228v2zM422 455l-243 -122l243 -122v244z" />
    <glyph glyph-name="orn.011" unicode="&#xe036;" horiz-adv-x="494" 
d="M105 703c28 0 51 -23 51 -51s-23 -51 -51 -51s-51 23 -51 51s23 51 51 51zM105 83c28 0 51 -23 51 -51s-23 -51 -51 -51s-51 23 -51 51s23 51 51 51zM105 238c28 0 51 -23 51 -51s-23 -51 -51 -51s-51 23 -51 51s23 51 51 51zM255 238c28 0 51 -23 51 -51
s-23 -51 -51 -51s-51 23 -51 51s23 51 51 51zM105 393c28 0 51 -23 51 -51s-23 -51 -51 -51s-51 23 -51 51s23 51 51 51zM255 393c28 0 51 -23 51 -51s-23 -51 -51 -51s-51 23 -51 51s23 51 51 51zM405 393c28 0 51 -23 51 -51s-23 -51 -51 -51s-51 23 -51 51s23 51 51 51z
M105 548c28 0 51 -23 51 -51s-23 -51 -51 -51s-51 23 -51 51s23 51 51 51zM255 548c28 0 51 -23 51 -51s-23 -51 -51 -51s-51 23 -51 51s23 51 51 51z" />
    <glyph glyph-name="orn.012" unicode="&#xe037;" horiz-adv-x="494" 
d="M389 601c-28 0 -51 23 -51 51s23 51 51 51s51 -23 51 -51s-23 -51 -51 -51zM389 -19c-28 0 -51 23 -51 51s23 51 51 51s51 -23 51 -51s-23 -51 -51 -51zM239 136c-28 0 -51 23 -51 51s23 51 51 51s51 -23 51 -51s-23 -51 -51 -51zM389 136c-28 0 -51 23 -51 51
s23 51 51 51s51 -23 51 -51s-23 -51 -51 -51zM89 291c-28 0 -51 23 -51 51s23 51 51 51s51 -23 51 -51s-23 -51 -51 -51zM239 291c-28 0 -51 23 -51 51s23 51 51 51s51 -23 51 -51s-23 -51 -51 -51zM389 291c-28 0 -51 23 -51 51s23 51 51 51s51 -23 51 -51s-23 -51 -51 -51
zM239 446c-28 0 -51 23 -51 51s23 51 51 51s51 -23 51 -51s-23 -51 -51 -51zM389 446c-28 0 -51 23 -51 51s23 51 51 51s51 -23 51 -51s-23 -51 -51 -51z" />
    <glyph glyph-name="orn.013" unicode="&#xe038;" horiz-adv-x="480" 
d="M110 548c31 0 56 -25 56 -56s-25 -56 -56 -56s-56 25 -56 56s25 56 56 56zM110 248c31 0 56 -25 56 -56s-25 -56 -56 -56s-56 25 -56 56s25 56 56 56zM248 323c31 0 56 -25 56 -56s-25 -56 -56 -56s-56 25 -56 56s25 56 56 56zM110 398c31 0 56 -25 56 -56
s-25 -56 -56 -56s-56 25 -56 56s25 56 56 56zM386 398c31 0 56 -25 56 -56s-25 -56 -56 -56s-56 25 -56 56s25 56 56 56zM248 473c31 0 56 -25 56 -56s-25 -56 -56 -56s-56 25 -56 56s25 56 56 56z" />
    <glyph glyph-name="orn.014" unicode="&#xe039;" horiz-adv-x="480" 
d="M370 436c-31 0 -56 25 -56 56s25 56 56 56s56 -25 56 -56s-25 -56 -56 -56zM370 136c-31 0 -56 25 -56 56s25 56 56 56s56 -25 56 -56s-25 -56 -56 -56zM232 211c-31 0 -56 25 -56 56s25 56 56 56s56 -25 56 -56s-25 -56 -56 -56zM94 286c-31 0 -56 25 -56 56
s25 56 56 56s56 -25 56 -56s-25 -56 -56 -56zM370 286c-31 0 -56 25 -56 56s25 56 56 56s56 -25 56 -56s-25 -56 -56 -56zM232 361c-31 0 -56 25 -56 56s25 56 56 56s56 -25 56 -56s-25 -56 -56 -56z" />
    <glyph glyph-name="orn.015" unicode="&#xe03a;" horiz-adv-x="730" 
d="M439 403c1 0 -190 210 -190 210l84 89l346 -359l-346 -359l-84 89l189 207h-383v123h384z" />
    <glyph glyph-name="orn.016" unicode="&#xe03b;" horiz-adv-x="730" 
d="M291 401h384v-122h-385l191 -210l-83 -89l-347 359l347 359l83 -89z" />
    <glyph glyph-name="orn.017" unicode="&#xe03c;" horiz-adv-x="768" 
d="M316 234v452h133v-453l212 194l82 -81l-359 -346l-359 346l81 81z" />
    <glyph glyph-name="orn.018" unicode="&#xe03d;" horiz-adv-x="768" 
d="M319 454l-213 -195l-81 81l359 346l359 -346l-82 -81l-210 194v-453h-132v454z" />
    <glyph glyph-name="orn.019" unicode="&#xe03e;" horiz-adv-x="730" 
d="M396 206l-311 310l91 92l306 -306c1 0 16 306 16 306h121l-9 -523l-522 -10v116z" />
    <glyph glyph-name="orn.020" unicode="&#xe03f;" horiz-adv-x="730" 
d="M396 474l-308 15v116l522 -10l9 -522h-121s-15 305 -16 305c0 1 -306 -305 -306 -305l-91 91z" />
    <glyph glyph-name="orn.021" unicode="&#xe040;" horiz-adv-x="730" 
d="M248 302l306 306l91 -92l-310 -310l308 -15v-116l-523 10l-9 523h122s15 -305 15 -306z" />
    <glyph glyph-name="orn.022" unicode="&#xe041;" horiz-adv-x="730" 
d="M248 378l-15 -305h-122l9 522l523 10v-116l-308 -15l310 -310l-91 -91z" />
    <glyph glyph-name="orn.023" unicode="&#xe042;" horiz-adv-x="826" 
d="M540 403l-155 170l84 89l306 -319l-306 -319l-84 89l154 167h-351v-280h-133v403h485z" />
    <glyph glyph-name="orn.024" unicode="&#xe043;" horiz-adv-x="826" 
d="M286 279l155 -170l-84 -89l-306 319l306 319l84 -89l-154 -167h351v284h133v-407h-485z" />
    <glyph glyph-name="orn.025" unicode="&#xe044;" horiz-adv-x="768" 
d="M450 233l171 154l82 -81l-319 -306l-319 306l81 81l171 -155v331h-264v123h397v-453z" />
    <glyph glyph-name="orn.026" unicode="&#xe045;" horiz-adv-x="768" 
d="M318 453l-171 -154l-82 81l319 306l319 -306l-81 -81l-171 155v-331h264v-123h-397v453z" />
    <glyph glyph-name="orn.027" unicode="&#xe046;" horiz-adv-x="765" 
d="M382 -8c-193 0 -348 157 -348 351c0 193 155 350 348 350s349 -157 349 -350c0 -194 -156 -351 -349 -351zM127 396h229l-87 92l77 82l222 -226l-222 -227l-77 82l86 89h-228c24 -123 127 -221 255 -221c147 0 260 128 260 276c0 147 -113 276 -260 276
c-129 0 -232 -99 -255 -223z" />
    <glyph glyph-name="orn.028" unicode="&#xe047;" horiz-adv-x="765" 
d="M382 -8c-193 0 -348 157 -348 351c0 193 155 350 348 350s349 -157 349 -350c0 -194 -156 -351 -349 -351zM637 290h-229l87 -92l-77 -82l-222 226l222 227l77 -82l-86 -89h228c-24 123 -127 221 -255 221c-147 0 -260 -129 -260 -276c0 -148 113 -276 260 -276
c129 0 232 99 255 223z" />
    <glyph glyph-name="orn.029" unicode="&#xe048;" horiz-adv-x="765" 
d="M382 -8c-193 0 -348 157 -348 351c0 193 155 350 348 350s349 -157 349 -350c0 -194 -156 -351 -349 -351zM438 613v-274l90 93l72 -70l-216 -222l-217 222l72 71l87 -92v272c-119 -28 -204 -142 -204 -270c0 -148 113 -276 260 -276s260 128 260 276
c0 128 -85 242 -204 270z" />
    <glyph glyph-name="orn.030" unicode="&#xe049;" horiz-adv-x="765" 
d="M382 -8c-193 0 -348 157 -348 351c0 193 155 350 348 350s349 -157 349 -350c0 -194 -156 -351 -349 -351zM326 73v274l-90 -93l-72 70l216 222l217 -222l-72 -71l-87 92v-272c119 28 204 141 204 270c0 147 -113 276 -260 276s-260 -129 -260 -276
c0 -129 85 -242 204 -270z" />
    <glyph glyph-name="orn.031" unicode="&#xe04a;" horiz-adv-x="765" 
d="M382 -8c-193 0 -348 157 -348 351c0 193 155 350 348 350s349 -157 349 -350c0 -194 -156 -351 -349 -351zM235 570l182 -182l2 132h112l-3 -324l-325 -3v109l139 4l-181 181c-25 -42 -39 -92 -39 -144c0 -148 113 -276 260 -276s260 128 260 276
c0 147 -113 276 -260 276c-55 0 -106 -18 -147 -49z" />
    <glyph glyph-name="orn.032" unicode="&#xe04b;" horiz-adv-x="765" 
d="M382 -8c-193 0 -348 157 -348 351c0 193 155 350 348 350s349 -157 349 -350c0 -194 -156 -351 -349 -351zM161 199l181 181l-139 4v109l325 -3l3 -324h-112l-2 132l-182 -182c41 -31 92 -49 147 -49c147 0 260 128 260 276c0 147 -113 276 -260 276s-260 -129 -260 -276
c0 -52 14 -102 39 -144z" />
    <glyph glyph-name="orn.033" unicode="&#xe04c;" horiz-adv-x="765" 
d="M383 -8c-193 0 -349 157 -349 351c0 193 156 350 349 350s348 -157 348 -350c0 -194 -155 -351 -348 -351zM604 487l-181 -181l139 -4v-109l-325 3l-3 324h112l2 -132l182 182c-41 31 -92 49 -147 49c-147 0 -260 -129 -260 -276c0 -148 113 -276 260 -276
s260 128 260 276c0 52 -14 102 -39 144z" />
    <glyph glyph-name="orn.034" unicode="&#xe04d;" horiz-adv-x="765" 
d="M383 -8c-193 0 -349 157 -349 351c0 193 156 350 349 350s348 -157 348 -350c0 -194 -155 -351 -348 -351zM530 116l-182 182l-2 -132h-112l3 324l325 3v-109l-139 -4l181 -181c25 42 39 92 39 144c0 147 -113 276 -260 276s-260 -129 -260 -276
c0 -148 113 -276 260 -276c55 0 106 18 147 49z" />
    <glyph glyph-name="orn.035" unicode="&#xe04e;" horiz-adv-x="704" 
d="M39 286h312l-112 -128l77 -81l255 267l-255 266l-77 -81l112 -130h-312c27 151 161 265 313 265c171 0 318 -143 318 -322c0 -178 -147 -322 -318 -322c-153 0 -286 114 -313 266z" />
    <glyph glyph-name="orn.036" unicode="&#xe04f;" horiz-adv-x="704" 
d="M665 285c-27 -151 -161 -265 -313 -265c-171 0 -318 143 -318 322c0 178 147 322 318 322c153 0 286 -114 313 -266h-312l112 128l-77 81l-255 -267l255 -266l77 81l-112 130h312z" />
    <glyph glyph-name="orn.037" unicode="&#xe050;" horiz-adv-x="704" 
d="M292 658v-325l-120 112l-74 -82l256 -240l255 240l-74 82l-122 -112v325c144 -29 257 -159 257 -316c0 -178 -147 -322 -318 -322s-318 143 -318 322c0 157 114 287 258 316z" />
    <glyph glyph-name="orn.038" unicode="&#xe051;" horiz-adv-x="704" 
d="M291 26c-144 29 -257 159 -257 316c0 178 147 322 318 322s318 -143 318 -322c0 -157 -114 -287 -258 -316v325l120 -112l74 82l-256 240l-255 -240l74 -82l122 112v-325z" />
    <glyph glyph-name="orn.039" unicode="&#xe052;" horiz-adv-x="704" 
d="M89 522l237 -237l-179 -9v-108l368 8l9 366h-112l-9 -170l-233 233c52 37 115 59 182 59c171 0 318 -143 318 -322c0 -178 -147 -322 -318 -322s-318 143 -318 322c0 67 21 129 55 180z" />
    <glyph glyph-name="orn.040" unicode="&#xe053;" horiz-adv-x="704" 
d="M89 162c-34 51 -55 113 -55 180c0 178 147 322 318 322s318 -143 318 -322c0 -178 -147 -322 -318 -322c-67 0 -130 22 -182 59l233 233l9 -170h112l-9 366l-368 8v-108l179 -9z" />
    <glyph glyph-name="orn.041" unicode="&#xe054;" horiz-adv-x="704" 
d="M534 605l-233 -233l-9 170h-112l9 -366l368 -8v108l-179 9s237 237 236 237c35 -51 56 -113 56 -180c0 -179 -147 -322 -318 -322s-318 144 -318 322c0 179 147 322 318 322c67 0 130 -22 182 -59z" />
    <glyph glyph-name="orn.042" unicode="&#xe055;" horiz-adv-x="704" 
d="M534 79c-52 -37 -115 -59 -182 -59c-171 0 -318 144 -318 322c0 179 147 322 318 322s318 -144 318 -322c0 -67 -21 -129 -55 -180l-237 237l179 9v108l-368 -8l-9 -366h112l9 170z" />
    <glyph glyph-name="orn.043" unicode="&#xe056;" horiz-adv-x="928" 
d="M539 703c28 0 51 -23 51 -51s-23 -51 -51 -51s-51 23 -51 51s23 51 51 51zM539 83c28 0 51 -23 51 -51s-23 -51 -51 -51s-51 23 -51 51s23 51 51 51zM539 238c28 0 51 -23 51 -51s-23 -51 -51 -51s-51 23 -51 51s23 51 51 51zM689 238c28 0 51 -23 51 -51
s-23 -51 -51 -51s-51 23 -51 51s23 51 51 51zM89 393c28 0 51 -23 51 -51s-23 -51 -51 -51s-51 23 -51 51s23 51 51 51zM239 393c28 0 51 -23 51 -51s-23 -51 -51 -51s-51 23 -51 51s23 51 51 51zM389 393c28 0 51 -23 51 -51s-23 -51 -51 -51s-51 23 -51 51s23 51 51 51z
M539 393c28 0 51 -23 51 -51s-23 -51 -51 -51s-51 23 -51 51s23 51 51 51zM689 393c28 0 51 -23 51 -51s-23 -51 -51 -51s-51 23 -51 51s23 51 51 51zM839 393c28 0 51 -23 51 -51s-23 -51 -51 -51s-51 23 -51 51s23 51 51 51zM539 548c28 0 51 -23 51 -51s-23 -51 -51 -51
s-51 23 -51 51s23 51 51 51zM689 548c28 0 51 -23 51 -51s-23 -51 -51 -51s-51 23 -51 51s23 51 51 51z" />
    <glyph glyph-name="orn.044" unicode="&#xe057;" horiz-adv-x="928" 
d="M389 601c-28 0 -51 23 -51 51s23 51 51 51s51 -23 51 -51s-23 -51 -51 -51zM389 -19c-28 0 -51 23 -51 51s23 51 51 51s51 -23 51 -51s-23 -51 -51 -51zM239 136c-28 0 -51 23 -51 51s23 51 51 51s51 -23 51 -51s-23 -51 -51 -51zM389 136c-28 0 -51 23 -51 51
s23 51 51 51s51 -23 51 -51s-23 -51 -51 -51zM89 291c-28 0 -51 23 -51 51s23 51 51 51s51 -23 51 -51s-23 -51 -51 -51zM239 291c-28 0 -51 23 -51 51s23 51 51 51s51 -23 51 -51s-23 -51 -51 -51zM389 291c-28 0 -51 23 -51 51s23 51 51 51s51 -23 51 -51s-23 -51 -51 -51
zM539 291c-28 0 -51 23 -51 51s23 51 51 51s51 -23 51 -51s-23 -51 -51 -51zM689 291c-28 0 -51 23 -51 51s23 51 51 51s51 -23 51 -51s-23 -51 -51 -51zM839 291c-28 0 -51 23 -51 51s23 51 51 51s51 -23 51 -51s-23 -51 -51 -51zM239 446c-28 0 -51 23 -51 51s23 51 51 51
s51 -23 51 -51s-23 -51 -51 -51zM389 446c-28 0 -51 23 -51 51s23 51 51 51s51 -23 51 -51s-23 -51 -51 -51z" />
    <glyph glyph-name="orn.045" unicode="&#xe058;" horiz-adv-x="928" 
d="M413 655c0 28 23 51 51 51s51 -23 51 -51s-23 -51 -51 -51s-51 23 -51 51zM413 -95c0 28 23 51 51 51s51 -23 51 -51s-23 -51 -51 -51s-51 23 -51 51zM413 55c0 28 23 51 51 51s51 -23 51 -51s-23 -51 -51 -51s-51 23 -51 51zM413 205c0 28 23 51 51 51s51 -23 51 -51
s-23 -51 -51 -51s-51 23 -51 51zM103 355c0 28 23 51 51 51s51 -23 51 -51s-23 -51 -51 -51s-51 23 -51 51zM258 355c0 28 23 51 51 51s51 -23 51 -51s-23 -51 -51 -51s-51 23 -51 51zM413 355c0 28 23 51 51 51s51 -23 51 -51s-23 -51 -51 -51s-51 23 -51 51zM568 355
c0 28 23 51 51 51s51 -23 51 -51s-23 -51 -51 -51s-51 23 -51 51zM723 355c0 28 23 51 51 51s51 -23 51 -51s-23 -51 -51 -51s-51 23 -51 51zM258 505c0 28 23 51 51 51s51 -23 51 -51s-23 -51 -51 -51s-51 23 -51 51zM413 505c0 28 23 51 51 51s51 -23 51 -51
s-23 -51 -51 -51s-51 23 -51 51zM568 505c0 28 23 51 51 51s51 -23 51 -51s-23 -51 -51 -51s-51 23 -51 51z" />
    <glyph glyph-name="orn.046" unicode="&#xe059;" horiz-adv-x="928" 
d="M515 655c0 -28 -23 -51 -51 -51s-51 23 -51 51s23 51 51 51s51 -23 51 -51zM515 -95c0 -28 -23 -51 -51 -51s-51 23 -51 51s23 51 51 51s51 -23 51 -51zM360 55c0 -28 -23 -51 -51 -51s-51 23 -51 51s23 51 51 51s51 -23 51 -51zM515 55c0 -28 -23 -51 -51 -51
s-51 23 -51 51s23 51 51 51s51 -23 51 -51zM670 55c0 -28 -23 -51 -51 -51s-51 23 -51 51s23 51 51 51s51 -23 51 -51zM205 205c0 -28 -23 -51 -51 -51s-51 23 -51 51s23 51 51 51s51 -23 51 -51zM360 205c0 -28 -23 -51 -51 -51s-51 23 -51 51s23 51 51 51s51 -23 51 -51z
M515 205c0 -28 -23 -51 -51 -51s-51 23 -51 51s23 51 51 51s51 -23 51 -51zM670 205c0 -28 -23 -51 -51 -51s-51 23 -51 51s23 51 51 51s51 -23 51 -51zM825 205c0 -28 -23 -51 -51 -51s-51 23 -51 51s23 51 51 51s51 -23 51 -51zM515 355c0 -28 -23 -51 -51 -51
s-51 23 -51 51s23 51 51 51s51 -23 51 -51zM515 505c0 -28 -23 -51 -51 -51s-51 23 -51 51s23 51 51 51s51 -23 51 -51z" />
    <glyph glyph-name="orn.047" unicode="&#xe05a;" horiz-adv-x="928" 
d="M177 662c28 0 51 -23 51 -51s-23 -51 -51 -51s-51 23 -51 51s23 51 51 51zM389 450c28 0 51 -23 51 -51s-23 -51 -51 -51s-51 23 -51 51s23 51 51 51zM492 128c28 0 51 -23 51 -51s-23 -51 -51 -51s-51 23 -51 51s23 51 51 51zM283 556c28 0 51 -23 51 -51
s-23 -51 -51 -51s-51 23 -51 51s23 51 51 51zM276 125c28 0 51 -23 51 -51s-23 -51 -51 -51s-51 23 -51 51s23 51 51 51zM495 344c28 0 51 -23 51 -51s-23 -51 -51 -51s-51 23 -51 51s23 51 51 51zM386 234c28 0 51 -23 51 -51s-23 -52 -51 -51s-51 23 -51 51s23 51 51 51z
M707 132c28 -1 51 -23 51 -51s-23 -51 -51 -51s-51 23 -51 51s23 52 51 51zM711 347c28 0 51 -23 51 -51s-23 -51 -51 -51s-52 23 -51 51s23 51 51 51zM605 453c28 0 51 -23 51 -51s-23 -51 -51 -51s-52 23 -51 51s23 51 51 51zM601 238c28 -1 51 -23 51 -51
s-23 -51 -51 -51s-51 23 -51 51s23 52 51 51zM714 563c28 -1 51 -23 51 -51s-23 -51 -51 -51s-51 23 -51 51s23 52 51 51z" />
    <glyph glyph-name="orn.048" unicode="&#xe05b;" horiz-adv-x="928" 
d="M276 560c-28 0 -51 23 -51 51s23 51 51 51s51 -23 51 -51s-23 -51 -51 -51zM492 557c-28 0 -51 23 -51 51s23 51 51 51s51 -23 51 -51s-23 -51 -51 -51zM389 235c-28 0 -51 23 -51 51s23 51 51 51s51 -23 51 -51s-23 -51 -51 -51zM283 129c-28 0 -51 23 -51 51
s23 51 51 51s51 -23 51 -51s-23 -51 -51 -51zM495 341c-28 0 -51 23 -51 51s23 51 51 51s51 -23 51 -51s-23 -51 -51 -51zM177 23c-28 0 -51 23 -51 51s23 51 51 51s51 -23 51 -51s-23 -51 -51 -51zM711 338c-28 0 -50 23 -51 51s23 51 51 51s51 -23 51 -51s-23 -51 -51 -51
zM605 232c-28 0 -50 23 -51 51s23 51 51 51s51 -23 51 -51s-23 -51 -51 -51zM714 122c-28 -1 -51 23 -51 51s23 51 51 51s51 -23 51 -51s-23 -50 -51 -51zM707 553c-28 -1 -51 23 -51 51s23 51 51 51s51 -23 51 -51s-23 -50 -51 -51zM386 451c-28 0 -51 23 -51 51
s23 50 51 51s51 -23 51 -51s-23 -51 -51 -51zM601 447c-28 -1 -51 23 -51 51s23 51 51 51s51 -23 51 -51s-23 -50 -51 -51z" />
    <glyph glyph-name="orn.049" unicode="&#xe05c;" horiz-adv-x="928" 
d="M751 662c28 0 51 -23 51 -51s-23 -51 -51 -51s-51 23 -51 51s23 51 51 51zM539 450c28 0 51 -23 51 -51s-23 -51 -51 -51s-51 23 -51 51s23 51 51 51zM436 128c28 0 51 -23 51 -51s-23 -51 -51 -51s-51 23 -51 51s23 51 51 51zM645 556c28 0 51 -23 51 -51
s-23 -51 -51 -51s-51 23 -51 51s23 51 51 51zM652 125c28 0 51 -23 51 -51s-23 -51 -51 -51s-51 23 -51 51s23 51 51 51zM433 344c28 0 51 -23 51 -51s-23 -51 -51 -51s-51 23 -51 51s23 51 51 51zM542 234c28 0 51 -23 51 -51s-23 -50 -51 -51s-51 23 -51 51s23 51 51 51z
M221 132c28 1 51 -23 51 -51s-23 -51 -51 -51s-51 23 -51 51s23 50 51 51zM217 347c28 0 50 -23 51 -51s-23 -51 -51 -51s-51 23 -51 51s23 51 51 51zM323 453c28 0 50 -23 51 -51s-23 -51 -51 -51s-51 23 -51 51s23 51 51 51zM327 238c28 1 51 -23 51 -51s-23 -51 -51 -51
s-51 23 -51 51s23 50 51 51zM214 563c28 1 51 -23 51 -51s-23 -51 -51 -51s-51 23 -51 51s23 50 51 51z" />
    <glyph glyph-name="orn.050" unicode="&#xe05d;" horiz-adv-x="928" 
d="M652 560c-28 0 -51 23 -51 51s23 51 51 51s51 -23 51 -51s-23 -51 -51 -51zM436 557c-28 0 -51 23 -51 51s23 51 51 51s51 -23 51 -51s-23 -51 -51 -51zM539 235c-28 0 -51 23 -51 51s23 51 51 51s51 -23 51 -51s-23 -51 -51 -51zM645 129c-28 0 -51 23 -51 51
s23 51 51 51s51 -23 51 -51s-23 -51 -51 -51zM433 341c-28 0 -51 23 -51 51s23 51 51 51s51 -23 51 -51s-23 -51 -51 -51zM751 23c-28 0 -51 23 -51 51s23 51 51 51s51 -23 51 -51s-23 -51 -51 -51zM217 338c-28 0 -51 23 -51 51s23 51 51 51s52 -23 51 -51s-23 -51 -51 -51
zM323 232c-28 0 -51 23 -51 51s23 51 51 51s52 -23 51 -51s-23 -51 -51 -51zM214 122c-28 1 -51 23 -51 51s23 51 51 51s51 -23 51 -51s-23 -52 -51 -51zM221 553c-28 1 -51 23 -51 51s23 51 51 51s51 -23 51 -51s-23 -52 -51 -51zM542 451c-28 0 -51 23 -51 51s23 52 51 51
s51 -23 51 -51s-23 -51 -51 -51zM327 447c-28 1 -51 23 -51 51s23 51 51 51s51 -23 51 -51s-23 -52 -51 -51z" />
    <glyph glyph-name="orn.051" unicode="&#xe05e;" horiz-adv-x="778" 
d="M499 658c31 0 56 -25 56 -56s-25 -56 -56 -56s-56 25 -56 56s25 56 56 56zM499 138c31 0 56 -25 56 -56s-25 -56 -56 -56s-56 25 -56 56s25 56 56 56zM589 263c31 0 56 -25 56 -56s-25 -56 -56 -56s-56 25 -56 56s25 56 56 56zM89 398c31 0 56 -25 56 -56
s-25 -56 -56 -56s-56 25 -56 56s25 56 56 56zM239 398c31 0 56 -25 56 -56s-25 -56 -56 -56s-56 25 -56 56s25 56 56 56zM389 398c31 0 56 -25 56 -56s-25 -56 -56 -56s-56 25 -56 56s25 56 56 56zM539 398c31 0 56 -25 56 -56s-25 -56 -56 -56s-56 25 -56 56s25 56 56 56z
M689 398c31 0 56 -25 56 -56s-25 -56 -56 -56s-56 25 -56 56s25 56 56 56zM589 533c31 0 56 -25 56 -56s-25 -56 -56 -56s-56 25 -56 56s25 56 56 56z" />
    <glyph glyph-name="orn.052" unicode="&#xe05f;" horiz-adv-x="778" 
d="M279 546c-31 0 -56 25 -56 56s25 56 56 56s56 -25 56 -56s-25 -56 -56 -56zM279 26c-31 0 -56 25 -56 56s25 56 56 56s56 -25 56 -56s-25 -56 -56 -56zM189 151c-31 0 -56 25 -56 56s25 56 56 56s56 -25 56 -56s-25 -56 -56 -56zM89 286c-31 0 -56 25 -56 56s25 56 56 56
s56 -25 56 -56s-25 -56 -56 -56zM239 286c-31 0 -56 25 -56 56s25 56 56 56s56 -25 56 -56s-25 -56 -56 -56zM389 286c-31 0 -56 25 -56 56s25 56 56 56s56 -25 56 -56s-25 -56 -56 -56zM539 286c-31 0 -56 25 -56 56s25 56 56 56s56 -25 56 -56s-25 -56 -56 -56zM689 286
c-31 0 -56 25 -56 56s25 56 56 56s56 -25 56 -56s-25 -56 -56 -56zM189 421c-31 0 -56 25 -56 56s25 56 56 56s56 -25 56 -56s-25 -56 -56 -56z" />
    <glyph glyph-name="orn.053" unicode="&#xe060;" horiz-adv-x="778" 
d="M333 642c0 31 25 56 56 56s56 -25 56 -56s-25 -56 -56 -56s-56 25 -56 56zM333 42c0 31 25 56 56 56s56 -25 56 -56s-25 -56 -56 -56s-56 25 -56 56zM333 192c0 31 25 56 56 56s56 -25 56 -56s-25 -56 -56 -56s-56 25 -56 56zM333 342c0 31 25 56 56 56s56 -25 56 -56
s-25 -56 -56 -56s-56 25 -56 56zM83 442c0 31 25 56 56 56s56 -25 56 -56s-25 -56 -56 -56s-56 25 -56 56zM583 442c0 31 25 56 56 56s56 -25 56 -56s-25 -56 -56 -56s-56 25 -56 56zM333 492c0 31 25 56 56 56s56 -25 56 -56s-25 -56 -56 -56s-56 25 -56 56zM198 542
c0 31 25 56 56 56s56 -25 56 -56s-25 -56 -56 -56s-56 25 -56 56zM468 542c0 31 25 56 56 56s56 -25 56 -56s-25 -56 -56 -56s-56 25 -56 56z" />
    <glyph glyph-name="orn.054" unicode="&#xe061;" horiz-adv-x="778" 
d="M445 642c0 -31 -25 -56 -56 -56s-56 25 -56 56s25 56 56 56s56 -25 56 -56zM445 42c0 -31 -25 -56 -56 -56s-56 25 -56 56s25 56 56 56s56 -25 56 -56zM310 142c0 -31 -25 -56 -56 -56s-56 25 -56 56s25 56 56 56s56 -25 56 -56zM580 142c0 -31 -25 -56 -56 -56
s-56 25 -56 56s25 56 56 56s56 -25 56 -56zM445 192c0 -31 -25 -56 -56 -56s-56 25 -56 56s25 56 56 56s56 -25 56 -56zM195 242c0 -31 -25 -56 -56 -56s-56 25 -56 56s25 56 56 56s56 -25 56 -56zM695 242c0 -31 -25 -56 -56 -56s-56 25 -56 56s25 56 56 56s56 -25 56 -56z
M445 342c0 -31 -25 -56 -56 -56s-56 25 -56 56s25 56 56 56s56 -25 56 -56zM445 492c0 -31 -25 -56 -56 -56s-56 25 -56 56s25 56 56 56s56 -25 56 -56z" />
    <glyph glyph-name="orn.055" unicode="&#xe062;" horiz-adv-x="715" 
d="M114 628c31 0 56 -25 56 -56s-25 -56 -56 -56s-56 25 -56 56s25 56 56 56zM218 157c31 0 56 -25 56 -56s-25 -56 -56 -56s-56 25 -56 56s25 56 56 56zM591 522c31 0 56 -25 56 -56s-25 -56 -56 -56s-56 25 -56 56s25 56 56 56zM539 203c31 0 56 -25 56 -56
s-25 -56 -56 -56s-56 25 -56 56s25 56 56 56zM433 310c31 0 56 -25 56 -56s-25 -56 -56 -56s-56 25 -56 56s25 56 56 56zM566 370c31 0 56 -25 56 -56s-25 -56 -56 -56s-56 25 -56 56s25 56 56 56zM372 179c31 0 56 -25 56 -56s-25 -56 -56 -56s-56 25 -56 56s25 56 56 56z
M220 522c31 0 56 -25 56 -56s-25 -56 -56 -56s-56 25 -56 56s25 56 56 56zM326 416c31 0 56 -25 56 -56s-25 -55 -56 -55s-56 24 -56 55s25 56 56 56z" />
    <glyph glyph-name="orn.056" unicode="&#xe063;" horiz-adv-x="715" 
d="M218 526c-31 0 -56 25 -56 56s25 56 56 56s56 -25 56 -56s-25 -56 -56 -56zM114 55c-31 0 -56 25 -56 56s25 56 56 56s56 -25 56 -56s-25 -56 -56 -56zM220 161c-31 0 -56 25 -56 56s25 56 56 56s56 -25 56 -56s-25 -56 -56 -56zM591 161c-31 0 -56 25 -56 56
s25 56 56 56s56 -25 56 -56s-25 -56 -56 -56zM372 504c-31 0 -56 25 -56 56s25 56 56 56s56 -25 56 -56s-25 -56 -56 -56zM566 313c-31 0 -56 25 -56 56s25 56 56 56s56 -25 56 -56s-25 -56 -56 -56zM433 373c-31 0 -56 25 -56 56s25 56 56 56s56 -25 56 -56
s-25 -56 -56 -56zM539 480c-31 0 -56 25 -56 56s25 56 56 56s56 -25 56 -56s-25 -56 -56 -56zM326 267c-31 0 -56 25 -56 56s25 55 56 55s56 -24 56 -55s-25 -56 -56 -56z" />
    <glyph glyph-name="orn.057" unicode="&#xe064;" horiz-adv-x="715" 
d="M601 628c31 0 56 -25 56 -56s-25 -56 -56 -56s-56 25 -56 56s25 56 56 56zM497 157c31 0 56 -25 56 -56s-25 -56 -56 -56s-56 25 -56 56s25 56 56 56zM495 522c31 0 56 -25 56 -56s-25 -56 -56 -56s-56 25 -56 56s25 56 56 56zM176 203c31 0 56 -25 56 -56
s-25 -56 -56 -56s-56 25 -56 56s25 56 56 56zM282 310c31 0 56 -25 56 -56s-25 -56 -56 -56s-56 25 -56 56s25 56 56 56zM149 370c31 0 56 -25 56 -56s-25 -56 -56 -56s-56 25 -56 56s25 56 56 56zM343 179c31 0 56 -25 56 -56s-25 -56 -56 -56s-56 25 -56 56s25 56 56 56z
M124 522c31 0 56 -25 56 -56s-25 -56 -56 -56s-56 25 -56 56s25 56 56 56zM389 416c31 0 56 -25 56 -56s-25 -55 -56 -55s-56 24 -56 55s25 56 56 56z" />
    <glyph glyph-name="orn.058" unicode="&#xe065;" horiz-adv-x="715" 
d="M497 526c-31 0 -56 25 -56 56s25 56 56 56s56 -25 56 -56s-25 -56 -56 -56zM601 55c-31 0 -56 25 -56 56s25 56 56 56s56 -25 56 -56s-25 -56 -56 -56zM124 161c-31 0 -56 25 -56 56s25 56 56 56s56 -25 56 -56s-25 -56 -56 -56zM495 161c-31 0 -56 25 -56 56
s25 56 56 56s56 -25 56 -56s-25 -56 -56 -56zM343 504c-31 0 -56 25 -56 56s25 56 56 56s56 -25 56 -56s-25 -56 -56 -56zM149 313c-31 0 -56 25 -56 56s25 56 56 56s56 -25 56 -56s-25 -56 -56 -56zM282 373c-31 0 -56 25 -56 56s25 56 56 56s56 -25 56 -56
s-25 -56 -56 -56zM176 480c-31 0 -56 25 -56 56s25 56 56 56s56 -25 56 -56s-25 -56 -56 -56zM389 267c-31 0 -56 25 -56 56s25 55 56 55s56 -24 56 -55s-25 -56 -56 -56z" />
    <glyph glyph-name="orn.059" unicode="&#xe066;" horiz-adv-x="890" 
d="M600 403l-191 210l84 89l346 -359l-346 -359l-84 89l189 207h-225v123h227zM160 280h-105v123h105v-123zM214 403h105v-123h-105v123z" />
    <glyph glyph-name="orn.060" unicode="&#xe067;" horiz-adv-x="890" 
d="M290 283l191 -210l-84 -89l-346 359l346 359l84 -89l-189 -207h225v-123h-227zM730 406h105v-123h-105v123zM676 283h-105v123h105v-123z" />
    <glyph glyph-name="orn.061" unicode="&#xe068;" horiz-adv-x="768" 
d="M449 233l212 194l82 -81l-359 -346l-359 346l81 81s210 -193 210 -194v233h133v-233zM316 679v105h133v-105h-133zM316 520v105h133v-105h-133z" />
    <glyph glyph-name="orn.062" unicode="&#xe069;" horiz-adv-x="768" 
d="M319 453l-212 -194l-82 81l359 346l359 -346l-81 -81l-210 193v-232h-133v233zM452 7v-105h-133v105h133zM452 166v-105h-133v105h133z" />
    </font>
</defs>
</svg>
