<?xml version="1.0" standalone="no"?>
<!DOCTYPE svg PUBLIC "-//W3C//DTD SVG 1.1//EN" "http://www.w3.org/Graphics/SVG/1.1/DTD/svg11.dtd" >
<svg>
<metadata>
Created by FontForge 20090914 at Wed Nov  2 18:34:13 2016
 By www-data
(c) Frank Filderstadt -- verbesserte Version auch f&#195;&#188;r WinWord 6.0
</metadata>
<defs>
<font id="Waldorfschrift" horiz-adv-x="1167" >
  <font-face 
    font-family="Waldorfschrift"
    font-weight="500"
    font-stretch="normal"
    units-per-em="2048"
    panose-1="4 11 6 0 0 0 0 0 0 0"
    ascent="1638"
    descent="-410"
    x-height="1184"
    cap-height="1622"
    bbox="-70 -401.998 2126 2007"
    underline-thickness="50"
    underline-position="-75"
    unicode-range="U+0008-U+203A"
  />
<missing-glyph horiz-adv-x="1536" 
d="M256 0v1280h1024v-1280h-1024zM1248 32v1216h-960v-1216h960z" />
    <glyph glyph-name=".notdef" unicode="&#xa5;" horiz-adv-x="1536" 
d="M256 0v1280h1024v-1280h-1024zM1248 32v1216h-960v-1216h960z" />
    <glyph glyph-name=".notdef" unicode="&#xe01e;" horiz-adv-x="1536" 
d="M256 0v1280h1024v-1280h-1024zM1248 32v1216h-960v-1216h960z" />
    <glyph glyph-name=".notdef" unicode="&#x25ca;" horiz-adv-x="1536" 
d="M256 0v1280h1024v-1280h-1024zM1248 32v1216h-960v-1216h960z" />
    <glyph glyph-name=".notdef" unicode="&#x2260;" horiz-adv-x="1536" 
d="M256 0v1280h1024v-1280h-1024zM1248 32v1216h-960v-1216h960z" />
    <glyph glyph-name=".notdef" unicode="&#x2248;" horiz-adv-x="1536" 
d="M256 0v1280h1024v-1280h-1024zM1248 32v1216h-960v-1216h960z" />
    <glyph glyph-name=".notdef" unicode="&#x222b;" horiz-adv-x="1536" 
d="M256 0v1280h1024v-1280h-1024zM1248 32v1216h-960v-1216h960z" />
    <glyph glyph-name=".notdef" unicode="&#x221e;" horiz-adv-x="1536" 
d="M256 0v1280h1024v-1280h-1024zM1248 32v1216h-960v-1216h960z" />
    <glyph glyph-name=".notdef" unicode="&#x221a;" horiz-adv-x="1536" 
d="M256 0v1280h1024v-1280h-1024zM1248 32v1216h-960v-1216h960z" />
    <glyph glyph-name=".notdef" unicode="&#x2211;" horiz-adv-x="1536" 
d="M256 0v1280h1024v-1280h-1024zM1248 32v1216h-960v-1216h960z" />
    <glyph glyph-name=".notdef" unicode="&#x220f;" horiz-adv-x="1536" 
d="M256 0v1280h1024v-1280h-1024zM1248 32v1216h-960v-1216h960z" />
    <glyph glyph-name=".notdef" unicode="&#x2202;" horiz-adv-x="1536" 
d="M256 0v1280h1024v-1280h-1024zM1248 32v1216h-960v-1216h960z" />
    <glyph glyph-name=".notdef" unicode="&#x2122;" horiz-adv-x="1536" 
d="M256 0v1280h1024v-1280h-1024zM1248 32v1216h-960v-1216h960z" />
    <glyph glyph-name=".notdef" unicode="&#x20ac;" horiz-adv-x="1536" 
d="M256 0v1280h1024v-1280h-1024zM1248 32v1216h-960v-1216h960z" />
    <glyph glyph-name=".notdef" unicode="&#x2044;" horiz-adv-x="1536" 
d="M256 0v1280h1024v-1280h-1024zM1248 32v1216h-960v-1216h960z" />
    <glyph glyph-name=".notdef" unicode="&#x2030;" horiz-adv-x="1536" 
d="M256 0v1280h1024v-1280h-1024zM1248 32v1216h-960v-1216h960z" />
    <glyph glyph-name=".notdef" unicode="&#x2026;" horiz-adv-x="1536" 
d="M256 0v1280h1024v-1280h-1024zM1248 32v1216h-960v-1216h960z" />
    <glyph glyph-name=".notdef" unicode="&#x3c0;" horiz-adv-x="1536" 
d="M256 0v1280h1024v-1280h-1024zM1248 32v1216h-960v-1216h960z" />
    <glyph glyph-name=".notdef" unicode="&#x3a9;" horiz-adv-x="1536" 
d="M256 0v1280h1024v-1280h-1024zM1248 32v1216h-960v-1216h960z" />
    <glyph glyph-name=".notdef" unicode="&#x394;" horiz-adv-x="1536" 
d="M256 0v1280h1024v-1280h-1024zM1248 32v1216h-960v-1216h960z" />
    <glyph glyph-name=".notdef" unicode="&#x192;" horiz-adv-x="1536" 
d="M256 0v1280h1024v-1280h-1024zM1248 32v1216h-960v-1216h960z" />
    <glyph glyph-name=".notdef" unicode="&#x131;" horiz-adv-x="1536" 
d="M256 0v1280h1024v-1280h-1024zM1248 32v1216h-960v-1216h960z" />
    <glyph glyph-name="uni001D" horiz-adv-x="0" 
 />
    <glyph glyph-name="uni001D" horiz-adv-x="0" 
 />
    <glyph glyph-name="uni001D" horiz-adv-x="0" 
 />
    <glyph glyph-name="nonmarkingreturn" unicode="&#x9;" horiz-adv-x="0" 
 />
    <glyph glyph-name="nonmarkingreturn" unicode="&#xa0;" horiz-adv-x="0" 
 />
    <glyph glyph-name="nonmarkingreturn" unicode="&#xd;" horiz-adv-x="0" 
 />
    <glyph glyph-name="space" unicode=" " horiz-adv-x="614" 
 />
    <glyph glyph-name="exclam" unicode="!" horiz-adv-x="524" 
d="M387 1567c-1.33301 -50.667 -3.33301 -136.666 -6 -257.999c-2.66699 -122 -5.33398 -224.667 -8.00098 -308c-2.66699 -84.667 -4 -161 -4 -229c-1.33301 -66.667 -3.66602 -140.334 -6.99902 -221.001c0 -50.667 -15 -76 -45 -76l-133 -4c-26 0 -39 26.667 -39 80
l-4 989c0 9.33301 10.333 21 31 35c20.667 12 46 23 76 33c28.667 9.33301 54 14 76 14c42 0 63 -18.333 63 -55zM152 10.001c-6 0 -9 39 -9 117c0 70.667 6.33301 106 19 106c20.667 6 59.667 12.333 117 19c55.333 5.33301 84.666 8.66602 87.999 9.99902
c5.33301 -2.66699 8 -32.667 8 -90v-88c-1.33301 -31.333 -2.66602 -54.666 -3.99902 -69.999z" />
    <glyph glyph-name="quotedbl" unicode="&#x22;" horiz-adv-x="696" 
d="M121 1356c-5.33301 2.66699 -8 79.667 -8 231c0 128.667 6 193 18 193c31.333 0 71 4 119 12c46 6.66699 74.667 12 86 16c0 -34 -9.66699 -122 -29 -264l-28 -213zM418 1356c-5.33301 2.66699 -8 79.667 -8 231c0 128.667 6 193 18 193c31.333 0 71 4 119 12
c46 6.66699 74.667 12 86 16c0 -34 -9.66699 -123.333 -29 -268c-17.333 -139.333 -27 -209 -29 -209z" />
    <glyph glyph-name="numbersign" unicode="#" horiz-adv-x="1331" 
d="M472 615l-84.001 -242.001c-18 -51.333 -38.333 -77 -61 -77c-5.33301 0 -11 2.16699 -17 6.5s-10 6.83301 -12 7.5c-10.667 6 -24.5 13 -41.5 21s-29 14.5 -36 19.5s-10.833 12.167 -11.5 21.5c0 16.667 3.5 37.167 10.5 61.5s27.167 85.833 60.5 184.5
c-82.667 2 -138.667 3.16699 -168 3.5s-46.666 1 -51.999 2s-10.166 2.83301 -14.499 5.5s-6.5 7.66699 -6.5 15c0 19.333 19.333 51 58 95c10.667 26 24.834 44 42.501 54s43.167 15 76.5 15l124 -1l91 254l-187 3c-36.667 0.666992 -55 8.33398 -55 23.001
c0 3.33301 0.666992 6.5 2 9.5s3.33301 6.33301 6 10s4.33398 6.16699 5.00098 7.5c9.33301 9.33301 24.833 31.833 46.5 67.5s36.5 54.834 44.5 57.501c10.667 5.33301 20 8.66602 28 9.99902s31.667 2 71 2c37.333 0 70 -0.333008 98 -1l60 181
c17.333 51.333 34.666 77 51.999 77c9.33301 0 41.333 -11 96 -33c29.333 -4.66699 44 -19.667 44 -45c0 -6 -1.66699 -14.667 -5 -26l-57 -157h96c29.333 0 72 -0.333008 128 -1l60 181c12.667 34.667 22.5 56.167 29.5 64.5s14.833 12.5 23.5 12.5
c9.33301 0 31.5 -7.16699 66.5 -21.5s55.833 -23.5 62.5 -27.5c8 -6 12 -15 12 -27c0 -11.333 -6.33301 -29.666 -19 -54.999l-45 -130c42 0 80.667 -0.666992 116 -2s55.333 -2.33301 60 -3s7.66699 -1.16699 9 -1.5s2.33301 -0.833008 3 -1.5
c2.66699 -0.666992 4 -3.66699 4 -9c0 -14.667 -7.83301 -36.167 -23.5 -64.5s-35.334 -53.333 -59.001 -75s-47.5 -32.5 -71.5 -32.5h-95c-14.667 -42.667 -25 -74.5 -31 -95.5s-12.667 -38.5 -20 -52.5l-45 -114l138 -1c39.333 -0.666992 59 -7 59 -19c0 -4 -1 -8 -3 -12
c0 -14 -26.333 -58.333 -79 -133c-15.333 -19.333 -33 -29 -53 -29c-6.66699 0 -12 0.666992 -16 2l-9 3h-95l-83 -242c-17.333 -50.667 -37.333 -76 -60 -76c-5.33301 0 -9.33301 0.666992 -12 2s-5.83398 3.16602 -9.50098 5.49902l-8.5 5.5
c-10.667 6 -24.5 13.167 -41.5 21.5s-29 15 -36 20s-10.833 11.833 -11.5 20.5c1.33301 4 1.33301 8.66699 0 14c-0.666992 12.667 23 90 71 232c-88.667 2 -148.5 4 -179.5 6s-44.5 3 -40.5 3zM775.999 869.999c0 -2 4.66797 8.16797 14.001 30.501s28 74.5 56 156.5
c-38 0 -76.167 0.166992 -114.5 0.5s-74.833 0.5 -109.5 0.5l-31 -74c1.33301 -6.66699 2 -10.334 2 -11.001c0 -4 -4.83301 -17 -14.5 -39s-25.834 -65.333 -48.501 -130c114 -2 171 -4.66699 171 -8l50 -1z" />
    <glyph glyph-name="dollar" unicode="$" horiz-adv-x="1343" 
d="M1024 410c-4 44.667 -17.667 82.001 -41 112.001s-50 53.333 -80 70c-28.667 14.667 -52.667 22 -72 22c-9.33301 0 -15.333 -2.66699 -18 -8c0 -24.667 -0.666992 -49.334 -2 -74.001v-75c-1.33301 -24.667 -2 -48.667 -2 -72s-0.666992 -45.333 -2 -66
c30 0 62 1.66699 96 5c34 1.33301 62.667 8 86 20s35 34 35 66zM379 1208c0 -12 9.66699 -33 29 -63c18.667 -31.333 46.5 -59.333 83.5 -84s81.5 -37 133.5 -37l14 334c-44 0 -98 -9 -162 -27c-65.333 -18.667 -98 -59.667 -98 -123zM160 111.001
c-14 0 -22.3281 2.66504 -24.9951 7.99805c-4 4 -6 12.667 -6 26l23 134c1.33301 26.667 17.666 40 48.999 40l426 7l2 399c-4 2.66699 -37 17.667 -99 45c-60 27.333 -111.667 52 -155 74c-45.333 20 -88.5 42.333 -129.5 67s-68.167 47.334 -81.5 68.001
c-27.333 40.667 -41 103.334 -41 188.001c0 63.333 7.33301 126.333 22 189c15.333 62.667 32.666 103.667 51.999 123c28.667 28.667 62 47.667 100 57c36.667 9.33301 83 14 139 14c20.667 0 50 -0.666992 88 -2c40 -1.33301 69.333 -2 88 -2
c0 45.333 13 74.666 39 87.999c15.333 7.33301 34 11 56 11h32c14 -2 27 -3 39 -3c18 0 31 -2.66699 39 -8c9.33301 -5.33301 15.666 -14.666 18.999 -27.999c2.66699 -15.333 4 -35.333 4 -60l221 -8c48 0 72 -15.667 72 -47l-25 -90c0 -6.66699 -2.66699 -15.667 -8 -27
c-6.66699 -10.667 -18.334 -16 -35.001 -16l-238 -10v-97c-1.33301 -21.333 -2 -50.666 -2 -87.999c-1.33301 -36.667 -2 -77 -2 -121c-1.33301 -42 -2 -81.333 -2 -118c72.667 -38.667 140.334 -71.667 203.001 -99l125 -55c20.667 -8 40.334 -23 59.001 -45
c19.333 -24.667 35.666 -67 48.999 -127c12.667 -58.667 19 -121.334 19 -188.001c0 -116 -18.333 -198 -55 -246c-16.667 -20.667 -35.334 -35 -56.001 -43c-20 -8 -55.333 -13.667 -106 -17c-50.667 -2.66699 -129.334 -4 -236.001 -4c0 -50 -15 -75 -45 -75l-133 -5
c-16 0 -28.333 9 -37 27c-8 18 -12 35.667 -12 53z" />
    <glyph glyph-name="percent" unicode="%" horiz-adv-x="1464" 
d="M252 1360l43 -275c0 -5.33301 1.33301 -8 4 -8c1.33301 0 3.33301 0.666992 6 2l6 6l138 -26c8 0 15.333 2.66699 22 8c8 2.66699 12 6.66699 12 12l29 181l-25 194c-17.333 18 -29.5 29.667 -36.5 35s-18.5 8 -34.5 8c-41.333 0 -80.333 -9 -117 -27
c-8 -5.33301 -19 -15.333 -33 -30c-12 -16.667 -18 -36 -18 -58c0 -10.667 1.33301 -18 4 -22zM115 1571c0 14.667 8.66602 26.335 25.999 35.002c18 8 32.333 12.667 43 14c80.667 9.33301 177 14 289 14c54.667 0 93.667 -4.66699 117 -14
c5.33301 -2.66699 12.5 -9.83398 21.5 -21.501s13.5 -29.834 13.5 -54.501v-391l-17 -215c0 -18 -9.33301 -27 -28 -27h2l-93 2c-69.333 1.33301 -128.666 2 -177.999 2c-50 2 -89.333 3 -118 3c-16.667 0 -27.667 8 -33 24c-6.66699 18 -10 32.333 -10 43l-31 363z
M994.999 449.001l45 -281c0 -5.33301 1.33301 -8 4 -8l5 4c2.66699 1.33301 4.66699 2.66602 6 3.99902l151 -27c7.33301 0 15 2.83301 23 8.5s12 9.83398 12 12.501l27 188l-11 195c-31.333 28.667 -59 43 -83 43c-52 0 -95.333 -9 -130 -27
c-9.33301 -5.33301 -20 -16.333 -32 -33c-12.667 -16 -19 -35 -19 -57c0 -10.667 0.666992 -18 2 -22zM869.999 659.001c0 15.333 9 26.334 27 33.001c18 8.66699 32.333 14.334 43 17.001c95.333 10.667 191.666 16 288.999 16c50.667 0 89.667 -5.33301 117 -16
c6.66699 -2.66699 14 -9.66699 22 -21c8 -10.667 12 -28.334 12 -53.001v-393l-16 -215c0 -16.667 -9.66699 -25 -29 -25h2l-92 2c-69.333 0 -128.666 0.666992 -177.999 2c-52 0 -91.667 0.666992 -119 2c-17.333 0 -28.5 8.16699 -33.5 24.5s-7.5 30.166 -7.5 41.499
l-30 362zM1130 1518c-22.667 -48 -60.667 -140.335 -114 -277.002l-166 -430l-170 -442c-54.667 -143.333 -97.667 -250.666 -129 -321.999c-15.333 -35.333 -31 -53 -47 -53c-8 0 -14.333 1.33301 -19 4h-71c-12.667 0 -19 8.33301 -19 25
c0 14.667 6.33301 36.334 19 65.001l551 1511c5.33301 14 21 21 47 21c28.667 0 58 -8.33301 88 -25c24.667 -14.667 37 -31.667 37 -51c0 -8 -2.33301 -16.667 -7 -26z" />
    <glyph glyph-name="ampersand" unicode="&#x26;" horiz-adv-x="1485" 
d="M725 1118c38 30 69.333 63.666 94 100.999c24.667 38 37 74 37 108c0 50.667 -30 90.334 -90 119.001c-20.667 6.66699 -42.667 10 -66 10c-18.667 0 -37.667 -2.66699 -57 -8c-18 -6.66699 -32.333 -19 -43 -37c-10.667 -16.667 -16 -37 -16 -61
c0 -53.333 23 -121 69 -203c2.66699 -6.66699 9 -15 19 -25c8 -9.33301 17.333 -14 28 -14c10 0 18.333 3.33301 25 10zM604 214.999c80.667 22 175.669 80.668 285.002 176.001c6.66699 14 10 24.333 10 31c0 8 -1.33301 14.667 -4 20
c-2.66699 7.33301 -5.33398 11.666 -8.00098 12.999l-225 368c-10 16.667 -22.333 25 -37 25c-8.66699 0 -16.334 -1.33301 -23.001 -4c-5.33301 -4 -8 -6.66699 -8 -8c-56 -42.667 -102.5 -84.5 -139.5 -125.5s-64.167 -88.167 -81.5 -141.5
c2.66699 -50 19.667 -116 51 -198c30 -82 90 -134 180 -156zM799.002 20c-76.667 -9.33301 -150.332 -14 -220.999 -14c-122 1.33301 -224.667 13 -308 35c-34 6.66699 -57 18.334 -69 35.001c-14 14.667 -21.667 26.334 -23 35.001c-32.667 73.333 -49 178.333 -49 315
c0 88.667 7 183 21 283c-3.33301 5.33301 -5 9.33301 -5 12c0 14.667 8.33301 31 25 49c15.333 18 28.333 31 39 39l278 195c6 4 9 8.66699 9 14c0 13.333 -11 27.666 -33 42.999c-23.333 14.667 -42.333 25.667 -57 33c-59.333 106 -89 201.333 -89 286
c0 64.667 11.667 113.334 35 146.001c24.667 32.667 49.334 58 74.001 76l51 8c40 5.33301 83 9.33301 129 12c48 4 100.667 6 158 6c86 0 166 -4.66699 240 -14c8 -11.333 19.333 -31.333 34 -60c16.667 -28.667 32.334 -68 47.001 -118
c16.667 -50.667 25 -101.334 25 -152.001c0 -61.333 -12.333 -118 -37 -170l-205 -141c-5.33301 -2.66699 -10.666 -8.33398 -15.999 -17.001c-8 -8 -12 -17.333 -12 -28c0 -12.667 3.33301 -23 10 -31l174 -309c1.33301 -1.33301 4.66602 -4 9.99902 -8
c4 -3.33301 9.66699 -5 17 -5c6.66699 0 12 1.66699 16 5c9.33301 6.66699 38.666 23.667 87.999 51c8 6.66699 16.333 10 25 10c8 0 14 -2 18 -6s6.66699 -7.33301 8 -10c16.667 -20.667 31.667 -46.667 45 -78c1.33301 -2.66699 2.66602 -6.16699 3.99902 -10.5
s2 -11.166 2 -20.499c0 -18 -6.66699 -31 -20 -39c-2.66699 -5.33301 -26 -33.333 -70 -84c-2.66699 -2.66699 -6 -6.66699 -10 -12c-4 -6.66699 -6 -14.334 -6 -23.001c0 -12 6 -23.333 18 -34l146 -152c4 -24.667 8 -54.667 12 -90
c5.33301 -35.333 9.33301 -54.333 12 -57c0 -1.33301 -10 -4.33301 -30 -9c-20.667 -4 -40 -6 -58 -6c-12 0 -18 2.66699 -18 8c-24.667 0 -54.667 20.667 -90 62c-37.333 39.333 -71 83 -101 131c-12 22 -20.667 33 -26 33c-2.66699 0 -4.66699 -0.666992 -6 -2
c-2.66699 -2.66699 -4.66699 -4 -6 -4c-54.667 -56 -90.334 -102.667 -107.001 -140c-6.66699 -12 -19.667 -28.333 -39 -49c-18 -19.333 -37.667 -29 -59 -29z" />
    <glyph glyph-name="quotesingle" unicode="'" horiz-adv-x="500" 
d="M80 1278c0 2.66699 19.501 29.332 58.501 79.999s76.833 96.334 113.5 137.001c22 26 53.333 47.333 94 64c42.667 17.333 70.667 26 84 26c9.33301 -9.33301 25.666 -18 48.999 -26c23.333 -10 36.333 -16.333 39 -19c0 -12 -13.667 -33 -41 -63
c-28.667 -30 -71 -70.333 -127 -121l-127 -117c-30 -26 -45.667 -39.667 -47 -41z" />
    <glyph glyph-name="parenleft" unicode="(" horiz-adv-x="655" 
d="M360 500c4.66699 -20.667 12.332 -44.6719 22.999 -72.0049c9.33301 -27.333 21 -54.666 35 -81.999c12 -28.667 24.333 -54.667 37 -78l32 -71c28.667 -23.333 43 -42.666 43 -57.999c0 -8 -2.66699 -16 -8 -24l-76 -109c-5.33301 -8 -13.333 -12 -24 -12
c-16.667 1.33301 -37.334 10 -62.001 26c-13.333 24.667 -42.666 72.667 -87.999 144c-44.667 70.667 -78.667 127.334 -102 170.001c-22 39.333 -37.667 81 -47 125c-14 53.333 -21 114 -21 182c0 58.667 4.33301 119.334 13 182.001c6.66699 63.333 15.167 127 25.5 191
s15.5 102.667 15.5 116c21.333 89.333 50 169.333 86 240c35.333 71.333 68 126.666 98 165.999c28.667 36.667 49 62 61 76c20.667 0 48 -13.667 82 -41c34.667 -27.333 59.334 -55.333 74.001 -84c6.66699 -15.333 10 -28.333 10 -39c0 -18 -10 -32.333 -30 -43
c-7.33301 -8 -18.333 -23 -33 -45c-16.667 -23.333 -36.667 -57.666 -60 -102.999c-21.333 -46 -41 -99 -59 -159c-6.66699 -31.333 -15.667 -84.666 -27 -159.999c-10.667 -76.667 -16 -155.334 -16 -236.001c0 -69.333 6 -136.666 18 -201.999z" />
    <glyph glyph-name="parenright" unicode=")" horiz-adv-x="655" 
d="M176 119c-8 0 -11.999 4.66602 -11.999 13.999s4 21.666 12 36.999c8 13.333 15 23.666 21 30.999c9.33301 13.333 23.666 43.333 42.999 90c20 44.667 41.667 114.334 65 209.001c15.333 43.333 27 86.333 35 129c8 40.667 14 82.334 18 125.001
c4.66699 39.333 7 78 7 116c0 66 -4.33301 120 -13 162c-6.66699 44 -14.667 66 -24 66c-24.667 109.333 -60.334 213 -107.001 311c-28.667 23.333 -43 42.333 -43 57c0 10 2.66699 18.333 8 25l76 108c4 8.66699 12.333 13 25 13c8 0 21 -9 39 -27l55 -49
c43.333 -79.333 78 -150.333 104 -213c26 -64 47.333 -131 64 -201c2.66699 0 6 -14.333 10 -43s7.33301 -65.334 10 -110.001c4 -46.667 6 -98.667 6 -156c0 -128 -8.66699 -248.667 -26 -362c-28.667 -88 -69 -175 -121 -261c-52 -87.333 -92.333 -152.666 -121 -195.999
c-20.667 0 -43 13 -67 39c-23.333 24.667 -44.666 53.334 -63.999 86.001z" />
    <glyph glyph-name="asterisk" unicode="*" horiz-adv-x="840" 
d="M399 1495l47.001 85.998c10 16.667 18.333 28.334 25 35.001s16.334 10 29.001 10c8 -4 16 -13 24 -27l13 -26c6.66699 -4 14 -11 22 -21c9.33301 -9.33301 14 -20.666 14 -33.999c0 -11.333 -2.66699 -20.333 -8 -27c-2.66699 -4 -8 -10 -16 -18l-25 -43l90 2
c44 0 66 -8.33301 66 -25c0 -12 -3.33301 -23 -10 -33l-17 -24c-1.33301 -11.333 -5.33301 -25.166 -12 -41.499s-21.667 -24.5 -45 -24.5c-2.66699 0 -10.334 1.33301 -23.001 4h-49l72 -121c13.333 -20 20 -37 20 -51c0 -6.66699 -2.66699 -11.334 -8 -14.001
c-4 -1.33301 -8.66699 -2.66602 -14 -3.99902c-6.66699 -1.33301 -12 -2 -16 -2l-39 4c-15.333 -6.66699 -26.333 -10 -33 -10c-22 0 -44 19.667 -66 59l-37 63l-63 -114c-19.333 -28.667 -36.333 -43 -51 -43c-5.33301 4 -10.333 8 -15 12l-6 12l-16 35
c-19.333 10.667 -29 25.667 -29 45c0 15.333 7.66699 36.666 23 63.999l35 61l-138 -2c-42 0 -63 7.66699 -63 23c0 5.33301 1.33301 11.333 4 18l6 12l23 31c1.33301 24.667 9.33301 40.334 24 47.001c15.333 8 38 12 68 12l71 2l-45 74c-14.667 27.333 -22 44.333 -22 51
c0 8.66699 3.33301 15 10 19c8 4 19.667 6 35 6l29 -2c4 2.66699 9.33301 4.66699 16 6c5.33301 2.66699 13.666 4 24.999 4c18.667 0 33.667 -8.66699 45 -26c1.33301 -4.66699 3.33301 -12.334 6 -23.001z" />
    <glyph glyph-name="plus" unicode="+" horiz-adv-x="991" 
d="M655 588l2 -228c0 -46 -8.66699 -71.667 -26 -77c-6.66699 0 -13.667 2 -21 6c-8 2.66699 -13.333 4.66699 -16 6l-74 29c-28.667 1.33301 -47.667 11.333 -57 30c-9.33301 19.333 -14 46.666 -14 81.999l-3 150l-223 -2c-30 0 -49.667 2.66699 -59 8
c-11.333 4 -17 10 -17 18c0 7.33301 1.66699 15 5 23c4 5.33301 6.66699 10 8 14l26 74c0 30 9.66699 49 29 57c19.333 10 46.666 15 81.999 15l147 2l-2 159c0 27.333 1.33301 47.333 4 60c4.66699 12 13 18 25 18c16.667 0 29.667 -4 39 -12l70 -19
c12 -1.33301 27.667 -6.66602 47 -15.999c18.667 -8 28 -25.667 28 -53l-4 -27l2 -108l164 2c30 0 51.333 -1.33301 64 -4c10.667 -4.66699 16 -13 16 -25s-4 -25 -12 -39l-21 -67c-1.33301 -12.667 -6 -28.667 -14 -48c-9.33301 -20 -27.666 -30 -54.999 -30
c-4.66699 0 -13.667 1.33301 -27 4z" />
    <glyph glyph-name="comma" unicode="," horiz-adv-x="561" 
d="M162 -211c-1.33301 0 -2.66699 22 -4 66c-2.66699 42 -4 92.333 -4 151c0 144.667 6 217 18 217c32.667 0 75 4.33301 127 13c50.667 8 80 13.333 88 16c0 -26 -5.5 -82.667 -16.5 -170l-28.5 -219c-8 -58.667 -12 -91.667 -12 -99z" />
    <glyph glyph-name="hyphen" unicode="-" horiz-adv-x="834" 
d="M631 578l-427.999 -6.99902c-46.667 0 -70 7.66699 -70 23c0 4 1.33301 9.33301 4 16c2.66699 7.33301 4.66699 12.333 6 15l27 71c0 24.667 9 41 27 49c16 7.33301 40.333 11 73 11l406 6c27.333 0 46.166 -1.33301 56.499 -4s15.5 -9.66699 15.5 -21
c0 -9.33301 -3.66699 -20 -11 -32l-18 -66c0 -10.667 -4.83301 -24.334 -14.5 -41.001s-26.167 -25 -49.5 -25c-8 0 -16 1.66699 -24 5z" />
    <glyph glyph-name="period" unicode="." horiz-adv-x="492" 
d="M162 0c-5.33301 0 -8.00098 38.999 -8.00098 116.999c0 70.667 6 106 18 106c31.333 0 70.833 4.16699 118.5 12.5s76.5 13.833 86.5 16.5c5.33301 -1.33301 8 -31.333 8 -90v-88c-1.33301 -31.333 -2.66602 -54.666 -3.99902 -69.999z" />
    <glyph glyph-name="slash" unicode="/" horiz-adv-x="1065" 
d="M963 1513c-158.667 -302.667 -280.333 -550.334 -365 -743.001c-31.333 -70.667 -60 -139 -86 -205c-28.667 -65.333 -56.667 -133 -84 -203l-76 -188c-23.333 -56 -40.333 -95 -51 -117c-18 -35.333 -35.667 -53 -53 -53c-8 0 -15 1.33301 -21 4h-123
c-12 0 -18 8.33301 -18 25c0 16 6 37.667 18 65l289 754l332 741c5.33301 14 30 21 74 21c52 0 95 -8.33301 129 -25c27.333 -13.333 41 -29.666 41 -48.999c0 -6.66699 -2 -15.667 -6 -27z" />
    <glyph glyph-name="zero" unicode="0" horiz-adv-x="1352" 
d="M1282 1169l-8 -629.997c-1.33301 -40 -9 -99.667 -23 -179c-13.333 -78.667 -40 -158.334 -80 -239.001c-39.333 -80.667 -94.333 -121 -165 -121c-15.333 0 -29.666 2 -42.999 6c-93.333 0 -179.333 0.666992 -258 2h-285c-1.33301 -2.66699 -4 -5.33398 -8 -8.00098
c-4 -4 -9.66699 -6 -17 -6c-22 0 -51.333 25.333 -88 76c-38 50 -86.333 144 -145 282l-56 621l-6 227v31c-1.33301 13.333 -2 29.666 -2 48.999c0 52 10.333 103.333 31 154c19.333 48.667 59.666 91.5 120.999 128.5s148.666 55.5 261.999 55.5h279
c20 -1.33301 53.333 -8.33301 100 -21c44.667 -10.667 97.167 -31.667 157.5 -63s113.5 -77 159.5 -137c46.667 -60 71.334 -136 74.001 -228zM897 266.003c9.33301 -4 18.999 -6.00098 28.999 -6.00098c47.333 0 80 48.667 98 146c16.667 98 25.667 202.333 27 313v57
l-52 455c3.33301 6.66699 5 11.334 5 14.001c0 26 -28 48.667 -84 68c-56 17.333 -102.667 29.666 -140 36.999c-17.333 0 -42.333 0.666992 -75 2c-34.667 1.33301 -60 2 -76 2c-58.667 0 -103.667 -7.66699 -135 -23c-23.333 -8 -52.666 -31 -87.999 -69
c-36 -37.333 -54 -94.666 -54 -171.999c0 -23.333 3.33301 -54.333 10 -93l91 -577z" />
    <glyph glyph-name="one" unicode="1" horiz-adv-x="819" 
d="M428 1225c0 18.667 -4.00293 28.0029 -12.0029 28.0029c-1.33301 0 -2.66602 -0.666992 -3.99902 -2s-2.66602 -2 -3.99902 -2l-109 -28c-64 -16.667 -105.667 -25 -125 -25c-10.667 0 -16.667 1.33301 -18 4c-6 8 -9 23.667 -9 47c0 19.333 1.66699 39.333 5 60
c2.66699 21.333 4 32.666 4 33.999c-2.66699 3.33301 -4 5.66602 -4 6.99902c0 13.333 30 41.166 90 83.499s122.667 81.833 188 118.5c8 16.667 38.667 35.334 92 56.001c30 10.667 58.667 16 86 16c42.667 0 64 -18.333 64 -55
c-5.33301 -176 -9.66602 -340.667 -12.999 -494c-4 -151.333 -7.33301 -283 -10 -395c-2.66699 -110.667 -4.66699 -223.334 -6 -338.001c-1.33301 -116 -3.33301 -202.667 -6 -260c0 -50.667 -15 -76 -45 -76l-133 -4c-26 0 -39 26.667 -39 80z" />
    <glyph glyph-name="two" unicode="2" horiz-adv-x="1331" 
d="M1233 4l-986.995 -6c-20.667 0 -37.667 6.66699 -51 20c-15.333 14 -25 25.667 -29 35l-43 451c0 40.667 10.333 74 31 100c18.667 24.667 39.667 45.334 63 62.001c24.667 13.333 37 21.333 37 24c0 20.667 49 45.334 147 74.001c97.333 27.333 206.666 54 327.999 80
c122.667 24.667 186.334 37 191.001 37c43.333 10.667 65 40 65 88c-4 30 -14.333 66.667 -31 110c-16 45.333 -33.667 87.666 -53 126.999c-20.667 41.333 -40.334 77 -59.001 107c-8.66699 16 -20.334 27.667 -35.001 35c-18 5.33301 -31 8 -39 8
c-69.333 26 -144.333 39 -225 39c-86 -1.33301 -173.333 -15.666 -262 -42.999c-22 -11.333 -41.333 -17 -58 -17c-18.667 0 -32.334 5 -41.001 15c-8 9.33301 -13.333 16.666 -16 21.999c-12.667 22 -22.334 57 -29.001 105c0 10.667 3.33301 19.334 10 26.001
c7.33301 6.66699 13 11.667 17 15l170 65c20.667 9.33301 42.167 16.166 64.5 20.499s38.166 6.5 47.499 6.5h531c4 0 10.667 -1.33301 20 -4c10 -4.66699 21 -11 33 -19c11.333 -6.66699 19.666 -18.334 24.999 -35.001c48.667 -129.333 95 -260.333 139 -393
c42 -134 64 -236.333 66 -307c0 -24.667 -4.33301 -44.334 -13 -59.001c-1.33301 -11.333 -29.333 -30.666 -84 -57.999c-56 -27.333 -170 -59.333 -342 -96c-91.333 -14 -167.666 -29 -228.999 -45c-64 -18 -115.333 -39.333 -154 -64c-38 -24 -57 -52 -57 -84
c0 -9.33301 -0.666992 -22.166 -2 -38.499s-2 -28.5 -2 -36.5c0 -36 17.667 -64 53 -84c19.333 -11.333 38.333 -20.333 57 -27c19.333 -6.66699 54.333 -13.334 105 -20.001c49.333 -7.33301 123 -13 221 -17c100 -4 219.333 -6 358 -6l8.5 2
c5.66699 1.33301 10.5 2 14.5 2c20.667 0 31.667 -13.667 33 -41l35 -131c2.66699 0 4 -3.33301 4 -10c0 -8 -3 -16.333 -9 -25c-4 -6.66699 -10.667 -10 -20 -10h-4z" />
    <glyph glyph-name="three" unicode="3" horiz-adv-x="1341" 
d="M274 1427c-8 -2.66699 -14.668 -3.99902 -20.001 -3.99902c-16.667 0 -31 7.66699 -43 23c-14 13.333 -21 24.333 -21 33l-38 125c-3.33301 10.667 -5 16.667 -5 18c0 10.667 5 17.334 15 20.001c8 3.33301 23 5 45 5l784 -13c10 0 23 -3.33301 39 -10
c18 -6.66699 29.667 -21 35 -43c42 -116 84.333 -245 127 -387c42 -143.333 63 -251.333 63 -324c0 -24 -3.33301 -43.667 -10 -59c-14.667 -31.333 -27.667 -55.333 -39 -72c-10.667 -16 -20 -28.333 -28 -37c-10 -6.66699 -20.333 -11.334 -31 -14.001
c-12.667 -4 -22.334 -6.66699 -29.001 -8c-4 -1.33301 -6 -2.66602 -6 -3.99902s9 -7 27 -17c16 -8 31.667 -16.667 47 -26c14.667 -11.333 28.334 -27 41.001 -47c12 -22 18 -49.333 18 -82l-100 -459c-4 -8 -12.333 -18.333 -25 -31c-12 -12 -29 -18 -51 -18h-903
c-14 0 -23 2 -27 6c-4 5.33301 -6 14.333 -6 27l41 135c4 14.667 16.333 25.667 37 33c16.667 5.33301 26.334 8 29.001 8l254 12c80 4 147.333 8 202 12c54.667 6 101.334 13 140.001 21c38 6.66699 65.333 16.334 82 29.001c32.667 21.333 53.667 43.666 63 66.999
c8 23.333 12 54.666 12 93.999c0 34.667 -6 60 -18 76c-8 9.33301 -39.333 21.666 -94 36.999c-54.667 13.333 -117.667 27 -189 41c-70.667 13.333 -126.667 25 -168 35c-26 5.33301 -39 22.333 -39 51l9 102c0 22 18.333 34.333 55 37c13.333 2.66699 70 13 170 31
c99.333 14.667 171 28.334 215 41.001c30 5.33301 49.667 12.666 59 21.999c11.333 10 17 23.667 17 41c-6 49.333 -22.333 113 -49 191c-26 76.667 -52 136 -78 178c-12.667 34 -77 58 -193 72c-114.667 13.333 -253.334 24 -416.001 32z" />
    <glyph glyph-name="four" unicode="4" 
d="M397 913c-4 -20 -6.00098 -33.6699 -6.00098 -41.0029c0 -28.667 11 -47 33 -55c13.333 -5.33301 28.333 -8 45 -8c18 0 36.333 2.66699 55 8l213 2l17 307c0 23.333 3.33301 40.666 10 51.999c4 10.667 8 16.667 12 18l166 53c26 0 39 -18.333 39 -55
c0 -12 -2 -28.333 -6 -49c0 -42.667 -0.666992 -96 -2 -160c-1.33301 -62.667 -2.66602 -114 -3.99902 -154l57 3l68 -17c6.66699 -2.66699 14 -6.66699 22 -12c9.33301 -5.33301 14 -12.333 14 -21c0 -1.33301 -1.33301 -4.66602 -4 -9.99902v-164
c0 -5.33301 -3.33301 -12 -10 -20c-5.33301 -8 -18.333 -12 -39 -12l-114 -3c0 -31.333 -0.666992 -75 -2 -131c-2 -57.333 -3.66699 -107.666 -5 -150.999v-119c-1.33301 -34 -2 -65.333 -2 -94c0 -50.667 -15 -76 -45 -76l-153 -4c-26 0 -39 26.667 -39 80l22 487
c-143.333 -4 -245 -7.33301 -305 -10c-61.333 -1.33301 -140.333 -4.66602 -237 -9.99902c-79.333 44.667 -119 108.667 -119 192c0 7.33301 1.33301 16.333 4 27c1.33301 10.667 2 17.334 2 20.001l260 773c1.33301 20 9 33.333 23 40c12 7.33301 22 11 30 11l135 6
c23.333 0 35 -7 35 -21c0 -2.66699 2.66699 -4 8 -4c4.66699 0 7 -0.666992 7 -2z" />
    <glyph glyph-name="five" unicode="5" horiz-adv-x="1423" 
d="M481 1327c-20 -26 -36.3379 -51.335 -49.0049 -76.002c-12 -26 -20 -45 -24 -57c0 -22 2.66699 -37 8 -45c5.33301 -9.33301 20.333 -17.666 45 -24.999c5.33301 0 72.333 -12.333 201 -37c126.667 -22.667 240.667 -47.667 342 -75c99.333 -26 149 -49.333 149 -70
c0 -2.66699 9 -8 27 -16c16 -8.66699 31.667 -18.334 47 -29.001c14.667 -9.33301 28.334 -24.333 41.001 -45c12 -22 18 -49.333 18 -82l-100 -725c-4 -8 -12.333 -18.333 -25 -31c-12 -12 -29 -18 -51 -18h-913c-14 0 -23 2 -27 6c-4 5.33301 -6 14.333 -6 27
c-5.33301 12 -13.666 33 -24.999 63c-9.33301 28.667 -16.666 52.667 -21.999 72c0 20.667 8 35.667 24 45c15.333 8 28.333 12.667 39 14l705 68c28.667 2.66699 48.334 13.667 59.001 33c11.333 20 18.333 36.333 21 49c17.333 46 31 104.667 41 176
c8 69.333 12 124 12 164c0 10.667 -0.666992 17.334 -2 20.001c-1.33301 4 -4 7.33301 -8 10c-6 1.33301 -10.333 4.33301 -13 9c-8 10.667 -35.333 22 -82 34c-44.667 12.667 -100.667 25.667 -168 39c-66.667 15.333 -126.667 28.333 -180 39
c-122.667 24.667 -214.667 50.667 -276 78c-61.333 26 -101 48 -119 66c-18 16 -27 28 -27 36c-6.66699 16.667 -10 36.667 -10 60c0 50.667 9.5 97.5 28.5 140.5s47.833 97.167 86.5 162.5c36.667 65.333 61.334 115 74.001 149c6.66699 22 18 36.333 34 43
c16.667 7.33301 29.667 11 39 11l738 12c66.667 0 100 -24 100 -72l-21 -104c0 -6.66699 -4 -15 -12 -25c-6.66699 -10.667 -23 -16 -49 -16l-582 -35c-12 -1.33301 -29 -4.66602 -51 -9.99902c-20.667 -6.66699 -33 -17.667 -37 -33z" />
    <glyph glyph-name="six" unicode="6" horiz-adv-x="1372" 
d="M958 1630c26 0 44.001 -4 54.001 -12c8 -9.33301 12.667 -17 14 -23l49 -116c0 -18 -2.66699 -30.333 -8 -37c-5.33301 -8 -17 -12 -35 -12l-194 -25c-83.333 -14 -146.333 -23.667 -189 -29c-42 -6.66699 -75.333 -10 -100 -10c-16.667 -1.33301 -37.334 -8 -62.001 -20
c-24 -12.667 -36 -37.334 -36 -74.001c-6 -53.333 -9 -104.666 -9 -153.999c0 -6.66699 3 -10.667 9 -12c6.66699 -2.66699 17.334 -4 32.001 -4c50.667 5.33301 106 8 166 8c110.667 0 204.334 -7.66699 281.001 -23c74.667 -14.667 127 -27.334 157 -38.001
c41.333 0 67.333 -20 78 -60c12.667 -40.667 19 -74.667 19 -102l86 -543c-4 -56 -18.333 -125 -43 -207c-24.667 -83.333 -70.334 -125 -137.001 -125c-145.333 -13.333 -286.666 -20 -423.999 -20c-63.333 0 -118.833 1.33301 -166.5 4s-101.5 8 -161.5 16
c-57.333 34 -97 71.667 -119 113c-20.667 38 -32.334 67.333 -35.001 88l-39 340l15 514c5.33301 130 27.666 235.667 66.999 317c40 80.667 79 137.834 117 171.501s66.667 54.5 86 62.5zM827.001 231c42.667 1.33301 76.333 9 101 23c23.333 12 39 27 47 45
s12.667 33 14 45c0 14 0.666992 25 2 33l-28 368c-1.33301 18 -9.66602 32.333 -24.999 43c-13.333 11.333 -25 18.333 -35 21l-422 59c-38 0 -57 -25.667 -57 -77l-2 -422c0 -23.333 11 -53.333 33 -90c20 -37.333 64.333 -56 133 -56c24.667 0 65 1.33301 121 4
c57.333 2.66699 96.666 4 117.999 4z" />
    <glyph glyph-name="seven" unicode="7" horiz-adv-x="1229" 
d="M113 1458c0 6.66699 4.66992 28.0039 14.0029 64.0039c8 35.333 14.667 63.333 20 84c0 9.33301 6.33301 16 19 20c12 5.33301 22.333 8.66602 31 9.99902h731h-4c47.333 6 78.666 9 93.999 9c22 0 43 -3 63 -9c36 -6.66699 55.333 -19.667 58 -39l-37 -75
c-18 -37.333 -42 -92 -72 -164c-30 -74 -60.667 -161.333 -92 -262c-32.667 -101.333 -59.334 -200.333 -80.001 -297c94 0 148 -2.66699 162 -8c16 -10 24 -19 24 -27c0 -15.333 -6 -36.666 -18 -63.999c-10.667 -27.333 -16 -42.333 -16 -45
c0 -4 -6.33301 -7.33301 -19 -10c-12 -2.66699 -37.333 -7.33398 -76 -14.001l-98 -17c-34 -84.667 -63.333 -170.667 -88 -258c-23.333 -87.333 -39 -161 -47 -221c-10.667 -60 -16 -95.333 -16 -106c1.33301 0 6.66602 14.333 15.999 43
c-8 -20.667 -14.667 -35.667 -20 -45c-7.33301 -10 -18.333 -16.333 -33 -19h-25l-194 4c-14 0 -23 7 -27 21c0 20 4 42.333 12 67l133 486c-42 -2.66699 -82 -6.33398 -120 -11.001l-54 -6c-8 0 -12.667 8.33301 -14 25c0 24.667 1.33301 63.667 4 117
c4 53.333 6 84.666 6 93.999c18 1.33301 48 2.66602 90 3.99902h144l172 459c18.667 36.667 28 70.667 28 102c-2.66699 19.333 -27 30.333 -73 33l-537 10c-36.667 0 -57 15 -61 45z" />
    <glyph glyph-name="eight" unicode="8" horiz-adv-x="1341" 
d="M666 795c-36 -7.33301 -86.001 -16.333 -150.001 -27s-107.667 -19.667 -131 -27c-22 -6.66699 -37 -15.334 -45 -26.001c-9.33301 -12.667 -14 -30.334 -14 -53.001c20 -175.333 50.667 -299 92 -371c12 -27.333 46 -48.666 102 -63.999
c54.667 -13.333 112.667 -20 174 -20c56 0 112.667 6.66699 170 20c58.667 12.667 92.334 29 101.001 49c21.333 38.667 40.333 94.667 57 168c14.667 72.667 26.334 141.667 35.001 207c0 24.667 -5.66699 43.334 -17 56.001c-10.667 12 -28.334 22 -53.001 30
c-26 7.33301 -71 16.333 -135 27zM876.999 1421c-16.667 16.667 -72.6689 24.999 -168.002 24.999c-33.333 0 -101.666 -3.33301 -204.999 -10c-32.667 -16.667 -60.667 -48.334 -84 -95.001c-24.667 -46 -37 -94.333 -37 -145v-29c0 -6.66699 -0.666992 -14 -2 -22
c0 -16.667 6 -29.667 18 -39c14 -10.667 40 -21 78 -31c40 -9.33301 105.667 -23.666 197 -42.999c182.667 36.667 282.334 64 299.001 82c12 20.667 18 47.334 18 80.001c0 42 -10 85 -30 129c-20.667 42 -48.667 74.667 -84 98zM947.997 1649
c80.667 -34.667 142.335 -69 185.002 -103c40.667 -34 65.667 -62 75 -84c10 -23.333 15 -39 15 -47l14 -287c0 -40.667 -9 -72.667 -27 -96c-17.333 -23.333 -38.333 -41.666 -63 -54.999c-26 -14 -39 -21.667 -39 -23l4 -4c44 -12 83 -34.333 117 -67
s51 -74.334 51 -125.001c0 -98.667 -3.33301 -191.667 -10 -279c-6.66699 -86 -21.667 -167 -45 -243c-20.667 -50.667 -45.334 -91.667 -74.001 -123c-31.333 -31.333 -61.333 -54.166 -90 -68.499s-53.334 -23.833 -74.001 -28.5c-19.333 -4 -33 -6 -41 -6l-508 -8
c-36.667 2.66699 -85 19 -145 49c-61.333 30 -101.666 86.667 -120.999 170c-18 52 -32.333 112.667 -43 182c-12 70 -20.333 137 -25 201c-4 62.667 -6 116.667 -6 162c0 26 14.333 60 43 102c27.333 42.667 67 72 119 88l4 5c0 1.33301 -12.333 8 -37 20
s-46.334 30.333 -65.001 55c-19.333 23.333 -29 55.666 -29 96.999l21 284c6.66699 18 21 44 43 78c20 34 52 68 96 102c43.333 34.667 94.333 52 153 52h502z" />
    <glyph glyph-name="nine" unicode="9" horiz-adv-x="1249" 
d="M881 1253c2.66699 19.333 4.00098 33 4.00098 41c0 24.667 -2.66699 44 -8 58c-7.33301 12 -13 20 -17 24c-26 19.333 -57.333 31 -94 35s-92 6 -166 6h-59c-48 0 -72 -17.667 -72 -53l-51 -508c0 -16.667 2.66699 -27.667 8 -33c4 -6.66699 7.33301 -10 10 -10l418 -35
c15.333 0 25.666 1.33301 30.999 4c4 4 6 10.333 6 19zM803.001 266c18.667 0 32.168 6.16504 40.501 18.498s13.166 22.5 14.499 30.5c24.667 67.333 37 127 37 179c0 17.333 -11.667 26 -35 26c-50.667 -5.33301 -100.334 -8 -149.001 -8
c-106.667 0 -201.667 7.66699 -285 23c-82 14.667 -140 27.334 -174 38.001c-39.333 0 -65.333 20.667 -78 62c-12 39.333 -18 72.666 -18 99.999l22 576c2.66699 116 28.667 193.667 78 233c50.667 41.333 92.334 64 125.001 68c129.333 12 251.666 18 366.999 18
c54 0 92 -1.33301 114 -4c23.333 -1.33301 70.666 -6.66602 141.999 -15.999c12 -1.33301 30.333 -9.66602 55 -24.999c23.333 -16 46.333 -52 69 -108c23.333 -57.333 35 -138 35 -242c4 -22 10.333 -63 19 -123c6.66699 -60 10 -146.667 10 -260
c0 -84.667 -4 -183.667 -12 -297c0 -28.667 -12.333 -97 -37 -205c-26 -108 -49.333 -200 -70 -276c0 -23.333 -38.333 -42 -115 -56c-76 -12 -170 -18 -282 -18c-91.333 -0 -179.333 1.33301 -264 4c-86 2.66699 -153 6 -201 10c-24.667 0 -37 12.333 -37 37
c9.33301 38.667 15.666 63.334 18.999 74.001l18 65c1.33301 14 6 23 14 27c8.66699 4 20.334 6 35.001 6c6.66699 0 54.334 3.33301 143.001 10c89.333 7.33301 170 13.666 242 18.999c72.667 5.33301 125.334 10 158.001 14z" />
    <glyph glyph-name="colon" unicode=":" horiz-adv-x="471" 
d="M133 279c-5.33301 0 -7.99902 41.333 -7.99902 124c0 70 4.66699 105 14 105c91.333 0 140.666 2.66699 147.999 8c26 0 39 -24.667 39 -74v-163h-193zM293.001 934l6 -65.999c1.33301 -28.667 2 -56 2 -82c0 -35.333 -4 -53 -12 -53l-191 23l2 -2v-9
c0 -2.66699 0.666992 -4 2 -4c4.66699 0 7 32.333 7 97v84c0 21.333 1.33301 32 4 32c6.66699 1.33301 16.667 2.66602 30 3.99902c14 2 29 3 45 3c52 0 87 -9 105 -27z" />
    <glyph glyph-name="semicolon" unicode=";" horiz-adv-x="561" 
d="M162 -201c-1.33301 0 -2.66699 21.333 -4 64c-2.66699 42 -4 91.667 -4 149c0 140.667 6 211 18 211c32.667 0 75 4.33301 127 13c50.667 8 80 13.333 88 16c0 -35.333 -9.66699 -123.333 -29 -264l-28 -213zM376.999 877l6 -67.999c1.33301 -31.333 2 -60 2 -86
c0 -38 -4 -57 -12 -57l-209 22c1.33301 0 2 -0.666992 2 -2c0 -2.66699 0.666992 -4 2 -4v-4c4 0 6 34 6 102c0 78 1.33301 117 4 117c6.66699 1.33301 17 2.66602 31 3.99902c12 1.33301 29.667 2 53 2c60 0 98.333 -8.66699 115 -26z" />
    <glyph glyph-name="less" unicode="&#x3c;" horiz-adv-x="471" 
d="M408 1079l-119 -406.003l118 -329c0 -20 -15.333 -30 -46 -30h-6c-8.66699 0 -19 1 -31 3c-14 1.33301 -22 2 -24 2c-38 36 -74.667 73 -110 111l-86 88l-55 160c13.333 22 27 46 41 72c16 24.667 36.667 61.334 62 110.001c24 46.667 43.667 82.334 59 107.001l42 71
c2 4 24.667 22 68 54c0 8.66699 16.333 13.334 49 14.001c25.333 0 38 -9 38 -27z" />
    <glyph glyph-name="equal" unicode="=" horiz-adv-x="909" 
d="M678 403l-467 -5.99902c-50.667 0 -76 7.66699 -76 23c0 5.33301 1.33301 11.333 4 18c2.66699 5.33301 5.33398 9.66602 8.00098 12.999l27 81c0 24.667 9.66699 41.334 29 50.001c17.333 6.66699 44.666 10 81.999 10l442 6c30 0 51.333 -1.33301 64 -4
c10.667 -2.66699 16 -9.66699 16 -21c0 -9.33301 -4 -20 -12 -32l-21 -76c-1.33301 -10.667 -6 -24.334 -14 -41.001c-10 -16.667 -28.333 -25 -55 -25c-4.66699 0 -13.667 1.33301 -27 4zM688 694.001l-467.002 -6.00098c-50.667 0 -76 7.66699 -76 23
c0 6.66699 1.66699 12.667 5 18c4 5.33301 6.66699 9.33301 8 12l26 82c0 24.667 9.66699 41 29 49c18 7.33301 45.333 11 82 11l442 6c28.667 0 49.334 -1.33301 62.001 -4c10.667 -2.66699 16 -9.66699 16 -21c0 -10.667 -4 -21.667 -12 -33l-19 -75
c-1.33301 -11.333 -6.66602 -25.166 -15.999 -41.499s-27 -24.5 -53 -24.5c-4 0 -13 1.33301 -27 4z" />
    <glyph glyph-name="greater" unicode="&#x3e;" horiz-adv-x="471" 
d="M81 337l112 407l-123 327c0 20 15.333 30.333 46 31h8c8 0 17.667 -0.666992 29 -2c14 -1.33301 22 -2 24 -2c38.667 -35.333 75.667 -71.666 111 -108.999l88 -87l57 -159l-40 -73c-15.333 -24.667 -35.333 -61.334 -60 -110.001
c-23.333 -47.333 -42.333 -83.333 -57 -108l-41 -72c-2 -4 -24.333 -22.333 -67 -55c0 -8.66699 -16.333 -13.667 -49 -15c-25.333 0 -38 9 -38 27z" />
    <glyph glyph-name="question" unicode="?" horiz-adv-x="1024" 
d="M156 535c-26 54 -39 117.999 -39 191.999c0 10.667 1.33301 24.334 4 41.001c1.33301 18 2 29.667 2 35c0 40.667 7.33301 74 22 100c14 24.667 25.667 41 35 49l318 213c118.667 84.667 178.667 129 180 133c5.33301 10 8 19.667 8 29c0 14 -10.333 36 -31 66
c-5.33301 9.33301 -12 15.333 -20 18c-9.33301 4 -17 6 -23 6l-188 10c-75.333 3.33301 -125.333 5 -150 5c-25.333 0 -57.333 1.33301 -96 4c-24.667 2.66699 -41 8 -49 16c-6.66699 9.33301 -10.667 17 -12 23l-19 98c0 6.66699 2 14.667 6 24c4.66699 10 15 15 31 15h670
c57.333 0 95 -12.333 113 -37c17.333 -26 26 -50.667 26 -74l2 -297c0 -8 -2.66699 -21 -8 -39c-6.66699 -16 -20.334 -29.667 -41.001 -41c-66.667 -39.333 -146 -93 -238 -161l-215 -164c-8 -11.333 -16.667 -29.333 -26 -54c-11.333 -24 -17 -45.667 -17 -65
c0 -30 16 -45 48 -45c0 -2.66699 6.66699 -4 20 -4c56 0 184.333 16.333 385 49c15.333 0 27 -13.667 35 -41l10 -96c0 -16.667 -10.333 -25.667 -31 -27c-86 -53.333 -194.333 -80 -325 -80c-70 0 -135 6.33301 -195 19c-61.333 10.667 -104.333 20 -129 28
c-23.333 0 -39.666 7 -48.999 21c-8 12 -12.667 22.333 -14 31zM428 3.99902c-5.33301 0 -8 38.333 -8 115c0 70.667 6 106 18 106c31.333 0 71 4.16699 119 12.5s76.667 13.833 86 16.5c5.33301 -1.33301 8 -31.333 8 -90c0 -28.667 -0.666992 -58 -2 -88
s-2 -52.667 -2 -68z" />
    <glyph glyph-name="at" unicode="@" horiz-adv-x="2212" 
d="M914 798l-1 -7c0 2.66699 0.333008 5 1 7zM903 303c0 -6 20.001 -27.002 60.001 -63.002c34.667 -12.667 70.334 -21.667 107.001 -27c36.667 -6.66699 72.667 -10 108 -10c88 0 149 17.667 183 53c2.66699 12 5.66699 36 9 72c4.66699 35.333 7 72.666 7 111.999
c0 164 -30 326.667 -90 488c0 6.66699 -6.66699 13.334 -20 20.001c-12 6.66699 -24.667 10 -38 10l-271 -51c-12 -3.33301 -19.833 -8.66602 -23.5 -15.999s-6.83398 -20.166 -9.50098 -38.499s-6.33398 -36.5 -11.001 -54.5c0 -2 -0.333008 -4.33301 -1 -7l-8 -152v-223
v-70c0 -28.667 -0.666992 -43 -2 -43zM1536 97.998c-18 -56 -41.3262 -83.9932 -69.9932 -83.9932c-32.667 -7.33301 -205.334 -11 -518.001 -11h-127c-30.667 0 -54.667 5.33301 -72 16c-19.333 12 -31 35.667 -35 71c0 40.667 -3.16699 90.167 -9.5 148.5
s-11.666 126.666 -15.999 204.999s-6.5 190.5 -6.5 336.5v92c2.66699 142 4.66699 213 6 213c0 20 4 35.167 12 45.5s16.5 17.5 25.5 21.5s18 6.5 27 7.5s15.167 1.5 18.5 1.5c82.667 4 187 9.66699 313 17c126.667 6.66699 236.334 12 329.001 16
c30 -5.33301 51.667 -19 65 -41c17.333 -23.333 28.333 -41.666 33 -54.999c22 -162.667 38.333 -307.334 49 -434.001c4.66699 -84 7.33398 -136 8.00098 -156c27.333 -189.333 66 -284 116 -284c24.667 0.666992 46 3.66699 64 9c19.333 6.66699 36.333 22.334 51 47.001
s22 56.667 22 96c9.33301 39.333 14 100.666 14 183.999c0 46 -0.666992 81.5 -2 106.5l-3 56.5c-1.33301 114 -5.33301 207.333 -12 280c0 13.333 0.333008 26 1 38v52c0 38 -4.33301 61.333 -13 70c-10 50 -31.667 90 -65 120c-32 30.667 -87.667 57.667 -167 81
c0 14 -32.833 24.5 -98.5 31.5s-120.5 11.5 -164.5 13.5c-76.667 1.33301 -165.667 2 -267 2c-88.667 0 -144.334 -0.666992 -167.001 -2c-19.333 0 -55.333 -5.66699 -108 -17l-128 -28c-74 -22 -126 -48 -156 -78c-18.667 -16.667 -31.334 -32.334 -38.001 -47.001
s-19 -50 -37 -106c-6 -22 -12.333 -68.667 -19 -140c-6.66699 -70.667 -10.667 -161 -12 -271l12 -439c2 -37.333 5.5 -87.833 10.5 -151.5s11.833 -108.5 20.5 -134.5c18 -82.667 58.333 -124 121 -124c63.333 -20.667 128 -36 194 -46
c46 -6.66699 124.5 -15.334 235.5 -26.001s226.833 -16 347.5 -16c92.667 0 177 3.66699 253 11c36 3.33301 79.333 10.333 130 21c106.667 23.333 208.334 54 305.001 92c11.333 6.66699 21 10 29 10c9.33301 0 15.333 -4.66699 17.999 -14v-92
c0 -34.667 -9.66699 -54.667 -29 -60c-125.333 -64 -244 -108 -356 -132c-66 -14 -139 -21.667 -219 -23c-65.333 1.33301 -156 3 -272 5l-348 6c-116 1.33301 -206.667 2.33301 -272 3c-6 0 -36 4.33301 -90 13c-56 8.66699 -109.333 19.667 -160 33
c-52 10 -82.667 20.333 -92 31c-10.667 11.333 -21 73.666 -31 186.999c-9.33301 113.333 -18 269.333 -26 468c-4 79.333 -7.16699 135.166 -9.5 167.499l-7.5 101.5c-1.33301 19.333 -2 56.333 -2 111c0 103.333 3 213.666 9 330.999c4 119.333 10.667 226.666 20 321.999
c9.33301 98 21 162 35 192c10.667 21.333 53 39.333 127 54c72 12 157.333 20.667 256 26c20 0.666992 39 1.33398 57 2.00098c17.333 0 33.666 0.333008 48.999 1c14.667 0.666992 35.334 1.33398 62.001 2.00098h125c6 0 29.667 1 71 3
c41.333 1.33301 87.666 2.66602 138.999 3.99902c51.333 0.666992 126.666 1 225.999 1l314 -5c105.333 -5.33301 196.666 -14.333 273.999 -27c79.333 -14.667 124.666 -33 135.999 -55c14.667 -30.667 27 -96.667 37 -198c10 -98 17 -208.667 21 -332
c6.66699 -120.667 10 -234 10 -340c0 -28 -1.33301 -57.833 -4 -89.5s-4.66699 -53.834 -6 -66.501c0 -6.66699 -1.66699 -28.167 -5 -64.5s-6.5 -75.333 -9.5 -117s-6.83301 -98.5 -11.5 -170.5c-6 -18.667 -15.333 -42 -28 -70s-24.334 -42 -35.001 -42
c0 -17.333 -5.66699 -31 -17 -41c-10.667 -8 -19.334 -13.333 -26.001 -16c-72.667 -14 -130 -21 -172 -21c-27.333 0 -58 3 -92 9c-34.667 4 -53.334 6 -56.001 6c-18.667 0 -32.334 5.33301 -41.001 16c-6.66699 8.66699 -10.667 17 -12 25
c-3.33301 8 -8.66602 17.833 -15.999 29.5s-15.666 17.5 -24.999 17.5c-6.66699 0 -12.334 -4 -17.001 -12z" />
    <glyph glyph-name="A" unicode="A" horiz-adv-x="1352" 
d="M385 1630c61.333 2.66699 128.997 4.66602 202.997 5.99902c70.667 1.33301 130.667 2 180 2c48 1.33301 100.667 2 158 2c6.66699 0 15.334 -3.33301 26.001 -10c11.333 -5.33301 17.666 -17.666 18.999 -36.999c6.66699 -28.667 22.334 -80.334 47.001 -155.001
l67 -209c19.333 -64 42 -143.333 68 -238c24.667 -94 43.667 -181.333 57 -262c19.333 -112 29 -228.667 29 -350c0 -75.333 -1.33301 -134 -4 -176l-16 -168c0 -5.33301 -1.83301 -11.833 -5.5 -19.5s-11.5 -11.5 -23.5 -11.5h-168c-19.333 0 -29 11 -29 33
c1.33301 42 2 135.333 2 280c0 33.333 -17.667 50 -53 50c-39.333 -1.33301 -128 -7 -266 -17c-138 -9.33301 -228 -17.333 -270 -24c-7.33301 0 -15.666 -3.66699 -24.999 -11c-10.667 -6.66699 -18.5 -19.834 -23.5 -39.501s-13.5 -58.167 -25.5 -115.5
c-14 -57.333 -22.333 -97.666 -25 -120.999c-4 -15.333 -9.33301 -25.666 -16 -30.999c-8 -5.33301 -14.333 -8 -19 -8l-153 2c-16.667 0 -25 9 -25 27l31 395c10.667 134 25.667 286.333 45 457c18 170.667 39 322 63 454c23.333 134 48.666 223 75.999 267
c2.66699 5.33301 10.334 11.333 23.001 18c10.667 6.66699 28.334 10 53.001 10zM384.997 601.999c0 -14.667 2.00098 -25.001 6.00098 -31.001c4 -5.33301 14.333 -8 31 -8c105.333 4 206.333 8.83301 303 14.5s161.667 10.5 195 14.5
c17.333 2.66699 28.666 7.33398 33.999 14.001c6 8 9 19 9 33c-6 31.333 -24.667 101.666 -56 210.999l-94 309c-31.333 98.667 -51 157.334 -59 176.001c-8.66699 14 -17.667 23.667 -27 29c-9.33301 4 -16 6 -20 6c-48 0 -87 -6 -117 -18c-30 -14 -50.667 -38.667 -62 -74
z" />
    <glyph glyph-name="B" unicode="B" horiz-adv-x="1331" 
d="M446 1362c-24 -1.33301 -42.332 -10.3311 -54.999 -26.998c-10.667 -14.667 -18 -27 -22 -37c-4.66699 -38 -9 -99.333 -13 -184c-2.66699 -86 -5.33398 -199.333 -8.00098 -340c-1.33301 -140.667 -2 -253.334 -2 -338.001c-1.33301 -84.667 -2 -141.334 -2 -170.001
s17 -43 51 -43c30 0 80 -2.66699 150 -8c68 -4 122 -6.66699 162 -8c95.333 0 157.333 10.333 186 31c34 22.667 59.167 52.5 75.5 89.5s24.5 74.5 24.5 112.5c0 34.667 -6 60 -18 76c-8 9.33301 -39.333 21.666 -94 36.999c-54.667 13.333 -117.667 27 -189 41
c-70.667 13.333 -126.667 25 -168 35c-26 5.33301 -39 22.333 -39 51l9 102c0 22 18.333 34.333 55 37c13.333 2.66699 70 13 170 31c99.333 14.667 171 28.334 215 41.001c26 5.33301 43.667 15.5 53 30.5s14 32.833 14 53.5c-6.66699 50.667 -23.667 118.334 -51 203.001
c-28.667 83.333 -56.667 147.333 -84 192c-8 19.333 -19.667 31.666 -35 36.999c-14.667 5.33301 -26.667 8 -36 8c-36 0 -80.333 -4 -133 -12c-52 -9.33301 -124 -23 -216 -41zM1065 1581c42 -116 84.333 -245 127 -387c42 -143.333 63 -251.333 63 -324
c0 -24 -3.33301 -43.667 -10 -59c-14.667 -31.333 -27.667 -55.333 -39 -72c-10.667 -16 -20 -28.333 -28 -37c-10 -6.66699 -20.333 -11.334 -31 -14.001c-12.667 -4 -22.334 -6.66699 -29.001 -8c-4 -1.33301 -6 -2.66602 -6 -3.99902s9 -7 27 -17
c16 -8 31.667 -16.667 47 -26c14.667 -11.333 28.334 -27 41.001 -47c12 -22 18 -49.333 18 -82l-100 -459c-4 -8 -12.333 -18.333 -25 -31c-12 -12 -29 -18 -51 -18h-913c-14 0 -23 2 -27 6c-4 5.33301 -6 14.333 -6 27l24 1568l-24 37h868c10 0 23 -3.33301 39 -10
c18 -6.66699 29.667 -21 35 -43z" />
    <glyph glyph-name="C" unicode="C" horiz-adv-x="1157" 
d="M543 262c58.667 -14.667 123.334 -26.3281 194.001 -34.9951c72.667 -8 135.667 -12 189 -12c31.333 0 53 0.666992 65 2c1.33301 0 3.33301 0.666992 6 2s5.66699 2 9 2c14.667 0 24 -12.333 28 -37l8 -112c0 -16.667 -2.66699 -28.334 -8 -35.001
c-5.33301 -8 -16.333 -12 -33 -12c-65.333 -7.33301 -149 -13 -251 -17c-102.667 -5.33301 -166.334 -8 -191.001 -8c-4 0 -34 3.33301 -90 10s-109.333 15 -160 25c-52 8 -82.667 16 -92 24c-10.667 8.66699 -21 56.667 -31 144c-9.33301 87.333 -18 207.333 -26 360
c-10 152 -15.667 239.333 -17 262c-1.33301 15.333 -2 44 -2 86c0 79.333 3 164 9 254c4 92 10.667 174.667 20 248c9.33301 75.333 21 124.666 35 147.999c10.667 16 53 29.667 127 41c72 9.33301 157.333 16 256 20c96.667 2.66699 194.334 4 293.001 4h143
c26 0 39 -9 39 -27c0 -8 -1.33301 -14.667 -4 -20l-39 -92c0 -8 -4 -18.333 -12 -31c-8.66699 -12 -25.334 -18 -50.001 -18c-136 -8.66699 -241.667 -20.334 -317 -35.001c-74 -16.667 -126 -36.667 -156 -60c-31.333 -22.667 -51.666 -52.667 -60.999 -90
c-2.66699 -2.66699 -7.33398 -12 -14.001 -28c-6 -16.667 -12.333 -52.334 -19 -107.001s-10.667 -124.334 -12 -209.001l12 -393c0 -42 10.333 -94.667 31 -158c18 -64 58.333 -96 121 -96z" />
    <glyph glyph-name="D" unicode="D" horiz-adv-x="1321" 
d="M1217 907c-8.66699 -104.667 -48.999 -388.667 -120.999 -852c0 -9.33301 -3 -21 -9 -35c-6.66699 -13.333 -21.667 -20 -45 -20h-862c-22 0 -35.667 4 -41 12c-5.33301 8.66699 -8 22.334 -8 41.001l35 1503l-43 54c-14 12 -21 20.667 -21 26c0 4 12.333 6 37 6l856 -32
c7.33301 -1.33301 15.666 -3.33301 24.999 -6c8 -4.66699 17 -12.334 27 -23.001c9.33301 -9.33301 16 -22.333 20 -39c8 -35.333 24.333 -95.333 49 -180l60 -215c14.667 -58.667 26.667 -105 36 -139c1.33301 -6 4.33301 -13.667 9 -23
c2.66699 -10.667 4 -24.334 4 -41.001c0 -13.333 -2.66699 -25.666 -8 -36.999zM989.001 1024l-115 300.997c-4 10.667 -8.66699 18.334 -14 23.001c-5.33301 2.66699 -9.33301 4 -12 4l-430 57c-8 0 -14.333 -2 -19 -6c-2.66699 -4 -4 -15 -4 -33l-63 -1106
c0 -18.667 3.33301 -33 10 -43c6.66699 -8 21 -12 43 -12c61.333 2.66699 134.333 6.66699 219 12c86 5.33301 154.333 11 205 17c20.667 0 37 7.33301 49 22c12.667 16.667 21 29.667 25 39c4 32.667 17 122 39 268c20 144.667 34.833 246.834 44.5 306.501
s17.167 109.834 22.5 150.501z" />
    <glyph glyph-name="E" unicode="E" horiz-adv-x="1178" 
d="M958 1438c-118.667 -7.33301 -204.663 -12.998 -257.996 -16.998c-54.667 -5.33301 -97.667 -11.333 -129 -18c-32.667 -6.66699 -56.334 -15.667 -71.001 -27c-16.667 -9.33301 -34.667 -24.333 -54 -45c-47.333 -50.667 -71 -135.334 -71 -254.001
c0 -70.667 5.33301 -123.667 16 -159c2.66699 -15.333 45 -23 127 -23c20.667 0 43.334 0.666992 68.001 2c26 0 50.333 0.666992 73 2c22 0 40.667 0.666992 56 2h65c26 0 55.333 -1.33301 88 -4c28.667 0 43 -13 43 -39v-110c-4 -22 -12 -37.333 -24 -46
c-14 -8 -25 -12 -33 -12c-120 -8 -213 -19.667 -279 -35c-66.667 -13.333 -110.334 -25.666 -131.001 -36.999c-20 -10.667 -31.333 -18 -34 -22l-13 -66c-4 -21.333 -6 -42.333 -6 -63c0 -92.667 45.667 -157.667 137 -195c93.333 -35.333 202.666 -53 327.999 -53
c30 0 80 2 150 6c13.333 0 22.666 -13.667 27.999 -41l8 -112c0 -16.667 -2.66699 -28.334 -8 -35.001c-5.33301 -8 -16.333 -12 -33 -12c-65.333 -7.33301 -149 -13 -251 -17c-102.667 -5.33301 -166.334 -8 -191.001 -8c-4 0 -34 3.33301 -90 10s-109.333 15 -160 25
c-52 8 -82.667 16 -92 24c-10.667 8.66699 -21 56.667 -31 144c-9.33301 87.333 -18 207.333 -26 360c-10 152 -15.667 239.333 -17 262c-1.33301 15.333 -2 44 -2 86c0 79.333 3 164 9 254c4 92 10.667 174.667 20 248c9.33301 75.333 21 124.666 35 147.999
c10.667 16 53 29.667 127 41c72 9.33301 157.333 16 256 20c96.667 2.66699 194.334 4 293.001 4h143c26 0 39 -9 39 -27c0 -8 -1.33301 -14.667 -4 -20l-39 -92c0 -8 -4 -18.333 -12 -31c-8.66699 -12 -25.334 -18 -50.001 -18z" />
    <glyph glyph-name="F" unicode="F" horiz-adv-x="1106" 
d="M1012 1466c-106.667 -9.33301 -223.332 -23.0029 -349.999 -41.0029c-128.667 -18.667 -196.334 -38.334 -203.001 -59.001c-4 -10.667 -8.33301 -42.667 -13 -96c-4 -53.333 -8 -113.333 -12 -180c-4 -66 -6.66699 -114.667 -8 -146c0 -16 2.66699 -29 8 -39
c6.66699 -8 20.334 -12 41.001 -12h103c32.667 0 76.334 0.666992 131.001 2h108c20.667 0 34.334 -0.666992 41.001 -2c6.66699 -2.66699 10 -9 10 -19c0 -5.33301 -2 -12.666 -6 -21.999c-2.66699 -9.33301 -5.33398 -17 -8.00098 -23
c-1.33301 -6.66699 -2.66602 -12.667 -3.99902 -18c-2.66699 -6.66699 -5.33398 -15 -8.00098 -25c-1.33301 -10.667 -7 -24.334 -17 -41.001c-9.33301 -16 -27 -24.667 -53 -26c-40.667 -11.333 -87.667 -22.333 -141 -33l-172 -39
c-1.33301 -1.33301 -4 -6.66602 -8 -15.999c-3.33301 -10 -5 -28.667 -5 -56l-51 -536c2.66699 0 4 -3.33301 4 -10c0 -19.333 -12.333 -29 -37 -29h-174c-13.333 0 -20 17 -20 51l-12 1477c-2.66699 10.667 -7.83398 26.334 -15.501 47.001s-13.5 34.334 -17.5 41.001
c0 2.66699 39 4.66699 117 6c76 1.33301 160.667 2 254 2c92.667 0 199.667 0.666992 321 2h258c0 -1.33301 7 -2.66602 21 -3.99902c12 0 18 -3.33301 18 -10c0 -4 -2 -9.66699 -6 -17l-39 -92c-1.33301 -6.66699 -6 -14 -14 -22c-8.66699 -10 -22.334 -15 -41.001 -15z
" />
    <glyph glyph-name="G" unicode="G" horiz-adv-x="1454" 
d="M989 6c-144.667 0 -275.001 0.664062 -391.001 1.99707h-276c-30.667 0 -52.667 11.667 -66 35c-16.667 24.667 -26.334 48.667 -29.001 72c-4 23.333 -6 40.333 -6 51l-71 807l-15 495c0 34.667 20 64 60 88c38 23.333 70 40 96 50c221.333 21.333 446 32 674 32
c6.66699 0 14.667 0.666992 24 2h66c134.667 0 222.667 -10 264 -30c13.333 -5.33301 20 -19 20 -41c0 -42.667 -21.667 -100.667 -65 -174c-1.33301 -4 -4.66602 -9 -9.99902 -15c-6 -5.33301 -13 -8 -21 -8s-16.667 2.66699 -26 8c-40 10 -109 15 -207 15h-103
c-31.333 -1.33301 -53.666 -2.66602 -66.999 -3.99902c-110.667 0 -211 -20 -301 -60c-23.333 -27.333 -52 -68.333 -86 -123c-36 -54.667 -54 -107 -54 -157c0 -15.333 3 -33.333 9 -54l84 -602c2.66699 -8 7.33398 -18.167 14.001 -30.5s15.334 -19.833 26.001 -22.5
l414 -76c20.667 0 38.334 5.66699 53.001 17c15.333 10.667 23 20 23 28l70 516v70c-1.33301 27.333 -4.33301 41.666 -9 42.999c0 1.33301 9 3.33301 27 6c19.333 2.66699 44 4.66699 74 6c28.667 2.66699 61.334 4 98.001 4c23.333 0 35.666 -16.333 36.999 -49
c0 -14.667 -4 -132 -12 -352c-8.66699 -220 -14.334 -387.333 -17.001 -502l-10 -65c-2.66699 -5.33301 -7.33398 -13.666 -14.001 -24.999c-8.66699 -9.33301 -17 -14.666 -25 -15.999h-233c-8.66699 0 -14.334 1.33301 -17.001 4c-4 2.66699 -6 9.33398 -6 20.001
c0 4 1.33301 15.667 4 35z" />
    <glyph glyph-name="H" unicode="H" horiz-adv-x="1362" 
d="M127 1577c0 18 4.66797 29.668 14.001 35.001c10 4 17.667 6 23 6l155 4c7.33301 0 15.666 -2 24.999 -6s14 -14.333 14 -31l56 -661c2.66699 -18 8.66699 -29 18 -33c11.333 -5.33301 20.333 -8 27 -8l459 -13c8 0 17.333 2.33301 28 7
c11.333 5.33301 17 14.666 17 27.999l61 676c0 27.333 12.333 41 37 41l172 -4c4 0 8.66699 -2.66699 14 -8c6.66699 -5.33301 10 -16.333 10 -33l3 -432l2 -1112c0 -14 -4.33301 -23 -13 -27c-8 -4 -14.667 -6 -20 -6l-164 -4c-15.333 0 -25.666 2.66699 -30.999 8
c-5.33301 6.66699 -8 12 -8 16l-61 527c-2.66699 17.333 -8.5 28.833 -17.5 34.5s-21.833 8.5 -38.5 8.5l-442 -25c-18 -2.66699 -30.333 -8 -37 -16c-5.33301 -8 -9.33301 -16.5 -12 -25.5s-4.66699 -13.5 -6 -13.5c-2.66699 -27.333 -7 -60 -13 -98l-18 -131l-19 -142
c-6.66699 -43.333 -11.334 -77.333 -14.001 -102c-1.33301 -24.667 -15 -37 -41 -37h-147c-16.667 0 -27 4.66699 -31 14c-4 10 -6 17.667 -6 23l10 1393z" />
    <glyph glyph-name="I" unicode="I" horiz-adv-x="512" 
d="M387 1567c-4 -176 -8.00098 -340.666 -12.001 -493.999c-4 -151.333 -7.33301 -283 -10 -395c-3.33301 -110.667 -5.66602 -223.334 -6.99902 -338.001l-6 -260c0 -50.667 -15 -76 -45 -76l-133 -4c-26 0 -39 26.667 -39 80l6 1460c0 9.33301 10.333 21 31 35
c20.667 12 46 23 76 33c28.667 9.33301 54 14 76 14c42 0 63 -18.333 63 -55z" />
    <glyph glyph-name="J" unicode="J" horiz-adv-x="1178" 
d="M672 1364c-37.333 9.33301 -82.332 18.333 -134.999 27c-54.667 6.66699 -110 12 -166 16c-56 2.66699 -100.333 4 -133 4c-32 0 -54 -0.666992 -66 -2c-1.33301 0 -2.66602 -0.666992 -3.99902 -2c-2.66699 -1.33301 -6 -2 -10 -2c-16.667 0 -26.334 12.333 -29.001 37
l-8 112c0 16.667 2.66699 29 8 37c4 7.33301 15 11 33 11c43.333 5.33301 132 10.666 266 15.999s209.667 8 227 8c4.66699 0 35.667 -3.33301 93 -10c55.333 -6.66699 108.333 -15 159 -25c50.667 -8 80.667 -16 90 -24c10 -5.33301 19 -39 27 -101
c6.66699 -61.333 13.334 -142.333 20.001 -243c7.33301 -102.667 13 -186.667 17 -252l10 -170c1.33301 -15.333 2 -44 2 -86c0 -122 -5.33301 -252.333 -16 -391c-12.667 -139.333 -28.334 -225.333 -47.001 -258c-11.333 -16.667 -57.333 -30.334 -138 -41.001
c-80 -10 -172.667 -17 -278 -21c-106.667 -2.66699 -210.334 -4 -311.001 -4h-144c-26 0 -39 9 -39 27c0 8 1.33301 14.667 4 20l39 92c0 8.66699 5 19 15 31c8 12 23.667 18 47 18c138 8.66699 248.667 20.334 332 35.001c81.333 16.667 142 37.334 182 62.001
c38 22.667 62 52 72 88c6.66699 5.33301 15.334 33.333 26.001 84c11.333 50 17.666 136.667 18.999 260l-13 393c0 42.667 -9.33301 96 -28 160c-19.333 62.667 -60.333 94 -123 94z" />
    <glyph glyph-name="K" unicode="K" horiz-adv-x="1290" 
d="M412 1579l-18.999 -274.003c-2.66699 -30 -4.66699 -68.333 -6 -115s-2 -94.334 -2 -143.001c-1.33301 -49.333 -2 -115.666 -2 -198.999c112 14.667 209 31 291 49c80.667 19.333 129.667 44 147 74c72.667 144.667 109 282.334 109 413.001
c0 34.667 -3.33301 84.667 -10 150c-4.66699 14.667 -7 28.334 -7 41.001c0 13.333 2.83301 22.833 8.5 28.5s13.167 9.83398 22.5 12.501c11.333 2.66699 17 4.66699 17 6c44.667 2.66699 91 4 139 4c32.667 0 49 -30 49 -90c-8 -281.333 -30.667 -471 -68 -569
c-38 -101.333 -73.333 -156 -106 -164c-15.333 -4 -34.333 -13 -57 -27c-23.333 -13.333 -42 -24.333 -56 -33l314 -712c1.33301 0 3.33301 -7 6 -21c0 -16 -7 -26 -21 -30l-125 -74c-18.667 0 -33.667 1.33301 -45 4c-10.667 2.66699 -16.667 4.66699 -18 6
c-26 39.333 -65 113 -117 221c-50.667 108 -94.334 205.667 -131.001 293l-86 195c-5.33301 22.667 -16.333 34 -33 34c-4 0 -6.66699 -0.666992 -8 -2c-4 -1.33301 -6.66699 -2 -8 -2l-207 -34c0 -142 1.33301 -258.333 4 -349v-243c0 -4 -2 -9.83301 -6 -17.5
s-11 -11.5 -21 -11.5l-174 -2c-13.333 0 -22 2 -26 6c-4 5.33301 -6 14.333 -6 27l-4 1568l-25 37l246 4c8 0 17.833 -2 29.5 -6s17.5 -13.333 17.5 -28c0 -8.66699 -2 -17.667 -6 -27z" />
    <glyph glyph-name="L" unicode="L" horiz-adv-x="963" 
d="M514 1200l-88.002 -925.999c0 -14.667 6 -22.667 18 -24l344 -45c12.667 0 26.334 -9 41.001 -27c15.333 -18.667 23 -39 23 -61l18 -76c0 -27.333 -15 -41 -45 -41h-610c-34 1.33301 -51 16.333 -51 45c2.66699 66.667 5.33398 154.667 8.00098 264l12 332l17 336
c4 109.333 6.66699 164 8 164l-41 411c0 19.333 4.66699 32.333 14 39c10 8.66699 18.333 13 25 13l178 22c1.33301 0 3.33301 0.666992 6 2c4 1.33301 9 2 15 2c25.333 0 41 -17 47 -51c9.33301 -36.667 20 -89.334 32 -158.001l25 -139c1.33301 -13.333 2 -27 2 -41
c0 -13.333 0.666992 -27 2 -41z" />
    <glyph glyph-name="M" unicode="M" horiz-adv-x="2109" 
d="M2050 -2h-155.999c-8 1.33301 -18.667 6 -32 14c-15.333 10 -29 30.667 -41 62l-43 102l-191 971c-4 5.33301 -10.167 12.5 -18.5 21.5s-17.833 13.5 -28.5 13.5c-13.333 0 -26.333 -9.66699 -39 -29l-192 -1065c-6 -34 -17 -57.333 -33 -70
c-16.667 -12 -31.667 -18 -45 -18h-68c-38 -0 -85 -0.666992 -141 -2c-48 0 -86.333 0.666992 -115 2c-40.667 -0 -64.334 20.333 -71.001 61l-170 1135c-2.66699 5.33301 -9 12.333 -19 21c-8 8 -18.333 12 -31 12c-13.333 0 -26 -9 -38 -27l-234 -1126
c-10.667 -52 -36.667 -78 -78 -78h-160c-22.667 0 -34 14.333 -34 43c0 10.667 2 23.5 6 38.5s6.66699 25.5 8 31.5l281 1400c4 12.667 10.667 27 20 43c10.667 18 25 27 43 27l381 6c12 0 23 -6 33 -18l16 -33l160 -1147c13.333 -60 30.333 -90 51 -90
c12.667 0 23.667 9.5 33 28.5s16 34.833 20 47.5l187 1147c4 10.667 10.667 25 20 43c11.333 17.333 25.666 26 42.999 26l379 6c14 0 25 -6 33 -18s14 -22.333 18 -31l238 -1358c2.66699 0 7.33398 -8.16699 14.001 -24.5s13 -34.5 19 -54.5
c5.33301 -19.333 8 -37.333 8 -54c0 -39.333 -11 -59 -33 -59z" />
    <glyph glyph-name="N" unicode="N" horiz-adv-x="1505" 
d="M123 1540c0 34 5.99902 56.666 17.999 67.999c14 9.33301 27 14 39 14l312 6c48.667 -1.33301 83.334 -12.333 104.001 -33c18 -20 28.333 -37 31 -51l383 -1112c6.66699 -19.333 16.667 -43.333 30 -72c14 -28.667 28.333 -43 43 -43c20.667 0 38 41 52 123
c2.66699 57.333 4 108 4 152c0 75.333 -0.666992 144.333 -2 207c-2.66699 62.667 -5.66699 141 -9 235c-4 93.333 -6.66699 178 -8 254c-2.66699 76.667 -4 129.334 -4 158.001c0 48 0.666992 79.333 2 94c0 28.667 8.33301 50.667 25 66c16 12 29.667 20 41 24h139
c44 0 66 -24.667 66 -74l-29 -1466c0 -12 -3.33301 -28.333 -10 -49c-8.66699 -20.667 -24.334 -31.667 -47.001 -33l-336 -6c-40 0 -71 13.667 -93 41c-22.667 26 -37 48 -43 66l-290 950c-38.667 122.667 -72.334 184 -101.001 184c-14.667 0 -27 -13.667 -37 -41
c-9.33301 -27.333 -16 -57.333 -20 -90c-5.33301 -34 -8.66602 -51 -9.99902 -51l-19 -963c0 -14.667 -4.66699 -33.667 -14 -57s-30.666 -35 -63.999 -35l-106 -4c-24.667 0 -39.667 9 -45 27c-8 17.333 -12 32.333 -12 45z" />
    <glyph glyph-name="O" unicode="O" horiz-adv-x="1454" 
d="M135 1468c0 34.667 20.002 64.001 60.002 88.001c38 23.333 70 40 96 50c221.333 21.333 446 32 674 32c73.333 0 166.666 -19 279.999 -57c5.33301 -2.66699 15 -9.33398 29 -20.001c12 -12.667 24.333 -30.667 37 -54c10.667 -24.667 16 -56 16 -94v-874l-39 -482
c0 -21.333 -5.33301 -35 -16 -41c-12.667 -6.66699 -29 -10 -49 -10h-277c-117.333 0 -234 0.666992 -350 2h-274c-30.667 0 -52.667 11.667 -66 35c-16.667 24.667 -26.334 48.667 -29.001 72c-4 23.333 -6 40.333 -6 51l-71 807zM543.002 352.001l402.999 -86
c19.333 0 36.333 5.66699 51 17c16.667 10.667 25 20 25 28l80 465l-41 496c-82 79.333 -155.667 119 -221 119c-110.667 0 -211 -20 -301 -60c-23.333 -27.333 -52 -68.333 -86 -123c-36 -54.667 -54 -107 -54 -157c0 -15.333 3 -33.333 9 -54l94 -591
c2.66699 -8.66699 7.33398 -19.167 14.001 -31.5s15.667 -19.833 27 -22.5z" />
    <glyph glyph-name="P" unicode="P" horiz-adv-x="1319" 
d="M414 801l139 17.999c12 2.66699 63.333 12.334 154 29.001c88.667 16 155.334 30.333 200.001 43c45.333 9.33301 68 37.333 68 84c-5.33301 52 -23 123 -53 213c-30 88.667 -57.333 152.667 -82 192c-7.33301 19.333 -19.166 31.666 -35.499 36.999s-28.5 8 -36.5 8
c-45.333 0 -95.333 -3.33301 -150 -10c-54 -5.33301 -104.333 -12.666 -151 -21.999c-24.667 -1.33301 -43 -10.333 -55 -27c-12.667 -15.333 -20.334 -27.666 -23.001 -36.999c-10.667 -80.667 -17.334 -244.334 -20.001 -491.001c0 -24.667 15 -37 45 -37zM319 -4.00098
l-159.003 0.00195312c-14 0 -23 2 -27 6c-4 5.33301 -6 14.333 -6 27l25 1568l-25 37h838c10.667 0 24.334 -3.33301 41.001 -10c14.667 -6.66699 25.334 -21 32.001 -43c127.333 -354.667 191 -591.667 191 -711c0 -24 -3.33301 -43.667 -10 -59
c-15.333 -31.333 -27.666 -55.333 -36.999 -72c-12.667 -16 -23 -28.333 -31 -37c-9.33301 -6.66699 -19.666 -11.334 -30.999 -14.001c-10.667 -4 -20 -6.66699 -28 -8c-14 -4 -39.333 -11.667 -76 -23c-40 -10.667 -93.333 -23.667 -160 -39
c-66.667 -14.667 -139 -28 -217 -40c-80.667 -12.667 -157.667 -21 -231 -25c-12.667 0 -21.667 -2 -27 -6c-6.66699 -5.33301 -10 -17 -10 -35v-139c0 -50.667 -0.666992 -86.334 -2 -107.001v-221c0 -8 -3 -18.333 -9 -31c-6.66699 -12 -20.334 -18 -41.001 -18z" />
    <glyph glyph-name="Q" unicode="Q" horiz-adv-x="1495" 
d="M1053 496l49 280.002l-41 496c-82 79.333 -155.667 119 -221 119c-110.667 0 -211 -20 -301 -60c-23.333 -27.333 -52 -68.333 -86 -123c-36 -54.667 -54 -107 -54 -157c0 -15.333 3 -33.333 9 -54l94 -591c2.66699 -8.66699 7.33398 -19.167 14.001 -31.5
s15.667 -19.833 27 -22.5l334 -86c34 2.66699 51 11.667 51 27c0 5.33301 -0.666992 10 -2 14c-2.66699 4 -5.33398 6.66699 -8.00098 8c-48 50.667 -85.667 93.5 -113 128.5l-60 76.5c-10.667 15.333 -16 27.666 -16 36.999c0 14 14.333 21 43 21h96
c94.667 0 142 -10.333 142 -31c9.33301 -26 18 -46 26 -60c1.33301 -2.66699 3.33301 -5.33398 6 -8.00098c1.33301 -4 3 -6 5 -6c4 0 6 7.66699 6 23zM1444 100.002l-1.99805 -69.001c0 -8.66699 -1.33301 -14.334 -4 -17.001c-4 -4 -12.333 -6.66699 -25 -8
c-22 0 -63.667 13.667 -125 41s-96 44.333 -104 51c-19.333 -16 -48.666 -35.667 -87.999 -59c-42.667 -24.667 -84.334 -37 -125.001 -37c-6.66699 0 -17 1.33301 -31 4c-136.667 0 -259 0.666992 -367 2h-251c-30.667 0 -52.667 11.667 -66 35
c-16.667 24.667 -26.334 48.667 -29.001 72c-4 23.333 -6 40.333 -6 51l-71 807l-15 495c0 34.667 20 64 60 88c38 23.333 70 40 96 50c221.333 21.333 446 32 674 32c73.333 0 166.666 -19 279.999 -57c8 -4 19.667 -13 35 -27c16.667 -13.333 33 -33.666 49 -60.999
c15.333 -28.667 23 -62 23 -100l-29 -912l-43 -217l47 -47c22 -19.333 39.667 -33 53 -41c11.333 -5.33301 24.333 -15.666 39 -30.999c16.667 -13.333 25 -28.333 25 -45z" />
    <glyph glyph-name="R" unicode="R" horiz-adv-x="1372" 
d="M1116 -84c-20.667 0 -36.3311 2.00293 -46.998 6.00293c-9.33301 2.66699 -14.666 5.33398 -15.999 8.00098c-18 31.333 -53.667 100.333 -107 207l-141 289c-42.667 83.333 -73.334 144.666 -92.001 183.999c-2.66699 24.667 -12.334 37 -29.001 37
c-2.66699 0 -5.33398 -0.666992 -8.00098 -2c-4 -1.33301 -6.66699 -2 -8 -2l-154 -14c-26 5.33301 -39 22.333 -39 51l8 102c0 22 18.667 34.333 56 37c13.333 2.66699 49.333 9 108 19l164 26c52 10 93 19 123 27c26 5.33301 43.667 15.5 53 30.5s14 32.833 14 53.5
c-6.66699 50.667 -23.667 118.334 -51 203.001c-28.667 83.333 -56.667 147.333 -84 192c-8 19.333 -19.667 31.666 -35 36.999c-14.667 5.33301 -26.667 8 -36 8c-36 0 -80.333 -4 -133 -12c-52 -9.33301 -124 -23 -216 -41c-24 -1.33301 -42.333 -10.333 -55 -27
c-10.667 -14.667 -18 -27 -22 -37c-4.66699 -38 -9 -99.333 -13 -184c-2.66699 -86 -5.33398 -199.333 -8.00098 -340c-1.33301 -140.667 -2 -253.334 -2 -338.001c-1.33301 -84.667 -2 -141.334 -2 -170.001l-4 -243c0 -4.66699 -2 -10.334 -6 -17.001s-11 -10 -21 -10
h-157c-14 0 -23 2 -27 6c-4 5.33301 -6 14.333 -6 27l24 1568l-24 37h868c10 0 23 -3.33301 39 -10c18 -6.66699 29.667 -21 35 -43c42 -116 84.333 -245 127 -387c42 -143.333 63 -251.333 63 -324c0 -24 -3.33301 -43.667 -10 -59c-18.667 -42 -35 -71.333 -49 -88
c-13.333 -19.333 -25.666 -31 -36.999 -35c-9.33301 -4 -23 -6.66699 -41 -8l-131 -10l268 -637c0 -1.33301 0.666992 -3.33301 2 -6c2 -4.66699 3 -9.66699 3 -15c0 -16 -7 -26 -21 -30z" />
    <glyph glyph-name="S" unicode="S" horiz-adv-x="1343" 
d="M313 1622l874.997 -0.00292969c20.667 -2.66699 34.334 -10.334 41.001 -23.001c5.33301 -12 8 -22 8 -30l-27 -111c0 -8 -5.33301 -18.333 -16 -31c-9.33301 -12 -29.666 -18.667 -60.999 -20c-27.333 -1.33301 -57 -4 -89 -8
c-32.667 -2.66699 -83.667 -7.66699 -153 -15l-191 -18c-56 -4 -101 -8 -135 -12c-13.333 0 -31 -2 -53 -6c-24.667 -6 -39.667 -15.667 -45 -29l-18 -31c-7.33301 -9.33301 -12.333 -18.666 -15 -27.999c-4 -10 -6 -20.333 -6 -31c0 -15.333 3.33301 -29 10 -41
c0 -1.33301 35 -26 105 -74l213 -143l211 -142l172 -114c18.667 -11.333 41.667 -34.666 69 -69.999c27.333 -34 41 -79.667 41 -137v-438c-1.33301 -12.667 -7.33301 -27.667 -18 -45c-11.333 -19.333 -32.666 -29 -63.999 -29l-995 4c-27.333 0 -41 12.333 -41 37l12 131
c12.667 36.667 27.667 55 45 55l738 51c39.333 1.33301 59 22 59 62c0 28.667 -6.66699 59.334 -20 92.001c-14 31.333 -25.667 55.333 -35 72l-133 82l-328 196l-276 170c-26 16.667 -44 36.667 -54 60c-8 22.667 -12 40.334 -12 53.001l4 405
c0 16.667 3.33301 36.667 10 60c8.66699 23.333 26 45 52 65c26.667 20.667 66.667 31 120 31z" />
    <glyph glyph-name="T" unicode="T" horiz-adv-x="1147" 
d="M1073 1606l0.000976562 -156.001c-4 -18 -8.66699 -29 -14 -33c-6.66699 -5.33301 -12.334 -8 -17.001 -8l-290 -68c-7.33301 -1.33301 -16.333 -8.66602 -27 -21.999c-12 -14 -18 -38.667 -18 -74l-41 -1196c0 -8 -2.33301 -18.333 -7 -31
c-5.33301 -12 -14.666 -18 -27.999 -18h-176c-15.333 0 -25 4 -29 12c-6.66699 8.66699 -10.667 15.667 -12 21l-23 1224c0 27.333 -8.66699 48 -26 62c-18 12 -33.333 20 -46 24l-227 56c-14.667 2.66699 -25 8 -31 16c-5.33301 10 -8 23 -8 39l23 152
c0 5.33301 3.33301 12 10 20c5.33301 8 17.666 12 36.999 12h913c5.33301 0 12.833 -2 22.5 -6s14.5 -12.667 14.5 -26z" />
    <glyph glyph-name="U" unicode="U" horiz-adv-x="1372" 
d="M324 0c-41.333 0 -67.3311 20.333 -77.998 61c-12.667 41.333 -19 75 -19 101l-80 827l-14 604c0 18 3.33301 29 10 33c8.66699 5.33301 15 8 19 8h172c12 0 20 -4 24 -12c4.66699 -8 7 -14.667 7 -20l155 -1196c2.66699 -18 6 -29.667 10 -35
c4.66699 -6 7.66699 -9 9 -9l401 -59c15.333 0 25.666 1.33301 30.999 4c4 4 6 10.333 6 19l63 436l19 821c0 9.33301 4 19 12 29c8 8 15 14 21 18c9.33301 0 27 0.666992 53 2l74 4c22.667 0 41 0.666992 55 2c5.33301 -2.66699 10.666 -4.66699 15.999 -6
c4 -1.33301 6 -3.33301 6 -6c1.33301 -2.66699 2 -10.667 2 -24l-2 -1024l-14 -502c0 -26 -11 -45.333 -33 -58c-23.333 -12 -40.333 -18 -51 -18h-874z" />
    <glyph glyph-name="V" unicode="V" horiz-adv-x="1280" 
d="M735 545l207.001 844l62 149c24 58.667 54 88 90 88h188c10.667 0 16 -6.66699 16 -20c0 -24.667 -12.667 -63.667 -38 -117l-21 -51c-6.66699 -19.333 -14 -37.333 -22 -54l-293 -1314c-4 -11.333 -12.333 -25.666 -25 -42.999c-12 -18 -28.333 -27 -49 -27l-410 -6
c-12 0 -23.333 6 -34 18c-11.333 14 -19 25 -23 33l-145 764l-86.5 430c-19 92.667 -34.333 163 -46 211s-23.5 92.333 -35.5 133c0 16.667 6 29 18 37c14 5.33301 25 8.66602 33 9.99902h166c10.667 0 25.667 -4.66699 45 -14
c17.333 -9.33301 29.666 -30.666 36.999 -63.999l217 -1001c4 -24.667 11.333 -55.334 22 -92.001c11.333 -37.333 26.333 -56 45 -56c24.667 0 52 47.333 82 142z" />
    <glyph glyph-name="W" unicode="W" horiz-adv-x="2109" 
d="M2030 1331l-254.003 -1261c-2.66699 -11.333 -9.66699 -25.666 -21 -42.999c-10.667 -18 -25 -27 -43 -27l-360 -6c-12.667 0 -23 6 -31 18c-8 14 -14 25 -18 33l-181 1147c-13.333 60 -30.333 90 -51 90c-12 0 -23 -9.66699 -33 -29
c-9.33301 -18.667 -16 -34.334 -20 -47.001l-207 -1147c-2.66699 -10.667 -9.33398 -25 -20.001 -43c-11.333 -17.333 -25.666 -26 -42.999 -26l-359 -6c-12 0 -23 6 -33 18c-9.33301 12 -15.333 22.333 -18 31l-49 276l-84 490l-92 528c-26 148.667 -40.333 223 -43 223
c0 23.333 23.667 35 71 35h129c4 0 11.667 -1.33301 23 -4c8 -2.66699 17.667 -10 29 -22c10.667 -11.333 18 -28.666 22 -51.999l191 -1042c4 -5.33301 10.667 -13 20 -23c8 -8 17 -12 27 -12c13.333 0 26.333 9.66699 39 29l213 1034c12 58.667 37.667 88 77 88
c7.33301 2.66699 25.333 6.66699 54 12c28.667 4 80.334 6 155.001 6c48 0 86.333 -0.666992 115 -2c9.33301 -1.33301 23 -6.66602 41 -15.999c14.667 -10.667 25 -31 31 -61l190 -1135c2.66699 -5.33301 8.83398 -12.166 18.501 -20.499s19.834 -12.5 30.501 -12.5
c14 0 27 9 39 27l184 977l66 149c24.667 57.333 50.667 86 78 86h160c35.333 0 53 -10 53 -30c0 -22 -11 -52.333 -33 -91c-6.66699 -5.33301 -17 -18 -31 -38c-12 -22 -22.667 -55.667 -32 -101z" />
    <glyph glyph-name="X" unicode="X" horiz-adv-x="1352" 
d="M733 555c-23.333 49.333 -47.0029 74.001 -71.0029 74.001c-15.333 0 -29 -9 -41 -27c-14 -16 -23 -30.333 -27 -43l-223 -518c-11.333 -6.66699 -28.666 -15 -51.999 -25c-24 -9.33301 -45.667 -14 -65 -14l-166 -8c-14.667 2.66699 -22 9.33398 -22 20.001
c0 12.667 6 26.334 18 41.001c10.667 15.333 19.667 27 27 35c10.667 19.333 102 259.666 274 720.999c15.333 30 23 56.667 23 80s-3.66699 41 -11 53c-8 14 -14 23.667 -18 29c-2.66699 5.33301 -15 28.333 -37 69l-47 88l-84 156l-115 213
c-26 50.667 -39.667 85.667 -41 105c0 13.333 4.33301 21.333 13 24c8 4 14.667 6 20 6l129 4c22 0 49.333 -8.83301 82 -26.5s50.334 -38.167 53.001 -61.5l213 -364c6.66699 -15.333 18.334 -34 35.001 -56c16.667 -21.333 35.667 -32 57 -32
c27.333 0 52.666 21.667 75.999 65l281 434c8 15.333 19.667 25.666 35 30.999c13.333 5.33301 24 8 32 8c32.667 -1.33301 89.334 -2 170.001 -2c11.333 0 17 -6.66699 17 -20c0 -10 -1.33301 -18.333 -4 -25c-2.66699 -8 -17 -37.333 -43 -88l-281 -545
c-1.33301 -5.33301 -3.33301 -14 -6 -26c-4 -14 -6 -29.667 -6 -47c0 -30 5.33301 -58.667 16 -86l270 -670c6 -6.66699 14.333 -20.334 25 -41.001c9.33301 -19.333 16.333 -41.333 21 -66c0 -4 -1.66699 -8 -5 -12c-4 -5.33301 -12 -8 -24 -8h-137
c-11.333 0 -31.333 7.5 -60 22.5s-43.667 24.5 -45 28.5z" />
    <glyph glyph-name="Y" unicode="Y" horiz-adv-x="1331" 
d="M1262 555l-0.000976562 10.0029v-10c0 -32.667 -7 -111.334 -21 -236.001c-14.667 -122.667 -29 -211.334 -43 -266.001c-1.33301 -8 -4.66602 -18 -9.99902 -30c-6.66699 -12.667 -17 -19 -31 -19l-878 4c-22 0 -33 7 -33 21l80 161c2.66699 14 10.667 23 24 27
c14 5.33301 25 8 33 8c46.667 2.66699 111.667 8.33398 195 17.001c81.333 8 159 16.667 233 26c74 10 115 19 123 27c9.33301 9.33301 14 29.666 14 60.999v66c0 18 -10 27 -30 27c-49.333 -6 -104.666 -9 -165.999 -9c-102.667 0 -195 8.33301 -277 25
c-83.333 14.667 -140.666 27 -171.999 37c-39.333 0 -65.333 19 -78 57c-12 36.667 -18 68 -18 94l-29 828l-4 127c0 13.333 7 22.666 21 27.999c9.33301 2.66699 14.666 4 15.999 4h2l164 5c9.33301 0 21 -2.33301 35 -7c13.333 -4 20 -14 20 -30l68 -793
c1.33301 -16 4.66602 -27.667 9.99902 -35c2.66699 -5.33301 5.33398 -8 8.00098 -8l412 -59c14.667 0 25 2 31 6c4 2.66699 6 8 6 16l53 518l31 361c1.33301 17.333 12.666 26 33.999 26c94.667 0 142.667 1.66699 144 5c8 0 18.333 -2.33301 31 -7c12 -4 18 -14 18 -30
l-2 -539z" />
    <glyph glyph-name="Z" unicode="Z" horiz-adv-x="1343" 
d="M1180 1573c17.333 -18 25.999 -49.3359 25.999 -94.0029c0 -28.667 -5.33301 -56.667 -16 -84s-19.667 -47.333 -27 -60c-27.333 -56 -73.666 -145.333 -138.999 -268l-186 -340l-150.5 -272.5l-83.5 -149.5c2.66699 -1.33301 6 -2.66602 10 -3.99902
c4.66699 -1.33301 7 -3.33301 7 -6c0 -10.667 10.667 -16 32 -16l529 -48c17.333 0 32.333 -18.333 45 -55l14 -129c0 -12 -2.66699 -21.167 -8 -27.5s-17 -9.5 -35 -9.5l-1005 -4c-20.667 -4 -37.334 -6 -50.001 -6c-31.333 0 -47 11.667 -47 35c0 5.33301 2 13.333 6 24
c2.66699 10 5.66699 17 9 21l190 307l289 481c105.333 180.667 177.666 311.334 216.999 392.001c10.667 16 16 31.667 16 47c0 20 -8.16699 34.167 -24.5 42.5s-29.833 12.5 -40.5 12.5c-19.333 4 -48.666 6.66699 -87.999 8c-40 2.66699 -94.667 6 -164 10
c-72.667 4 -165 11.667 -277 23c-32.667 2.66699 -53.667 9.33398 -63 20.001c-9.33301 12.667 -14.666 23 -15.999 31l-27 109c-4 10.667 -6 18.667 -6 24c0 19.333 18.333 29 55 29h823c60 -5.33301 104.333 -13 133 -23c28.667 -9.33301 46 -16 52 -20z" />
    <glyph glyph-name="bracketleft" unicode="[" horiz-adv-x="512" 
d="M202 16h-5h5zM83 1589c13.333 8.66699 50.166 17.8291 110.499 27.4961s112.5 14.5 156.5 14.5c28.667 0 45.667 -3 51 -9c24.667 -37.333 37 -63 37 -77c0 -11.333 -4 -21 -12 -29c-12.667 -12.667 -35.667 -26.167 -69 -40.5s-61.666 -23.166 -84.999 -26.499
c0 -36.667 0.333008 -76 1 -118c0 -165.333 1 -337.333 3 -516l3 -622c33.333 -6.66699 77 -19 131 -37c8 -2.66699 15.167 -15.167 21.5 -37.5s9.5 -45.166 9.5 -68.499c0 -18 -2.33301 -29.333 -7 -34s-26.667 -7 -66 -7c-18 0.666992 -37.667 1.33398 -59 2.00098
s-38 1 -50 1c-3.33301 -2.66699 -10 -4 -20 -4c-26 0 -52.333 9.83301 -79 29.5s-39.667 46.834 -39 81.501z" />
    <glyph glyph-name="backslash" unicode="\" horiz-adv-x="1065" 
d="M272 1577c34.667 -80.667 87.333 -194.666 158 -341.999l221 -467l199 -416c53.333 -114.667 91 -198 113 -250c10.667 -21.333 16 -38.333 16 -51c0 -16 -9 -28.333 -27 -37l-78 -2c-28.667 0 -51.667 20 -69 60l-746 1497c0 6.66699 3.66699 10 11 10
c6.66699 1.33301 16 2.66602 28 3.99902c12.667 0 28.334 0.666992 47.001 2c19.333 2.66699 35.333 6.66699 48 12c13.333 7.33301 25.333 11 36 11c19.333 0 33.666 -10.333 42.999 -31z" />
    <glyph glyph-name="bracketright" unicode="]" horiz-adv-x="512" 
d="M355 1604h5h-5zM417 28c-15.333 -8 -51.332 -15.501 -107.999 -22.501s-104.334 -10.5 -143.001 -10.5c-40 0 -62.667 3.66699 -68 11c-2.66699 4 -7.16699 11.333 -13.5 22s-11.5 20.5 -15.5 29.5s-6 17.167 -6 24.5c0 12 4.66699 22.333 14 31
c12.667 12 35 24.5 67 37.5s61.667 21.167 89 24.5c1.33301 36.667 2.33301 76 3 118c6 164.667 11.333 336.334 16 515.001l19 622c-48 12 -91 26 -129 42c-7.33301 2.66699 -13.833 14.5 -19.5 35.5s-8.5 42.167 -8.5 63.5c0 22 3 36 9 42c3.33301 3.33301 17 5 41 5
c32 0 76.667 -2.66699 134 -8c5.33301 2.66699 11 4 17 4c26 0 52 -10 78 -30s39 -48.667 39 -86z" />
    <glyph glyph-name="asciicircum" unicode="^" horiz-adv-x="758" 
d="M694 1360l-311.001 95.999l-254 -88c-15.333 0 -23 11.667 -23 35c0 8 0.833008 17.5 2.5 28.5s2.5 17.167 2.5 18.5c27.333 28.667 56 56.667 86 84l69 65l123 41c16.667 -10.667 35 -21.334 55 -32.001c19.333 -12.667 47.333 -29 84 -49
c36 -19.333 63.333 -34.666 82 -45.999c18 -10.667 36 -22 54 -34c2.66699 -1.33301 16.334 -18.666 41.001 -51.999c6.66699 0 10 -12.667 10 -38c0 -19.333 -7 -29 -21 -29z" />
    <glyph glyph-name="underscore" unicode="_" horiz-adv-x="1208" 
d="M1124 -174l-1101 -5.99902c-42.667 0 -64 9.33301 -64 28c0 4.66699 1.33301 9.66699 4 15s4.66699 8.66602 6 9.99902l23 61c1.33301 24.667 9.33301 41.334 24 50.001c15.333 6.66699 38 10 68 10l1081 6c44 0 66 -8.33301 66 -25c0 -12 -3.33301 -22.667 -10 -32
l-17 -56c-1.33301 -10.667 -5.33301 -24.334 -12 -41.001c-6.66699 -16 -21.667 -24 -45 -24c-2.66699 0 -10.334 1.33301 -23.001 4z" />
    <glyph glyph-name="grave" unicode="`" horiz-adv-x="614" 
d="M106 1556c-8 7.33301 -15.334 12.998 -22.001 16.998c-6.66699 2.66699 -12 4 -16 4c13.333 35.333 27 57 41 65l243 -4l213 -139c12.667 -4 28.334 -10.667 47.001 -20c18 -11.333 27 -23.666 27 -36.999l-14 -82c2.66699 0 4 -0.666992 4 -2
c-1.33301 -1.33301 -6.33301 -2 -15 -2c-110 18.667 -206 43.834 -288 75.501s-155.333 73.167 -220 124.5z" />
    <glyph glyph-name="a" unicode="a" horiz-adv-x="1116" 
d="M342 555c-6.66699 0 -15.666 -20.334 -26.999 -61.001c-12 -40 -20 -121.333 -24 -244c0 -27.333 14.333 -41 43 -41c189.333 0 321.666 1.33301 396.999 4c53.333 2.66699 80 35.334 80 98.001l-14 195c-4 56 -7 101.667 -9 137c-120 -4 -203.667 -8 -251 -12
c-49.333 -5.33301 -86.333 -12.333 -111 -21c-13.333 -4 -30.333 -10.667 -51 -20c-22 -10 -33 -21.667 -33 -35zM786.001 1176c0 2.66699 5.00098 4.00098 15.001 4.00098c13.333 0 30.333 -3 51 -9c18 -6.66699 36.333 -17.334 55 -32.001
c18 -16.667 33.667 -38.667 47 -66c23.333 -53.333 42 -116.666 56 -189.999c13.333 -75.333 22.666 -152.666 27.999 -231.999c6 -80.667 9 -159 9 -235c0 -67.333 -1.66699 -125.333 -5 -174c-2.66699 -49.333 -4.66699 -84.333 -6 -105
c0 -49.333 -15 -82.666 -45 -99.999c-28.667 -18 -53 -28.333 -73 -31l-728 -6c-30 0 -53.667 6 -71 18c-19.333 12.667 -30.333 36.667 -33 72c5.33301 172 13 308 23 408c9.33301 98 19.333 167.667 30 209c10 17.333 20.333 31.666 31 42.999
c9.33301 9.33301 19.666 16 30.999 20l14 6c44 6.66699 133.333 18.334 268 35.001c135.333 16.667 212.666 25 231.999 25c20 0 30 9.33301 30 28c0 19.333 -10 46.666 -30 81.999c-2.66699 6.66699 -30.667 13.667 -84 21c-53.333 8 -119.666 15.333 -198.999 22
l-186.5 18.5c-45 4.33301 -68.833 7.83301 -71.5 10.5c0 13.333 6.33301 35.666 19 66.999c12 32 22 56 30 72c2.66699 4 7.5 9.5 14.5 16.5s15.167 10.5 24.5 10.5c16.667 1.33301 41.334 2.66602 74.001 3.99902s83 2 151 2c122 0 221.667 -4.66699 299 -14z" />
    <glyph glyph-name="b" unicode="b" horiz-adv-x="1157" 
d="M131 1552c-2.66699 12.667 -4.00098 20.332 -4.00098 22.999c0 13.333 3.33301 22.166 10 26.499s12.334 6.5 17.001 6.5c35.333 6.66699 84.333 13.334 147 20.001c2.66699 -1.33301 6.66699 -2.66602 12 -3.99902c6 -1.33301 11.667 -4 17 -8c4 -6.66699 6 -15 6 -25
c5.33301 -109.333 15 -258.666 29 -447.999c155.333 24.667 285.666 37 390.999 37c68 0 117 -3.83301 147 -11.5s48.333 -14.167 55 -19.5c11.333 -4 24.333 -15.667 39 -35c15.333 -18 23 -47.333 23 -88c2.66699 -14.667 6 -47.334 10 -98.001
c4 -49.333 6 -117.666 6 -204.999s-3.33301 -187 -10 -299c-5.33301 -112 -15 -225.333 -29 -340c-4 -14 -12.667 -31.667 -26 -53c-15.333 -23.333 -37.333 -38.333 -66 -45c-53.333 1.33301 -97 2 -131 2s-105.667 1.33301 -215 4c-108 1.33301 -177.667 2 -209 2h-76
c-31.333 0 -51 14.333 -59 43c-9.33301 27.333 -14 49.666 -14 66.999c-11.333 7.33301 -21 69 -29 185c-6.66699 116 -12 234.667 -16 356c-6 122.667 -11 277.667 -15 465c-5.33301 186 -8.66602 333.333 -9.99902 442zM421.999 306.998c0 -5.33301 2 -13.333 6 -24
c4 -12.667 13 -21.667 27 -27l264 -41c12 0 25 3.33301 39 10c12 8.66699 18 15.667 18 21c24.667 74.667 42.334 151 53.001 229c11.333 78 17 149 17 213c0 58.667 -2.83301 108.5 -8.5 149.5s-10.5 69.167 -14.5 84.5c-34 32.667 -87.667 49 -161 49
c-72.667 0 -148 -15 -226 -45c-8 -10 -19 -22.333 -33 -37c-12 -16.667 -18 -27.667 -18 -33l21 -448c1.33301 -11.333 3.33301 -27.333 6 -48c1.33301 -20 4.66602 -37.667 9.99902 -53z" />
    <glyph glyph-name="c" unicode="c" horiz-adv-x="1085" 
d="M987 4l-651.004 -3.99707c-53.333 0 -90.333 20.333 -111 61c-21.333 41.333 -33.666 75.666 -36.999 102.999c-8 26 -14.667 69 -20 129s-10.666 144.667 -15.999 254c-4.66699 109.333 -7.66699 214.333 -9 315v41c-1.33301 11.333 -2 22.333 -2 33
c0 46.667 12.333 92.334 37 137.001c1.33301 24.667 17.666 43 48.999 55c30 14 55.333 22.333 76 25c12.667 0 53.667 2.66699 123 8l190 15c56 2.66699 112.667 4 170 4c36 0 62 -0.666992 78 -2c4 1.33301 12.333 2.66602 25 3.99902h39c10.667 0 29.667 -1.33301 57 -4
c2.66699 0 5.33398 -0.666992 8.00098 -2c4 0 8.33301 -2.33301 13 -7c2.66699 -2.66699 4 -7.33398 4 -14.001c0 -4 -2 -11.333 -6 -22c-24.667 -79.333 -40 -125.333 -46 -138c-1.33301 -4 -5.33301 -8.66699 -12 -14c-5.33301 -5.33301 -13.333 -8 -24 -8
c-10 0 -17.667 1.33301 -23 4c-49.333 5.33301 -98.333 8 -147 8c-75.333 0 -137 -5.33301 -185 -16c-46 -11.333 -77.333 -20.333 -94 -27c-14.667 -13.333 -33.667 -36.833 -57 -70.5s-35 -68.834 -35 -105.501c0 -18 0.666992 -31 2 -39l59 -463
c24.667 -8 79.334 -19 164.001 -33c83.333 -12 199.333 -18 348 -18h62c26 0 39 -6.66699 39 -20c0 -2 -1.33301 -8.33301 -4 -19c-1.33301 -45.333 -11.666 -93 -30.999 -143c0 -4 -2 -9.66699 -6 -17c-4 -6.66699 -13 -10 -27 -10z" />
    <glyph glyph-name="d" unicode="d" 
d="M1036 1563c-1.33301 -108 -4.00098 -237.67 -8.00098 -389.003c-2.66699 -153.333 -6 -307 -10 -461c-5.33301 -156 -13 -293.333 -23 -412c-8 -118.667 -17.333 -180.667 -28 -186c0 -19.333 -4.5 -42.666 -13.5 -69.999s-29.167 -41 -60.5 -41
c-35.333 -1.33301 -71 -2 -107 -2c-35.333 0 -122.666 -0.666992 -261.999 -2s-226.666 -2.66602 -261.999 -3.99902c-27.333 6.66699 -48.333 21.667 -63 45c-15.333 22 -25 39.667 -29 53c-9.33301 91.333 -17.166 176 -23.499 254s-10.166 149 -11.499 213
c-2.66699 64 -4 121.333 -4 172c0 86 2 154.333 6 205s7.33301 83.334 10 98.001c0 40 7.66699 69.333 23 88c16.667 19.333 29.667 31 39 35c6.66699 5.33301 25 12.333 55 21c30 6.66699 79.333 10 148 10c110.667 0 241 -12.333 391 -37
c13.333 200.667 22.666 350.334 27.999 449.001c0 10.667 2.33301 18.667 7 24c5.33301 4 10.666 6.66699 15.999 8l12 4c64.667 -6.66699 114 -13.334 148 -20.001c5.33301 0 10.666 -1.33301 15.999 -4c6.66699 -4 10 -13.667 10 -29c0 -4 -1.33301 -11.333 -4 -22z
M744.999 316.997c27.333 238 41 404.668 41 500.001c0 20.667 -0.666992 33.667 -2 39l-2 10c0 5.33301 -6 16.333 -18 33l-33 37c-73.333 30 -148.333 45 -225 45c-75.333 0 -129.333 -16.333 -162 -49c-2.66699 -15.333 -6.66699 -44 -12 -86
c-6.66699 -44 -10 -93.333 -10 -148c0 -38 2.66699 -82.333 8 -133c4 -48.667 10.667 -98.334 20 -149.001c10 -50.667 23.667 -104 41 -160c0 -5.33301 7 -12 21 -20c12 -7.33301 24.333 -11 37 -11l264 41c13.333 6.66699 22 15.667 26 27c4 9.33301 6 17.333 6 24z" />
    <glyph glyph-name="e" unicode="e" horiz-adv-x="1239" 
d="M397 602c11.333 -1.33301 29.999 -2 55.999 -2c88.667 0 177.334 8.33301 266.001 25c90 14.667 144 35.667 162 63c27.333 38 41 79 41 123c0 49.333 -19.333 102.666 -58 159.999c-8 10.667 -20.5 19.834 -37.5 27.501s-30.5 12.167 -40.5 13.5
c-174.667 0 -294.667 -27.333 -360 -82c-66.667 -56 -100 -123 -100 -201c0 -20.667 2.66699 -43 8 -67c1.33301 -10 5.33301 -22.333 12 -37c8 -15.333 25 -23 51 -23zM1112 152c-10.667 -104 -37.334 -156 -80.001 -156l-725 4c-1.33301 -0 -4 -0.666992 -8 -2
s-9.33301 -2 -16 -2c-24.667 0 -49.334 13 -74.001 39c-26 26 -49.333 78.667 -70 158c-18.667 78.667 -28 190.334 -28 335.001v74c1.33301 34 2.66602 75.667 3.99902 125l4 158c1.33301 54.667 2.66602 94.334 3.99902 119.001v49c0 31.333 6 52.333 18 63
c12.667 11.333 23 17.666 31 18.999c44 20 101.333 35 172 45c49.333 6.66699 99.833 11.334 151.5 14.001s109.834 4 174.501 4c91.333 0 169 -3.33301 233 -10c64 -8 101.667 -17.667 113 -29c18.667 -17.333 36.334 -53.333 53.001 -108s30.334 -116.334 41.001 -185.001
c9.33301 -68 14 -132.667 14 -194c0 -71.333 -7.33301 -118 -22 -140c-15.333 -24 -66 -43.667 -152 -59c-86 -14.667 -176 -26.334 -270 -35.001c-94 -8 -182 -13.333 -264 -16c-42.667 0 -64 -8.33301 -64 -25c0 -8 4.33301 -17.333 13 -28
c6.66699 -41.333 37.334 -78.333 92.001 -111c53.333 -31.333 140 -49 260 -53l360 -10c14 0 23.667 -2.33301 29 -7c4 -5.33301 6 -17.333 6 -36z" />
    <glyph glyph-name="f" unicode="f" horiz-adv-x="799" 
d="M424 -287l-148.002 -82.001c-4 -4 -8.66699 -6 -14 -6c-6.66699 0 -10.667 4.33301 -12 13c-2.66699 6.66699 -4 12.667 -4 18l-23 1186c0 74.667 -8.83301 123.667 -26.5 147s-31.834 35 -42.501 35c-15.333 0 -25.666 4.66699 -30.999 14
c-6.66699 10 -10.667 18.333 -12 25c0 57.333 0.666992 97 2 119c0 17.333 4.66699 29.666 14 36.999c8 5.33301 14.667 8 20 8c18 2.66699 42 4.66699 72 6c-2.66699 191.333 -4 298.333 -4 321c0 22 4.66699 36.333 14 43c10 7.33301 18.333 11 25 11
c155.333 17.333 280.333 26 375 26c30 0 58 -0.666992 84 -2s56.667 -4 92 -8c5.33301 0 12.666 -1.33301 21.999 -4c10 -4 15 -11 15 -21c0 -5.33301 -2 -10.666 -6 -15.999c-3.33301 -20.667 -7.66602 -39 -12.999 -55l-14 -47c-4 -16.667 -7.33301 -27 -10 -31
c0 -8 -3.66699 -14.667 -11 -20c-6.66699 -4.66699 -21.667 -7 -45 -7c-27.333 2.66699 -63.333 4 -108 4c-53.333 0 -95.666 -3.33301 -126.999 -10c-8 -2.66699 -19 -8.66699 -33 -18c-12 -11.333 -18 -25.666 -18 -42.999v-119c28.667 -1.33301 81.667 -6 159 -14
c24.667 0 37 -5.66699 37 -17c0 -8 -3.33301 -18 -10 -30c-2.66699 -11.333 -8 -28.666 -16 -51.999c-8.66699 -22.667 -15.667 -42.334 -21 -59.001c-2.66699 -9.33301 -4.66699 -17.833 -6 -25.5s-2.66602 -12.834 -3.99902 -15.501s-4 -4 -8 -4l-29 8
c-42 0 -70.167 -19.167 -84.5 -57.5s-21.5 -83.166 -21.5 -134.499v-1074c0 -22.667 -9.66699 -39 -29 -49z" />
    <glyph glyph-name="g" unicode="g" horiz-adv-x="1085" 
d="M758 756c-1.33301 30 -2 46.333 -2 49v6zM766 303c-1.33301 0 -2.00098 37.6699 -2.00098 113.003v223v111c-4 28.667 -8.66699 51.667 -14 69c-4.66699 19.333 -7 31.666 -7 36.999c0 27.333 -10 44.333 -30 51l-260 51c-12.667 0 -25.167 -3.33301 -37.5 -10
s-18.5 -13.334 -18.5 -20.001c-57.333 -161.333 -86 -324 -86 -488c0 -39.333 1.83301 -76.833 5.5 -112.5s6.83398 -59.5 9.50098 -71.5c32.667 -35.333 91.334 -53 176.001 -53c34 0 68.667 3.33301 104 10c35.333 5.33301 69.666 14.333 102.999 27
c10.667 9.33301 22.667 20.666 36 33.999c14 14 21 23.667 21 29zM300.999 -159.997c98.667 -17.333 200.333 -26.001 305 -26.001c50.667 0 93 2 127 6c19.333 0 31.666 8 36.999 24c5.33301 18 8 32.333 8 43c-1.33301 16.667 -2 46 -2 88
c-5.33301 16.667 -12.166 27.667 -20.499 33s-20.5 8 -36.5 8c-117.333 -14.667 -218.333 -22 -303 -22c-83.333 0 -147 6.66699 -191 20c-27.333 0 -49.666 28 -66.999 84c-18 57.333 -29.667 104.666 -35 141.999v104c0 84.667 4 191.334 12 320.001
c10 126.667 25.667 271.334 47 434.001c4 13.333 14.333 31.666 31 54.999c13.333 22 34.333 35.667 63 41c89.333 -4 194.666 -9.5 315.999 -16.5s221.666 -12.5 300.999 -16.5c0 -1.33301 7.33301 -2.66602 22 -3.99902c15.333 -1.33301 29 -6.66602 41 -15.999
c11.333 -11.333 17 -30 17 -56c1.33301 0 3.33301 -71 6 -213c1.33301 -142 3.33301 -266 6 -372c1.33301 -106.667 3.33301 -233 6 -379c1.33301 -147.333 2 -267 2 -359c-14.667 -39.333 -33 -67.333 -55 -84c-23.333 -14.667 -40.333 -23.334 -51 -26.001
c-72.667 -15.333 -143 -23 -211 -23c-109.333 0 -229.666 18 -360.999 54c-14.667 1.33301 -24.667 8 -30 20c-6 14 -9 25 -9 33l-14 74c-2.66699 0 -4 5.33301 -4 16c0 12 7 18 21 18c8 0 15.333 -1.33301 22 -4z" />
    <glyph glyph-name="h" unicode="h" 
d="M922 -369c-12.667 0 -20.9971 5.00293 -24.9971 15.0029c-4 8 -6 15.333 -6 22c0 276 -4 503.333 -12 682c-8.66699 180.667 -18.334 309 -29.001 385c-10.667 78 -20.334 127.333 -29.001 148c-8 20 -14.667 30 -20 30c-2.66699 6 -12.334 13 -29.001 21
c-16 8 -46.667 13.333 -92 16c-54.667 0 -98.334 -1.33301 -131.001 -4c-34 -2.66699 -66 -10 -96 -22c-8.66699 -8.66699 -19 -20.334 -31 -35.001c-14 -16.667 -21 -27.667 -21 -33v-225c-1.33301 -101.333 -2.66602 -212 -3.99902 -332s-3.33301 -212 -6 -276
c0 -6 -2 -13 -6 -21c-5.33301 -8 -17 -12 -35 -12h-123c-6.66699 -4 -12 -6 -16 -6s-7.33301 2 -10 6s-5.33398 10 -8.00098 18l-5 15c-4 74.667 -8 200.667 -12 378c-4 178 -6.66699 354.333 -8 529c-2.66699 174.667 -4.66699 322 -6 442
c-1.33301 121.333 -2 189.666 -2 204.999c-2.66699 10.667 -4.66699 18 -6 22c1.33301 14 5.33301 23 12 27s12 6 16 6l84 21c27.333 5.33301 48 8.66602 62 9.99902c4 0 8.66699 -0.666992 14 -2c4 -1.33301 8 -5.33301 12 -12c5.33301 -7.33301 8 -15.666 8 -24.999
l21 -430c1.33301 -5.33301 6 -13 14 -23c8.66699 -9.33301 21.667 -14 39 -14c50.667 5.33301 117 8 199 8c69.333 0 117 -0.666992 143 -2c1.33301 0 6.33301 0.666992 15 2c6.66699 1.33301 15.334 2 26.001 2c57.333 0 114.666 -9.33301 171.999 -28
c20.667 -7.33301 37.667 -48.333 51 -123c12.667 -76.667 21 -173 25 -289c5.33301 -117.333 8 -244.333 8 -381c0 -92.667 -0.666992 -168.334 -2 -227.001l-4 -174c-1.33301 -58.667 -2 -108.667 -2 -150c-1.33301 -40.667 -2.66602 -71.334 -3.99902 -92.001
c0 -5.33301 -1.33301 -12.666 -4 -21.999c-4 -10 -12.333 -16.333 -25 -19z" />
    <glyph glyph-name="i" unicode="i" horiz-adv-x="461" 
d="M342 1618l14 -233.999c0 -14.667 -2 -25.334 -6 -32.001c-2.66699 -7.33301 -6 -12.333 -10 -15l-6 -4l-172 -65c-10 0 -17 2 -21 6c-5.33301 4 -8 6.66699 -8 8l39 313c0 10 3.33301 17.667 10 23c8.66699 2.66699 15 4.66699 19 6l123 18c12 0 18 -6.66699 18 -20v-4z
M168 1167l179.997 67.998c11.333 0 18.333 -2 21 -6s4 -15.667 4 -35c-2.66699 -68 -5.33398 -143 -8.00098 -225c-3.33301 -82 -7.66602 -199.667 -12.999 -353c-5.33301 -151.333 -8.66602 -259.666 -9.99902 -324.999c-2.66699 -67.333 -5.33398 -144 -8.00098 -230
c0 -20 -5 -34.333 -15 -43c-9.33301 -9.33301 -16.666 -14.666 -21.999 -15.999h-80c-27.333 -1.33301 -54.666 -2 -81.999 -2c-12 4 -19.333 13 -22 27c-4.66699 13.333 -7 33.666 -7 60.999l17 1004c0 24 5.33301 42.333 16 55c12.667 10.667 22.334 17.334 29.001 20.001
z" />
    <glyph glyph-name="j" unicode="j" horiz-adv-x="451" 
d="M360 1614l15 -229.999c0 -12 -1.33301 -22 -4 -30c-4 -8.66699 -8.33301 -14.334 -13 -17.001c-2.66699 -2.66699 -4.66699 -4 -6 -4l-172 -65c-9.33301 0 -16 2 -20 6l-8 8l38 309c0 10 3.66699 17.667 11 23c8 4 14 6 18 6l123 18c12 0 18 -6.66699 18 -20v-4z
M201 1161l166.002 60.002c10.667 0 17.334 -2.33301 20.001 -7c2.66699 -4 4 -15.333 4 -34l-16 -1471c0 -17.333 -5.66699 -31 -17 -41c-10.667 -8 -19.334 -13.333 -26.001 -16c-72.667 -14 -130 -21 -172 -21c-27.333 0 -58 3 -92 9c-34.667 4 -53.334 6 -56.001 6
c-18.667 0 -32.334 5.33301 -41.001 16c-6.66699 9.33301 -10.667 17.666 -12 24.999l-25 116c-2.66699 0 -4 7 -4 21c0 14.667 11.667 22 35 22c32.667 0 60.667 0.666992 84 2c24.667 1.33301 46 4.33301 64 9c35.333 12 53 59.667 53 143v39
c0 6.66699 -0.666992 14 -2 22l-6 1024c0 23.333 5.33301 41.166 16 53.499s19.667 19.833 27 22.5z" />
    <glyph glyph-name="k" unicode="k" horiz-adv-x="1147" 
d="M143 1599c0 16.667 2.33496 26.998 7.00195 30.998c5.33301 5.33301 12.666 8 21.999 8l152 2c8 0 17.833 -2 29.5 -6s17.5 -13.333 17.5 -28c0 -8.66699 -2 -17.667 -6 -27c-3.33301 -44 -6.33301 -88.333 -9 -133c-2.66699 -48 -5.33398 -113.667 -8.00098 -197
c-4 -83.333 -6 -165 -6 -245c-1.33301 -80.667 -2 -203 -2 -367c238.667 32.667 371 69.667 397 111c37.333 0 62.666 47 75.999 141c15.333 91.333 24.333 168.333 27 231c-4 16.667 -6 30.334 -6 41.001c0 14 3.33301 23.667 10 29c5.33301 4 12.666 7.33301 21.999 10
c10 2.66699 15 4.66699 15 6c22.667 2.66699 63.667 4 123 4c32.667 0 49 -29.333 49 -88c-1.33301 -18.667 -5 -48.667 -11 -90c-5.33301 -42 -14.666 -93.667 -27.999 -155c-14 -63.333 -33.333 -121.666 -58 -174.999c-22.667 -52.667 -50 -88 -82 -106
c-13.333 -2.66699 -35 -11 -65 -25c-31.333 -13.333 -56 -24.666 -74 -33.999l279 -512c1.33301 0 3.33301 -7 6 -21c0 -18 -7 -28.333 -21 -31l-92 -73c-23.333 0 -39.666 1.33301 -48.999 4c-8 1.33301 -12.667 2.66602 -14 3.99902c-44 68 -96 156.667 -156 266l-143 260
c-4 23.333 -14.333 35 -31 35h-8c-4 -1.33301 -6.66699 -2.66602 -8 -3.99902l-158 -23l2 -413c0 -4 -2.66699 -9.66699 -8 -17c-4 -8 -11 -12 -21 -12l-157 -2c-10 0 -15 2 -15 6l2 8c2.66699 5.33301 4 11.666 4 18.999z" />
    <glyph glyph-name="l" unicode="l" horiz-adv-x="524" 
d="M393 0l-219.001 -0.000976562c-26 0 -39 26.667 -39 80l6 1460c0 16.667 16.333 34.334 49 53.001c34.667 19.333 68.334 29 101.001 29c42 0 63 -18.333 63 -55c0 -18 5.66699 -89.667 17 -215c9.33301 -128.667 14 -232.667 14 -312
c-2.66699 -99.333 -4.66699 -183.333 -6 -252c-2.66699 -68 -6 -143 -10 -225c-2.66699 -83.333 -5.66699 -150.333 -9 -201l-4 -157c0 -56 4.83301 -94.333 14.5 -115s17.167 -31.667 22.5 -33c2.66699 -2.66699 6 -6.66699 10 -12c4.66699 -5.33301 7 -12 7 -20
c0 -10 -5.66699 -18.333 -17 -25z" />
    <glyph glyph-name="m" unicode="m" horiz-adv-x="1626" 
d="M1376 1130c12.667 -1.33301 22.334 -7.99805 29.001 -19.998c5.33301 -12 8.66602 -21.667 9.99902 -29l76 -616l20 -440c0 -12.667 -3.33301 -21 -10 -25c-5.33301 -2.66699 -10 -4 -14 -4h-131c-8.66699 0 -15 2.66699 -19 8c-2.66699 5.33301 -4 10 -4 14l-139 828
c-2.66699 13.333 -5.33398 21.833 -8.00098 25.5s-4.66699 5.5 -6 5.5l-236 38c-19.333 0 -29 -8.66699 -29 -26c0 -18 -0.666992 -87.667 -2 -209c-1.33301 -122.667 -2.66602 -225.667 -3.99902 -309s-2.66602 -155 -3.99902 -215v-95c0 -10.667 -1.33301 -23.5 -4 -38.5
s-10 -22.5 -22 -22.5l-123 -4c-8.66699 0 -13.667 6 -15 18c-2.66699 12.667 -4 32 -4 58l-57 774c0 12 -2.66699 20 -8 24c-6.66699 4.66699 -12.334 7 -17.001 7l-229 47c-10.667 0 -18.334 -3.66699 -23.001 -11c-5.33301 -6.66699 -8 -12 -8 -16l-45 -283l-39 -577
c-1.33301 -6.66699 -4.66602 -13.667 -9.99902 -21c-5.33301 -6.66699 -10 -11.334 -14 -14.001c-20.667 0 -68 -2 -142 -6c-2.66699 1.33301 -6 2.66602 -10 3.99902s-6 3.33301 -6 6c-1.33301 1.33301 -2 7 -2 17l2 743l10 362c2.66699 8.66699 9 18.334 19 29.001
c8 12.667 16.667 19.667 26 21c1.33301 2.66699 5 6 11 10c4 4 12.667 6 26 6c15.333 0 27.666 -2 36.999 -6c46.667 0 114.334 -0.666992 203.001 -2c87.333 -1.33301 208 -4 362 -8c156 -4.66699 287.333 -11 394 -19c106 -6.66699 159 -16.334 159 -29.001z" />
    <glyph glyph-name="n" unicode="n" horiz-adv-x="1126" 
d="M283 1188h202l426 -29c12.667 -1.33301 21.667 -10 27 -26c6.66699 -18 10.667 -33.333 12 -46l62 -620l12 -438c0 -12.667 -2.66699 -21 -8 -25c-5.33301 -2.66699 -10.333 -4 -15 -4h-133c-8 0 -13.333 2.66699 -16 8c-4 5.33301 -6 10.333 -6 15l-139 849
c0 12.667 -1.83301 21 -5.5 25s-6.83398 6 -9.50098 6l-264 43c-19.333 0 -29 -5.33301 -29 -16l-49 -316l-39 -577c-1.33301 -6.66699 -4.66602 -13.667 -9.99902 -21c-5.33301 -6.66699 -10 -11.334 -14 -14.001c-20.667 0 -68 -2 -142 -6
c-2.66699 1.33301 -6 2.66602 -10 3.99902s-6 3.33301 -6 6c-1.33301 1.33301 -2 7 -2 17l2 743l10 362c2.66699 8.66699 9 18.334 19 29.001c8 12.667 16.667 19.667 26 21c7.33301 2.66699 19 5.33398 35 8.00098c16.667 1.33301 38 2 64 2z" />
    <glyph glyph-name="o" unicode="o" horiz-adv-x="1106" 
d="M121 1087c0 24.667 15.666 44.002 46.999 58.002c30 13.333 54.667 22 74 26c64 7.33301 141.667 13.666 233 18.999c92.667 4 181.334 6 266.001 6c87.333 0 154.333 -8.33301 201 -25c10.667 -5.33301 23.667 -16.666 39 -33.999c15.333 -19.333 23 -49.333 23 -90
v-648l-29 -356c0 -26 -16.333 -39 -49 -39h-84c-56 1.33301 -140 2.66602 -252 3.99902s-188.667 2 -230 2c-40.667 1.33301 -74.667 2 -102 2c-30 0 -49.833 13.667 -59.5 41s-14.5 50.666 -14.5 69.999l-53 598zM503.999 266.002l197.999 -33.002
c12.667 0 25.667 4.33301 39 13c12.667 6.66699 19 13.334 19 20.001l49 309l-2 367c-34 32.667 -88.667 49 -164 49c-39.333 0 -79.666 -4 -120.999 -12c-39.333 -8 -73.333 -19 -102 -33c-15.333 -12 -33.833 -33.667 -55.5 -65s-32.5 -65.666 -32.5 -102.999
c0 -12 2 -25 6 -39l65 -401c0 -36.667 33.667 -60.667 101 -72z" />
    <glyph glyph-name="p" unicode="p" horiz-adv-x="1126" 
d="M137 -311v406.994c1.33301 152 3.33301 295.333 6 430c2.66699 136.667 7.5 258.334 14.5 365.001s15.167 162.667 24.5 168c0 18.667 5 41.667 15 69c8 27.333 27 41 57 41c35.333 1.33301 88 3 158 5c68 2.66699 153.333 5.33398 256 8.00098
c100.667 4 173 6.66699 217 8c30 -6.66699 51.667 -21 65 -43c15.333 -23.333 25 -41.666 29 -54.999c34 -265.333 51 -500.333 51 -705c0 -68 -1.33301 -121.333 -4 -160c-2.66699 -38 -5.33398 -63 -8.00098 -75c0 -41.333 -7.66699 -71.666 -23 -90.999
c-14.667 -17.333 -27 -28.666 -37 -33.999c-6.66699 -6 -26.334 -13 -59.001 -21c-31.333 -8 -85.333 -12 -162 -12c-100.667 0 -224.667 10.333 -372 31l-11 -138.5c-4 -48.333 -6.66699 -82.166 -8 -101.499s-2.66602 -49.333 -3.99902 -90c0 -9.33301 -2 -17 -6 -23
c-5.33301 -6.66699 -11 -10.667 -17 -12c-5.33301 -1.33301 -9.33301 -2 -12 -2c-9.33301 0 -31.666 -3.33301 -66.999 -10c-36 -8.66699 -62.667 -13 -80 -13c-18 0 -27 10.333 -27 31c0 4 1.33301 11.667 4 23zM379 308.994c0 -6.66699 6.66602 -16.6689 19.999 -30.002
l33 -37c65.333 -27.333 137 -41 215 -41c80.667 0 138 17 172 51c1.33301 5.33301 3.33301 15 6 29c1.33301 13.333 4.33301 37 9 71c2.66699 32.667 4 69 4 109c0 69.333 -6.33301 143.666 -19 222.999c-12 80.667 -31.667 161.334 -59 242.001
c0 6.66699 -6.33301 13.334 -19 20.001c-12 6.66699 -25 10 -39 10l-264 -47c-20 -8 -30 -24.333 -30 -49c-1.33301 -5.33301 -3.66602 -17.666 -6.99902 -36.999c-4 -17.333 -8.66699 -40.333 -14 -69l-6 -185c-2.66699 -80 -4 -146 -4 -198c0 -36 0.666992 -56.667 2 -62z
" />
    <glyph glyph-name="q" unicode="q" horiz-adv-x="1106" 
d="M1016 -303c2.66699 -10.667 4.00488 -18.332 4.00488 -22.999c0 -12 -2.66699 -20 -8 -24c-7.33301 -4 -13 -6 -17 -6c-16 0 -40.333 3.33301 -73 10c-34.667 5.33301 -59.334 8 -74.001 8c-2.66699 0 -6.83398 0.666992 -12.501 2s-11.167 5.33301 -16.5 12
c-4 6 -6 13.667 -6 23c-1.33301 23.333 -2 43.666 -2 60.999c-2.66699 19.333 -4.66699 40.666 -6 63.999c-2.66699 23.333 -4.66699 47.333 -6 72c-2.66699 24 -7 68.333 -13 133c-151.333 -24.667 -282.333 -37 -393 -37c-66.667 0 -114.334 3.33301 -143.001 10
s-46.334 12.667 -53.001 18c-10 4.66699 -22.5 16.834 -37.5 36.501s-22.5 49.167 -22.5 88.5c-2.66699 16.667 -6 49.667 -10 99c-4 50 -6 118.333 -6 205c0 48.667 1.33301 106 4 172c2.66699 64 6.66699 133.833 12 209.5s13 160.5 23 254.5c4 14 12.667 32.667 26 56
c15.333 22 36.666 36.333 63.999 43c35.333 0 121.333 -0.666992 258 -2c135.333 -2.66699 221.333 -4 258 -4s72.667 -0.666992 108 -2c22 0 38.667 -7.66699 50 -23c10.667 -18 17.334 -35.167 20.001 -51.5s4 -28.5 4 -36.5c14 -6.66699 25.667 -99 35 -277
c9.33301 -176 17 -369.667 23 -581c5.33301 -212 8.66602 -382 9.99902 -510zM768.005 311.002c4 8.66699 6 31.3369 6 68.0039c0 53.333 -2.66699 119.666 -8 198.999c-6.66699 77.333 -12 136.666 -16 177.999c-3.33301 16 -5.66602 27.667 -6.99902 35
c-1.33301 5.33301 -3.33301 15.166 -6 29.499l-6 31.5c-1.33301 4 -2 7.33301 -2 10c0 5.33301 -2 14.333 -6 27c-4 9.33301 -13 17.333 -27 24l-262 41c-12 0 -24.333 -3.33301 -37 -10c-12 -6.66699 -18 -13.334 -18 -20.001c-46.667 -143.333 -70 -290.333 -70 -441
c0 -54.667 2.66699 -103 8 -145c6 -44 11 -73.333 15 -88c31.333 -32.667 84.666 -49 159.999 -49c35.333 0 72 4 110 12c40 6.66699 77.667 17.667 113 33c8 8 18.833 19.5 32.5 34.5s20.5 25.167 20.5 30.5z" />
    <glyph glyph-name="r" unicode="r" horiz-adv-x="717" 
d="M662 1044c-60.667 -12 -123 -31.001 -187 -57.001c-64 -24.667 -97.333 -50.667 -100 -78c0 -18.667 -5 -98.334 -15 -239.001c-10.667 -142 -20 -281.333 -28 -418c-10 -138 -15 -213.667 -15 -227c0 -11.333 -3.33301 -19 -10 -23
c-6.66699 -2.66699 -12.667 -4.66699 -18 -6h-139c-19.333 0 -29 11 -29 33l8 864l-12 254c0 20.667 4.66699 34.334 14 41.001c9.33301 5.33301 17 8 23 8l225 25v-37c32.667 6.66699 77.667 15.334 135 26.001c58.667 10 108 15 148 15c5.33301 0 11.333 -2 18 -6
c6.66699 -6 10 -17.667 10 -35l-4 -107c0 -22 -8 -33 -24 -33z" />
    <glyph glyph-name="s" unicode="s" horiz-adv-x="1044" 
d="M250 1200l638.997 0.00292969c13.333 -1.33301 23 -6.66602 29 -15.999c4 -10 6 -17.667 6 -23l-19 -82c0 -6.66699 -3.33301 -14 -10 -22c-8 -10 -23.667 -15.667 -47 -17c-6.66699 -1.33301 -36.667 -4 -90 -8c-53.333 -5.33301 -109.333 -10 -168 -14
c-58.667 -6.66699 -110.667 -12.334 -156 -17.001c-9.33301 0 -22.333 -2 -39 -6c-16 -2.66699 -27 -8.66699 -33 -18c-5.33301 -6.66699 -10 -13.834 -14 -21.501s-6.66699 -14.834 -8 -21.501c-4 -8 -6 -16.333 -6 -25c0 -10.667 2.66699 -20.667 8 -30
c1.33301 -6 171.333 -123 510 -351c13.333 -9.33301 30.333 -26.333 51 -51s31 -58 31 -100v-326c0 -8 -4 -19 -12 -33c-8.66699 -13.333 -24.667 -20 -48 -20l-727 2c-20 0 -30 9 -30 27l10 98c8 27.333 19 41 33 41l536 37c30 2.66699 45 17.667 45 45
c0 22 -5.33301 45 -16 69c-9.33301 23.333 -17.666 41.333 -24.999 54c-30 17.333 -78.333 47.333 -145 90l-193 117l-200 124c-19.333 12.667 -31.666 27 -36.999 43c-6.66699 16.667 -10 29.667 -10 39l2 301c0 23.333 8.66699 48.666 26 75.999
c16.667 26 52.334 39 107.001 39z" />
    <glyph glyph-name="t" unicode="t" horiz-adv-x="614" 
d="M393 1610c0 -7.33301 1.99805 -29.3281 5.99805 -65.9951l9 -121l6 -100c1.33301 -24.667 2 -42.334 2 -53.001c6.66699 -4 12.667 -8.5 18 -13.5s11 -9.5 17 -13.5l120 -12c6 0 13 -2 21 -6c6.66699 -4 10 -11.667 10 -23c0 -6.66699 -1.33301 -12.667 -4 -18
c-2.66699 -11.333 -7.33398 -30 -14.001 -56l-19 -67c0 -14 -5.33301 -23.667 -16 -29c-12.667 -5.33301 -23 -8 -31 -8c-70.667 0 -106 -65.667 -106 -197v-794c0 -15.333 -3 -24.333 -9 -27c-6.66699 -4 -12 -6 -16 -6h-156c-9.33301 0 -15.333 2.66699 -18 8
c-5.33301 5.33301 -8.66602 10.333 -9.99902 15l-21 815c0 73.333 -8 122.333 -24 147c-16.667 23.333 -34.667 35 -54 35c-14.667 0 -24.667 4.66699 -30 14c-7.33301 10 -11.666 18.333 -12.999 25c0 60 0.666992 101 2 123c0 17.333 4.83301 30.166 14.5 38.499
s17.834 13.166 24.501 14.499c18 2.66699 35.333 4.66699 52 6c8 0 13.333 3.16699 16 9.5s4 11.5 4 15.5c0 39.333 1.33301 76.666 4 111.999c2.66699 36 6 71.667 10 107c4.66699 35.333 7 61.333 7 78c0 21.333 5.33301 35.666 16 42.999c8 6.66699 15.333 10 22 10
l138 14c14.667 0 22 -6.66699 22 -20z" />
    <glyph glyph-name="u" unicode="u" 
d="M274 0c-31.333 0 -51 14.3311 -59 42.998c-9.33301 30 -14 54.667 -14 74l-62 600l-12 438c0 12.667 2.66699 21 8 25c5.33301 2.66699 10.333 4 15 4h133c10.667 0 16.667 -2.66699 18 -8c2.66699 -6 4 -11 4 -15l139 -850c0 -10.667 2.33301 -18 7 -22
c2.66699 -5.33301 5.33398 -8 8.00098 -8l264 -43c19.333 0 29 5.33301 29 16l49 315l39 578c1.33301 8 4.66602 15.167 9.99902 21.5s10 10.833 14 13.5c20.667 0 68 2 142 6c2.66699 -1.33301 6 -2.66602 10 -3.99902s6.66699 -2.66602 8 -3.99902v-19l-2 -743l-10 -363
c0 -18.667 -8.33301 -33 -25 -43c-17.333 -8 -31 -12 -41 -12h-672z" />
    <glyph glyph-name="v" unicode="v" horiz-adv-x="1004" 
d="M74 1114c-4 14 -5.99414 25.666 -5.99414 34.999c0 16.667 5.33301 28.334 16 35.001c8 5.33301 15.333 8 22 8h132c9.33301 0 20.666 -3.33301 33.999 -10c15.333 -7.33301 25.666 -23 30.999 -47l172 -717c2.66699 -4 8.16699 -9.16699 16.5 -15.5
s17.166 -9.5 26.499 -9.5c14 0 25.667 7 35 21l152 561l57 149c14.667 42.667 37.667 64 69 64h160c14 0 23.667 -1.33301 29 -4c5.33301 -4 8 -11.667 8 -23c0 -13.333 -9 -36.333 -27 -69c-6.66699 -7.33301 -15.334 -21 -26.001 -41c-12.667 -20.667 -23 -50.667 -31 -90
l-219 -910c-2.66699 -8 -8.66699 -19 -18 -33c-10 -12 -23 -18 -39 -18l-324 -4c-10.667 0 -20.334 4.66699 -29.001 14c-8 10 -13.333 17.667 -16 23l-203 958c-6.66699 48 -11.334 79.333 -14.001 94c-4 14 -6.66699 23.667 -8 29z" />
    <glyph glyph-name="w" unicode="w" horiz-adv-x="1915" 
d="M96 1044c-10.667 41.333 -16 74.333 -16 99c0 35.333 11.667 53 35 53h129c8 0 20.333 -3.33301 37 -10c13.333 -6.66699 22.666 -22.334 27.999 -47.001l172 -787c2.66699 -4 8.33398 -8.66699 17.001 -14c8 -6.66699 16.667 -10 26 -10c14 0 25.667 6.66699 35 20
l193 780c10.667 42.667 33.667 64 69 64c5.33301 2.66699 21 5.33398 47 8.00098c24.667 4 71.334 6 140.001 6c42 0 76.667 -0.666992 104 -2c8 0 20.333 -3.33301 37 -10c14.667 -6.66699 24.334 -22.334 29.001 -47.001l172 -787l16 -16c8 -5.33301 17 -8 27 -8
c12 0 23.333 6.66699 34 20l172 680l41 101c16.667 42 40 63 70 63h156c39.333 0 59 -8.66699 59 -26c0 -19.333 -13.667 -45.333 -41 -78c-6.66699 -4 -15.334 -12.333 -26.001 -25c-12.667 -12 -20.334 -29 -23.001 -51l-236 -969c-2.66699 -8 -8.66699 -19 -18 -33
c-9.33301 -12 -22.333 -18 -39 -18l-323 -4c-11.333 0 -20.333 4.66699 -27 14l-18 23l-162 874c-14 44 -29 66 -45 66c-11.333 0 -21 -7 -29 -21c-9.33301 -13.333 -16 -24.666 -20 -33.999l-187 -875c-2.66699 -8 -8.66699 -19 -18 -33c-10 -12 -23 -18 -39 -18l-324 -4
c-10.667 0 -20.167 4.66699 -28.5 14s-13.833 17 -16.5 23z" />
    <glyph glyph-name="x" unicode="x" horiz-adv-x="1208" 
d="M870 582l248.002 -489.999c5.33301 -5.33301 13 -15 23 -29c8 -13.333 14 -29.666 18 -48.999c0 -2.66699 -2 -5.33398 -6 -8.00098c-2.66699 -4 -9.33398 -6 -20.001 -6h-123c-10 0 -23 4 -39 12c-18 10 -27.667 16.333 -29 19l-266 379
c-20.667 43.333 -40.667 65 -60 65c-13.333 0 -24 -8 -32 -24c-10 -16.667 -16.333 -30.334 -19 -41.001l-235 -373c-5.33301 -5.33301 -15 -13 -29 -23c-13.333 -8 -29 -12 -47 -12l-150 -6c-13.333 1.33301 -20 6 -20 14c0 10 5.16699 20.333 15.5 31s18.833 19 25.5 25
c23.333 31.333 50.666 79.666 81.999 144.999l98 203c34 70.667 60.667 119.667 80 147c18 24.667 27 48.667 27 72c0 14.667 -3.66699 27 -11 37c-6.66699 9.33301 -12 15.333 -16 18l-274 406c-22 34 -34.333 59.667 -37 77c0 10 4 16.333 12 19
c6.66699 2.66699 12.667 4 18 4l115 2c48 0 73.333 -13.667 76 -41l250 -295c5.33301 -10.667 14 -25 26 -43c12.667 -17.333 27.667 -26 45 -26c23.333 0 46 19.667 68 59l254 315c6.66699 12.667 17 21 31 25c12 2.66699 21.333 4 28 4h154c10.667 0 16 -5.33301 16 -16
c0 -4.66699 -2 -11 -6 -19c-2.66699 -6.66699 -15.667 -27.667 -39 -63l-256 -398c-4 -2.66699 -8.66699 -8 -14 -16c-6.66699 -8 -10 -19 -10 -33c0 -23.333 9.33301 -45.666 28 -66.999z" />
    <glyph glyph-name="y" unicode="y" horiz-adv-x="1096" 
d="M756 303c-1.33301 0 -2.00098 37.6699 -2.00098 113.003v223v111c0 8 -3 70.667 -9 188c-5.33301 118.667 -8.66602 188.334 -9.99902 209.001c0 13.333 4.33301 23 13 29c9.33301 4 16.666 6 21.999 6c44 8 87 12 129 12c28.667 0 46.334 -16.333 53.001 -49
c4 -24.667 9 -86 15 -184c5.33301 -100 9.33301 -249.667 12 -449s4 -449.333 4 -750c-14.667 -39.333 -33 -67.333 -55 -84c-22 -14.667 -39 -23.334 -51 -26.001c-72.667 -15.333 -143 -23 -211 -23c-108 0 -228.333 18 -361 54c-13.333 1.33301 -23 8 -29 20
c-6.66699 14 -10 25 -10 33l-14 74c-2.66699 0 -4 5.33301 -4 16c0 12 6.66699 18 20 18c8.66699 0 16.334 -1.33301 23.001 -4c96.667 -17.333 198.334 -26 305.001 -26c52 0 94.333 2 127 6c19.333 0 31.666 8 36.999 24c5.33301 18 8 32.333 8 43
c0 16.667 -0.666992 46 -2 88c-9.33301 27.333 -28.333 41 -57 41c-118 -14.667 -219 -22 -303 -22c-83.333 0 -147 6.66699 -191 20c-27.333 0 -50 28 -68 84c-16 57.333 -27.333 104.666 -34 141.999v104c0 101.333 4 208 12 320
c6.66699 113.333 25.667 277.666 57 492.999c0 6.66699 2 15.667 6 27c4.66699 9.33301 13.667 14 27 14c8 0 14 -1.33301 18 -4c72.667 -4 114.334 -6.66699 125.001 -8c16.667 0 25 -9 25 -27c0 -2.66699 -1.33301 -9.33398 -4 -20.001
c-6.66699 -36 -14.334 -83.333 -23.001 -142c-6.66699 -57.333 -14.834 -134.333 -24.501 -231s-17.167 -175.334 -22.5 -236.001l-8 -90c0 -39.333 2 -76.666 6 -111.999c2.66699 -36 5.33398 -60 8.00098 -72c33.333 -35.333 92.333 -53 177 -53
c34 0 69.333 3.33301 106 10c35.333 5.33301 68.666 14.333 99.999 27l35 34c15.333 14 23 23.667 23 29z" />
    <glyph glyph-name="z" unicode="z" horiz-adv-x="1106" 
d="M958 1151c14 -14 21.001 -36.667 21.001 -68c0 -22.667 -2 -43.667 -6 -63s-8 -33.666 -12 -42.999c-20.667 -39.333 -45.334 -83.666 -74.001 -132.999l-121 -211l-152 -256c-46 -80.667 -71.667 -125 -77 -133c0 -5.33301 1.33301 -10.333 4 -15
c2.66699 -2.66699 8 -4 16 -4l401 -35c14 0 25.667 -13.333 35 -40l11 -115c0 -18 -11 -27 -33 -27l-795 -4c-49.333 0 -74 9.66699 -74 29c0 6.66699 1.33301 12 4 16c4.66699 4 7.66699 7.33301 9 10l145 222l217 337c78 124.667 133.333 219.667 166 285
c8 15.333 12 27 12 35c0 13.333 -6 23.666 -18 30.999c-12.667 5.33301 -23 8 -31 8c-18.667 2.66699 -61.667 6 -129 10c-65.333 2.66699 -156 9.66699 -272 21c-24.667 1.33301 -41 6.66602 -49 15.999c-8.66699 8 -13 14.667 -13 20l-20 101
c-2.66699 5.33301 -4 11.333 -4 18c0 14 14.333 21 43 21h655c49.333 0 84.333 -4.33301 105 -13c20 -8 32 -14.667 36 -20z" />
    <glyph glyph-name="braceleft" unicode="{" horiz-adv-x="860" 
d="M393 967l-58.998 -428.001l74 -289c0 -12.667 -7.66699 -19 -23 -19c-24.667 0 -44.334 3.66699 -59.001 11c-23.333 21.333 -49.333 59.333 -78 114s-50.667 98.334 -66 131.001l-43 125c11.333 14 21.666 34 30.999 60l41 94l42.5 102
c13.667 31.333 24.167 53.333 31.5 66c9.33301 5.33301 24.333 12 45 20c20 8.66699 41 13 63 13zM596.002 947.999c27.333 15.333 49.8311 25.667 67.498 31s29.834 8 36.501 8l-59 -428l74 -289c0 -10.667 -7 -16 -21 -16c-27.333 0 -50.333 4.66699 -69 14
c-23.333 22 -48 60.333 -74 115c-27.333 53.333 -48 95 -62 125l-43 125c11.333 16 22.833 37 34.5 63l62.5 138c28.667 64 46.334 102 53.001 114z" />
    <glyph glyph-name="bar" unicode="|" horiz-adv-x="1997" 
d="M1968 1649c5.33301 0 12.9971 -2.33301 22.9971 -7c9.33301 -4 14 -12.667 14 -26v-156c-2.66699 -17.333 -7.5 -28.5 -14.5 -33.5s-12.5 -7.5 -16.5 -7.5l-291 -67c-8 -1.33301 -17.333 -9 -28 -23c-11.333 -13.333 -17 -38 -17 -74l-41 -1196c0 -8 -2 -18.167 -6 -30.5
s-13.333 -18.5 -28 -18.5h-177c-13.333 0 -22.666 4.33301 -27.999 13c-6.66699 8 -10.667 14.667 -12 20l-23 1225c0 27.333 -9 47.666 -27 60.999c-17.333 14 -32.333 22.333 -45 25l-250 55l-290 -68c-7.33301 -1.33301 -17 -8.66602 -29 -21.999
c-10.667 -14 -16 -38.667 -16 -74l-41 -1196c0 -8 -2.33301 -18.333 -7 -31c-5.33301 -12 -14.666 -18 -27.999 -18h-176c-15.333 0 -25 4 -29 12c-6.66699 8.66699 -10.667 15.667 -12 21l-23 1224c0 27.333 -8.66699 48 -26 62c-18 12 -33 20 -45 24l-228 56
c-14.667 2.66699 -25 8 -31 16c-5.33301 10 -8 23 -8 39l23 152c0 5.33301 2.66699 12 8 20c6.66699 8 19.667 12 39 12c184 0 332 0.666992 444 2c110.667 0 224 0.666992 340 2c114.667 2 266.334 3.66699 455.001 5c187.333 1.33301 403 2 647 2z" />
    <glyph glyph-name="braceright" unicode="}" horiz-adv-x="819" 
d="M262 311c-1.33301 -8 -15.668 -17.3311 -43.001 -27.998c-27.333 -12.667 -49.666 -22.334 -66.999 -29.001l59 428l-74 289c0 10.667 6.33301 16 19 16c9.33301 0 20.666 -2 33.999 -6c14 -2.66699 23.667 -5.33398 29 -8.00098
c23.333 -20.667 49.333 -58.334 78 -113.001c28.667 -53.333 50.334 -95.666 65.001 -126.999l44 -125c-11.333 -14.667 -25 -42 -41 -82l-58 -123c-18.667 -42 -33.667 -72.667 -45 -92zM458.998 274.002l59.001 428.001l-74 289c0 10 5 15 15 15c14.667 0 40 -7 76 -21
c21.333 -20.667 45.666 -56.834 72.999 -108.501s48 -92.5 62 -122.5l43 -125c-15.333 -22 -39.333 -71.333 -72 -148c-31.333 -74.667 -53.333 -121.667 -66 -141c-8 -8 -21.333 -19 -40 -33c-20.667 -13.333 -46 -24.333 -76 -33z" />
    <glyph glyph-name="asciitilde" unicode="~" horiz-adv-x="2048" 
d="M1235 0l-940.003 0.00195312c-53.333 0 -90.333 20.333 -111 61c-21.333 41.333 -33.666 75.666 -36.999 102.999c-8 26 -14.667 69 -20 129s-10.666 144.667 -15.999 254c-4.66699 109.333 -7.66699 214.333 -9 315v41c-1.33301 11.333 -2 22.333 -2 33
c0 46.667 12.333 92.334 37 137.001c1.33301 24.667 17.666 43 48.999 55c30 14 55.333 22.333 76 25c12.667 0 53.667 2.66699 123 8l190 15c56 2.66699 112.667 4 170 4c36 0 62 -0.666992 78 -2c4 1.33301 12.333 2.66602 25 3.99902h39c10.667 0 29.667 -1.33301 57 -4
c2.66699 0 5.33398 -0.666992 8.00098 -2c4 0 8.33301 -2.33301 13 -7c2.66699 -2.66699 4 -7.33398 4 -14.001c0 -4 -2 -11.333 -6 -22c-24.667 -80.667 -39.667 -126.667 -45 -138c-2 -4 -5.66699 -8.66699 -11 -14c-6.66699 -5.33301 -15.334 -8 -26.001 -8
c-10 0 -17.667 1.33301 -23 4c-49.333 5.33301 -98.333 8 -147 8c-75.333 0 -137 -5.33301 -185 -16c-46 -11.333 -77.333 -20.333 -94 -27c-14.667 -13.333 -33.667 -36.833 -57 -70.5s-35 -68.834 -35 -105.501c0 -18 0.666992 -31 2 -39l59 -463
c20.667 -4 60.334 -9.33301 119.001 -16c57.333 -8 136.666 -16.333 237.999 -25c100.667 -6.66699 204.334 -10 311.001 -10l-4 1386c0 16.667 2 27 6 31c4 5.33301 11.667 8 23 8l151 2c8 0 18.333 -2 31 -6c10.667 -4 16 -13.333 16 -28c0 -8.66699 -2 -17.667 -6 -27
c-4 -44 -6.66699 -81.667 -8 -113l-8 -194c-4 -98.667 -6.66699 -188 -8 -268c-1.33301 -80.667 -2 -203 -2 -367c240 32.667 373 69.667 399 111c36.667 0 62.667 47 78 141c13.333 91.333 21.333 168.333 24 231c-4 16.667 -6 30.334 -6 41.001c0 14 2.66699 23.667 8 29
c7.33301 4 15.666 7.33301 24.999 10c8 2.66699 12.667 4.66699 14 6c23.333 2.66699 64.333 4 123 4c32.667 0 49 -29.333 49 -88c-1.33301 -18.667 -4.66602 -48.834 -9.99902 -90.501s-15 -93.167 -29 -154.5c-13.333 -62 -32.333 -119.333 -57 -172
c-23.333 -54.667 -50.666 -91 -81.999 -109c-13.333 -2.66699 -35 -11 -65 -25c-32 -13.333 -56.667 -24.666 -74 -33.999l278 -512l7 -21c0 -18 -7 -28.333 -21 -31l-92 -73c-23.333 0 -39 1.33301 -47 4c-10 1.33301 -15.667 2.66602 -17 3.99902
c-43.333 68 -95 156.667 -155 266l-144 260c-5.33301 23.333 -15.333 35 -30 35h-11c-2.66699 -1.33301 -4.66699 -2.66602 -6 -3.99902l-159 -23l2 -413c0 -4 -2.33301 -9.66699 -7 -17c-4 -8 -10.667 -12 -20 -12z" />
    <glyph glyph-name="Adieresis" unicode="&#xc4;" horiz-adv-x="1372" 
d="M371 1630c62.667 1.33301 129.997 2.66504 201.997 3.99805c74 1.33301 135 2.66602 183 3.99902c46 1.33301 97.667 2 155 2c7.33301 0 16.333 -3.33301 27 -10c10.667 -5.33301 16.667 -17.666 18 -36.999c6 -20 24 -75.333 54 -166c31.333 -90 56.333 -165 75 -225
c20.667 -60 43.334 -133.667 68.001 -221c26 -88.667 45.667 -172.667 59 -252c23.333 -120 35 -253 35 -399c0 -68.667 -4.66699 -167 -14 -295c0 -5.33301 -1.33301 -11.666 -4 -18.999c-4 -8 -12.333 -12 -25 -12h-176c-19.333 0 -29 11 -29 33
c0 138 -1.33301 231.333 -4 280c0 33.333 -17.667 50 -53 50c-39.333 -1.33301 -124.666 -7 -255.999 -17c-132.667 -9.33301 -219.334 -17.333 -260.001 -24c-6.66699 0 -15 -3.66699 -25 -11c-10.667 -5.33301 -17.334 -18.333 -20.001 -39
c-4 -20 -9.33301 -43.667 -16 -71c-7.33301 -28.667 -14.333 -58.667 -21 -90c-5.33301 -32.667 -8.66602 -58 -9.99902 -76c-4 -15.333 -9.83301 -25.666 -17.5 -30.999s-13.5 -8 -17.5 -8l-166 2c-16 0 -24 9 -24 27l24 430c6.66699 98 18.334 235 35.001 411
c14.667 176.667 33 331.667 55 465c22 134 46 223 72 267c2.66699 5.33301 9.33398 11.333 20.001 18c11.333 6.66699 30 10 56 10zM409.997 646.999c0 -14.667 1.99805 -25.001 5.99805 -31.001c4 -5.33301 14 -8 30 -8c66 2.66699 107.667 4.66699 125 6
c19.333 0 57 2.33301 113 7c56 2.66699 103 5.33398 141 8.00098c40 2.66699 70 5.33398 90 8.00098c16.667 2.66699 28.334 7.33398 35.001 14.001c5.33301 8.66699 8 19.667 8 33c-12 49.333 -29 115.666 -51 198.999c-23.333 83.333 -48.666 169.333 -75.999 258
c-26.667 88.667 -45.667 146.667 -57 174c-9.33301 13.333 -19 22.666 -29 27.999c-9.33301 4.66699 -16 7 -20 7c-128.667 0 -201 -31 -217 -93zM374.995 1737c-5.33301 0 -7.99902 37.334 -7.99902 112.001c0 82 6 123 18 123c27.333 0 65.666 2 114.999 6l90 11
c0 -20.667 -9.66699 -71.334 -29 -152.001l-29 -119zM671.996 1737c-5.33301 0 -8 37.334 -8 112.001c0 82 6 123 18 123c27.333 0 66.333 2.66699 117 8c48.667 4.66699 78 7.66699 88 9c0 -20.667 -9.66699 -71.334 -29 -152.001l-29 -119z" />
    <glyph glyph-name="Aring" unicode="&#xc5;" horiz-adv-x="1352" 
d="M385 1630c61.333 2.66699 128.997 4.66602 202.997 5.99902c70.667 1.33301 130.667 2 180 2c48 1.33301 100.667 2 158 2c6.66699 0 15.334 -3.33301 26.001 -10c11.333 -5.33301 17.666 -17.666 18.999 -36.999c6.66699 -28.667 22.334 -80.334 47.001 -155.001
l67 -209c19.333 -64 42 -143.333 68 -238c24.667 -94 43.667 -181.333 57 -262c19.333 -112 29 -228.667 29 -350c0 -75.333 -1.33301 -134 -4 -176l-16 -168c0 -5.33301 -1.83301 -11.833 -5.5 -19.5s-11.5 -11.5 -23.5 -11.5h-168c-19.333 0 -29 11 -29 33
c1.33301 42 2 135.333 2 280c0 33.333 -17.667 50 -53 50c-39.333 -1.33301 -128 -7 -266 -17c-138 -9.33301 -228 -17.333 -270 -24c-7.33301 0 -15.666 -3.66699 -24.999 -11c-10.667 -6.66699 -18.5 -19.834 -23.5 -39.501s-13.5 -58.167 -25.5 -115.5
c-14 -57.333 -22.333 -97.666 -25 -120.999c-4 -15.333 -9.33301 -25.666 -16 -30.999c-8 -5.33301 -14.333 -8 -19 -8l-153 2c-16.667 0 -25 9 -25 27l31 395c10.667 134 25.667 286.333 45 457c18 170.667 39 322 63 454c23.333 134 48.666 223 75.999 267
c2.66699 5.33301 10.334 11.333 23.001 18c10.667 6.66699 28.334 10 53.001 10zM384.997 601.999c0 -14.667 2.00098 -25.001 6.00098 -31.001c4 -5.33301 14.333 -8 31 -8c105.333 4 206.333 8.83301 303 14.5s161.667 10.5 195 14.5
c17.333 2.66699 28.666 7.33398 33.999 14.001c6 8 9 19 9 33c-6 31.333 -24.667 101.666 -56 210.999l-94 309c-31.333 98.667 -51 157.334 -59 176.001c-8.66699 14 -17.667 23.667 -27 29c-9.33301 4 -16 6 -20 6c-48 0 -87 -6 -117 -18c-30 -14 -50.667 -38.667 -62 -74
zM770.998 1965c19.333 -5.33301 28.999 -41.667 28.999 -109c0 -31.333 -2 -60.666 -6 -87.999c-3.33301 -26.667 -7.5 -46.5 -12.5 -59.5s-14.5 -21.833 -28.5 -26.5c-43.333 -9.33301 -86.333 -14 -129 -14c-89.333 0 -140 10 -152 30c-16 64.667 -24.667 122 -26 172
c0 34 2.66699 58 8 72c2 5.33301 5 11.166 9 17.499s17.833 11.833 41.5 16.5s64.834 7 123.501 7c61.333 0 109 -6 143 -18zM709.997 1833c0 36.667 -10.333 57.333 -31 62c-18.667 5.33301 -37.667 8 -57 8c-31.333 0 -52.833 -5 -64.5 -15s-17.5 -31.667 -17.5 -65
c0 -24 5.66699 -42.667 17 -56s36.333 -20 75 -20c34 0 55.5 6.83301 64.5 20.5s13.5 35.5 13.5 65.5z" />
    <glyph glyph-name="Ccedilla" unicode="&#xc7;" horiz-adv-x="1004" 
d="M565 2c-60 0 -135.671 7.00488 -227.004 21.0049c-92.667 13.333 -146.667 25.333 -162 36c-10.667 8.66699 -21 56.667 -31 144c-9.33301 87.333 -18 207.333 -26 360c-10 152 -15.667 239.333 -17 262c-1.33301 15.333 -2 44 -2 86c0 79.333 3 164 9 254
c4 92 10.667 174.667 20 248c9.33301 75.333 21 124.666 35 147.999c10.667 16 53 29.667 127 41c72 9.33301 157.333 16 256 20c96.667 2.66699 194.334 4 293.001 4h143c26 0 39 -9 39 -27c0 -8 -1.33301 -14.667 -4 -20l-39 -92c0 -8 -4 -18.333 -12 -31
c-8.66699 -12 -25 -18 -49 -18c-135.333 -8.66699 -240.666 -20.334 -315.999 -35.001c-75.333 -16.667 -128 -36.667 -158 -60c-31.333 -22.667 -51.666 -52.667 -60.999 -90c-2.66699 -2.66699 -7.33398 -12 -14.001 -28c-6 -16.667 -12.333 -52.334 -19 -107.001
s-10.667 -124.334 -12 -209.001l12 -393c0 -42 10.333 -94.667 31 -158c18 -64 58.333 -96 121 -96c58.667 -14.667 123.334 -26.334 194.001 -35.001c72.667 -8 135.667 -12 189 -12c31.333 0 53 0.666992 65 2c1.33301 0 3.33301 0.666992 6 2
c3.33301 1.33301 6.33301 2 9 2c14.667 0 24 -12.333 28 -37l8 -112c0 -16.667 -2.66699 -28.334 -8 -35.001c-5.33301 -8 -16 -12 -32 -12c-12.667 -1.33301 -36 -3.66602 -70 -6.99902c-34 -2.66699 -58.833 -4.66699 -74.5 -6s-23.5 -2.66602 -23.5 -3.99902
s4.66699 -2.66602 14 -3.99902c-1.33301 -40.667 -11.666 -89.667 -30.999 -147c-20.667 -58.667 -37 -103 -49 -133c-9.33301 -12.667 -18.333 -22.334 -27 -29.001c-8 -6.66699 -23 -14.334 -45 -23.001c-22.667 -6.66699 -54.667 -10 -96 -10c-27.333 0 -57.333 2 -90 6
c-31.333 5.33301 -50.333 8 -57 8c-18 0 -31 5.66699 -39 17c-8.66699 9.33301 -13.667 17.333 -15 24l-24 117c-2.66699 0 -4 7 -4 21c0 14.667 11.667 22 35 22c69.333 0 118.333 3.33301 147 10c30 12.667 47.667 51 53 115z" />
    <glyph glyph-name="Eacute" unicode="&#xc9;" horiz-adv-x="1188" 
d="M958 1438c-118.667 -7.33301 -204.663 -12.998 -257.996 -16.998c-54.667 -5.33301 -97.667 -11.333 -129 -18c-32.667 -6.66699 -56.334 -15.667 -71.001 -27c-16.667 -9.33301 -34.667 -24.333 -54 -45c-47.333 -50.667 -71 -135.334 -71 -254.001
c0 -70.667 5.33301 -123.667 16 -159c2.66699 -15.333 45 -23 127 -23c20.667 0 43.334 0.666992 68.001 2c26 0 50.333 0.666992 73 2c22 0 40.667 0.666992 56 2h65c26 0 55.333 -1.33301 88 -4c28.667 0 43 -13 43 -39v-110c-4 -22 -12 -37.333 -24 -46
c-14 -8 -25 -12 -33 -12c-120 -8 -213 -19.667 -279 -35c-66.667 -13.333 -110.334 -25.666 -131.001 -36.999c-20 -10.667 -31.333 -18 -34 -22l-13 -66c-4 -21.333 -6 -42.333 -6 -63c0 -92.667 45.667 -157.667 137 -195c93.333 -35.333 202.666 -53 327.999 -53
c30 0 80 2 150 6c13.333 0 22.666 -13.667 27.999 -41l8 -112c0 -16.667 -2.66699 -28.334 -8 -35.001c-5.33301 -8 -16.333 -12 -33 -12c-65.333 -7.33301 -149 -13 -251 -17c-102.667 -5.33301 -166.334 -8 -191.001 -8c-4 0 -34 3.33301 -90 10s-109.333 15 -160 25
c-52 8 -82.667 16 -92 24c-10.667 8.66699 -21 56.667 -31 144c-9.33301 87.333 -18 207.333 -26 360c-10 152 -15.667 239.333 -17 262c-1.33301 15.333 -2 44 -2 86c0 79.333 3 164 9 254c4 92 10.667 174.667 20 248c9.33301 75.333 21 124.666 35 147.999
c10.667 16 53 29.667 127 41c72 9.33301 157.333 16 256 20c96.667 2.66699 194.334 4 293.001 4h143c26 0 39 -9 39 -27c0 -8 -1.33301 -14.667 -4 -20l-39 -92c0 -8 -4 -18.333 -12 -31c-8.66699 -12 -25.334 -18 -50.001 -18zM877.004 1853
c-64.667 -1.33301 -132.333 -14 -203 -38c-72.667 -24.667 -137.667 -52 -195 -82c-58.667 -31.333 -105 -60 -139 -86c-1.33301 -4.66699 -4.66602 -7 -9.99902 -7c-8.66699 0 -14.334 5.66699 -17.001 17c-1.33301 9.33301 -2 18 -2 26l11 103c0 12 4 22.333 12 31
c6.66699 8 12.667 12.667 18 14l230 123l274 12c16.667 -8 31 -29.667 43 -65c0 -32 -7.33301 -48 -22 -48z" />
    <glyph glyph-name="Ntilde" unicode="&#xd1;" horiz-adv-x="1505" 
d="M123 1540c0 34 5.99902 56.666 17.999 67.999c14 9.33301 27 14 39 14l312 6c48.667 -1.33301 83.334 -12.333 104.001 -33c18 -20 28.333 -37 31 -51l383 -1112c6.66699 -19.333 16.667 -43.333 30 -72c14 -28.667 28.333 -43 43 -43c20.667 0 38 41 52 123
c2.66699 57.333 4 108 4 152c0 75.333 -0.666992 144.333 -2 207c-2.66699 62.667 -5.66699 141 -9 235c-4 93.333 -6.66699 178 -8 254c-2.66699 76.667 -4 129.334 -4 158.001c0 48 0.666992 79.333 2 94c0 28.667 8.33301 50.667 25 66c16 12 29.667 20 41 24h139
c44 0 66 -24.667 66 -74l-29 -1466c0 -12 -3.33301 -28.333 -10 -49c-8.66699 -20.667 -24.334 -31.667 -47.001 -33l-336 -6c-40 0 -71 13.667 -93 41c-22.667 26 -37 48 -43 66l-290 950c-38.667 122.667 -72.334 184 -101.001 184c-14.667 0 -27 -13.667 -37 -41
c-9.33301 -27.333 -16 -57.333 -20 -90c-5.33301 -34 -8.66602 -51 -9.99902 -51l-19 -963c0 -14.667 -4.66699 -33.667 -14 -57s-30.666 -35 -63.999 -35l-106 -4c-24.667 0 -39.667 9 -45 27c-8 17.333 -12 32.333 -12 45zM1103 1819
c-26.667 -24 -47.502 -41.4971 -62.502 -52.4971s-39.167 -24.167 -72.5 -39.5c-26.667 -13.333 -53.667 -20 -81 -20c-16 0 -30 2.66699 -42 8c-25.333 11.333 -52.666 24.666 -81.999 39.999s-56.5 28.5 -81.5 39.5s-51.5 19.167 -79.5 24.5c-32.667 0 -72 -25 -118 -75
c-2.66699 -2 -6.66699 -3 -12 -3c-12.667 0 -24 4 -34 12l-68 62c0 26 5 42.333 15 49c42 36.667 73.5 62 94.5 76s44.5 21 70.5 21c5.33301 0 12.666 -0.666992 21.999 -2c50 0 114 -17.667 192 -53c58.667 -26.667 89.334 -40.334 92.001 -41.001
c14.667 -7.33301 26.334 -11 35.001 -11c6 0 15.667 3 29 9c13.333 4.66699 28.333 12.5 45 23.5l47 32c14.667 10.333 26 17.666 34 21.999s15.667 6.5 23 6.5c11.333 -7.33301 27 -22.333 47 -45z" />
    <glyph glyph-name="Odieresis" unicode="&#xd6;" horiz-adv-x="1454" 
d="M135 1468c0 34.667 20.002 64.001 60.002 88.001c38 23.333 70 40 96 50c61.333 12 162.333 20 303 24c139.333 5.33301 263 8 371 8c73.333 0 166.666 -19 279.999 -57c5.33301 -2.66699 15 -9.33398 29 -20.001c12 -12.667 24.333 -30.667 37 -54
c10.667 -24.667 16 -56 16 -94v-874l-39 -482c0 -21.333 -5.33301 -35 -16 -41c-12.667 -6.66699 -29 -10 -49 -10h-277c-117.333 0 -234 0.666992 -350 2h-274c-30.667 0 -52.667 11.667 -66 35c-16.667 24.667 -26.334 48.667 -29.001 72c-4 23.333 -6 40.333 -6 51
l-71 807zM543.002 352.001l402.999 -86c19.333 0 36.333 5.66699 51 17c16.667 10.667 25 20 25 28l80 465l-41 496c-82 79.333 -155.667 119 -221 119c-110.667 0 -211 -20 -301 -60c-23.333 -27.333 -52 -68.333 -86 -123c-36 -54.667 -54 -107 -54 -157
c0 -15.333 3 -33.333 9 -54l94 -591c2.66699 -8.66699 7.33398 -19.167 14.001 -31.5s15.667 -19.833 27 -22.5zM457.001 1731c-5.33301 0 -8 34.001 -8 102.001c0 82 6 123 18 123c18 0 54 2 108 6c54.667 5.33301 87 8.66602 97 9.99902c0 -20 -9.66699 -68.333 -29 -145
l-29 -115zM819.001 1731c-5.33301 0 -8 34 -8 102c0 82 6 123 18 123c18 0 54.333 2 109 6c53.333 4 85.333 7.33301 96 10c0 -20 -9.33301 -67.667 -28 -143c-19.333 -76.667 -29 -115.667 -29 -117z" />
    <glyph glyph-name="Udieresis" unicode="&#xdc;" horiz-adv-x="1372" 
d="M324 0c-41.333 0 -67.3311 20.333 -77.998 61c-12.667 41.333 -19 75 -19 101l-80 827l-14 604c0 18 3.33301 29 10 33c8.66699 5.33301 15 8 19 8h172c12 0 20 -4 24 -12c4.66699 -8 7 -14.667 7 -20l155 -1196c2.66699 -18 6 -29.667 10 -35
c4.66699 -6 7.66699 -9 9 -9l401 -59c15.333 0 25.666 1.33301 30.999 4c4 4 6 10.333 6 19l63 436l19 821c0 9.33301 4 19 12 29c8 8 15 14 21 18c9.33301 0 27 0.666992 53 2l74 4c22.667 0 41 0.666992 55 2c5.33301 -2.66699 10.666 -4.66699 15.999 -6
c4 -1.33301 6 -3.33301 6 -6c1.33301 -2.66699 2 -10.667 2 -24l-2 -1024l-14 -502c0 -26 -11 -45.333 -33 -58c-23.333 -12 -40.333 -18 -51 -18h-874zM485.002 1681c-5.33301 0 -7.99902 48 -7.99902 144c0 82 6.33301 123 19 123c14.667 0 39 1.33301 73 4
c34.667 2.66699 64 5.33398 88 8.00098c23.333 1.33301 37.666 2.66602 42.999 3.99902c0 -22 -9.5 -77.333 -28.5 -166s-28.5 -133.667 -28.5 -135zM782.003 1681c-5.33301 0 -7.99902 48 -7.99902 144c0 82 6.33301 123 19 123c14.667 0 39 1.33301 73 4
c34.667 2.66699 64 5.33398 88 8.00098c23.333 1.33301 37.666 2.66602 42.999 3.99902c0 -22 -9.5 -77.333 -28.5 -166s-28.5 -133.667 -28.5 -135z" />
    <glyph glyph-name="aacute" unicode="&#xe1;" horiz-adv-x="1157" 
d="M362 555c-6.66699 0 -15.335 -18.333 -26.002 -55c-11.333 -38.667 -19.666 -122 -24.999 -250c0 -27.333 14.333 -41 43 -41c190 0 322.667 1.33301 398 4c52.667 2.66699 79 35.334 79 98.001l-12 162c-2.66699 35.333 -4.66699 68.666 -6 99.999
c-1.33301 32 -2.66602 55.333 -3.99902 70c-200.667 -8 -321.667 -19 -363 -33c-13.333 -4 -31 -10.667 -53 -20c-20.667 -10 -31 -21.667 -31 -35zM806.999 1176c0 2.66699 4.66699 4.00195 14 4.00195c14 0 30.333 -3 49 -9
c19.333 -6.66699 38.666 -17.334 57.999 -32.001c17.333 -16.667 33 -38.667 47 -66c24.667 -56 43.667 -120 57 -192c14 -75.333 23.667 -152.666 29 -231.999c4 -79.333 6 -157 6 -233c0 -78 -0.666992 -139 -2 -183c-2.66699 -43.333 -5.33398 -75.333 -8.00098 -96
c0 -47.333 -14.333 -80 -43 -98c-30 -19.333 -55.333 -30.333 -76 -33l-727 -6c-28.667 0 -52.667 6 -72 18c-18.667 12.667 -29.667 36.667 -33 72c3.33301 94 8.33301 190.333 15 289c5.33301 96.667 11.333 168.334 18 215.001c5.33301 45.333 12.333 83 21 113
c6.66699 16 16 29.667 28 41c12.667 10.667 23.667 18 33 22l15 6c36.667 5.33301 124.667 17 264 35c138 16.667 216.333 25 235 25c20.667 0 31 9.33301 31 28c0 19.333 -10.333 46.666 -31 81.999c-4 6.66699 -32 13.667 -84 21c-52 8 -117.333 15.333 -196 22l-189 19
c-43.333 4 -67 7.33301 -71 10c0 13.333 5.33301 33.666 16 60.999c9.33301 26 20.333 52 33 78c2.66699 4 7.33398 9.5 14.001 16.5s15 10.5 25 10.5c16 1.33301 40.333 2.66602 73 3.99902c34.667 1.33301 85.334 2 152.001 2c121.333 0 221 -4.66699 299 -14z
M863.999 1542c-88.667 -1.33301 -178.667 -24.332 -270 -68.999c-92.667 -45.333 -170.667 -91.333 -234 -138c-8 -5.33301 -14 -8 -18 -8s-6 7 -6 21l10 102c0 12 3.83301 22.167 11.5 30.5s14.167 13.166 19.5 14.499l229 123l242 12c16 -8 30.333 -29.667 43 -65
c0 -4 -2 -9 -6 -15c-4 -5.33301 -11 -8 -21 -8z" />
    <glyph glyph-name="agrave" unicode="&#xe0;" horiz-adv-x="1157" 
d="M362 555c-6.66699 0 -15.335 -18.333 -26.002 -55c-11.333 -38.667 -19.666 -122 -24.999 -250c0 -27.333 14.333 -41 43 -41c190 0 322.667 1.33301 398 4c52.667 2.66699 79 35.334 79 98.001l-12 162c-2.66699 35.333 -4.66699 68.666 -6 99.999
c-1.33301 32 -2.66602 55.333 -3.99902 70c-200.667 -8 -321.667 -19 -363 -33c-13.333 -4 -31 -10.667 -53 -20c-20.667 -10 -31 -21.667 -31 -35zM806.999 1176c0 2.66699 4.66699 4.00195 14 4.00195c14 0 30.333 -3 49 -9
c19.333 -6.66699 38.666 -17.334 57.999 -32.001c17.333 -16.667 33 -38.667 47 -66c24.667 -56 43.667 -120 57 -192c14 -75.333 23.667 -152.666 29 -231.999c4 -79.333 6 -157 6 -233c0 -78 -0.666992 -139 -2 -183c-2.66699 -43.333 -5.33398 -75.333 -8.00098 -96
c0 -47.333 -14.333 -80 -43 -98c-30 -19.333 -55.333 -30.333 -76 -33l-727 -6c-28.667 0 -52.667 6 -72 18c-18.667 12.667 -29.667 36.667 -33 72c3.33301 94 8.33301 190.333 15 289c5.33301 96.667 11.333 168.334 18 215.001c5.33301 45.333 12.333 83 21 113
c6.66699 16 16 29.667 28 41c12.667 10.667 23.667 18 33 22l15 6c36.667 5.33301 124.667 17 264 35c138 16.667 216.333 25 235 25c20.667 0 31 9.33301 31 28c0 19.333 -10.333 46.666 -31 81.999c-4 6.66699 -32 13.667 -84 21c-52 8 -117.333 15.333 -196 22l-189 19
c-43.333 4 -67 7.33301 -71 10c0 13.333 5.33301 33.666 16 60.999c9.33301 26 20.333 52 33 78c2.66699 4 7.33398 9.5 14.001 16.5s15 10.5 25 10.5c16 1.33301 40.333 2.66602 73 3.99902c34.667 1.33301 85.334 2 152.001 2c121.333 0 221 -4.66699 299 -14z
M310.999 1548c-6.66699 5.33301 -12.666 9.66602 -17.999 12.999c-6.66699 4 -11.334 6.66699 -14.001 8h-7c15.333 36.667 29 58.334 41 65.001l244 -4l213 -139c12 -4 27.667 -11.667 47 -23c18 -10.667 27 -22 27 -34l-15 -82c1.33301 0 2 -0.666992 2 -2s-4 -2 -12 -2
c-110.667 18.667 -207 43.667 -289 75c-80 31.333 -153 73 -219 125z" />
    <glyph glyph-name="acircumflex" unicode="&#xe2;" horiz-adv-x="1157" 
d="M362 555c-6.66699 0 -15.335 -18.333 -26.002 -55c-11.333 -38.667 -19.666 -122 -24.999 -250c0 -27.333 14.333 -41 43 -41c190 0 322.667 1.33301 398 4c52.667 2.66699 79 35.334 79 98.001l-12 162c-2.66699 35.333 -4.66699 68.666 -6 99.999
c-1.33301 32 -2.66602 55.333 -3.99902 70c-200.667 -8 -321.667 -19 -363 -33c-13.333 -4 -31 -10.667 -53 -20c-20.667 -10 -31 -21.667 -31 -35zM806.999 1176c0 2.66699 4.66699 4.00195 14 4.00195c14 0 30.333 -3 49 -9
c19.333 -6.66699 38.666 -17.334 57.999 -32.001c17.333 -16.667 33 -38.667 47 -66c24.667 -56 43.667 -120 57 -192c14 -75.333 23.667 -152.666 29 -231.999c4 -79.333 6 -157 6 -233c0 -78 -0.666992 -139 -2 -183c-2.66699 -43.333 -5.33398 -75.333 -8.00098 -96
c0 -47.333 -14.333 -80 -43 -98c-30 -19.333 -55.333 -30.333 -76 -33l-727 -6c-28.667 0 -52.667 6 -72 18c-18.667 12.667 -29.667 36.667 -33 72c3.33301 94 8.33301 190.333 15 289c5.33301 96.667 11.333 168.334 18 215.001c5.33301 45.333 12.333 83 21 113
c6.66699 16 16 29.667 28 41c12.667 10.667 23.667 18 33 22l15 6c36.667 5.33301 124.667 17 264 35c138 16.667 216.333 25 235 25c20.667 0 31 9.33301 31 28c0 19.333 -10.333 46.666 -31 81.999c-4 6.66699 -32 13.667 -84 21c-52 8 -117.333 15.333 -196 22l-189 19
c-43.333 4 -67 7.33301 -71 10c0 13.333 5.33301 33.666 16 60.999c9.33301 26 20.333 52 33 78c2.66699 4 7.33398 9.5 14.001 16.5s15 10.5 25 10.5c16 1.33301 40.333 2.66602 73 3.99902c34.667 1.33301 85.334 2 152.001 2c121.333 0 221 -4.66699 299 -14z
M908.999 1350l-311 96l-254 -88c-14.667 0 -22 11.667 -22 35c0 9.33301 0.666992 19.333 2 30l2 17c27.333 28.667 56 56.667 86 84l69 65l123 41l70 -43c31.333 -16 60 -31.667 86 -47l64.5 -37.5c18.333 -10.333 36.5 -21.833 54.5 -34.5
c4 -2.66699 17.667 -19.667 41 -51c6.66699 0 10 -13 10 -39c0 -18.667 -7 -28 -21 -28z" />
    <glyph glyph-name="adieresis" unicode="&#xe4;" horiz-adv-x="1157" 
d="M362 555c-6.66699 0 -15.335 -18.333 -26.002 -55c-11.333 -38.667 -19.666 -122 -24.999 -250c0 -27.333 14.333 -41 43 -41c190 0 322.667 1.33301 398 4c52.667 2.66699 79 35.334 79 98.001l-12 162c-2.66699 35.333 -4.66699 68.666 -6 99.999
c-1.33301 32 -2.66602 55.333 -3.99902 70c-200.667 -8 -321.667 -19 -363 -33c-13.333 -4 -31 -10.667 -53 -20c-20.667 -10 -31 -21.667 -31 -35zM806.999 1176c0 2.66699 4.66699 4.00195 14 4.00195c14 0 30.333 -3 49 -9
c19.333 -6.66699 38.666 -17.334 57.999 -32.001c17.333 -16.667 33 -38.667 47 -66c24.667 -56 43.667 -120 57 -192c14 -75.333 23.667 -152.666 29 -231.999c4 -79.333 6 -157 6 -233c0 -78 -0.666992 -139 -2 -183c-2.66699 -43.333 -5.33398 -75.333 -8.00098 -96
c0 -47.333 -14.333 -80 -43 -98c-30 -19.333 -55.333 -30.333 -76 -33l-727 -6c-28.667 0 -52.667 6 -72 18c-18.667 12.667 -29.667 36.667 -33 72c3.33301 94 8.33301 190.333 15 289c5.33301 96.667 11.333 168.334 18 215.001c5.33301 45.333 12.333 83 21 113
c6.66699 16 16 29.667 28 41c12.667 10.667 23.667 18 33 22l15 6c36.667 5.33301 124.667 17 264 35c138 16.667 216.333 25 235 25c20.667 0 31 9.33301 31 28c0 19.333 -10.333 46.666 -31 81.999c-4 6.66699 -32 13.667 -84 21c-52 8 -117.333 15.333 -196 22l-189 19
c-43.333 4 -67 7.33301 -71 10c0 13.333 5.33301 33.666 16 60.999c9.33301 26 20.333 52 33 78c2.66699 4 7.33398 9.5 14.001 16.5s15 10.5 25 10.5c16 1.33301 40.333 2.66602 73 3.99902c34.667 1.33301 85.334 2 152.001 2c121.333 0 221 -4.66699 299 -14z
M366.999 1346c-6 0 -9 47.667 -9 143c0 82 6.33301 123 19 123c17.333 0 53.333 2.66699 108 8c54.667 4 87 6.66699 97 8c0 -22 -9.66699 -78 -29 -168l-29 -133zM663.999 1346c-6 0 -9 47.667 -9 143c0 82 6.33301 123 19 123c17.333 0 53.333 2.66699 108 8
c54.667 4 87 6.66699 97 8c0 -22 -9.66699 -78 -29 -168l-29 -133z" />
    <glyph glyph-name="atilde" unicode="&#xe3;" horiz-adv-x="1116" 
d="M342 555c-6.66699 0 -15.666 -20.334 -26.999 -61.001c-12 -40 -20 -121.333 -24 -244c0 -27.333 14.333 -41 43 -41c189.333 0 321.666 1.33301 396.999 4c53.333 2.66699 80 35.334 80 98.001l-14 195c-4 56 -7 101.667 -9 137c-120 -4 -203.667 -8 -251 -12
c-49.333 -5.33301 -86.333 -12.333 -111 -21c-13.333 -4 -30.333 -10.667 -51 -20c-22 -10 -33 -21.667 -33 -35zM786.001 1176c0 2.66699 5.00098 4.00098 15.001 4.00098c13.333 0 30.333 -3 51 -9c18 -6.66699 36.333 -17.334 55 -32.001
c18 -16.667 33.667 -38.667 47 -66c23.333 -53.333 42 -116.666 56 -189.999c13.333 -75.333 22.666 -152.666 27.999 -231.999c6 -80.667 9 -159 9 -235c0 -67.333 -1.66699 -125.333 -5 -174c-2.66699 -49.333 -4.66699 -84.333 -6 -105
c0 -49.333 -15 -82.666 -45 -99.999c-28.667 -18 -53 -28.333 -73 -31l-728 -6c-30 0 -53.667 6 -71 18c-19.333 12.667 -30.333 36.667 -33 72c5.33301 172 13 308 23 408c9.33301 98 19.333 167.667 30 209c10 17.333 20.333 31.666 31 42.999
c9.33301 9.33301 19.666 16 30.999 20l14 6c44 6.66699 133.333 18.334 268 35.001c135.333 16.667 212.666 25 231.999 25c20 0 30 9.33301 30 28c0 19.333 -10 46.666 -30 81.999c-2.66699 6.66699 -30.667 13.667 -84 21c-53.333 8 -119.666 15.333 -198.999 22
l-186.5 18.5c-45 4.33301 -68.833 7.83301 -71.5 10.5c0 13.333 6.33301 35.666 19 66.999c12 32 22 56 30 72c2.66699 4 7.5 9.5 14.5 16.5s15.167 10.5 24.5 10.5c16.667 1.33301 41.334 2.66602 74.001 3.99902s83 2 151 2c122 0 221.667 -4.66699 299 -14zM887.002 1466
c-25.333 -25.333 -44.333 -42.998 -57 -52.998s-34.334 -23 -65.001 -39c-23.333 -13.333 -47.333 -20 -72 -20c-14.667 0 -27.334 2.66699 -38.001 8c-19.333 9.33301 -43.166 22.166 -71.499 38.499s-53.833 30 -76.5 41s-46.334 19.167 -71.001 24.5
c-28.667 0 -64 -25 -106 -75c-2.66699 -2 -6.33398 -3 -11.001 -3c-11.333 0 -21.666 4 -30.999 12l-61 62c0 25.333 4.66699 41.666 14 48.999c38.667 37.333 67.334 62.833 86.001 76.5s39.667 20.5 63 20.5c3.33301 0 9.66602 -0.666992 18.999 -2
c44.667 0 102.334 -17.667 173.001 -53c52.667 -26.667 80 -40.334 82 -41.001c12.667 -7.33301 23.334 -11 32.001 -11c5.33301 0 14 3 26 9c18.667 6.66699 43.167 22.334 73.5 47.001s50.5 37 60.5 37c10 -7.33301 24 -22.333 42 -45z" />
    <glyph glyph-name="aring" unicode="&#xe5;" horiz-adv-x="1116" 
d="M342 555c-6.66699 0 -15.666 -20.334 -26.999 -61.001c-12 -40 -20 -121.333 -24 -244c0 -27.333 14.333 -41 43 -41c189.333 0 321.666 1.33301 396.999 4c53.333 2.66699 80 35.334 80 98.001l-14 195c-4 56 -7 101.667 -9 137c-120 -4 -203.667 -8 -251 -12
c-49.333 -5.33301 -86.333 -12.333 -111 -21c-13.333 -4 -30.333 -10.667 -51 -20c-22 -10 -33 -21.667 -33 -35zM786.001 1176c0 2.66699 5.00098 4.00098 15.001 4.00098c13.333 0 30.333 -3 51 -9c18 -6.66699 36.333 -17.334 55 -32.001
c18 -16.667 33.667 -38.667 47 -66c23.333 -53.333 42 -116.666 56 -189.999c13.333 -75.333 22.666 -152.666 27.999 -231.999c6 -80.667 9 -159 9 -235c0 -67.333 -1.66699 -125.333 -5 -174c-2.66699 -49.333 -4.66699 -84.333 -6 -105
c0 -49.333 -15 -82.666 -45 -99.999c-28.667 -18 -53 -28.333 -73 -31l-728 -6c-30 0 -53.667 6 -71 18c-19.333 12.667 -30.333 36.667 -33 72c5.33301 172 13 308 23 408c9.33301 98 19.333 167.667 30 209c10 17.333 20.333 31.666 31 42.999
c9.33301 9.33301 19.666 16 30.999 20l14 6c44 6.66699 133.333 18.334 268 35.001c135.333 16.667 212.666 25 231.999 25c20 0 30 9.33301 30 28c0 19.333 -10 46.666 -30 81.999c-2.66699 6.66699 -30.667 13.667 -84 21c-53.333 8 -119.666 15.333 -198.999 22
l-186.5 18.5c-45 4.33301 -68.833 7.83301 -71.5 10.5c0 13.333 6.33301 35.666 19 66.999c12 32 22 56 30 72c2.66699 4 7.5 9.5 14.5 16.5s15.167 10.5 24.5 10.5c16.667 1.33301 41.334 2.66602 74.001 3.99902s83 2 151 2c122 0 221.667 -4.66699 299 -14zM715.002 1605
c19.333 -5.33301 28.999 -41.667 28.999 -109c0 -31.333 -2 -60.666 -6 -87.999c-3.33301 -26.667 -7.5 -46.5 -12.5 -59.5s-14.5 -21.833 -28.5 -26.5c-43.333 -9.33301 -86.333 -14 -129 -14c-89.333 0 -140 10 -152 30c-16 64.667 -24.667 122 -26 172
c0 34 2.66699 58 8 72c2 5.33301 5 11.166 9 17.499s17.833 11.833 41.5 16.5s64.834 7 123.501 7c61.333 0 109 -6 143 -18zM654.001 1473c0 36.667 -10.333 57.333 -31 62c-18.667 5.33301 -37.667 8 -57 8c-31.333 0 -52.833 -5 -64.5 -15s-17.5 -31.667 -17.5 -65
c0 -24 5.66699 -42.667 17 -56s36.333 -20 75 -20c34 0 55.5 6.83301 64.5 20.5s13.5 35.5 13.5 65.5z" />
    <glyph glyph-name="ccedilla" unicode="&#xe7;" horiz-adv-x="1065" 
d="M565 2l-270.004 -1.99512c-53.333 0 -90.333 20.333 -111 61c-21.333 41.333 -33.666 75.666 -36.999 102.999c-8 26 -14.667 69 -20 129s-10.666 144.667 -15.999 254c-4.66699 109.333 -7.66699 214.333 -9 315v41c-1.33301 11.333 -2 22.333 -2 33
c0 46.667 12.333 92.334 37 137.001c1.33301 24.667 17.666 43 48.999 55c30 14 55.333 22.333 76 25c12.667 0 53.667 2.66699 123 8l190 15c56 2.66699 112.667 4 170 4c36 0 62 -0.666992 78 -2c4 1.33301 12.333 2.66602 25 3.99902h39c10.667 0 29.667 -1.33301 57 -4
c2.66699 0 5.33398 -0.666992 8.00098 -2c4 0 8.33301 -2.33301 13 -7c2.66699 -2.66699 4 -7.33398 4 -14.001c0 -4 -2 -11.333 -6 -22c-24.667 -80.667 -39.667 -126.667 -45 -138c-2 -4 -5.66699 -8.66699 -11 -14c-6.66699 -5.33301 -15.334 -8 -26.001 -8
c-10 0 -17.667 1.33301 -23 4c-49.333 5.33301 -98.333 8 -147 8c-75.333 0 -137 -5.33301 -185 -16c-46 -11.333 -77.333 -20.333 -94 -27c-14.667 -13.333 -33.667 -36.833 -57 -70.5s-35 -68.834 -35 -105.501c0 -18 0.666992 -31 2 -39l59 -463
c24.667 -8 79.334 -19 164.001 -33c83.333 -12 199.333 -18 348 -18h62c26 0 39 -6.66699 39 -20c0 -2 -1.33301 -8.33301 -4 -19c-1.33301 -45.333 -11.666 -93 -30.999 -143c0 -4 -2 -9.66699 -6 -17c-4 -6.66699 -13 -10 -27 -10h-139
c-1.33301 -40.667 -11.666 -89.667 -30.999 -147c-20.667 -58.667 -37 -103 -49 -133c-9.33301 -12.667 -18.333 -22.334 -27 -29.001c-8 -6.66699 -23 -14.334 -45 -23.001c-22.667 -6.66699 -54.667 -10 -96 -10c-27.333 0 -57.333 2 -90 6
c-31.333 5.33301 -50.333 8 -57 8c-18 0 -31 5.66699 -39 17c-8.66699 9.33301 -13.667 17.333 -15 24l-24 117c-2.66699 0 -4 7 -4 21c0 14.667 11.667 22 35 22c69.333 0 118.333 3.33301 147 10c30 12.667 47.667 51 53 115z" />
    <glyph glyph-name="eacute" unicode="&#xe9;" horiz-adv-x="1188" 
d="M397 602c11.333 -1.33301 29.999 -2 55.999 -2c88.667 0 177.334 8.33301 266.001 25c90 14.667 144 35.667 162 63c27.333 38 41 79 41 123c0 49.333 -19.333 102.666 -58 159.999c-8 10.667 -20.5 19.834 -37.5 27.501s-30.5 12.167 -40.5 13.5
c-174.667 0 -294.667 -27.333 -360 -82c-66.667 -56 -100 -123 -100 -201c0 -20.667 2.66699 -43 8 -67c1.33301 -10 5.33301 -22.333 12 -37c8 -15.333 25 -23 51 -23zM1112 152c-10.667 -104 -37.334 -156 -80.001 -156l-725 4c-1.33301 -0 -4 -0.666992 -8 -2
s-9.33301 -2 -16 -2c-24.667 0 -49.334 13 -74.001 39c-26 26 -49.333 78.667 -70 158c-18.667 78.667 -28 190.334 -28 335.001v74c1.33301 34 2.66602 75.667 3.99902 125l4 158c1.33301 54.667 2.66602 94.334 3.99902 119.001v49c0 31.333 6 52.333 18 63
c12.667 11.333 23 17.666 31 18.999c44 20 101.333 35 172 45c49.333 6.66699 99.833 11.334 151.5 14.001s109.834 4 174.501 4c91.333 0 169 -3.33301 233 -10c64 -8 101.667 -17.667 113 -29c18.667 -17.333 36.334 -53.333 53.001 -108s30.334 -116.334 41.001 -185.001
c9.33301 -68 14 -132.667 14 -194c0 -71.333 -7.33301 -118 -22 -140c-15.333 -24 -66 -43.667 -152 -59c-86 -14.667 -176 -26.334 -270 -35.001c-94 -8 -182 -13.333 -264 -16c-42.667 0 -64 -8.33301 -64 -25c0 -8 4.33301 -17.333 13 -28
c6.66699 -41.333 37.334 -78.333 92.001 -111c53.333 -31.333 140 -49 260 -53l360 -10c14 0 23.667 -2.33301 29 -7c4 -5.33301 6 -17.333 6 -36zM802.999 1522c-64 0 -131.667 -12.334 -203 -37.001c-69.333 -24.667 -133.333 -52.667 -192 -84
c-60.667 -31.333 -108 -60 -142 -86c-2.66699 -4 -6 -6 -10 -6c-8 0 -12.667 5.33301 -14 16c-2.66699 10.667 -4 19.667 -4 27l10 102c0 12.667 4 23 12 31c6.66699 6.66699 13 11.334 19 14.001l229 123l274 12c16.667 -8 31 -29.667 43 -65
c0 -31.333 -7.33301 -47 -22 -47z" />
    <glyph glyph-name="egrave" unicode="&#xe8;" horiz-adv-x="1188" 
d="M397 602c11.333 -1.33301 29.999 -2 55.999 -2c88.667 0 177.334 8.33301 266.001 25c90 14.667 144 35.667 162 63c27.333 38 41 79 41 123c0 49.333 -19.333 102.666 -58 159.999c-8 10.667 -20.5 19.834 -37.5 27.501s-30.5 12.167 -40.5 13.5
c-174.667 0 -294.667 -27.333 -360 -82c-66.667 -56 -100 -123 -100 -201c0 -20.667 2.66699 -43 8 -67c1.33301 -10 5.33301 -22.333 12 -37c8 -15.333 25 -23 51 -23zM1112 152c-10.667 -104 -37.334 -156 -80.001 -156l-725 4c-1.33301 -0 -4 -0.666992 -8 -2
s-9.33301 -2 -16 -2c-24.667 0 -49.334 13 -74.001 39c-26 26 -49.333 78.667 -70 158c-18.667 78.667 -28 190.334 -28 335.001v74c1.33301 34 2.66602 75.667 3.99902 125l4 158c1.33301 54.667 2.66602 94.334 3.99902 119.001v49c0 31.333 6 52.333 18 63
c12.667 11.333 23 17.666 31 18.999c44 20 101.333 35 172 45c49.333 6.66699 99.833 11.334 151.5 14.001s109.834 4 174.501 4c91.333 0 169 -3.33301 233 -10c64 -8 101.667 -17.667 113 -29c18.667 -17.333 36.334 -53.333 53.001 -108s30.334 -116.334 41.001 -185.001
c9.33301 -68 14 -132.667 14 -194c0 -71.333 -7.33301 -118 -22 -140c-15.333 -24 -66 -43.667 -152 -59c-86 -14.667 -176 -26.334 -270 -35.001c-94 -8 -182 -13.333 -264 -16c-42.667 0 -64 -8.33301 -64 -25c0 -8 4.33301 -17.333 13 -28
c6.66699 -41.333 37.334 -78.333 92.001 -111c53.333 -31.333 140 -49 260 -53l360 -10c14 0 23.667 -2.33301 29 -7c4 -5.33301 6 -17.333 6 -36zM310.999 1548c-6.66699 5.33301 -12.666 9.66602 -17.999 12.999c-6.66699 4 -11.334 6.66699 -14.001 8h-7
c15.333 36.667 29 58.334 41 65.001l244 -4l213 -139c12 -4 27.667 -11.667 47 -23c18 -10.667 27 -22 27 -34l-15 -82c1.33301 0 2 -0.666992 2 -2s-4 -2 -12 -2c-110.667 18.667 -207 43.667 -289 75c-80 31.333 -153 73 -219 125z" />
    <glyph glyph-name="ecircumflex" unicode="&#xea;" horiz-adv-x="1188" 
d="M397 602c11.333 -1.33301 29.999 -2 55.999 -2c88.667 0 177.334 8.33301 266.001 25c90 14.667 144 35.667 162 63c27.333 38 41 79 41 123c0 49.333 -19.333 102.666 -58 159.999c-8 10.667 -20.5 19.834 -37.5 27.501s-30.5 12.167 -40.5 13.5
c-174.667 0 -294.667 -27.333 -360 -82c-66.667 -56 -100 -123 -100 -201c0 -20.667 2.66699 -43 8 -67c1.33301 -10 5.33301 -22.333 12 -37c8 -15.333 25 -23 51 -23zM1112 152c-10.667 -104 -37.334 -156 -80.001 -156l-725 4c-1.33301 -0 -4 -0.666992 -8 -2
s-9.33301 -2 -16 -2c-24.667 0 -49.334 13 -74.001 39c-26 26 -49.333 78.667 -70 158c-18.667 78.667 -28 190.334 -28 335.001v74c1.33301 34 2.66602 75.667 3.99902 125l4 158c1.33301 54.667 2.66602 94.334 3.99902 119.001v49c0 31.333 6 52.333 18 63
c12.667 11.333 23 17.666 31 18.999c44 20 101.333 35 172 45c49.333 6.66699 99.833 11.334 151.5 14.001s109.834 4 174.501 4c91.333 0 169 -3.33301 233 -10c64 -8 101.667 -17.667 113 -29c18.667 -17.333 36.334 -53.333 53.001 -108s30.334 -116.334 41.001 -185.001
c9.33301 -68 14 -132.667 14 -194c0 -71.333 -7.33301 -118 -22 -140c-15.333 -24 -66 -43.667 -152 -59c-86 -14.667 -176 -26.334 -270 -35.001c-94 -8 -182 -13.333 -264 -16c-42.667 0 -64 -8.33301 -64 -25c0 -8 4.33301 -17.333 13 -28
c6.66699 -41.333 37.334 -78.333 92.001 -111c53.333 -31.333 140 -49 260 -53l360 -10c14 0 23.667 -2.33301 29 -7c4 -5.33301 6 -17.333 6 -36zM908.999 1350l-311 96l-254 -88c-14.667 0 -22 11.667 -22 35c0 9.33301 0.666992 19.333 2 30l2 17
c27.333 28.667 56 56.667 86 84l69 65l123 41l70 -43c31.333 -16 60 -31.667 86 -47l64.5 -37.5c18.333 -10.333 36.5 -21.833 54.5 -34.5c4 -2.66699 17.667 -19.667 41 -51c6.66699 0 10 -13 10 -39c0 -18.667 -7 -28 -21 -28z" />
    <glyph glyph-name="edieresis" unicode="&#xeb;" horiz-adv-x="1239" 
d="M397 602c11.333 -1.33301 29.999 -2 55.999 -2c88.667 0 177.334 8.33301 266.001 25c90 14.667 144 35.667 162 63c27.333 38 41 79 41 123c0 49.333 -19.333 102.666 -58 159.999c-8 10.667 -20.5 19.834 -37.5 27.501s-30.5 12.167 -40.5 13.5
c-174.667 0 -294.667 -27.333 -360 -82c-66.667 -56 -100 -123 -100 -201c0 -20.667 2.66699 -43 8 -67c1.33301 -10 5.33301 -22.333 12 -37c8 -15.333 25 -23 51 -23zM1112 152c-10.667 -104 -37.334 -156 -80.001 -156l-725 4c-1.33301 -0 -4 -0.666992 -8 -2
s-9.33301 -2 -16 -2c-24.667 0 -49.334 13 -74.001 39c-26 26 -49.333 78.667 -70 158c-18.667 78.667 -28 190.334 -28 335.001v74c1.33301 34 2.66602 75.667 3.99902 125l4 158c1.33301 54.667 2.66602 94.334 3.99902 119.001v49c0 31.333 6 52.333 18 63
c12.667 11.333 23 17.666 31 18.999c44 20 101.333 35 172 45c49.333 6.66699 99.833 11.334 151.5 14.001s109.834 4 174.501 4c91.333 0 169 -3.33301 233 -10c64 -8 101.667 -17.667 113 -29c18.667 -17.333 36.334 -53.333 53.001 -108s30.334 -116.334 41.001 -185.001
c9.33301 -68 14 -132.667 14 -194c0 -71.333 -7.33301 -118 -22 -140c-15.333 -24 -66 -43.667 -152 -59c-86 -14.667 -176 -26.334 -270 -35.001c-94 -8 -182 -13.333 -264 -16c-42.667 0 -64 -8.33301 -64 -25c0 -8 4.33301 -17.333 13 -28
c6.66699 -41.333 37.334 -78.333 92.001 -111c53.333 -31.333 140 -49 260 -53l360 -10c14 0 23.667 -2.33301 29 -7c4 -5.33301 6 -17.333 6 -36zM366.999 1346c-6 0 -9 47.667 -9 143c0 82 6.33301 123 19 123c17.333 0 53.333 2.66699 108 8c54.667 4 87 6.66699 97 8
c0 -22 -9.66699 -78 -29 -168l-29 -133zM663.999 1346c-6 0 -9 47.667 -9 143c0 82 6.33301 123 19 123c17.333 0 53.333 2.66699 108 8c54.667 4 87 6.66699 97 8c0 -22 -9.66699 -78 -29 -168l-29 -133z" />
    <glyph glyph-name="iacute" unicode="&#xed;" horiz-adv-x="532" 
d="M455 1505c-45.333 0 -88.333 -7.33301 -129 -22c-41.333 -16.667 -75.666 -35.334 -102.999 -56.001c-28.667 -20 -58.667 -44.333 -90 -73c-31.333 -30 -52.333 -48.667 -63 -56c-2.66699 -2.66699 -6.33398 -4 -11.001 -4c-9.33301 0 -14 20.667 -14 62l10 102
c0 12.667 4.33301 23 13 31c6.66699 6.66699 12.667 11.334 18 14.001l193 123l159 12c16.667 -8 31 -29.667 43 -65c0 -11.333 -1.33301 -25 -4 -41c-4 -18 -11.333 -27 -22 -27zM383 1241c-5.33301 -134 -8.66699 -224.668 -10 -272.001
c-1.33301 -49.333 -5 -158.666 -11 -327.999c-5.33301 -169.333 -9.33301 -306 -12 -410c-4 -104.667 -6 -162 -6 -172c0 -17.333 -2.66699 -31 -8 -41c-5.33301 -9.33301 -17 -14 -35 -14l-131 -4c-24.667 0 -37 19.667 -37 59v1061c0 23.333 5.66699 41.333 17 54
c12 10.667 21.333 16.667 28 18l74 33c26 10.667 47 20 63 28c16.667 8.66699 31 17.667 43 27c19.333 0 29 -6 29 -18c0 -3.33301 -1.33301 -10.333 -4 -21z" />
    <glyph glyph-name="igrave" unicode="&#xec;" horiz-adv-x="532" 
d="M115 1237c2.66699 10.667 14.3301 16 34.9971 16c26.667 0 57.334 -6 92.001 -18c34 -14 59.667 -32.333 77 -55c33.333 -41.333 50 -153.333 50 -336v-113c-1.33301 -49.333 -2.66602 -103.333 -3.99902 -162c-3.33301 -60 -7 -150.667 -11 -272
c-5.33301 -122.667 -8.66602 -202 -9.99902 -238c0 -17.333 -2.66699 -31 -8 -41c-5.33301 -9.33301 -17 -14 -35 -14l-131 -4c-24.667 0 -37 19.667 -37 59v1012c0 28.667 -2 58.667 -6 90c-4 32.667 -8 58 -12 76zM439.996 1415
c-9.33301 -6.66699 -18.665 -14 -27.998 -22c-10 -10 -19 -17.667 -27 -23c-9.33301 -5.33301 -17.666 -8.66602 -24.999 -9.99902c-52.667 0 -91.334 9.66699 -116.001 29c-76.667 43.333 -135.334 93 -176.001 149c-14 18 -21 29 -21 33c0 10.667 30 27.667 90 51
c15.333 4 30.333 6 45 6c34 0 62.667 -13.667 86 -41c12.667 -12 25.667 -23.667 39 -35l37 -28c12 -8.66699 29 -19.834 51 -33.501s33.667 -20.5 35 -20.5c5.33301 -1.33301 12.166 -4 20.499 -8s12.5 -10 12.5 -18c0 -9.33301 -7.66699 -19 -23 -29z" />
    <glyph glyph-name="icircumflex" unicode="&#xee;" horiz-adv-x="512" 
d="M156 0c-12.667 4 -21 13.001 -25 27.001c-2.66699 13.333 -4 33.666 -4 60.999l16 940c0 14 1.33301 35.333 4 64c3.33301 27.333 5.66602 45.666 6.99902 54.999c30 20.667 55.667 35 77 43c22 6.66699 48 13.334 78 20.001c30 7.33301 50 15 60 23
c2.66699 2.66699 6 6.66699 10 12s7.33301 8 10 8c5.33301 0 8 -7.33301 8 -22c0 -1.33301 -1.33301 -14.333 -4 -39c-4 -68 -9.33301 -220.333 -16 -457l-23 -674c0 -20 -4.66699 -34.5 -14 -43.5s-17 -14.167 -23 -15.5h-79c-27.333 -1.33301 -54.666 -2 -81.999 -2z
M440 1372l-227 66.001l-135 -70c-6.66699 0 -10 2 -10 6c0 8 3.33301 21.667 10 41c5.33301 20.667 10 33.667 14 39c24.667 24.667 41.667 46 51 64c11.333 17.333 18.333 30 21 38l123 74c16 -10.667 28.833 -27 38.5 -49s18.5 -43 26.5 -63c10 -22 22.333 -38.667 37 -50
c5.33301 -2.66699 19 -19.667 41 -51c-4 -1.33301 -8.66699 -4 -14 -8c-6.66699 -4 -10 -8.66699 -10 -14c0 -8.66699 11.333 -16.334 34 -23.001z" />
    <glyph glyph-name="idieresis" unicode="&#xef;" horiz-adv-x="461" 
d="M168 1167l179.997 67.998c11.333 0 18.333 -2 21 -6s4 -15.667 4 -35c-2.66699 -68 -5.33398 -143 -8.00098 -225c-3.33301 -82 -7.66602 -199.667 -12.999 -353c-5.33301 -151.333 -8.66602 -259.666 -9.99902 -324.999c-2.66699 -67.333 -5.33398 -144 -8.00098 -230
c0 -20 -5 -34.333 -15 -43c-9.33301 -9.33301 -16.666 -14.666 -21.999 -15.999h-80c-27.333 -1.33301 -54.666 -2 -81.999 -2c-12 4 -19.333 13 -22 27c-4.66699 13.333 -7 33.666 -7 60.999l17 1004c0 24 5.33301 42.333 16 55c12.667 10.667 22.334 17.334 29.001 20.001
zM-9.00293 1346c-6 0 -9 47.667 -9 143c0 82 6.33301 123 19 123c17.333 0 53.333 2.66699 108 8c54.667 4 87 6.66699 97 8c0 -22 -9.66699 -78 -29 -168l-29 -133zM287.997 1346c-6 0 -9 47.667 -9 143c0 82 6.33301 123 19 123c17.333 0 53.333 2.66699 108 8
c54.667 4 87 6.66699 97 8c0 -22 -9.66699 -78 -29 -168l-29 -133z" />
    <glyph glyph-name="ntilde" unicode="&#xf1;" horiz-adv-x="1126" 
d="M283 1188h202l426 -29c12.667 -1.33301 21.667 -10 27 -26c6.66699 -18 10.667 -33.333 12 -46l62 -620l12 -438c0 -12.667 -2.66699 -21 -8 -25c-5.33301 -2.66699 -10.333 -4 -15 -4h-133c-8 0 -13.333 2.66699 -16 8c-4 5.33301 -6 10.333 -6 15l-139 849
c0 12.667 -1.83301 21 -5.5 25s-6.83398 6 -9.50098 6l-264 43c-19.333 0 -29 -5.33301 -29 -16l-49 -316l-39 -577c-1.33301 -6.66699 -4.66602 -13.667 -9.99902 -21c-5.33301 -6.66699 -10 -11.334 -14 -14.001c-20.667 0 -68 -2 -142 -6
c-2.66699 1.33301 -6 2.66602 -10 3.99902s-6 3.33301 -6 6c-1.33301 1.33301 -2 7 -2 17l2 743l10 362c2.66699 8.66699 9 18.334 19 29.001c8 12.667 16.667 19.667 26 21c7.33301 2.66699 19 5.33398 35 8.00098c16.667 1.33301 38 2 64 2zM890 1482
c-26.667 -24 -47.502 -41.4971 -62.502 -52.4971s-39.167 -24.167 -72.5 -39.5c-26.667 -13.333 -53.667 -20 -81 -20c-16 0 -30 2.66699 -42 8c-25.333 11.333 -52.666 24.666 -81.999 39.999s-56.5 28.5 -81.5 39.5s-51.5 19.167 -79.5 24.5c-32.667 0 -72 -25 -118 -75
c-2.66699 -2 -6.66699 -3 -12 -3c-12.667 0 -24 4 -34 12l-68 62c0 26 5 42.333 15 49c42 36.667 73.5 62 94.5 76s44.5 21 70.5 21c5.33301 0 12.666 -0.666992 21.999 -2c50 0 114 -17.667 192 -53c58.667 -26.667 89.334 -40.334 92.001 -41.001
c14.667 -7.33301 26.334 -11 35.001 -11c6 0 15.667 3 29 9c13.333 4.66699 28.333 12.5 45 23.5l47 32c14.667 10.333 26 17.666 34 21.999s15.667 6.5 23 6.5c11.333 -7.33301 27 -22.333 47 -45z" />
    <glyph glyph-name="oacute" unicode="&#xf3;" 
d="M358 739l75.999 -463.003c0 -9.33301 2 -14 6 -14c2.66699 0 6.33398 2 11.001 6c4 2.66699 6.66699 5.33398 8 8.00098l264 -43c12 0 25 4.33301 39 13c12 6.66699 18 13.334 18 20.001l49 309l-2 367c-16 16.667 -38.333 29 -67 37c-27.333 8 -59.333 12 -96 12
c-40 0 -79.667 -4 -119 -12c-41.333 -8 -76.333 -19 -105 -33c-14.667 -12 -33 -33.667 -55 -65s-33 -65.666 -33 -102.999c0 -12 2 -25 6 -39zM140.999 1087c0 24.667 14.998 43.834 44.998 57.501s55.333 22.5 76 26.5c158.667 16.667 325.334 25 500.001 25
c87.333 0 154.333 -8.33301 201 -25c10.667 -5.33301 23.334 -16.666 38.001 -33.999c15.333 -19.333 23 -49.333 23 -90v-648l-29 -356c0 -26 -16.333 -39 -49 -39h2l-157 2c-120.667 1.33301 -224 2.66602 -310 3.99902c-86 0 -153.333 0.666992 -202 2
c-30.667 0 -50.667 13.667 -60 41s-14 50.666 -14 69.999l-53 598zM802.997 1522c-64 0 -131.667 -12.334 -203 -37.001c-69.333 -24.667 -133.333 -52.667 -192 -84c-60.667 -31.333 -108 -60 -142 -86c-2.66699 -4 -6 -6 -10 -6c-8 0 -12.667 5.33301 -14 16
c-2.66699 10.667 -4 19.667 -4 27l10 102c0 12.667 4 23 12 31c6.66699 6.66699 13 11.334 19 14.001l229 123l274 12c16.667 -8 31 -29.667 43 -65c0 -31.333 -7.33301 -47 -22 -47z" />
    <glyph glyph-name="ograve" unicode="&#xf2;" 
d="M358 739l75.999 -463.003c0 -9.33301 2 -14 6 -14c2.66699 0 6.33398 2 11.001 6c4 2.66699 6.66699 5.33398 8 8.00098l264 -43c12 0 25 4.33301 39 13c12 6.66699 18 13.334 18 20.001l49 309l-2 367c-16 16.667 -38.333 29 -67 37c-27.333 8 -59.333 12 -96 12
c-40 0 -79.667 -4 -119 -12c-41.333 -8 -76.333 -19 -105 -33c-14.667 -12 -33 -33.667 -55 -65s-33 -65.666 -33 -102.999c0 -12 2 -25 6 -39zM140.999 1087c0 24.667 14.998 43.834 44.998 57.501s55.333 22.5 76 26.5c158.667 16.667 325.334 25 500.001 25
c87.333 0 154.333 -8.33301 201 -25c10.667 -5.33301 23.334 -16.666 38.001 -33.999c15.333 -19.333 23 -49.333 23 -90v-648l-29 -356c0 -26 -16.333 -39 -49 -39h2l-157 2c-120.667 1.33301 -224 2.66602 -310 3.99902c-86 0 -153.333 0.666992 -202 2
c-30.667 0 -50.667 13.667 -60 41s-14 50.666 -14 69.999l-53 598zM310.997 1548c-6.66699 5.33301 -12.666 9.66602 -17.999 12.999c-6.66699 4 -11.334 6.66699 -14.001 8h-7c15.333 36.667 29 58.334 41 65.001l244 -4l213 -139c12 -4 27.667 -11.667 47 -23
c18 -10.667 27 -22 27 -34l-15 -82c1.33301 0 2 -0.666992 2 -2s-4 -2 -12 -2c-110.667 18.667 -207 43.667 -289 75c-80 31.333 -153 73 -219 125z" />
    <glyph glyph-name="ocircumflex" unicode="&#xf4;" 
d="M358 739l75.999 -463.003c0 -9.33301 2 -14 6 -14c2.66699 0 6.33398 2 11.001 6c4 2.66699 6.66699 5.33398 8 8.00098l264 -43c12 0 25 4.33301 39 13c12 6.66699 18 13.334 18 20.001l49 309l-2 367c-16 16.667 -38.333 29 -67 37c-27.333 8 -59.333 12 -96 12
c-40 0 -79.667 -4 -119 -12c-41.333 -8 -76.333 -19 -105 -33c-14.667 -12 -33 -33.667 -55 -65s-33 -65.666 -33 -102.999c0 -12 2 -25 6 -39zM140.999 1087c0 24.667 14.998 43.834 44.998 57.501s55.333 22.5 76 26.5c158.667 16.667 325.334 25 500.001 25
c87.333 0 154.333 -8.33301 201 -25c10.667 -5.33301 23.334 -16.666 38.001 -33.999c15.333 -19.333 23 -49.333 23 -90v-648l-29 -356c0 -26 -16.333 -39 -49 -39h2l-157 2c-120.667 1.33301 -224 2.66602 -310 3.99902c-86 0 -153.333 0.666992 -202 2
c-30.667 0 -50.667 13.667 -60 41s-14 50.666 -14 69.999l-53 598zM878.997 1339l-312 97.002l-254 -88c-14.667 0 -22 11.333 -22 34c0 10 0.666992 20.333 2 31l2 17c20.667 21.333 48 47.666 82 78.999l74 70l122 41c16.667 -10.667 44.667 -27 84 -49l111 -64.5
c35.333 -19.667 62 -35.834 80 -48.501c4 -2.66699 17.667 -19.667 41 -51c6.66699 0 10 -13 10 -39c0 -19.333 -6.66699 -29 -20 -29z" />
    <glyph glyph-name="odieresis" unicode="&#xf6;" horiz-adv-x="1126" 
d="M338 739l75.999 -463.003c0 -9.33301 2 -14 6 -14s7.33301 2 10 6c4 2.66699 6.66699 5.33398 8 8.00098l264 -43c12.667 0 25.667 4.33301 39 13c12.667 6.66699 19 13.334 19 20.001l49 309l-2 367c-34 32.667 -88.667 49 -164 49c-39.333 0 -79.666 -4 -120.999 -12
c-39.333 -8 -73.333 -19 -102 -33c-15.333 -12 -33.833 -33.667 -55.5 -65s-32.5 -65.666 -32.5 -102.999c0 -12 2 -25 6 -39zM120.999 1087c0 24.667 15.666 44.002 46.999 58.002c30 13.333 54.667 22 74 26c64 7.33301 141.667 13.666 233 18.999
c92.667 4 181.334 6 266.001 6c87.333 0 154.333 -8.33301 201 -25c10.667 -5.33301 23.667 -16.666 39 -33.999c15.333 -19.333 23 -49.333 23 -90v-648l-29 -356c0 -26 -16.333 -39 -49 -39h-84c-56 1.33301 -140 2.66602 -252 3.99902s-188.667 2 -230 2
c-40.667 1.33301 -74.667 2 -102 2c-30 0 -49.833 13.667 -59.5 41s-14.5 50.666 -14.5 69.999l-53 598zM345.998 1346c-5.33301 0 -8 47.666 -8 142.999c0 82 6 123 18 123c18 0 54.333 2.66699 109 8c53.333 2.66699 85.333 5.33398 96 8.00098
c0 -22 -9.66699 -77.333 -29 -166c-18.667 -88.667 -28 -133.667 -28 -135zM642.998 1346c-5.33301 0 -8 47.666 -8 142.999c0 82 6 123 18 123c18 0 54.333 2.66699 109 8c53.333 2.66699 85.333 5.33398 96 8.00098c0 -22 -9.66699 -77.333 -29 -166
c-18.667 -88.667 -28 -133.667 -28 -135z" />
    <glyph glyph-name="otilde" unicode="&#xf5;" horiz-adv-x="1106" 
d="M121 1087c0 24.667 15.666 44.002 46.999 58.002c30 13.333 54.667 22 74 26c64 7.33301 141.667 13.666 233 18.999c92.667 4 181.334 6 266.001 6c87.333 0 154.333 -8.33301 201 -25c10.667 -5.33301 23.667 -16.666 39 -33.999c15.333 -19.333 23 -49.333 23 -90
v-648l-29 -356c0 -26 -16.333 -39 -49 -39h-84c-56 1.33301 -140 2.66602 -252 3.99902s-188.667 2 -230 2c-40.667 1.33301 -74.667 2 -102 2c-30 0 -49.833 13.667 -59.5 41s-14.5 50.666 -14.5 69.999l-53 598zM503.999 266.002l197.999 -33.002
c12.667 0 25.667 4.33301 39 13c12.667 6.66699 19 13.334 19 20.001l49 309l-2 367c-34 32.667 -88.667 49 -164 49c-39.333 0 -79.666 -4 -120.999 -12c-39.333 -8 -73.333 -19 -102 -33c-15.333 -12 -33.833 -33.667 -55.5 -65s-32.5 -65.666 -32.5 -102.999
c0 -12 2 -25 6 -39l65 -401c0 -36.667 33.667 -60.667 101 -72zM914.998 1475c-26.667 -24 -47.502 -41.4971 -62.502 -52.4971s-39.167 -24.167 -72.5 -39.5c-26.667 -13.333 -53.667 -20 -81 -20c-16 0 -30 2.66699 -42 8c-25.333 11.333 -52.666 24.666 -81.999 39.999
s-56.5 28.5 -81.5 39.5s-51.5 19.167 -79.5 24.5c-32.667 0 -72 -25 -118 -75c-2.66699 -2 -6.66699 -3 -12 -3c-12.667 0 -24 4 -34 12l-68 62c0 26 5 42.333 15 49c42 36.667 73.5 62 94.5 76s44.5 21 70.5 21c5.33301 0 12.666 -0.666992 21.999 -2
c50 0 114 -17.667 192 -53c58.667 -26.667 89.334 -40.334 92.001 -41.001c14.667 -7.33301 26.334 -11 35.001 -11c6 0 15.667 3 29 9c13.333 4.66699 28.333 12.5 45 23.5l47 32c14.667 10.333 26 17.666 34 21.999s15.667 6.5 23 6.5c11.333 -7.33301 27 -22.333 47 -45z
" />
    <glyph glyph-name="uacute" unicode="&#xfa;" 
d="M274 0c-31.333 0 -51 14.3311 -59 42.998c-9.33301 30 -14 54.667 -14 74l-62 600l-12 438c0 12.667 2.66699 21 8 25c5.33301 2.66699 10.333 4 15 4h133c10.667 0 16.667 -2.66699 18 -8c2.66699 -6 4 -11 4 -15l139 -850c0 -10.667 2.33301 -18 7 -22
c2.66699 -5.33301 5.33398 -8 8.00098 -8l264 -43c19.333 0 29 5.33301 29 16l49 315l39 578c1.33301 8 4.66602 15.167 9.99902 21.5s10 10.833 14 13.5c20.667 0 68 2 142 6c2.66699 -1.33301 6 -2.66602 10 -3.99902s6.66699 -2.66602 8 -3.99902v-19l-2 -743l-10 -363
c0 -18.667 -8.33301 -33 -25 -43c-17.333 -8 -31 -12 -41 -12h-672zM844 1513c-64 -1.33301 -131.667 -14 -203 -38c-72.667 -24.667 -137.667 -52 -195 -82c-58.667 -31.333 -105 -60 -139 -86c-2.66699 -4.66699 -6 -7 -10 -7c-8 0 -13.333 5.66699 -16 17
c-1.33301 9.33301 -2 18 -2 26l10 103c0 12 4 22.333 12 31c6.66699 8 12.667 12.667 18 14l230 123l274 12c16.667 -8 31 -29.667 43 -65c0 -32 -7.33301 -48 -22 -48z" />
    <glyph glyph-name="ugrave" unicode="&#xf9;" 
d="M274 0c-31.333 0 -51 14.3311 -59 42.998c-9.33301 30 -14 54.667 -14 74l-62 600l-12 438c0 12.667 2.66699 21 8 25c5.33301 2.66699 10.333 4 15 4h133c10.667 0 16.667 -2.66699 18 -8c2.66699 -6 4 -11 4 -15l139 -850c0 -10.667 2.33301 -18 7 -22
c2.66699 -5.33301 5.33398 -8 8.00098 -8l264 -43c19.333 0 29 5.33301 29 16l49 315l39 578c1.33301 8 4.66602 15.167 9.99902 21.5s10 10.833 14 13.5c20.667 0 68 2 142 6c2.66699 -1.33301 6 -2.66602 10 -3.99902s6.66699 -2.66602 8 -3.99902v-19l-2 -743l-10 -363
c0 -18.667 -8.33301 -33 -25 -43c-17.333 -8 -31 -12 -41 -12h-672zM311 1548c-6.66699 5.33301 -12.666 9.66602 -17.999 12.999c-6.66699 4 -11.334 6.66699 -14.001 8h-7c15.333 36.667 29 58.334 41 65.001l244 -4l213 -139c12 -4 27.667 -11.667 47 -23
c18 -10.667 27 -22 27 -34l-15 -82c1.33301 0 2 -0.666992 2 -2s-4 -2 -12 -2c-110.667 18.667 -207 43.667 -289 75c-80 31.333 -153 73 -219 125z" />
    <glyph glyph-name="ucircumflex" unicode="&#xfb;" 
d="M274 0c-31.333 0 -51 14.3311 -59 42.998c-9.33301 30 -14 54.667 -14 74l-62 600l-12 438c0 12.667 2.66699 21 8 25c5.33301 2.66699 10.333 4 15 4h133c10.667 0 16.667 -2.66699 18 -8c2.66699 -6 4 -11 4 -15l139 -850c0 -10.667 2.33301 -18 7 -22
c2.66699 -5.33301 5.33398 -8 8.00098 -8l264 -43c19.333 0 29 5.33301 29 16l49 315l39 578c1.33301 8 4.66602 15.167 9.99902 21.5s10 10.833 14 13.5c20.667 0 68 2 142 6c2.66699 -1.33301 6 -2.66602 10 -3.99902s6.66699 -2.66602 8 -3.99902v-19l-2 -743l-10 -363
c0 -18.667 -8.33301 -33 -25 -43c-17.333 -8 -31 -12 -41 -12h-672zM848 1360l-311.001 96.001l-254 -88c-15.333 0 -23 11.667 -23 35c0 8 0.666992 18.333 2 31l2 16c20.667 22 47.334 48.667 80.001 80s58 54.333 76 69l123 41c26 -17.333 73 -44.333 141 -81
c68 -38.667 112.333 -65.334 133 -80.001c4 -2.66699 17.667 -20 41 -52c6.66699 0 10 -12.667 10 -38c0 -19.333 -6.66699 -29 -20 -29z" />
    <glyph glyph-name="udieresis" unicode="&#xfc;" horiz-adv-x="1126" 
d="M254 0c-30 0 -49.6689 14.332 -59.002 42.999c-10 30 -15 54.667 -15 74l-61 600l-13 438c0 12.667 3 21 9 25c5.33301 2.66699 10 4 14 4h133c9.33301 0 15.5 -2.83301 18.5 -8.5s4.5 -10.5 4.5 -14.5l139 -850c0 -10.667 2 -18 6 -22
c2.66699 -5.33301 5.33398 -8 8.00098 -8l264 -43c19.333 0 29 5.33301 29 16l49 315l39 578c0 8 3.16699 15.167 9.5 21.5s11.5 10.833 15.5 13.5c20 0 67 2 141 6c6.66699 -2.66699 11.334 -4 14.001 -4c1.33301 -1.33301 3 -2.66602 5 -3.99902v-19l-3 -743l-10 -363
c0 -18.667 -8 -33 -24 -43c-18 -8 -31.667 -12 -41 -12h-672zM345.998 1346c-5.33301 0 -8 47.666 -8 142.999c0 82 6 123 18 123c18 0 54.333 2.66699 109 8c53.333 2.66699 85.333 5.33398 96 8.00098c0 -22 -9.66699 -77.333 -29 -166
c-18.667 -88.667 -28 -133.667 -28 -135zM642.998 1346c-5.33301 0 -8 47.666 -8 142.999c0 82 6 123 18 123c18 0 54.333 2.66699 109 8c53.333 2.66699 85.333 5.33398 96 8.00098c0 -22 -9.66699 -77.333 -29 -166c-18.667 -88.667 -28 -133.667 -28 -135z" />
    <glyph glyph-name="degree" unicode="&#xb0;" horiz-adv-x="492" 
d="M394 1613c19.333 -5.33301 28.999 -41.667 28.999 -109c0 -31.333 -2 -60.666 -6 -87.999c-3.33301 -26.667 -7.5 -46.5 -12.5 -59.5s-14.5 -21.833 -28.5 -26.5c-43.333 -9.33301 -86.333 -14 -129 -14c-89.333 0 -140 10 -152 30c-16 64.667 -24.667 122 -26 172
c0 34 2.66699 58 8 72c2 5.33301 5 11.166 9 17.499s17.833 11.833 41.5 16.5s64.834 7 123.501 7c61.333 0 109 -6 143 -18zM332.999 1481c0 36.667 -10.333 57.333 -31 62c-18.667 5.33301 -37.667 8 -57 8c-31.333 0 -52.833 -5 -64.5 -15s-17.5 -31.667 -17.5 -65
c0 -24 5.66699 -42.667 17 -56s36.333 -20 75 -20c34 0 55.5 6.83301 64.5 20.5s13.5 35.5 13.5 65.5z" />
    <glyph glyph-name="section" unicode="&#xa7;" horiz-adv-x="1085" 
d="M631 684c43.333 0 80.001 3.99902 110.001 11.999c31.333 8.66699 47 21 47 37c0 24.667 -21.667 51.334 -65 80.001c-45.333 30 -95.333 56.667 -150 80c-54 22 -86.667 33 -98 33c-20.667 0 -45.334 -5 -74.001 -15c-30 -9.33301 -45 -27 -45 -53
c0 -22 16.667 -49.333 50 -82c14.667 -13.333 41 -31 79 -53c40 -22 88.667 -35 146 -39zM864.001 1434c-27.333 0 -71.002 -0.661133 -131.002 -1.99414c-61.333 -1.33301 -113.166 -3.83301 -155.499 -7.5s-83.333 -8.83398 -123 -15.501s-66.834 -16.334 -81.501 -29.001
v2c-1.33301 0 -4 -4 -8 -12c-7.33301 -9.33301 -11 -21 -11 -35c0 -32.667 20 -70.667 60 -114c38 -44 107.667 -93.333 209 -148c42 -14.667 97 -35 165 -61c67.333 -27.333 108.333 -47.333 123 -60c-4 2.66699 -6.66699 4.66699 -8 6l-4 3l-2 2
c2.66699 0 11 -8.33301 25 -25c12 -18 23.333 -42 34 -72c11.333 -30 17 -66 17 -108c0 -2.66699 -3.33301 -19.667 -10 -51c-8.66699 -32 -13 -53.333 -13 -64s2.66699 -16 8 -16c-16 -28.667 -28.667 -46.667 -38 -54c-11.333 -8 -31.333 -18 -60 -30
c9.33301 -4 23.666 -15 42.999 -33c18 -18 33.667 -44.667 47 -80c14 -34 21 -88.667 21 -164c1.33301 -12 2 -23.667 2 -35v-49c0 -30 -2 -53.667 -6 -71c-16.667 -68.667 -49.667 -103 -99 -103l-725 -4c-26 0 -39 5.33301 -39 16c0 2 0.666992 5.66699 2 11
c2 5.33301 3.66699 8.66602 5 9.99902l24 119c0 17.333 6.33301 29 19 35c12 4 22 6 30 6c49.333 -2.66699 113 -4 191 -4c120 0 206 6 258 18c50.667 12 76 24.333 76 37c0 4 -3 6 -9 6c6 15.333 9 32.333 9 51c0 42.667 -15.667 79 -47 109c-33.333 30 -66.333 51 -99 63
c-31.333 14 -55 23 -71 27h-3c-8 0 -37.333 5.33301 -88 16c-61.333 15.333 -115.666 41.333 -162.999 78c-49.333 38 -74 93.333 -74 166c4 45.333 11.333 89.666 22 132.999c11.333 44 23 81 35 111c12.667 28.667 21 43.667 25 45c-26 13.333 -48 27 -66 41
c-17.333 12 -33.666 38 -48.999 78c-5.33301 13.333 -8.66602 27 -9.99902 41c-2.66699 13.333 -5.33398 33 -8.00098 59l-7 67c0 123.333 36.333 208 109 254c22 14 56.667 21 104 21h43c12.667 0 26.334 -0.666992 41.001 -2c37.333 0 66 1.33301 86 4h457
c5.33301 0 12.333 -1.33301 21 -4c6.66699 -2.66699 10 -8.33398 10 -17.001c0 -6.66699 -2.66699 -13.334 -8 -20.001l-37 -106c-1.33301 -7.33301 -7 -15 -17 -23c-10.667 -10.667 -27.667 -16 -51 -16z" />
    <glyph glyph-name="germandbls" unicode="&#xdf;" horiz-adv-x="1229" 
d="M569 -4c-38 2.66699 -56.999 15 -56.999 37c0 32.667 8.33301 65.334 25 98.001c14.667 34 27.334 59.333 38.001 76c96 0 158.333 10.333 187 31c34 22.667 59.167 52.5 75.5 89.5s24.5 74.5 24.5 112.5c0 34.667 -6 60 -18 76c-12.667 16.667 -54.334 35 -125.001 55
c-71.333 20.667 -144.333 40 -219 58c-26 5.33301 -39 22.333 -39 51l8 102c0 22 18.333 34.333 55 37c87.333 20.667 180.333 44.667 279 72c26 5.33301 43.667 15.5 53 30.5s14 32.833 14 53.5c-6.66699 48 -24.334 109.333 -53.001 184
c-28.667 75.333 -56 134.666 -82 177.999c-6.66699 19.333 -18.334 31.666 -35.001 36.999c-14.667 5.33301 -26.667 8 -36 8c-68.667 27.333 -145.334 41 -230.001 41c-56 0 -86 -45.667 -90 -137c-1.33301 -99.333 -3.33301 -239.333 -6 -420
c-4 -181.333 -6.66699 -337 -8 -467c-2.66699 -129.333 -4.66699 -259.666 -6 -390.999c-3.33301 -130.667 -5 -204.334 -5 -221.001c0 -44 -19 -73.333 -57 -88l-63 -27c-22 0 -36.5 7.5 -43.5 22.5s-10.5 27.5 -10.5 37.5l2 1718c0 50.667 12.333 89 37 115
s45.334 42.333 62.001 49l614 -12c9.33301 0 22.333 -3.66699 39 -11c18 -8 29.667 -22.333 35 -43l57 -159c20.667 -53.333 41.334 -113.666 62.001 -180.999c20 -65.333 37 -128 51 -188c13.333 -61.333 20 -111.333 20 -150c0 -24 -3.33301 -43.667 -10 -59
c-14.667 -31.333 -27.667 -55.333 -39 -72c-10.667 -16 -20 -28.333 -28 -37c-10 -6.66699 -20.333 -11.334 -31 -14.001c-12.667 -4 -22.334 -6.66699 -29.001 -8c-4 -1.33301 -6 -2.66602 -6 -3.99902s9 -7 27 -17c16 -8 31.667 -16.667 47 -26
c14.667 -11.333 28.334 -27 41.001 -47c12 -22 18 -49.333 18 -82l-100 -459c-4 -8 -12.333 -18.333 -25 -31c-12 -12 -29 -18 -51 -18h-369z" />
    <glyph glyph-name="acute" unicode="&#xb4;" horiz-adv-x="532" 
d="M635 1550c-62.667 -1.33301 -127.167 -13.834 -193.5 -37.501s-125.5 -51.167 -177.5 -82.5c-52 -30.667 -96.333 -59.667 -133 -87c-6.66699 -5.33301 -12.667 -8 -18 -8c-4.66699 0 -7 7 -7 21l11 102c0 12.667 4 23 12 31c6.66699 6.66699 12.667 11.334 18 14.001
l230 123l241 12c15.333 -8 30 -29.667 44 -65c0 -4 -2.33301 -8.66699 -7 -14c-4 -6 -10.667 -9 -20 -9z" />
    <glyph glyph-name="AE" unicode="&#xc6;" horiz-adv-x="1352" 
d="M840 951c12 -9.33301 40.332 -14.0029 84.999 -14.0029l142 6c50.667 0 87.334 -1.33301 110.001 -4c13.333 0 21.833 -8.33301 25.5 -25s5.5 -64.334 5.5 -143.001c-4.66699 -39.333 -18.334 -59 -41.001 -59c-86.667 -8 -153.667 -20 -201 -36
c-40.667 -11.333 -69.334 -22 -86.001 -32c8 -84.667 12 -167.667 12 -249c0 -20 1.16699 -35.5 3.5 -46.5s5.33301 -19.333 9 -25s7.83398 -10 12.501 -13s9.66699 -5.83301 15 -8.5c67.333 -36 146.333 -54 237 -54c21.333 0 57.333 2 108 6
c6.66699 0 11.667 -9.16699 15 -27.5s5.66602 -38.166 6.99902 -59.499s2.66602 -49.666 3.99902 -84.999c0 -32 -10 -48 -30 -48c-47.333 -8 -107.666 -14 -180.999 -18c-74 -5.33301 -120 -8 -138 -8c-21.333 2.66699 -39.333 4 -54 4
c-12.667 0 -25.334 -1.33301 -38.001 -4s-24.334 -4 -35.001 -4h-91c-10 0 -16.667 10.5 -20 31.5s-5.66602 31.833 -6.99902 32.5c-16 19.333 -26 113.666 -30 282.999c-29.333 -1.33301 -93.333 -7 -192 -17c-132.667 -12.667 -203.334 -24.334 -212.001 -35.001
c-3.33301 -2 -6.16602 -3.83301 -8.49902 -5.5s-4.16602 -4.5 -5.49902 -8.5s-4.16602 -18.167 -8.49902 -42.5s-8.83301 -51.833 -13.5 -82.5c-7.33301 -40 -17.333 -76.667 -30 -110s-25 -50 -37 -50l-110 2c-7.33301 0 -11 30.667 -11 92
c0 37.333 1.83301 93.166 5.5 167.499s6.83398 128.5 9.50098 162.5c8 134 18.667 286.333 32 457s28.333 322 45 454c7.33301 58.667 15.166 105.334 23.499 140.001s17.333 62.834 27 84.501s17.334 35.334 23.001 41.001s13.167 12.167 22.5 19.5
c7.33301 6.66699 20 10 38 10c44.667 2.66699 93.334 4.66699 146.001 6c51.333 1.33301 94.666 2 129.999 2c82.667 0.666992 146 2 190 4s91.5 5.83301 142.5 11.5s80.833 8.83398 89.5 9.50098c69.333 2.66699 140 4 212 4h102c18.667 0 28 -9.66699 28 -29
c0 -6.66699 -1 -13 -3 -19l-30 -103.5c-5.33301 -17.667 -10.333 -28.834 -15 -33.501s-14 -7 -28 -7c-84.667 -7.33301 -146.334 -13 -185.001 -17c-61.333 -8.66699 -102 -18.334 -122 -29.001s-40.333 -31.667 -61 -63c-34 -52 -51 -138.333 -51 -259
c0 -35.333 0.5 -58.666 1.5 -69.999s2.83301 -22.666 5.5 -33.999s6.33398 -28.666 11.001 -51.999zM638.999 839.997c0 -0.666992 1.00195 0.503906 3.00195 3.50391s3 5.16699 3 6.5c-7.33301 32.667 -14 66.5 -20 101.5l-16.5 96.5
c-5 29.333 -11.167 59.666 -18.5 90.999c-16.667 70.667 -30.167 121.5 -40.5 152.5s-19.333 50.833 -27 59.5s-17.5 15 -29.5 19c-12.667 0 -25.834 -3 -39.501 -9s-23.167 -9 -28.5 -9c-7.33301 -8 -12.5 -15.333 -15.5 -22s-5.33301 -13.834 -7 -21.501l-6.5 -30.5
l-63.5 -415.5c-17.667 -115.667 -28 -185.334 -31 -209.001s-4.5 -42.167 -4.5 -55.5c0 -8 1.33301 -13.167 4 -15.5s9 -3.5 19 -3.5c50 2.66699 117.333 7.66699 202 15c17.333 1.33301 35.166 3.16602 53.499 5.49902s33.833 3.5 46.5 3.5c18.667 0 32 -3.66699 40 -11
c-8 0 -12 0.333008 -12 1c-6 132 -9.66699 214.333 -11 247z" />
    <glyph glyph-name="Oslash" unicode="&#xd8;" horiz-adv-x="1208" 
d="M672 1391c-88.667 0 -169.001 -20 -241.001 -60c-18.667 -27.333 -41.667 -68.333 -69 -123c-15.333 -30 -26.166 -56.833 -32.499 -80.5s-9.5 -48.167 -9.5 -73.5c0 -18.667 2 -37.667 6 -57l47 -364l84 219zM482.999 339l273.999 -73.001c12.667 0 26 5.33301 40 16
s21 20.334 21 29.001l64 465l-27 402c-77.333 -156 -141.666 -292 -192.999 -408c-31.333 -70.667 -60 -139 -86 -205c-36 -81.333 -59.667 -137 -71 -167zM378.998 87.999c-26 -56.667 -48.668 -84.998 -68.001 -84.998c-5.33301 0 -12 1.66699 -20 5h-123
c-12 0 -18 8.33301 -18 25c0 4 11.833 41.167 35.5 111.5s35.5 112.166 35.5 125.499l-101 703l-12 495c0 34.667 16 64 48 88c30.667 23.333 56.334 40 77.001 50c47.333 5.33301 101.333 8 162 8c42 0 84.833 -1.33301 128.5 -4s95.5 -6.66699 155.5 -12s92 -8 96 -8
c9.33301 0 14 1 14 3c5.33301 14 30 21 74 21c52 0 95 -8.33301 129 -25c28 -14.667 42 -31 42 -49c0 -7.33301 -2.33301 -16.333 -7 -27l-31 -60c16.667 -12.667 34.334 -27.334 53.001 -44.001l21 -862l-40 -490c0 -34 -17.333 -51 -52 -51h-221
c-28 0 -76.833 7.16699 -146.5 21.5s-120.167 21.5 -151.5 21.5c-26.667 6.66699 -53.334 19.667 -80.001 39z" />
    <glyph glyph-name="mu" unicode="&#xb5;" horiz-adv-x="1137" 
d="M666 1241c8 0 13.3301 3.17383 15.9971 9.50684s4 11.5 4 15.5c0 39.333 1.33301 76.666 4 111.999c2.66699 36 6 71.667 10 107c4.66699 35.333 7 61.333 7 78c0 21.333 5.33301 35.666 16 42.999c8 6.66699 15.333 10 22 10l138 14c14.667 0 22 -6.66699 22 -20
c0 -7.33301 2 -29.333 6 -66l9 -121l6 -100c1.33301 -24.667 2 -42.334 2 -53.001c6.66699 -4 12.667 -8.5 18 -13.5s11 -9.5 17 -13.5l120 -12c11.333 0 19 -3.33301 23 -10c2.66699 -7.33301 4 -19.666 4 -36.999c-2.66699 -11.333 -7.33398 -30 -14.001 -56l-19 -67
c0 -14 -5.33301 -23.667 -16 -29c-12.667 -5.33301 -23 -8 -31 -8c-70.667 0 -106 -65.667 -106 -197v-794c0 -15.333 -3 -24.333 -9 -27c-6.66699 -4 -12 -6 -16 -6h-156c-9.33301 0 -15.333 2.66699 -18 8c-5.33301 5.33301 -8.66602 10.333 -9.99902 15l-21 815
c0 73.333 -8 122.333 -24 147c-16.667 23.333 -34.667 35 -54 35l-6 2c-6.66699 0 -14.667 0.666992 -24 2h-68c-70.667 0 -106 -65.667 -106 -197v-794c0 -15.333 -3 -24.333 -9 -27c-6.66699 -4 -12 -6 -16 -6h-156c-9.33301 0 -15.333 2.66699 -18 8
c-5.33301 5.33301 -8.66602 10.333 -9.99902 15l-21 815c0 73.333 -8 122.333 -24 147c-16.667 23.333 -34.667 35 -54 35c-14.667 0 -24.667 4.66699 -30 14c-7.33301 10 -11.666 18.333 -12.999 25c0 60 0.666992 101 2 123c0 17.333 4.83301 30.166 14.5 38.499
s17.834 13.166 24.501 14.499c18 2.66699 35.333 4.66699 52 6c8 0 13.333 3.16699 16 9.5s4 11.5 4 15.5c0 39.333 1.33301 76.666 4 111.999c2.66699 36 6 71.667 10 107c4.66699 35.333 7 61.333 7 78c0 21.333 5.33301 35.666 16 42.999c8 6.66699 15.333 10 22 10
l138 14c14.667 0 22 -6.66699 22 -20c0 -7.33301 2 -29.333 6 -66l9 -121l6 -100c1.33301 -24.667 2 -42.334 2 -53.001c6.66699 -4 12.667 -8.5 18 -13.5s11 -9.5 17 -13.5z" />
    <glyph glyph-name="ae" unicode="&#xe6;" horiz-adv-x="1536" 
d="M633 574l-0.00195312 19.999v8c-1.33301 14.667 -2.33301 28.334 -3 41.001c-96 -4 -162.667 -8 -200 -12c-71.333 -8 -116.333 -22.167 -135 -42.5s-33 -51.833 -43 -94.5c-9.33301 -40 -15.666 -121.333 -18.999 -244c0 -18.667 5.5 -30.834 16.5 -36.501
s39.833 -8.5 86.5 -8.5c40 0 123 2.66699 249 8c30.667 2 50.334 19.667 59.001 53c-7.33301 46.667 -11 149.334 -11 308.001zM816.998 813.999c6 -53.333 10.335 -107.664 13.002 -162.997c0.666992 -22 3.66699 -36 9 -42s15 -9 29 -9h38
c57.333 0 110.666 4.16699 159.999 12.5s90.5 19.666 123.5 33.999s52.833 28.166 59.5 41.499c22 38 33 79 33 123c0 49.333 -15.667 102.666 -47 159.999c-9.33301 16.667 -30 30.334 -62 41.001c-140 0 -236 -27.333 -288 -82
c-32.667 -34.667 -55.334 -73.334 -68.001 -116.001zM910 258.001c43.333 -31.333 112.668 -48.9941 208.001 -52.9941l288 -10c12.667 0 20.5 -2.5 23.5 -7.5s4.5 -16.833 4.5 -35.5c-8.66699 -104 -30 -156 -64 -156c-137.333 0 -272 0.166992 -404 0.5
s-205.5 0.666016 -220.5 0.999023s-22.5 1.5 -22.5 3.5c0 0.666992 3.66699 2.33398 11 5.00098l-582 -6c-33.333 0 -55.166 8.5 -65.499 25.5s-16.166 38.5 -17.499 64.5c4 172 10 308 18 408c7.33301 98 15.333 167.667 24 209c11.333 24.667 23 42 35 52
s20.667 15.667 26 17c35.333 6.66699 106.666 18.334 213.999 35.001c108.667 16.667 170.667 25 186 25c16 0 24 9.33301 24 28c0 19.333 -8 46.666 -24 81.999c-2 6.66699 -24.333 13.667 -67 21c-42.667 8 -95.667 15.333 -159 22l-149 19c-36.667 4 -56 7.33301 -58 10
c0 13.333 5 35.666 15 66.999c26 68 43.333 102 52 102c0.666992 0 1.5 -0.333008 2.5 -1s1.5 -1.33398 1.5 -2.00098c13.333 1.33301 33 2.66602 59 3.99902c-2 0 1.16699 0.166992 9.5 0.5s18 0.666016 29 0.999023s29.833 0.5 56.5 0.5c44 0 91.667 -1.16699 143 -3.5
s92 -5.83301 122 -10.5c0 2.66699 3.66699 4 11 4c25.333 0 49.666 -10 72.999 -30c29.333 12.667 64.666 22.667 105.999 30c68.667 12 155.667 18 261 18c73.333 0 135.333 -3.33301 186 -10c51.333 -8 81.666 -17.667 90.999 -29c14.667 -17.333 28.667 -53.333 42 -108
s24.333 -116.334 33 -185.001c7.33301 -68 11 -132.667 11 -194c0 -71.333 -5.66699 -118 -17 -140c-12.667 -24 -53.334 -43.667 -122.001 -59c-68.667 -14.667 -140.667 -26.334 -216 -35.001c-45.333 -4.66699 -95.166 -9.16699 -149.499 -13.5
s-86.166 -7.33301 -95.499 -9s-14 -5.16699 -14 -10.5c0 -0.666992 1.5 -5.83398 4.5 -15.501s4.5 -20.5 4.5 -32.5c6.66699 -16 17 -36.167 31 -60.5s27.667 -37.166 41 -38.499z" />
    <glyph glyph-name="oslash" unicode="&#xf8;" horiz-adv-x="1106" 
d="M588 989c-67.333 -6.66699 -123.333 -21 -168 -43c-18 -14 -37.167 -36.5 -57.5 -67.5s-30.5 -64.5 -30.5 -100.5c0 -1.33301 16 -99.333 48 -294l141 368zM516 263c19.333 -4 46.833 -8.49805 82.5 -13.498s70.167 -10.5 103.5 -16.5c17.333 0 31.333 6 42 18
s18.667 29.5 24 52.5s12.833 69.333 22.5 139l18.5 132.5l-2 336c-32 -54.667 -61.167 -108.334 -87.5 -161.001s-52.833 -114.334 -79.5 -185.001c-28.667 -65.333 -56.667 -133 -84 -203zM418 37.002c-14 -22 -27.999 -32.998 -41.999 -32.998
c-1.33301 0 -4.16602 0.333008 -8.49902 1s-13.5 1.33398 -27.5 2.00098s-50 1 -108 1c-12 0 -18 8.33301 -18 25s6 38.334 18 65.001l24 64c-16 17.333 -27.833 31.666 -35.5 42.999s-12.834 19.333 -15.501 24l-74 492l-10 366c0 21.333 12.833 39.166 38.5 53.499
s53.167 24.5 82.5 30.5c64 7.33301 141.667 13.666 233 18.999c46.667 2.66699 82.667 4 108 4c38.667 0 72.667 -3 102 -9c8 14.667 32.333 22 73 22c52 0 95.333 -8.66699 130 -26c12 -6 21.667 -12 29 -18s11 -16.333 11 -31c0 -9.33301 -1.66699 -18.333 -5 -27
c-5.33301 -10.667 -9.33301 -18.334 -12 -23.001c25.333 -18.667 46.666 -35.334 63.999 -50.001l29 -633l-29 -356c0 -15.333 -8 -25.666 -24 -30.999s-52.333 -8 -109 -8c-13.333 0 -56.333 -0.666992 -129 -2s-130 -2 -172 -2c-40.667 4.66699 -81.667 17 -123 37z" />
    <glyph glyph-name="Agrave" unicode="&#xc0;" horiz-adv-x="1352" 
d="M385 1630c61.333 2.66699 128.997 4.66602 202.997 5.99902c70.667 1.33301 130.667 2 180 2c48 1.33301 100.667 2 158 2c6.66699 0 15.334 -3.33301 26.001 -10c11.333 -5.33301 17.666 -17.666 18.999 -36.999c6.66699 -28.667 22.334 -80.334 47.001 -155.001
l67 -209c19.333 -64 42 -143.333 68 -238c24.667 -94 43.667 -181.333 57 -262c19.333 -112 29 -228.667 29 -350c0 -75.333 -1.33301 -134 -4 -176l-16 -168c0 -5.33301 -1.83301 -11.833 -5.5 -19.5s-11.5 -11.5 -23.5 -11.5h-168c-19.333 0 -29 11 -29 33
c1.33301 42 2 135.333 2 280c0 33.333 -17.667 50 -53 50c-39.333 -1.33301 -128 -7 -266 -17c-138 -9.33301 -228 -17.333 -270 -24c-7.33301 0 -15.666 -3.66699 -24.999 -11c-10.667 -6.66699 -18.5 -19.834 -23.5 -39.501s-13.5 -58.167 -25.5 -115.5
c-14 -57.333 -22.333 -97.666 -25 -120.999c-4 -15.333 -9.33301 -25.666 -16 -30.999c-8 -5.33301 -14.333 -8 -19 -8l-153 2c-16.667 0 -25 9 -25 27l31 395c10.667 134 25.667 286.333 45 457c18 170.667 39 322 63 454c23.333 134 48.666 223 75.999 267
c2.66699 5.33301 10.334 11.333 23.001 18c10.667 6.66699 28.334 10 53.001 10zM384.997 601.999c0 -14.667 2.00098 -25.001 6.00098 -31.001c4 -5.33301 14.333 -8 31 -8c105.333 4 206.333 8.83301 303 14.5s161.667 10.5 195 14.5
c17.333 2.66699 28.666 7.33398 33.999 14.001c6 8 9 19 9 33c-6 31.333 -24.667 101.666 -56 210.999l-94 309c-31.333 98.667 -51 157.334 -59 176.001c-8.66699 14 -17.667 23.667 -27 29c-9.33301 4 -16 6 -20 6c-48 0 -87 -6 -117 -18c-30 -14 -50.667 -38.667 -62 -74
zM384.998 1892c-6.66699 6 -12.668 10.333 -18.001 13c-7.33301 4 -12.333 6.66699 -15 8h-6c12.667 35.333 26.334 57 41.001 65l244 -4l213 -139c12 -4 27.667 -11.667 47 -23c18 -10.667 27 -22 27 -34l-15 -82c1.33301 0 2 -0.666992 2 -2s-4 -2 -12 -2
c-110.667 20 -207 45 -289 75c-80.667 32 -153.667 73.667 -219 125z" />
    <glyph glyph-name="Atilde" unicode="&#xc3;" horiz-adv-x="1352" 
d="M385 1630c61.333 2.66699 128.997 4.66602 202.997 5.99902c70.667 1.33301 130.667 2 180 2c48 1.33301 100.667 2 158 2c6.66699 0 15.334 -3.33301 26.001 -10c11.333 -5.33301 17.666 -17.666 18.999 -36.999c6.66699 -28.667 22.334 -80.334 47.001 -155.001
l67 -209c19.333 -64 42 -143.333 68 -238c24.667 -94 43.667 -181.333 57 -262c19.333 -112 29 -228.667 29 -350c0 -75.333 -1.33301 -134 -4 -176l-16 -168c0 -5.33301 -1.83301 -11.833 -5.5 -19.5s-11.5 -11.5 -23.5 -11.5h-168c-19.333 0 -29 11 -29 33
c1.33301 42 2 135.333 2 280c0 33.333 -17.667 50 -53 50c-39.333 -1.33301 -128 -7 -266 -17c-138 -9.33301 -228 -17.333 -270 -24c-7.33301 0 -15.666 -3.66699 -24.999 -11c-10.667 -6.66699 -18.5 -19.834 -23.5 -39.501s-13.5 -58.167 -25.5 -115.5
c-14 -57.333 -22.333 -97.666 -25 -120.999c-4 -15.333 -9.33301 -25.666 -16 -30.999c-8 -5.33301 -14.333 -8 -19 -8l-153 2c-16.667 0 -25 9 -25 27l31 395c10.667 134 25.667 286.333 45 457c18 170.667 39 322 63 454c23.333 134 48.666 223 75.999 267
c2.66699 5.33301 10.334 11.333 23.001 18c10.667 6.66699 28.334 10 53.001 10zM384.997 601.999c0 -14.667 2.00098 -25.001 6.00098 -31.001c4 -5.33301 14.333 -8 31 -8c105.333 4 206.333 8.83301 303 14.5s161.667 10.5 195 14.5
c17.333 2.66699 28.666 7.33398 33.999 14.001c6 8 9 19 9 33c-6 31.333 -24.667 101.666 -56 210.999l-94 309c-31.333 98.667 -51 157.334 -59 176.001c-8.66699 14 -17.667 23.667 -27 29c-9.33301 4 -16 6 -20 6c-48 0 -87 -6 -117 -18c-30 -14 -50.667 -38.667 -62 -74
zM888.998 1819c-22.667 -25.333 -40.167 -43.3291 -52.5 -53.9961s-32.166 -23.334 -59.499 -38.001c-21.333 -13.333 -43.333 -20 -66 -20c-14 0 -25.667 2.66699 -35 8c-17.333 9.33301 -39 22.166 -65 38.499s-49.5 30 -70.5 41s-42.833 19.167 -65.5 24.5
c-26.667 0 -59.334 -25 -98.001 -75c-2 -2 -5.33301 -3 -10 -3c-10 0 -19 4 -27 12l-56 62c0 26.667 3.66699 43 11 49c35.333 36.667 61.5 62 78.5 76s36.5 21 58.5 21c4 0 10 -0.666992 18 -2c41.333 0 94.333 -17.667 159 -53c48.667 -26.667 74 -40.334 76 -41.001
c12 -7.33301 21.667 -11 29 -11c5.33301 0 13.333 3 24 9c16.667 7.33301 39 23.166 67 47.499s46.667 36.5 56 36.5c9.33301 -7.33301 22.333 -22.333 39 -45z" />
    <glyph glyph-name="Otilde" unicode="&#xd5;" horiz-adv-x="1454" 
d="M135 1468c0 34.667 20.002 64.001 60.002 88.001c38 23.333 70 40 96 50c221.333 21.333 446 32 674 32c73.333 0 166.666 -19 279.999 -57c5.33301 -2.66699 15 -9.33398 29 -20.001c12 -12.667 24.333 -30.667 37 -54c10.667 -24.667 16 -56 16 -94v-874l-39 -482
c0 -21.333 -5.33301 -35 -16 -41c-12.667 -6.66699 -29 -10 -49 -10h-277c-117.333 0 -234 0.666992 -350 2h-274c-30.667 0 -52.667 11.667 -66 35c-16.667 24.667 -26.334 48.667 -29.001 72c-4 23.333 -6 40.333 -6 51l-71 807zM543.002 352.001l402.999 -86
c19.333 0 36.333 5.66699 51 17c16.667 10.667 25 20 25 28l80 465l-41 496c-82 79.333 -155.667 119 -221 119c-110.667 0 -211 -20 -301 -60c-23.333 -27.333 -52 -68.333 -86 -123c-36 -54.667 -54 -107 -54 -157c0 -15.333 3 -33.333 9 -54l94 -591
c2.66699 -8.66699 7.33398 -19.167 14.001 -31.5s15.667 -19.833 27 -22.5zM1103 1819c-26.667 -24 -47.502 -41.4971 -62.502 -52.4971s-39.167 -24.167 -72.5 -39.5c-26.667 -13.333 -53.667 -20 -81 -20c-16 0 -30 2.66699 -42 8
c-25.333 11.333 -52.666 24.666 -81.999 39.999s-56.5 28.5 -81.5 39.5s-51.5 19.167 -79.5 24.5c-32.667 0 -72 -25 -118 -75c-2.66699 -2 -6.66699 -3 -12 -3c-12.667 0 -24 4 -34 12l-68 62c0 26 5 42.333 15 49c42 36.667 73.5 62 94.5 76s44.5 21 70.5 21
c5.33301 0 12.666 -0.666992 21.999 -2c50 0 114 -17.667 192 -53c58.667 -26.667 89.334 -40.334 92.001 -41.001c14.667 -7.33301 26.334 -11 35.001 -11c6 0 15.667 3 29 9c13.333 4.66699 28.333 12.5 45 23.5l47 32c14.667 10.333 26 17.666 34 21.999
s15.667 6.5 23 6.5c11.333 -7.33301 27 -22.333 47 -45z" />
    <glyph glyph-name="OE" unicode="&#x152;" horiz-adv-x="1679" 
d="M1018 1602c57.333 9.33301 125.331 16.002 203.998 20.002c77.333 2.66699 155.666 4 234.999 4c63.333 0 103.666 -1.33301 120.999 -4s26 -6.66699 26 -12c0 -2 -0.166992 -3.83301 -0.5 -5.5s-0.833008 -3.5 -1.5 -5.5c0 -8 -1 -14.667 -3 -20l-27.5 -89
c-6.33301 -20.667 -12.833 -34.5 -19.5 -41.5s-18 -10.5 -34 -10.5c-94.667 -7.33301 -163.334 -13 -206.001 -17c-43.333 -5.33301 -76.333 -10.833 -99 -16.5s-37.167 -10.5 -43.5 -14.5s-12.166 -8.66699 -17.499 -14c-46.667 -33.333 -76.667 -89 -90 -167l3 -291
c2 -14.667 33 -22 93 -22c12 -0.666992 33 -0.333984 63 0.999023l155 4c48.667 0 78.334 -2.83301 89.001 -8.5s16 -17.167 16 -34.5v-110c-5.33301 -38.667 -20.666 -58 -45.999 -58c-96 -8 -170.333 -19.667 -223 -35c-82 -21.333 -126 -41 -132 -59
c-10 -65.333 -15 -108.333 -15 -129c0 -92.667 36.333 -157.667 109 -195c74.667 -35.333 162.334 -53 263.001 -53c24 0 64 2 120 6c10.667 0 17.5 -9.83301 20.5 -29.5s5.83301 -60.834 8.5 -123.501c0 -31.333 -11 -47 -33 -47c-52.667 -7.33301 -119.667 -13 -201 -17
c-76 -4.66699 -118 -7 -126 -7c-26 0 -59 3 -99 9c-44 6.66699 -75.333 10 -94 10c-10 0 -15 -1.33301 -15 -4c-10.667 -6.66699 -24 -10 -40 -10h-221c-94 0 -187.333 0.666992 -280 2h-219c-22 0 -39.5 11 -52.5 33s-20.833 46.667 -23.5 74
c-1.33301 14 -4.16602 51.167 -8.49902 111.5l-14.5 199l-17.5 246.5l-21.5 301l-12 495c0 50 41.667 96 125 138c176.667 21.333 356.334 32 539.001 32c30 0 70.333 -6.33301 121 -19s84 -19 100 -19c11.333 0 19.666 0.666992 24.999 2zM865.998 1016l-17.001 256
c-66 79.333 -125 119 -177 119c-88.667 0 -169 -20 -241 -60c-18.667 -27.333 -41.667 -68.333 -69 -123c-15.333 -30 -26.166 -56.833 -32.499 -80.5s-9.5 -48.167 -9.5 -73.5c0 -18.667 2 -37.667 6 -57l87 -622c5.33301 -12.667 12.333 -20.334 21 -23.001l323 -86
c12.667 0 26 5.33301 40 16s21 20.334 21 29.001l54 394z" />
    <glyph glyph-name="oe" unicode="&#x153;" horiz-adv-x="1536" 
d="M805 729c0 -52.667 5.66895 -87.499 17.002 -104.499s27.666 -25.5 48.999 -25.5c5.33301 0 10.166 0.166992 14.499 0.5s11.166 0.5 20.499 0.5c71.333 0 142.333 8.33301 213 25c72 14.667 115.333 35.667 130 63c22 38 33 79 33 123c0 30 -6.5 65 -19.5 105
s-31.833 67.667 -56.5 83c-14 8 -39 12 -75 12c-44 0 -89.667 -6.83301 -137 -20.5s-83.666 -33.834 -108.999 -60.501c-53.333 -56 -80 -123 -80 -201zM288.002 10.001c-32.667 1.33301 -60 2.00488 -82 2.00488c-25.333 0 -41.5 12.667 -48.5 38
s-10.5 49.666 -10.5 72.999l-42 598l-8 366c0 24.667 10.833 43.5 32.5 56.5s43.167 22.167 64.5 27.5c50.667 7.33301 112.667 13.666 186 18.999c74 4 145 6 213 6c79.333 0 135 -9.66699 167 -29c64.667 15.333 125 24.333 181 27c42.667 2.66699 87 4 133 4
c44.667 0 80.834 -0.833008 108.501 -2.5s55.5 -4.16699 83.5 -7.5c51.333 -8 81.666 -17.667 90.999 -29c28.667 -32.667 53.667 -130.334 75 -293.001c7.33301 -63.333 11 -126 11 -188c0 -76 -5.66699 -124.667 -17 -146c-12.667 -24 -53.334 -43.667 -122.001 -59
c-68.667 -14.667 -140.667 -26.334 -216 -35.001c-75.333 -8 -145.666 -13.333 -210.999 -16c-35.333 0 -53 -11.667 -53 -35c0 -18.667 9.5 -40.667 28.5 -66s38.167 -46.333 57.5 -63c42.667 -31.333 112 -49 208 -53c9.33301 0 51.833 -1 127.5 -3s122.5 -4 140.5 -6
s30.5 -6 37.5 -12s10.5 -16.667 10.5 -32c-8.66699 -104 -30 -156 -64 -156c-228 0 -399.667 0.833008 -515 2.5s-214.333 3.66699 -297 6s-172.667 4.16602 -270 5.49902zM514.002 991.006c-31.333 0 -63.332 -4.00098 -95.999 -12.001
c-42.667 -10.667 -69.834 -22 -81.501 -34s-26.5 -33.333 -44.5 -64c-16.667 -30 -25.667 -62.333 -27 -97c0 -6.66699 0.333008 -12 1 -16s1.16699 -7.83301 1.5 -11.5s0.833008 -6.66699 1.5 -9s1 -5.16602 1 -8.49902l52 -401c0 -36.667 27 -60.667 81 -72
c-2 0 17.667 -4.5 59 -13.5s73 -13.5 95 -13.5c34 0 51 9 51 27l26 202l-1 134l6 283c0.666992 2 1.66699 5.33301 3 10s2 11 2 19c0 51.333 -43.333 77 -130 77z" />
    <glyph glyph-name="quotedblleft.0" unicode="&#x201c;" horiz-adv-x="696" 
d="M121 1356c-5.33301 2.66699 -8 79.667 -8 231c0 128.667 6 193 18 193c31.333 0 71 4 119 12c46 6.66699 74.667 12 86 16c0 -34 -9.66699 -122 -29 -264l-28 -213zM418 1356c-5.33301 2.66699 -8 79.667 -8 231c0 128.667 6 193 18 193c31.333 0 71 4 119 12
c46 6.66699 74.667 12 86 16c0 -34 -9.66699 -123.333 -29 -268c-17.333 -139.333 -27 -209 -29 -209z" />
    <glyph glyph-name="quotedblright.0" unicode="&#x201d;" horiz-adv-x="696" 
d="M121 1356c-5.33301 2.66699 -8 79.667 -8 231c0 128.667 6 193 18 193c31.333 0 71 4 119 12c46 6.66699 74.667 12 86 16c0 -34 -9.66699 -122 -29 -264l-28 -213zM418 1356c-5.33301 2.66699 -8 79.667 -8 231c0 128.667 6 193 18 193c31.333 0 71 4 119 12
c46 6.66699 74.667 12 86 16c0 -34 -9.66699 -123.333 -29 -268c-17.333 -139.333 -27 -209 -29 -209z" />
    <glyph glyph-name="quoteleft.0" unicode="&#x2018;" horiz-adv-x="410" 
d="M121 1356c-5.33301 2.66699 -8 79.667 -8 231c0 128.667 6 193 18 193c31.333 0 71 4 119 12c46 6.66699 74.667 12 86 16c0 -34 -9.66699 -122 -29 -264l-28 -213z" />
    <glyph glyph-name="quoteright.0" unicode="&#x2019;" horiz-adv-x="410" 
d="M121 1356c-5.33301 2.66699 -8 79.667 -8 231c0 128.667 6 193 18 193c31.333 0 71 4 119 12c46 6.66699 74.667 12 86 16c0 -34 -9.66699 -122 -29 -264l-28 -213z" />
    <glyph glyph-name="ydieresis" unicode="&#xff;" horiz-adv-x="1096" 
d="M756 303c-1.33301 0 -2.00098 37.6699 -2.00098 113.003v223v111c0 8 -3 70.667 -9 188c-5.33301 118.667 -8.66602 188.334 -9.99902 209.001c0 13.333 4.33301 23 13 29c9.33301 4 16.666 6 21.999 6c44 8 87 12 129 12c28.667 0 46.334 -16.333 53.001 -49
c4 -24.667 9 -86 15 -184c5.33301 -100 9.33301 -249.667 12 -449s4 -449.333 4 -750c-14.667 -39.333 -33 -67.333 -55 -84c-22 -14.667 -39 -23.334 -51 -26.001c-72.667 -15.333 -143 -23 -211 -23c-108 0 -228.333 18 -361 54c-13.333 1.33301 -23 8 -29 20
c-6.66699 14 -10 25 -10 33l-14 74c-2.66699 0 -4 5.33301 -4 16c0 12 6.66699 18 20 18c8.66699 0 16.334 -1.33301 23.001 -4c96.667 -17.333 198.334 -26 305.001 -26c52 0 94.333 2 127 6c19.333 0 31.666 8 36.999 24c5.33301 18 8 32.333 8 43
c0 16.667 -0.666992 46 -2 88c-9.33301 27.333 -28.333 41 -57 41c-118 -14.667 -219 -22 -303 -22c-83.333 0 -147 6.66699 -191 20c-27.333 0 -50 28 -68 84c-16 57.333 -27.333 104.666 -34 141.999v104c0 101.333 4 208 12 320
c6.66699 113.333 25.667 277.666 57 492.999c0 6.66699 2 15.667 6 27c4.66699 9.33301 13.667 14 27 14c8 0 14 -1.33301 18 -4c72.667 -4 114.334 -6.66699 125.001 -8c16.667 0 25 -9 25 -27c0 -2.66699 -1.33301 -9.33398 -4 -20.001
c-6.66699 -36 -14.334 -83.333 -23.001 -142c-6.66699 -57.333 -14.834 -134.333 -24.501 -231s-17.167 -175.334 -22.5 -236.001l-8 -90c0 -39.333 2 -76.666 6 -111.999c2.66699 -36 5.33398 -60 8.00098 -72c33.333 -35.333 92.333 -53 177 -53
c34 0 69.333 3.33301 106 10c35.333 5.33301 68.666 14.333 99.999 27l35 34c15.333 14 23 23.667 23 29zM350.999 1338c-6 0 -9 47.667 -9 143c0 82 6.33301 123 19 123c17.333 0 53.333 2.66699 108 8c54.667 4 87 6.66699 97 8c0 -22 -9.66699 -78 -29 -168l-29 -133z
M647.999 1338c-6 0 -9 47.667 -9 143c0 82 6.33301 123 19 123c17.333 0 53.333 2.66699 108 8c54.667 4 87 6.66699 97 8c0 -22 -9.66699 -78 -29 -168l-29 -133z" />
    <glyph glyph-name="Ydieresis" unicode="&#x178;" horiz-adv-x="1331" 
d="M1262 555l-0.000976562 10.0029v-10c0 -32.667 -7 -111.334 -21 -236.001c-14.667 -122.667 -29 -211.334 -43 -266.001c-1.33301 -8 -4.66602 -18 -9.99902 -30c-6.66699 -12.667 -17 -19 -31 -19l-878 4c-22 0 -33 7 -33 21l80 161c2.66699 14 10.667 23 24 27
c14 5.33301 25 8 33 8c46.667 2.66699 111.667 8.33398 195 17.001c81.333 8 159 16.667 233 26c74 10 115 19 123 27c9.33301 9.33301 14 29.666 14 60.999v66c0 18 -10 27 -30 27c-49.333 -6 -104.666 -9 -165.999 -9c-102.667 0 -195 8.33301 -277 25
c-83.333 14.667 -140.666 27 -171.999 37c-39.333 0 -65.333 19 -78 57c-12 36.667 -18 68 -18 94l-29 828l-4 127c0 13.333 7 22.666 21 27.999c9.33301 2.66699 14.666 4 15.999 4h2l164 5c9.33301 0 21 -2.33301 35 -7c13.333 -4 20 -14 20 -30l68 -793
c1.33301 -16 4.66602 -27.667 9.99902 -35c2.66699 -5.33301 5.33398 -8 8.00098 -8l412 -59c14.667 0 25 2 31 6c4 2.66699 6 8 6 16l53 518l31 361c1.33301 17.333 12.666 26 33.999 26c94.667 0 142.667 1.66699 144 5c8 0 18.333 -2.33301 31 -7c12 -4 18 -14 18 -30
l-2 -539zM502.999 1737c-5.33301 0 -7.99902 37.334 -7.99902 112.001c0 82 6 123 18 123c27.333 0 65.666 2 114.999 6l90 11c0 -20.667 -9.66699 -71.334 -29 -152.001l-29 -119zM800 1737c-5.33301 0 -8 37.334 -8 112.001c0 82 6 123 18 123
c27.333 0 66.333 2.66699 117 8c48.667 4.66699 78 7.66699 88 9c0 -20.667 -9.66699 -71.334 -29 -152.001l-29 -119z" />
    <glyph glyph-name="guilsinglleft" unicode="&#x2039;" horiz-adv-x="471" 
d="M377 842l-91.999 -312l91 -253c0 -15.333 -11.667 -23 -35 -23h-6c-6.66699 0 -14.334 0.666992 -23.001 2c-10.667 1.33301 -16.667 2 -18 2c-29.333 27.333 -57.666 55.666 -84.999 84.999l-66 68l-42 123c10 16.667 20.333 35 31 55
c12.667 19.333 28.667 47.666 48 84.999c18.667 36 33.5 63.167 44.5 81.5l33.5 55.5c1.33301 2.66699 18.666 16.334 51.999 41.001c0 6.66699 12.667 10.334 38 11.001c19.333 0 29 -7 29 -21z" />
    <glyph glyph-name="guilsinglright" unicode="&#x203a;" horiz-adv-x="902" 
d="M105 318l108 306.001l-78 258c0.666992 14 10.667 21 30 21h6c8 0 17.5 -1 28.5 -3s17.167 -3 18.5 -3c28 -29.333 55 -59.333 81 -90l62 -71l35 -125c-10.667 -16 -21.667 -33.667 -33 -53c-14 -18.667 -31.667 -46.334 -53 -83.001c-20 -34.667 -36.333 -61 -49 -79
l-36 -54c-1.33301 -2 -19.333 -14.667 -54 -38c0 -6 -10.667 -9 -32 -9h-6c-18.667 1.33301 -28 8.33301 -28 21v2z" />
    <glyph glyph-name="quotesinglbase.0" unicode="&#x201a;" horiz-adv-x="410" 
d="M129 -300c-5.33301 2.66699 -8 79.667 -8 231c0 128.667 6 193 18 193c31.333 0 71 4 119 12c46 6.66699 74.667 12 86 16c0 -34 -9.66699 -122 -29 -264l-28 -213z" />
    <glyph glyph-name="quotedblbase.0" unicode="&#x201e;" horiz-adv-x="696" 
d="M121 -316c-5.33301 2.66699 -8 79.667 -8 231c0 128.667 6 193 18 193c31.333 0 71 4 119 12c46 6.66699 74.667 12 86 16c0 -34 -9.66699 -122 -29 -264l-28 -213zM418 -316c-5.33301 2.66699 -8 79.667 -8 231c0 128.667 6 193 18 193c31.333 0 71 4 119 12
c46 6.66699 74.667 12 86 16c0 -34 -9.66699 -123.333 -29 -268c-17.333 -139.333 -27 -209 -29 -209z" />
    <glyph glyph-name="Acircumflex" unicode="&#xc2;" horiz-adv-x="1352" 
d="M385 1630c61.333 2.66699 128.997 4.66602 202.997 5.99902c70.667 1.33301 130.667 2 180 2c48 1.33301 100.667 2 158 2c6.66699 0 15.334 -3.33301 26.001 -10c11.333 -5.33301 17.666 -17.666 18.999 -36.999c6.66699 -28.667 22.334 -80.334 47.001 -155.001
l67 -209c19.333 -64 42 -143.333 68 -238c24.667 -94 43.667 -181.333 57 -262c19.333 -112 29 -228.667 29 -350c0 -75.333 -1.33301 -134 -4 -176l-16 -168c0 -5.33301 -1.83301 -11.833 -5.5 -19.5s-11.5 -11.5 -23.5 -11.5h-168c-19.333 0 -29 11 -29 33
c1.33301 42 2 135.333 2 280c0 33.333 -17.667 50 -53 50c-39.333 -1.33301 -128 -7 -266 -17c-138 -9.33301 -228 -17.333 -270 -24c-7.33301 0 -15.666 -3.66699 -24.999 -11c-10.667 -6.66699 -18.5 -19.834 -23.5 -39.501s-13.5 -58.167 -25.5 -115.5
c-14 -57.333 -22.333 -97.666 -25 -120.999c-4 -15.333 -9.33301 -25.666 -16 -30.999c-8 -5.33301 -14.333 -8 -19 -8l-153 2c-16.667 0 -25 9 -25 27l31 395c10.667 134 25.667 286.333 45 457c18 170.667 39 322 63 454c23.333 134 48.666 223 75.999 267
c2.66699 5.33301 10.334 11.333 23.001 18c10.667 6.66699 28.334 10 53.001 10zM384.997 601.999c0 -14.667 2.00098 -25.001 6.00098 -31.001c4 -5.33301 14.333 -8 31 -8c105.333 4 206.333 8.83301 303 14.5s161.667 10.5 195 14.5
c17.333 2.66699 28.666 7.33398 33.999 14.001c6 8 9 19 9 33c-6 31.333 -24.667 101.666 -56 210.999l-94 309c-31.333 98.667 -51 157.334 -59 176.001c-8.66699 14 -17.667 23.667 -27 29c-9.33301 4 -16 6 -20 6c-48 0 -87 -6 -117 -18c-30 -14 -50.667 -38.667 -62 -74
zM908.998 1677l-311.002 97.001l-254 -88c-14.667 0 -22 11.333 -22 34c0 10 0.666992 20.333 2 31l2 16c34 36 64.667 66.333 92 91l63 59l123 41c16.667 -10.667 40 -24.334 70 -41.001l86 -49c24.667 -15.333 46.334 -27.666 65.001 -36.999
c18 -10.667 36 -22.334 54 -35.001c2.66699 -1.33301 16.334 -18.333 41.001 -51c6.66699 0 10 -13 10 -39c0 -19.333 -7 -29 -21 -29z" />
    <glyph glyph-name="Ecircumflex" unicode="&#xca;" horiz-adv-x="1188" 
d="M881 1626c-4.66699 1.33301 -6.99609 3.33496 -6.99609 6.00195c2 2.66699 10.333 4 25 4c24.667 0 48.667 -1.33301 72 -4c22 -2.66699 39.667 -4.66699 53 -6c26 0 39 -9 39 -27c0 -8 -1.33301 -14.667 -4 -20l-39 -92c0 -8 -4 -18.333 -12 -31
c-8.66699 -12 -25.334 -18 -50.001 -18c-118.667 -7.33301 -204.667 -13 -258 -17c-54.667 -5.33301 -97.667 -11.333 -129 -18c-32.667 -6.66699 -56.334 -15.667 -71.001 -27c-16.667 -9.33301 -34.667 -24.333 -54 -45c-47.333 -50.667 -71 -135.334 -71 -254.001
c0 -70.667 5.33301 -123.667 16 -159c2.66699 -15.333 45 -23 127 -23c20.667 0 43.334 0.666992 68.001 2c26 0 50.333 0.666992 73 2c22 0 40.667 0.666992 56 2h65c26 0 55.333 -1.33301 88 -4c28.667 0 43 -13 43 -39v-110c-4 -22 -12 -37.333 -24 -46
c-14 -8 -25 -12 -33 -12c-120 -8 -213 -19.667 -279 -35c-66.667 -13.333 -110.334 -25.666 -131.001 -36.999c-20 -10.667 -31.333 -18 -34 -22l-13 -66c-4 -21.333 -6 -42.333 -6 -63c0 -92.667 45.667 -157.667 137 -195c93.333 -35.333 202.666 -53 327.999 -53
c30 0 80 2 150 6c13.333 0 22.666 -13.667 27.999 -41l8 -112c0 -16.667 -2.66699 -28.334 -8 -35.001c-5.33301 -8 -16.333 -12 -33 -12c-65.333 -7.33301 -149 -13 -251 -17c-102.667 -5.33301 -166.334 -8 -191.001 -8c-4 0 -34 3.33301 -90 10s-109.333 15 -160 25
c-52 8 -82.667 16 -92 24c-10.667 8.66699 -21 56.667 -31 144c-9.33301 87.333 -18 207.333 -26 360c-10 152 -15.667 239.333 -17 262c-1.33301 15.333 -2 44 -2 86c0 79.333 3 164 9 254c4 92 10.667 174.667 20 248c9.33301 75.333 21 124.666 35 147.999
c10.667 16 53 29.667 127 41c72 9.33301 157.333 16 256 20c96.667 2.66699 194.334 4 293.001 4zM868.004 1677l-311.002 97.001l-254 -88c-14.667 0 -22 11.333 -22 34c0 10 0.666992 20.333 2 31l2 16c34 36 64.667 66.333 92 91l63 59l123 41
c16.667 -10.667 40 -24.334 70 -41.001l86 -49c24.667 -15.333 46.334 -27.666 65.001 -36.999c18 -10.667 36 -22.334 54 -35.001c2.66699 -1.33301 16.334 -18.333 41.001 -51c6.66699 0 10 -13 10 -39c0 -19.333 -7 -29 -21 -29z" />
    <glyph glyph-name="Aacute" unicode="&#xc1;" horiz-adv-x="1352" 
d="M385 1630c61.333 2.66699 128.997 4.66602 202.997 5.99902c70.667 1.33301 130.667 2 180 2c48 1.33301 100.667 2 158 2c6.66699 0 15.334 -3.33301 26.001 -10c11.333 -5.33301 17.666 -17.666 18.999 -36.999c6.66699 -28.667 22.334 -80.334 47.001 -155.001
l67 -209c19.333 -64 42 -143.333 68 -238c24.667 -94 43.667 -181.333 57 -262c19.333 -112 29 -228.667 29 -350c0 -75.333 -1.33301 -134 -4 -176l-16 -168c0 -5.33301 -1.83301 -11.833 -5.5 -19.5s-11.5 -11.5 -23.5 -11.5h-168c-19.333 0 -29 11 -29 33
c1.33301 42 2 135.333 2 280c0 33.333 -17.667 50 -53 50c-39.333 -1.33301 -128 -7 -266 -17c-138 -9.33301 -228 -17.333 -270 -24c-7.33301 0 -15.666 -3.66699 -24.999 -11c-10.667 -6.66699 -18.5 -19.834 -23.5 -39.501s-13.5 -58.167 -25.5 -115.5
c-14 -57.333 -22.333 -97.666 -25 -120.999c-4 -15.333 -9.33301 -25.666 -16 -30.999c-8 -5.33301 -14.333 -8 -19 -8l-153 2c-16.667 0 -25 9 -25 27l31 395c10.667 134 25.667 286.333 45 457c18 170.667 39 322 63 454c23.333 134 48.666 223 75.999 267
c2.66699 5.33301 10.334 11.333 23.001 18c10.667 6.66699 28.334 10 53.001 10zM384.997 601.999c0 -14.667 2.00098 -25.001 6.00098 -31.001c4 -5.33301 14.333 -8 31 -8c105.333 4 206.333 8.83301 303 14.5s161.667 10.5 195 14.5
c17.333 2.66699 28.666 7.33398 33.999 14.001c6 8 9 19 9 33c-6 31.333 -24.667 101.666 -56 210.999l-94 309c-31.333 98.667 -51 157.334 -59 176.001c-8.66699 14 -17.667 23.667 -27 29c-9.33301 4 -16 6 -20 6c-48 0 -87 -6 -117 -18c-30 -14 -50.667 -38.667 -62 -74
zM904.998 1874c-64 0 -131.666 -13.001 -202.999 -39.001c-69.333 -24.667 -133.333 -52.667 -192 -84c-60 -31.333 -107 -59.333 -141 -84c-1.33301 -4 -5 -6 -11 -6c-8 0 -13.333 5.33301 -16 16c-1.33301 11.333 -2 20.333 -2 27l10 102c0 12.667 4 23 12 31
c7.33301 6.66699 13.666 11.334 18.999 14.001l229 123l275 13c16 -10 30.333 -32 43 -66c0 -31.333 -7.66699 -47 -23 -47z" />
    <glyph glyph-name="Edieresis" unicode="&#xcb;" horiz-adv-x="1178" 
d="M958 1438c-118.667 -7.33301 -204.663 -12.998 -257.996 -16.998c-54.667 -5.33301 -97.667 -11.333 -129 -18c-32.667 -6.66699 -56.334 -15.667 -71.001 -27c-16.667 -9.33301 -34.667 -24.333 -54 -45c-47.333 -50.667 -71 -135.334 -71 -254.001
c0 -70.667 5.33301 -123.667 16 -159c2.66699 -15.333 45 -23 127 -23c20.667 0 43.334 0.666992 68.001 2c26 0 50.333 0.666992 73 2c22 0 40.667 0.666992 56 2h65c26 0 55.333 -1.33301 88 -4c28.667 0 43 -13 43 -39v-110c-4 -22 -12 -37.333 -24 -46
c-14 -8 -25 -12 -33 -12c-120 -8 -213 -19.667 -279 -35c-66.667 -13.333 -110.334 -25.666 -131.001 -36.999c-20 -10.667 -31.333 -18 -34 -22l-13 -66c-4 -21.333 -6 -42.333 -6 -63c0 -92.667 45.667 -157.667 137 -195c93.333 -35.333 202.666 -53 327.999 -53
c30 0 80 2 150 6c13.333 0 22.666 -13.667 27.999 -41l8 -112c0 -16.667 -2.66699 -28.334 -8 -35.001c-5.33301 -8 -16.333 -12 -33 -12c-65.333 -7.33301 -149 -13 -251 -17c-102.667 -5.33301 -166.334 -8 -191.001 -8c-4 0 -34 3.33301 -90 10s-109.333 15 -160 25
c-52 8 -82.667 16 -92 24c-10.667 8.66699 -21 56.667 -31 144c-9.33301 87.333 -18 207.333 -26 360c-10 152 -15.667 239.333 -17 262c-1.33301 15.333 -2 44 -2 86c0 79.333 3 164 9 254c4 92 10.667 174.667 20 248c9.33301 75.333 21 124.666 35 147.999
c10.667 16 53 29.667 127 41c72 9.33301 157.333 16 256 20c96.667 2.66699 194.334 4 293.001 4h143c26 0 39 -9 39 -27c0 -8 -1.33301 -14.667 -4 -20l-39 -92c0 -8 -4 -18.333 -12 -31c-8.66699 -12 -25.334 -18 -50.001 -18zM375.004 1737
c-5.33301 0 -7.99902 37.334 -7.99902 112.001c0 82 6 123 18 123c27.333 0 65.666 2 114.999 6l90 11c0 -20.667 -9.66699 -71.334 -29 -152.001l-29 -119zM672.005 1737c-5.33301 0 -8 37.334 -8 112.001c0 82 6 123 18 123c27.333 0 66.333 2.66699 117 8
c48.667 4.66699 78 7.66699 88 9c0 -20.667 -9.66699 -71.334 -29 -152.001l-29 -119z" />
    <glyph glyph-name="Egrave" unicode="&#xc8;" horiz-adv-x="1188" 
d="M958 1438c-118.667 -7.33301 -204.663 -12.998 -257.996 -16.998c-54.667 -5.33301 -97.667 -11.333 -129 -18c-32.667 -6.66699 -56.334 -15.667 -71.001 -27c-16.667 -9.33301 -34.667 -24.333 -54 -45c-47.333 -50.667 -71 -135.334 -71 -254.001
c0 -70.667 5.33301 -123.667 16 -159c2.66699 -15.333 45 -23 127 -23c20.667 0 43.334 0.666992 68.001 2c26 0 50.333 0.666992 73 2c22 0 40.667 0.666992 56 2h65c26 0 55.333 -1.33301 88 -4c28.667 0 43 -13 43 -39v-110c-4 -22 -12 -37.333 -24 -46
c-14 -8 -25 -12 -33 -12c-120 -8 -213 -19.667 -279 -35c-66.667 -13.333 -110.334 -25.666 -131.001 -36.999c-20 -10.667 -31.333 -18 -34 -22l-13 -66c-4 -21.333 -6 -42.333 -6 -63c0 -92.667 45.667 -157.667 137 -195c93.333 -35.333 202.666 -53 327.999 -53
c30 0 80 2 150 6c13.333 0 22.666 -13.667 27.999 -41l8 -112c0 -16.667 -2.66699 -28.334 -8 -35.001c-5.33301 -8 -16.333 -12 -33 -12c-65.333 -7.33301 -149 -13 -251 -17c-102.667 -5.33301 -166.334 -8 -191.001 -8c-4 0 -34 3.33301 -90 10s-109.333 15 -160 25
c-52 8 -82.667 16 -92 24c-10.667 8.66699 -21 56.667 -31 144c-9.33301 87.333 -18 207.333 -26 360c-10 152 -15.667 239.333 -17 262c-1.33301 15.333 -2 44 -2 86c0 79.333 3 164 9 254c4 92 10.667 174.667 20 248c9.33301 75.333 21 124.666 35 147.999
c10.667 16 53 29.667 127 41c72 9.33301 157.333 16 256 20c96.667 2.66699 194.334 4 293.001 4h143c26 0 39 -9 39 -27c0 -8 -1.33301 -14.667 -4 -20l-39 -92c0 -8 -4 -18.333 -12 -31c-8.66699 -12 -25.334 -18 -50.001 -18zM352.004 1901
c-8 6.66699 -15.333 11.998 -22 15.998c-8.66699 2.66699 -14.334 4 -17.001 4c14 35.333 27.667 57.333 41 66l244 -5l213 -139c12 -4 27.667 -10.667 47 -20c18 -11.333 27 -23.666 27 -36.999l-15 -82c1.33301 0 2 -0.666992 2 -2s-4 -2 -12 -2
c-69.333 12 -134.666 27.667 -195.999 47c-63.333 18 -120 39.667 -170 65c-52 24.667 -99.333 54.334 -142 89.001z" />
    <glyph glyph-name="Iacute" unicode="&#xcd;" horiz-adv-x="524" 
d="M387 1567c-4 -176 -8.00098 -340.666 -12.001 -493.999c-4 -151.333 -7.33301 -283 -10 -395c-3.33301 -110.667 -5.66602 -223.334 -6.99902 -338.001l-6 -260c0 -50.667 -15 -76 -45 -76l-133 -4c-26 0 -39 26.667 -39 80l6 1460c0 9.33301 10.333 21 31 35
c20.667 12 46 23 76 33c28.667 9.33301 54 14 76 14c42 0 63 -18.333 63 -55zM466.999 1825c-46.667 0 -90.3311 -7.66699 -130.998 -23c-41.333 -14.667 -77 -32.334 -107 -53.001c-28.667 -20.667 -56 -41.667 -82 -63l-77 -68c-1.33301 -4 -5 -6 -11 -6
c-8 0 -13.333 5.33301 -16 16c-1.33301 11.333 -2 20.333 -2 27l10 102c0 12.667 4 23 12 31c7.33301 6.66699 13.666 11.334 18.999 14.001l156 123l208 12c15.333 -8 29.666 -29.667 42.999 -65c0 -31.333 -7.33301 -47 -22 -47z" />
    <glyph glyph-name="Icircumflex" unicode="&#xce;" horiz-adv-x="524" 
d="M387 1567c-4 -176 -8.00098 -340.666 -12.001 -493.999c-4 -151.333 -7.33301 -283 -10 -395c-3.33301 -110.667 -5.66602 -223.334 -6.99902 -338.001l-6 -260c0 -50.667 -15 -76 -45 -76l-133 -4c-26 0 -39 26.667 -39 80l6 1460c0 9.33301 10.333 21 31 35
c20.667 12 46 23 76 33c28.667 9.33301 54 14 76 14c42 0 63 -18.333 63 -55zM337.999 1905c19.333 -27.333 43.333 -68.333 72 -123l41 -84c0 35.333 -3.66699 53 -11 53c-5.33301 0 -8 -9.66699 -8 -29c0 -2.66699 1.33301 -17.667 4 -45l-190 74l-156 -78
c-14.667 0 -22 4.33301 -22 13c0 8 4 22.833 12 44.5s12 35.5 12 41.5l146 147c4 1.33301 10.667 4 20 8c8 2.66699 17.667 4 29 4c23.333 0 40.333 -8.66699 51 -26z" />
    <glyph glyph-name="Idieresis" unicode="&#xcf;" horiz-adv-x="512" 
d="M387 1567c-4 -176 -8.00098 -340.666 -12.001 -493.999c-4 -151.333 -7.33301 -283 -10 -395c-3.33301 -110.667 -5.66602 -223.334 -6.99902 -338.001l-6 -260c0 -50.667 -15 -76 -45 -76l-133 -4c-26 0 -39 26.667 -39 80l6 1460c0 9.33301 10.333 21 31 35
c20.667 12 46 23 76 33c28.667 9.33301 54 14 76 14c42 0 63 -18.333 63 -55zM14.999 1737c-5.33301 0 -7.99902 37.334 -7.99902 112.001c0 82 6 123 18 123c27.333 0 65.666 2 114.999 6l90 11c0 -20.667 -9.66699 -71.334 -29 -152.001l-29 -119zM312 1737
c-5.33301 0 -8 37.334 -8 112.001c0 82 6 123 18 123c27.333 0 66.333 2.66699 117 8c48.667 4.66699 78 7.66699 88 9c0 -20.667 -9.66699 -71.334 -29 -152.001l-29 -119z" />
    <glyph glyph-name="Igrave" unicode="&#xcc;" horiz-adv-x="524" 
d="M387 1567c-4 -176 -8.00098 -340.666 -12.001 -493.999c-4 -151.333 -7.33301 -283 -10 -395c-3.33301 -110.667 -5.66602 -223.334 -6.99902 -338.001l-6 -260c0 -50.667 -15 -76 -45 -76l-133 -4c-26 0 -39 26.667 -39 80l6 1460c0 9.33301 10.333 21 31 35
c20.667 12 46 23 76 33c28.667 9.33301 54 14 76 14c42 0 63 -18.333 63 -55zM431.999 1710c-22 -16 -46.6689 -27.002 -74.002 -33.002c-20 -4 -39.667 -6 -59 -6c-30 0 -51 4 -63 12c-75.333 44 -134.333 94 -177 150c-10.667 10.667 -18 20.334 -22 29.001
c0 9.33301 2.66699 16 8 20c6.66699 5.33301 12 8.66602 16 9.99902c24.667 12.667 47.334 21 68.001 25c14 4 29 6 45 6c32.667 0 61.334 -13.667 86.001 -41c12.667 -12 25.667 -23.667 39 -35c13.333 -10.667 26.333 -20 39 -28c10.667 -8.66699 27 -19.667 49 -33
l35 -21c4 -1.33301 10 -4 18 -8c8.66699 -5.33301 13.667 -10.666 15 -15.999c0 -11.333 -7.66699 -21.666 -23 -30.999z" />
    <glyph glyph-name="Oacute" unicode="&#xd3;" horiz-adv-x="1454" 
d="M135 1468c0 34.667 20.002 64.001 60.002 88.001c38 23.333 70 40 96 50c221.333 21.333 446 32 674 32c73.333 0 166.666 -19 279.999 -57c5.33301 -2.66699 15 -9.33398 29 -20.001c12 -12.667 24.333 -30.667 37 -54c10.667 -24.667 16 -56 16 -94v-874l-39 -482
c0 -21.333 -5.33301 -35 -16 -41c-12.667 -6.66699 -29 -10 -49 -10h-277c-117.333 0 -234 0.666992 -350 2h-274c-30.667 0 -52.667 11.667 -66 35c-16.667 24.667 -26.334 48.667 -29.001 72c-4 23.333 -6 40.333 -6 51l-71 807zM543.002 352.001l402.999 -86
c19.333 0 36.333 5.66699 51 17c16.667 10.667 25 20 25 28l80 465l-41 496c-82 79.333 -155.667 119 -221 119c-110.667 0 -211 -20 -301 -60c-23.333 -27.333 -52 -68.333 -86 -123c-36 -54.667 -54 -107 -54 -157c0 -15.333 3 -33.333 9 -54l94 -591
c2.66699 -8.66699 7.33398 -19.167 14.001 -31.5s15.667 -19.833 27 -22.5zM967.001 1874c-66 0 -137.667 -13 -215 -39c-79.333 -24.667 -155.333 -53.334 -228 -86.001c-70.667 -32.667 -121 -60 -151 -82c-1.33301 -4 -5 -6 -11 -6c-8 0 -13.333 5.33301 -16 16
c-1.33301 11.333 -2 20.333 -2 27l10 102c0 12.667 4.33301 23 13 31c6.66699 6.66699 12.667 11.334 18 14.001l258 123l303 13c16.667 -10 31 -32 43 -66c0 -31.333 -7.33301 -47 -22 -47z" />
    <glyph glyph-name="Ocircumflex" unicode="&#xd4;" horiz-adv-x="1454" 
d="M135 1468c0 34.667 20.002 64.001 60.002 88.001c38 23.333 70 40 96 50c221.333 21.333 446 32 674 32c73.333 0 166.666 -19 279.999 -57c5.33301 -2.66699 15 -9.33398 29 -20.001c12 -12.667 24.333 -30.667 37 -54c10.667 -24.667 16 -56 16 -94v-874l-39 -482
c0 -21.333 -5.33301 -35 -16 -41c-12.667 -6.66699 -29 -10 -49 -10h-277c-117.333 0 -234 0.666992 -350 2h-274c-30.667 0 -52.667 11.667 -66 35c-16.667 24.667 -26.334 48.667 -29.001 72c-4 23.333 -6 40.333 -6 51l-71 807zM543.002 352.001l402.999 -86
c19.333 0 36.333 5.66699 51 17c16.667 10.667 25 20 25 28l80 465l-41 496c-82 79.333 -155.667 119 -221 119c-110.667 0 -211 -20 -301 -60c-23.333 -27.333 -52 -68.333 -86 -123c-36 -54.667 -54 -107 -54 -157c0 -15.333 3 -33.333 9 -54l94 -591
c2.66699 -8.66699 7.33398 -19.167 14.001 -31.5s15.667 -19.833 27 -22.5zM991.001 1688l-310.999 96.002l-254 -88c-15.333 0 -23 11.667 -23 35c0 9.33301 1 18.666 3 27.999c1.33301 11.333 2 17.666 2 18.999c27.333 28.667 56 56.667 86 84l69 65l123 41
c23.333 -16 70.333 -44 141 -84c71.333 -38 116 -64 134 -78c5.33301 -2.66699 18.666 -19.667 39.999 -51c7.33301 0 11 -13 11 -39c0 -18.667 -7 -28 -21 -28z" />
    <glyph glyph-name="Ograve" unicode="&#xd2;" horiz-adv-x="1454" 
d="M135 1468c0 34.667 20.002 64.001 60.002 88.001c38 23.333 70 40 96 50c221.333 21.333 446 32 674 32c73.333 0 166.666 -19 279.999 -57c5.33301 -2.66699 15 -9.33398 29 -20.001c12 -12.667 24.333 -30.667 37 -54c10.667 -24.667 16 -56 16 -94v-874l-39 -482
c0 -21.333 -5.33301 -35 -16 -41c-12.667 -6.66699 -29 -10 -49 -10h-277c-117.333 0 -234 0.666992 -350 2h-274c-30.667 0 -52.667 11.667 -66 35c-16.667 24.667 -26.334 48.667 -29.001 72c-4 23.333 -6 40.333 -6 51l-71 807zM543.002 352.001l402.999 -86
c19.333 0 36.333 5.66699 51 17c16.667 10.667 25 20 25 28l80 465l-41 496c-82 79.333 -155.667 119 -221 119c-110.667 0 -211 -20 -301 -60c-23.333 -27.333 -52 -68.333 -86 -123c-36 -54.667 -54 -107 -54 -157c0 -15.333 3 -33.333 9 -54l94 -591
c2.66699 -8.66699 7.33398 -19.167 14.001 -31.5s15.667 -19.833 27 -22.5zM385.001 1909c-6.66699 4 -14.333 7.33203 -23 9.99902c-8 1.33301 -13.333 2 -16 2c12.667 35.333 26.334 57.333 41.001 66l285 -5l254 -139c12 -4 27.667 -10.667 47 -20
c17.333 -11.333 26 -23.666 26 -36.999l-14 -82c1.33301 0 2.66602 0.666992 3.99902 2h1h-1h-6c-1.33301 1.33301 -4 2 -8 2c-288 50.667 -484.667 117.667 -590 201z" />
    </font>
</defs>
</svg>
